<?xml version="1.0" encoding="UTF-8"?>
<svg version="1.1" xmlns="http://www.w3.org/2000/svg" width="512" height="512">
<path d="M0 0 C168.96 0 337.92 0 512 0 C512 168.96 512 337.92 512 512 C343.04 512 174.08 512 0 512 C0 343.04 0 174.08 0 0 Z " fill="#FEFEFE" transform="translate(0,0)"/>
<path d="M0 0 C1.77117187 -0.05994141 1.77117187 -0.05994141 3.578125 -0.12109375 C14.27941361 0.666551 24.30168829 7.82727216 33.25 13.1875 C34.51335484 13.93632614 35.77703381 14.68460569 37.04101562 15.43237305 C46.41174126 20.98877816 55.7186172 26.65114613 65.01635742 32.32858276 C73.36746633 37.42721413 81.78789997 42.37840822 90.30493164 47.19482422 C96.98223351 50.97648658 103.57292852 54.88807206 110.14013672 58.85742188 C114.59101537 61.54640286 119.05435751 64.21031239 123.54296875 66.8359375 C124.51564697 67.40578369 125.4883252 67.97562988 126.49047852 68.56274414 C128.34703078 69.64870544 130.20544992 70.73148467 132.06616211 71.81030273 C144.25711254 78.95119119 155.39165568 86.0402758 161.25390625 99.39453125 C161.82934111 101.76423543 161.52537009 103.15246893 160.75 105.4375 C159.574375 104.2 159.574375 104.2 158.375 102.9375 C154.90275876 100.15649197 152.1609324 99.45418161 147.734375 99.72265625 C140.75920818 101.39340956 134.76291999 105.67036941 128.75 109.4375 C126.93237411 110.5626332 125.11466129 111.68762597 123.296875 112.8125 C119.24118851 115.33251841 115.19616826 117.86885117 111.15625 120.4140625 C104.75493986 124.44328372 98.31994497 128.41604555 91.875 132.375 C90.79702148 133.03757813 89.71904297 133.70015625 88.60839844 134.3828125 C84.22595966 137.07568348 79.84244343 139.76679808 75.45898438 142.45800781 C62.5771682 150.3684992 49.71349125 158.30535175 36.9074707 166.33813477 C32.84572439 168.88489108 28.78497242 171.43011279 24.6796875 173.90625 C12.89040659 181.0181132 0.82183133 188.50830095 -3.25 202.4375 C-3.82948169 207.69415879 -3.80830039 212.9235568 -3.78344727 218.20336914 C-3.7905147 219.78776347 -3.79926317 221.37215105 -3.80955505 222.95652771 C-3.8319629 227.23749878 -3.82913016 231.51809867 -3.82023358 235.79910588 C-3.81510707 239.3801867 -3.82242946 242.96119878 -3.82970566 246.54227251 C-3.84667628 254.99186641 -3.84316627 263.44127958 -3.82641602 271.89086914 C-3.80948369 280.59511752 -3.82535079 289.29886479 -3.8576389 298.00305849 C-3.88435928 305.49123873 -3.89160461 312.97926321 -3.88312382 320.46748632 C-3.87820342 324.93343992 -3.88036248 329.39909187 -3.90091133 333.8650074 C-3.91930806 338.06367271 -3.91326165 342.26161818 -3.88871193 346.46024513 C-3.88371729 347.99688104 -3.8871588 349.5335722 -3.89986038 351.07016373 C-3.96413697 359.51707223 -3.64686726 365.66027073 1.75 372.4375 C2.44490759 373.75633496 3.11927603 375.08679296 3.75 376.4375 C1.8116883 376.37586847 -0.12574781 376.286705 -2.0625 376.1875 C-3.14144531 376.14109375 -4.22039062 376.0946875 -5.33203125 376.046875 C-15.22975694 374.50744807 -23.34841234 369.9186131 -31.75 364.6875 C-33.96040387 363.33636619 -36.17136043 361.98613625 -38.3828125 360.63671875 C-38.94763336 360.29027817 -39.51245422 359.94383759 -40.09439087 359.5868988 C-46.23120721 355.82365804 -52.42639079 352.1603759 -58.625 348.5 C-60.89981245 347.15376896 -63.17455176 345.80741431 -65.44921875 344.4609375 C-66.57634277 343.79416992 -67.7034668 343.12740234 -68.86474609 342.44042969 C-77.19557631 337.51138518 -85.52227849 332.575367 -93.84873962 327.63894653 C-96.98560036 325.77933061 -100.12288727 323.92043794 -103.26074219 322.0625 C-104.65040118 321.23960116 -106.0400495 320.4166843 -107.4296875 319.59375 C-108.12175797 319.1839238 -108.81382843 318.7740976 -109.52687073 318.35185242 C-114.97260128 315.12568959 -120.41111547 311.88751691 -125.84739685 308.64546204 C-129.5494713 306.44038586 -133.26574286 304.26252921 -136.99609375 302.10546875 C-149.36384264 294.88841177 -159.33461788 286.8942955 -163.25 272.4375 C-164.01640873 267.8184705 -164.37821377 263.38208807 -164.39044189 258.7026825 C-164.39615204 257.38648926 -164.40186218 256.07029602 -164.40774536 254.71421814 C-164.40899043 253.27261362 -164.41011558 251.83100899 -164.41113281 250.3894043 C-164.41576662 248.8578174 -164.42079203 247.32623165 -164.42617798 245.79464722 C-164.43924791 241.64782874 -164.44573607 237.50102642 -164.45018864 233.35419059 C-164.4531275 230.7595147 -164.45723377 228.16484314 -164.46169281 225.57016945 C-164.47535212 217.44046383 -164.48502701 209.31076821 -164.4888947 201.18105191 C-164.49337483 191.81748467 -164.51092721 182.45406344 -164.5398953 173.09054059 C-164.56155007 165.83764624 -164.57160097 158.58479287 -164.57293582 151.33186656 C-164.57398092 147.00672166 -164.57982603 142.68171431 -164.59775543 138.35660362 C-164.61430247 134.28617959 -164.61635968 130.21599557 -164.60761642 126.14554977 C-164.60684965 124.65812217 -164.611141 123.1706813 -164.62107468 121.68328667 C-164.68542788 111.44077724 -163.97277177 102.18168651 -158.5 93.25 C-157.82710938 92.11498047 -157.82710938 92.11498047 -157.140625 90.95703125 C-151.3364653 83.222149 -144.33711197 78.76346698 -136 74 C-134.79709843 73.30169298 -133.59488211 72.6022044 -132.39331055 71.90161133 C-129.90659617 70.45293504 -127.41705835 69.00930574 -124.92529297 67.56933594 C-119.27739825 64.30021378 -113.67211253 60.95922417 -108.0625 57.625 C-105.81264418 56.2914234 -103.56264138 54.95809472 -101.3125 53.625 C-90.35609091 47.1308414 -79.40594266 40.62613006 -68.45529175 34.12226868 C-64.23501693 31.61589348 -60.01416823 29.11048778 -55.79286194 26.60585022 C-52.94207512 24.91438056 -50.09144306 23.22265017 -47.24081421 21.53091431 C-45.90285636 20.73698468 -44.56482686 19.94317578 -43.22671509 19.14950562 C-41.96465326 18.40092824 -40.70275396 17.65207677 -39.44102478 16.90293884 C-38.2157318 16.1760085 -36.98971777 15.45029203 -35.76295471 14.72584534 C-32.57353563 12.83816673 -29.40802424 10.91998038 -26.26611328 8.95410156 C-25.60503067 8.54499542 -24.94394806 8.13588928 -24.26283264 7.71438599 C-23.0117815 6.93886982 -21.76571473 6.15522236 -20.52610779 5.36154175 C-14.05147732 1.36974976 -7.57251943 0.13932124 0 0 Z " fill="#FEFEFE" transform="translate(256.25,67.5625)"/>
<path d="M0 0 C1.17820312 -0.02835938 2.35640625 -0.05671875 3.5703125 -0.0859375 C14.58855324 0.6124303 24.18128219 5.79268196 33.4375 11.375 C35.13338257 12.37575562 35.13338257 12.37575562 36.86352539 13.39672852 C40.2107307 15.37283214 43.54341637 17.37266386 46.875 19.375 C48.6013157 20.40536154 50.32785585 21.43534715 52.0546875 22.46484375 C55.26389014 24.38278891 58.46739583 26.30988018 61.66796875 28.2421875 C67.63439342 31.83981119 73.62939101 35.38879462 79.625 38.9375 C80.75357422 39.60587891 81.88214844 40.27425781 83.04492188 40.96289062 C87.94784222 43.86651101 92.85123393 46.76933368 97.75537109 49.67089844 C105.13905561 54.04033208 112.51698582 58.41914943 119.88555908 62.81402588 C123.85709488 65.1807197 127.83850766 67.52956044 131.82868958 69.8646698 C134.37319011 71.35735498 136.91023467 72.86239751 139.4458313 74.37014771 C141.18039976 75.39632426 142.92390097 76.40735576 144.66772461 77.41772461 C158.51808998 85.69152029 168.81757409 96.53221837 172.875 112.375 C173.44045643 117.8971411 173.43367544 123.38826771 173.40844727 128.93115234 C173.41551801 130.57669341 173.42426786 132.22222797 173.43455505 133.86775208 C173.45693092 138.30802249 173.4541369 142.74793447 173.44523358 147.18823957 C173.44009878 150.90812678 173.44743649 154.6279481 173.45470566 158.34782851 C173.47166766 167.13038254 173.46817677 175.91276267 173.45141602 184.6953125 C173.43450218 193.72668612 173.45032745 202.75757611 173.4826389 211.78889692 C173.50941348 219.57018536 173.51658951 227.35132399 173.50812382 235.13265383 C173.50321701 239.76808384 173.50528743 244.40322317 173.52591133 249.03861618 C173.54439239 253.40064739 173.5381598 257.76198829 173.51371193 262.12398338 C173.50874295 263.71496049 173.51209075 265.30599135 173.52486038 266.89692497 C173.64097275 282.61979034 169.36241438 295.77915316 158.2890625 307.26171875 C153.97258162 311.51223904 149.32598519 314.43003515 144.0625 317.375 C142.09466807 318.5071453 140.12723784 319.639989 138.16015625 320.7734375 C137.13164551 321.36092773 136.10313477 321.94841797 135.04345703 322.55371094 C129.66263614 325.64670862 124.3342874 328.82765588 119 332 C117.29948679 333.00814385 115.59897052 334.01628259 113.89822388 335.02403259 C104.75957548 340.43934749 95.62770356 345.86608543 86.49459839 351.29074097 C77.33487799 356.7308677 68.17448854 362.16984179 58.99389648 367.57470703 C54.54966246 370.19309983 50.11584344 372.8272272 45.69807434 375.49009705 C43.27140115 376.95188976 40.84143609 378.40816394 38.4112854 379.86416626 C36.68210646 380.90318617 34.95754516 381.94987901 33.2331543 382.99682617 C20.28942489 390.74438796 6.52398367 396.90479673 -8.859375 393.828125 C-23.69658888 389.48352646 -37.16036215 379.83097074 -50.28515625 371.89453125 C-57.39603382 367.59892444 -64.54245518 363.36342344 -71.6875 359.125 C-73.07593108 358.30111241 -74.46435881 357.47721916 -75.8527832 356.65332031 C-79.94306918 354.22644945 -84.033931 351.8005506 -88.125 349.375 C-89.04236938 348.83108612 -89.04236938 348.83108612 -89.97827148 348.27618408 C-93.96442427 345.91285615 -97.95091794 343.55010377 -101.9375 341.1875 C-103.5608728 340.22517456 -103.5608728 340.22517456 -105.21704102 339.2434082 C-110.33367013 336.2110064 -115.45168164 333.18100141 -120.57414246 330.15846252 C-123.00689084 328.72275504 -125.438826 327.28567319 -127.87069702 325.84848022 C-129.55729529 324.85248211 -131.24505448 323.85845065 -132.93286133 322.86450195 C-149.42822799 313.11405466 -163.78876775 304.43196445 -170.125 285.375 C-170.91656429 280.64870963 -171.25670184 276.10076764 -171.27890015 271.31196594 C-171.2832824 270.63658207 -171.28766465 269.96119819 -171.2921797 269.26534814 C-171.30544525 267.02105259 -171.31171864 264.77679617 -171.31787109 262.5324707 C-171.32578161 260.91545947 -171.33405114 259.29844997 -171.34265137 257.68144226 C-171.36875712 252.38790547 -171.38416547 247.09436122 -171.3984375 241.80078125 C-171.4038015 239.97249027 -171.40917901 238.14419933 -171.41456985 236.31590843 C-171.43617992 228.707509 -171.45491455 221.09911159 -171.46619225 213.49068928 C-171.48242203 202.61635236 -171.51559782 191.74237316 -171.57259309 180.86817104 C-171.61137872 173.2050608 -171.63083499 165.54204592 -171.63611281 157.87884015 C-171.63975384 153.30983929 -171.65164212 148.74122097 -171.68421555 144.17232704 C-171.71444936 139.87033499 -171.720554 135.56895397 -171.70883179 131.26687813 C-171.70861234 129.69642093 -171.7168095 128.12593406 -171.73448563 126.55557632 C-171.89894997 111.09108881 -167.3439991 98.62546523 -156.4765625 87.453125 C-152.4427437 83.48416746 -148.21654074 80.65424235 -143.3125 77.875 C-141.53640931 76.83862568 -139.76037044 75.80216254 -137.984375 74.765625 C-137.03884766 74.21970703 -136.09332031 73.67378906 -135.11914062 73.11132812 C-130.87762591 70.65163694 -126.66507798 68.1440524 -122.45043945 65.63867188 C-119.00970031 63.59361772 -115.56595307 61.55372643 -112.12109375 59.515625 C-105.28733605 55.47166202 -98.45598145 51.42365088 -91.625 47.375 C-89.37501058 46.04164881 -87.12501057 44.7083155 -84.875 43.375 C-83.204375 42.385 -83.204375 42.385 -81.5 41.375 C-78.125 39.375 -74.75 37.375 -71.375 35.375 C-70.25988037 34.71411377 -69.14476074 34.05322754 -67.99584961 33.37231445 C-65.75994889 32.0474862 -63.52378613 30.72310008 -61.28735352 29.39916992 C-56.06243127 26.30539071 -50.84013457 23.2075713 -45.62741089 20.09329224 C-43.19245203 18.63893621 -40.75595088 17.18717498 -38.31933594 15.7355957 C-36.62154629 14.72272592 -34.9259662 13.70615529 -33.23046875 12.68945312 C-12.13970537 0.13109833 -12.13970537 0.13109833 0 0 Z M-25.625 18.125 C-26.62345947 18.69718262 -27.62191895 19.26936523 -28.65063477 19.85888672 C-37.95453197 25.21701554 -47.15676825 30.74397891 -56.34765625 36.29296875 C-63.87665677 40.83623502 -71.43686121 45.32636167 -79 49.8125 C-80.3678407 50.62418256 -81.73567924 51.43586876 -83.10351562 52.24755859 C-90.63678135 56.71698063 -98.17347047 61.18059974 -105.7121582 65.64086914 C-109.01320826 67.59580857 -112.31138895 69.5555222 -115.609375 71.515625 C-119.50774278 73.83109058 -123.41470048 76.13017362 -127.33531189 78.40765381 C-130.1660047 80.05496104 -132.98817945 81.71679807 -135.8125 83.375 C-136.83400146 83.9618457 -137.85550293 84.54869141 -138.90795898 85.15332031 C-147.8217063 90.41575196 -154.6044211 96.11137274 -159.0625 105.5625 C-159.62839844 106.73167969 -160.19429687 107.90085937 -160.77734375 109.10546875 C-162.84259122 114.1159387 -163.25078469 118.47596036 -163.25871277 123.8760376 C-163.26297775 125.19092667 -163.26724274 126.50581573 -163.27163696 127.86054993 C-163.27128747 129.31100467 -163.27082596 130.76145939 -163.27026367 132.21191406 C-163.27325704 133.7448281 -163.27665998 135.27774139 -163.28044128 136.81065369 C-163.28926861 140.9699242 -163.2916189 145.12917413 -163.29225707 149.2884531 C-163.29296844 151.88947577 -163.29510443 154.49049322 -163.29775429 157.09151459 C-163.30700439 166.1728295 -163.3110897 175.25412975 -163.31030273 184.33544922 C-163.30970243 192.78836321 -163.32024582 201.24121328 -163.3360464 209.69411111 C-163.34914305 216.96053754 -163.35448572 224.22694313 -163.35384732 231.49338126 C-163.35359291 235.82910901 -163.35641277 240.16477997 -163.36702538 244.50049591 C-163.37674184 248.5815232 -163.37676131 252.66243984 -163.36950874 256.74347115 C-163.36846721 258.23614985 -163.37079999 259.72883557 -163.3768692 261.2215023 C-163.43300175 275.99073561 -161.81768893 289.37421664 -151.125 300.375 C-144.58465516 306.07483272 -137.3529606 310.32940598 -129.8125 314.5625 C-127.47987133 315.88729787 -125.15020674 317.21727559 -122.8203125 318.546875 C-121.10763184 319.52237305 -121.10763184 319.52237305 -119.36035156 320.51757812 C-114.93424908 323.05861251 -110.55505772 325.67244302 -106.1875 328.3125 C-98.50010276 332.95244948 -90.78923602 337.55082071 -83.0625 342.125 C-82.49330841 342.46199921 -81.92411682 342.79899841 -81.337677 343.14620972 C-78.4295707 344.86797385 -75.52124906 346.5893737 -72.61279297 348.31054688 C-68.06764363 351.00051704 -63.52400768 353.69303811 -58.98120117 356.38696289 C-56.74967537 357.70880145 -54.51677013 359.0283141 -52.2824707 360.34545898 C-47.06335282 363.42570004 -41.8608528 366.52388907 -36.70477295 369.70828247 C-34.3034233 371.18938693 -31.89410737 372.65725348 -29.48413086 374.12426758 C-27.81294044 375.14890988 -26.15327526 376.19227759 -24.49414062 377.23632812 C-15.41993835 382.74626947 -5.86096399 386.12402074 4.875 385.375 C3.92616722 383.34356792 3.00778295 381.54206754 1.60924053 379.78242111 C-3.53112058 373.21712751 -2.83665597 365.70951584 -2.7878418 357.78613281 C-2.79626431 356.20837192 -2.80679356 354.63062109 -2.81925964 353.05288696 C-2.84623969 348.78391651 -2.84162397 344.51553217 -2.82955909 340.24651432 C-2.8224079 336.67330352 -2.83094101 333.10019976 -2.83946449 329.52699733 C-2.85939716 321.09016513 -2.8538723 312.65361639 -2.83178711 304.21679688 C-2.80945065 295.53698805 -2.82699296 286.85792407 -2.86483639 278.1781857 C-2.89616022 270.70607912 -2.90395852 263.23420201 -2.89288265 255.76203799 C-2.88642111 251.3081916 -2.88827388 246.85477416 -2.91220665 242.40097809 C-2.93359165 238.20794299 -2.92531037 234.01594973 -2.89511299 229.82297897 C-2.88882995 228.29286543 -2.89253807 226.76266948 -2.90752411 225.23261642 C-3.01147173 213.6737097 -0.84901492 204.37121103 7.0625 195.5625 C11.02401395 191.99287776 15.46330764 189.24461326 20.01904297 186.49902344 C23.00186765 184.69253503 25.96142683 182.84865544 28.92480469 181.01049805 C31.64206613 179.32566517 34.36204245 177.64526934 37.08203125 175.96484375 C42.98589027 172.31217583 48.86780811 168.62491546 54.75 164.9375 C63.53620077 159.43333439 72.37052721 154.01477299 81.23657227 148.64038086 C88.0876542 144.48052471 94.8965725 140.25726505 101.6875 136 C109.86868763 130.87375295 118.0586835 125.76244289 126.27401733 120.69110107 C127.95824985 119.65078814 129.64088905 118.6078971 131.32348633 117.56494141 C132.35368896 116.92991699 133.3838916 116.29489258 134.4453125 115.640625 C135.35039551 115.08149414 136.25547852 114.52236328 137.18798828 113.94628906 C143.59636555 110.19884984 148.41728148 108.05962288 155.875 109.375 C158.62380033 110.78113587 160.51966943 112.32688646 162.875 114.375 C162.48177318 105.33078305 157.32660628 98.3386194 150.99951172 92.18261719 C146.93952611 88.72822355 142.35148232 86.16218252 137.75 83.5 C136.66396484 82.85998047 135.57792969 82.21996094 134.45898438 81.56054688 C131.53730746 79.84142487 128.61053063 78.13174876 125.68054199 76.42687988 C122.67132235 74.67375666 119.66789241 72.91077422 116.6640625 71.1484375 C113.00308151 69.00120297 109.34156328 66.85491635 105.67724609 64.71337891 C96.85781871 59.55653208 88.08974116 54.3185509 79.33911133 49.0456543 C70.05677365 43.4620768 60.71446016 37.98389061 51.35766602 32.52636719 C44.98116096 28.80386175 38.64062474 25.03112697 32.34570312 21.17163086 C11.46774915 8.42473047 -3.90060077 5.51278459 -25.625 18.125 Z " fill="#303B3F" transform="translate(255.125,58.625)"/>
<path d="M0 0 C0.33 3.63 0.66 7.26 1 11 C1.99 10.67 2.98 10.34 4 10 C5.39439664 9.93334624 6.79169875 9.91461801 8.1875 9.9375 C10.0746875 9.9684375 10.0746875 9.9684375 12 10 C13.2288865 13.51461538 12.75329849 15.68356387 11.625 19.1875 C11.34914063 20.06792969 11.07328125 20.94835937 10.7890625 21.85546875 C10 24 10 24 9 25 C7.48062184 25.10662303 5.95922496 25.18494916 4.4375 25.25 C-0.92232612 25.73446061 -4.99347938 27.35681581 -9 31 C-11.55716219 35.0599101 -11.30269656 38.30820334 -11 43 C-7.8459634 46.1540366 -3.41472283 45.67571806 0.8828125 45.94726562 C6.44161182 46.46904883 9.12497771 47.93354697 13 52 C16.55578301 58.29969648 15.98059772 66.97732072 14.3125 73.8203125 C11.85511024 80.35287362 8.188539 87.27189985 2.8359375 91.8515625 C0.33842249 94.77418644 0.59891724 96.70930618 0.625 100.5 C0.34161765 106.65838235 0.34161765 106.65838235 -2.8125 109.8125 C-6 111 -6 111 -10 111 C-10 107.37 -10 103.74 -10 100 C-11.546875 100.495 -11.546875 100.495 -13.125 101 C-16.48992955 101.96433957 -19.48384861 102.25115367 -23 102 C-24 101 -24 101 -24.1875 97.3125 C-24.15368121 93.5586147 -23.40222961 90.50557404 -22 87 C-21.2265625 86.98582031 -20.453125 86.97164063 -19.65625 86.95703125 C-12.52514423 86.63048309 -7.49428507 85.7074151 -2 81 C1.0439557 77.66146794 2.15400979 74.48780114 2.375 70 C2.42398437 69.319375 2.47296875 68.63875 2.5234375 67.9375 C2.1415865 65.78333629 2.1415865 65.78333629 -0.05859375 64.296875 C-3.6032349 62.73403189 -6.57944498 62.51419712 -10.4375 62.25 C-18.69405867 61.36077073 -18.69405867 61.36077073 -21.9375 58.1875 C-25.83091467 52.31064767 -24.60359608 44.93774583 -23.58984375 38.32421875 C-21.8705721 31.18525635 -17.7229208 25.52511541 -13 20 C-12.34 19.67 -11.68 19.34 -11 19 C-10.8735152 16.75268875 -10.82417447 14.50083761 -10.8125 12.25 C-10.45427756 5.61274648 -10.45427756 5.61274648 -8.48828125 2.9609375 C-5.64589475 0.92300001 -3.50646638 0 0 0 Z " fill="#F9FAFA" transform="translate(308,276)"/>
<path d="M0 0 C0.63691977 3.51721249 0.75929046 6.49365541 0 10 C-1.84204102 11.81835938 -1.84204102 11.81835938 -4.31640625 13.40625 C-5.22455078 13.99672119 -6.13269531 14.58719238 -7.06835938 15.19555664 C-8.51952148 16.0887561 -8.51952148 16.0887561 -10 17 C-10.94681641 17.58579834 -11.89363281 18.17159668 -12.86914062 18.77514648 C-15.75057706 20.52532161 -18.65151626 22.23698569 -21.5625 23.9375 C-22.55830078 24.52595703 -23.55410156 25.11441406 -24.58007812 25.72070312 C-31.861344 30 -31.861344 30 -33 30 C-34.0958265 25.99718932 -34.29624201 22.97446967 -33 19 C-29.20204746 15.11969567 -24.02123961 12.74604362 -19.27197266 10.23046875 C-15.63295355 8.25962668 -12.14290267 6.05219232 -8.625 3.875 C-2.32193299 0 -2.32193299 0 0 0 Z " fill="#39AD49" transform="translate(373,344)"/>
</svg>
