<?xml version="1.0" encoding="UTF-8"?>
<svg version="1.1" xmlns="http://www.w3.org/2000/svg" width="512" height="512">
<path d="M0 0 C168.96 0 337.92 0 512 0 C512 168.96 512 337.92 512 512 C343.04 512 174.08 512 0 512 C0 343.04 0 174.08 0 0 Z " fill="#FEFEFE" transform="translate(0,0)"/>
<path d="M0 0 C1.95708004 1.11678251 3.9155103 2.23120086 5.875 3.34375 C11.46313541 6.53160102 17.02403878 9.76442326 22.58007812 13.0078125 C28.08310099 16.21345689 33.60526525 19.38575176 39.125 22.5625 C47.39116824 27.32678734 55.63967594 32.12012242 63.875 36.9375 C72.51282339 41.98838217 81.18335326 46.97996471 89.875 51.9375 C146.65249752 84.32977138 146.65249752 84.32977138 151.6875 92.25 C152.26886719 93.14203125 152.85023438 94.0340625 153.44921875 94.953125 C156.55684445 101.05878759 157.25004938 106.94950108 157.26069641 113.72824097 C157.26452196 114.46306013 157.26834751 115.1978793 157.27228898 115.95496571 C157.28253104 118.39436829 157.27864373 120.83353162 157.2746582 123.27294922 C157.27900956 125.03128271 157.28419412 126.78961431 157.29014587 128.54794312 C157.3035017 133.30834106 157.30411834 138.06865945 157.30158257 142.82907248 C157.30051051 146.81003362 157.30540226 150.79097882 157.310188 154.77193654 C157.32127143 164.16746859 157.32172718 173.56296067 157.31567383 182.95849609 C157.30963472 192.63560307 157.32194615 202.31256462 157.3432439 211.98964679 C157.36088468 220.31262253 157.36685734 228.63555207 157.36360615 236.9585458 C157.36179706 241.92305592 157.3643921 246.8874623 157.37832069 251.85195541 C157.3909347 256.52238351 157.38892122 261.19258562 157.37590981 265.86301041 C157.37355222 267.57135343 157.37624921 269.27971254 157.38453293 270.98803711 C157.44265271 283.91157532 156.50784482 294.6964167 148 305 C141.49138428 310.95569725 133.8482314 315.16337569 126.1875 319.4375 C124.95350335 320.13326144 123.71995133 320.82981201 122.48681641 321.52709961 C119.93124279 322.97133691 117.37381774 324.41220897 114.81494141 325.85058594 C109.40075105 328.897024 104.00819641 331.98121981 98.61605835 335.06646729 C96.86722136 336.06695004 95.11787072 337.06652948 93.3684082 338.06591797 C82.30186869 344.38951695 71.26232385 350.75960605 60.2265625 357.13671875 C56.96475993 359.0203505 53.70138156 360.90122321 50.4375 362.78125 C40.7947621 368.33681939 31.15760724 373.90039671 21.55444336 379.52416992 C13.34345411 384.3315791 5.1202188 389.11123759 -3.1875 393.75 C-3.91195312 394.15645752 -4.63640625 394.56291504 -5.3828125 394.98168945 C-15.08137908 400.35569126 -23.93822365 401.66002994 -35 400 C-40.79875285 398.29463542 -45.88723573 395.15098368 -51 392 C-52.1034375 391.34902344 -53.206875 390.69804687 -54.34375 390.02734375 C-56.72550424 388.60976296 -59.09373976 387.17788361 -61.45703125 385.73046875 C-67.37901419 382.1350281 -73.41608262 378.7375264 -79.4375 375.3125 C-88.32017521 370.25608984 -97.18042851 365.16607754 -106 360 C-114.5950917 354.96795667 -123.22328359 349.99639208 -131.875 345.0625 C-144.23700426 338.01103596 -156.583842 330.93474536 -168.89257812 323.79052734 C-171.99535371 322.00267724 -175.11300937 320.24343401 -178.234375 318.48828125 C-180.19811373 317.36753272 -182.1616643 316.24645442 -184.125 315.125 C-185.00720215 314.63813721 -185.8894043 314.15127441 -186.79833984 313.6496582 C-196.52808937 308.03880458 -202.70853293 300.76700246 -206 290 C-206.17622485 289.44347024 -206.3524497 288.88694048 -206.5340147 288.31354618 C-207.18219813 285.09541397 -207.136517 282.00435266 -207.14717102 278.72154236 C-207.15084771 277.98676291 -207.1545244 277.25198345 -207.1583125 276.49493796 C-207.16932928 274.03169308 -207.17318981 271.56849042 -207.17700195 269.10522461 C-207.18326824 267.33925239 -207.18991519 265.57328148 -207.19691467 263.80731201 C-207.21794208 258.00566524 -207.22831749 252.20401825 -207.23828125 246.40234375 C-207.24232964 244.40285287 -207.24644658 242.40336213 -207.25063133 240.40387154 C-207.26968201 231.00712588 -207.28391194 221.61038806 -207.2922433 212.2136268 C-207.30200832 201.3795775 -207.32830919 190.5457329 -207.36874419 179.71175569 C-207.39894828 171.3302544 -207.41371635 162.94881163 -207.41702431 154.56725699 C-207.41937036 149.5651561 -207.4282725 144.56327394 -207.45348549 139.56123161 C-207.47684566 134.85060566 -207.48096761 130.1403412 -207.47072411 125.42967224 C-207.47023052 123.70722816 -207.47649821 121.9847658 -207.49028015 120.26237679 C-207.580904 108.25833044 -206.68142396 97.49276251 -198.79711914 87.81274414 C-191.79349277 80.74822494 -182.27684693 76.14125034 -173.6875 71.3125 C-172.43997327 70.60606846 -171.19274448 69.89911055 -169.94580078 69.19165039 C-167.45426522 67.77876889 -164.96141889 66.3682507 -162.46728516 64.95996094 C-157.76169995 62.30002304 -153.06718489 59.6209842 -148.375 56.9375 C-147.54597168 56.46393066 -146.71694336 55.99036133 -145.86279297 55.50244141 C-135.66715729 49.67440881 -125.49996796 43.79698193 -115.33056641 37.92333984 C-108.80912838 34.15733129 -102.28546691 30.39517583 -95.76220703 26.63232422 C-89.17084788 22.82996058 -82.58069581 19.02551591 -75.99145508 15.21948242 C-72.74301803 13.34454399 -69.49271762 11.47286929 -66.2421875 9.6015625 C-62.13454973 7.23594062 -58.03657946 4.85474969 -53.9453125 2.4609375 C-52.06774547 1.36972776 -50.19014317 0.27857871 -48.3125 -0.8125 C-47.46969482 -1.31031982 -46.62688965 -1.80813965 -45.75854492 -2.32104492 C-29.27847006 -11.85701322 -15.50959237 -9.12622316 0 0 Z " fill="#5C8DBC" transform="translate(277,60)"/>
<path d="M0 0 C3.01177538 6.67828453 4.12360262 11.95291505 4.14044189 19.36747742 C4.14489858 20.46586125 4.14489858 20.46586125 4.1494453 21.58643466 C4.15810259 24.03509245 4.15963803 26.48370118 4.16113281 28.93237305 C4.16576313 30.6902629 4.17078808 32.44815174 4.17617798 34.20603943 C4.18928432 38.97898947 4.19574361 43.75192545 4.20018864 48.52489066 C4.20312251 51.5091831 4.20722793 54.49347171 4.21169281 57.47776222 C4.22536374 66.82164513 4.2350321 76.16551929 4.2388947 85.50941151 C4.24337312 96.28286322 4.26091274 107.0561879 4.2898953 117.82960099 C4.31153861 126.16524822 4.32160041 134.50085978 4.32293582 142.8365348 C4.32398204 147.81115945 4.32985084 152.78566464 4.34775543 157.76025963 C4.36428171 162.44294646 4.36636955 167.12542459 4.35761642 171.80813026 C4.35684846 173.52131333 4.36115688 175.23450782 4.37107468 176.94766235 C4.44156751 189.88921537 3.52068112 200.68087106 -5 211 C-11.50861572 216.95569725 -19.1517686 221.16337569 -26.8125 225.4375 C-28.04649665 226.13326144 -29.28004867 226.82981201 -30.51318359 227.52709961 C-33.06875721 228.97133691 -35.62618226 230.41220897 -38.18505859 231.85058594 C-43.59924895 234.897024 -48.99180359 237.98121981 -54.38394165 241.06646729 C-56.13277864 242.06695004 -57.88212928 243.06652948 -59.6315918 244.06591797 C-70.69813131 250.38951695 -81.73767615 256.75960605 -92.7734375 263.13671875 C-96.03524007 265.0203505 -99.29861844 266.90122321 -102.5625 268.78125 C-112.2052379 274.33681939 -121.84239276 279.90039671 -131.44555664 285.52416992 C-139.65654589 290.3315791 -147.8797812 295.11123759 -156.1875 299.75 C-156.91195312 300.15645752 -157.63640625 300.56291504 -158.3828125 300.98168945 C-168.08137908 306.35569126 -176.93822365 307.66002994 -188 306 C-193.79875285 304.29463542 -198.88723573 301.15098368 -204 298 C-205.1034375 297.34902344 -206.206875 296.69804687 -207.34375 296.02734375 C-209.72550424 294.60976296 -212.09373976 293.17788361 -214.45703125 291.73046875 C-220.37901419 288.1350281 -226.41608262 284.7375264 -232.4375 281.3125 C-241.32017521 276.25608984 -250.18042851 271.16607754 -259 266 C-267.5950917 260.96795667 -276.22328359 255.99639208 -284.875 251.0625 C-297.23700426 244.01103596 -309.583842 236.93474536 -321.89257812 229.79052734 C-324.99535371 228.00267724 -328.11300937 226.24343401 -331.234375 224.48828125 C-333.19811373 223.36753272 -335.1616643 222.24645442 -337.125 221.125 C-338.00720215 220.63813721 -338.8894043 220.15127441 -339.79833984 219.6496582 C-345.93480958 216.11094085 -350.96284726 211.88921237 -355 206 C-355 205.01 -355 204.02 -355 203 C-353.9790625 202.44054687 -352.958125 201.88109375 -351.90625 201.3046875 C-343.07647956 196.44386473 -334.32231123 191.46911882 -325.625 186.375 C-323.60161482 185.19392079 -321.57817576 184.01293387 -319.5546875 182.83203125 C-316.11879634 180.82609111 -312.68554205 178.81593415 -309.25878906 176.79443359 C-306.05534186 174.90530032 -302.84473641 173.02885389 -299.62957764 171.159729 C-298.38252642 170.4317459 -297.13805929 169.69931699 -295.89630127 168.96234131 C-294.16154623 167.93352926 -292.41689708 166.92145602 -290.671875 165.91015625 C-289.6725293 165.32371338 -288.67318359 164.73727051 -287.64355469 164.13305664 C-285 163 -285 163 -282.73925781 163.19018555 C-280.11378372 164.41263046 -279.39152935 166.24234815 -278 168.75 C-273.91604121 175.50390175 -268.84618882 180.93308085 -263.37792969 186.56640625 C-262.21979052 187.77133063 -261.09410346 189.00732897 -259.9765625 190.25 C-241.577836 210.17525839 -211.26338209 221.11002123 -184.796875 222.25 C-151.55502172 223.2127064 -120.48924208 212.69977107 -96 190 C-94.69289063 188.83210938 -94.69289063 188.83210938 -93.359375 187.640625 C-85.8844406 180.63581226 -77.29996036 170.89988109 -74 161 C-74.70092773 160.73896484 -75.40185547 160.47792969 -76.12402344 160.20898438 C-79.24325767 158.89774092 -82.08101146 157.34071635 -85.015625 155.65625 C-85.5846907 155.33051498 -86.15375641 155.00477997 -86.74006653 154.66917419 C-87.95282629 153.97421757 -89.16470463 153.27772088 -90.37576294 152.57980347 C-92.26206155 151.49305098 -94.1511409 150.41126904 -96.04077148 149.33032227 C-101.56463984 146.16496849 -107.0717966 142.97888385 -112.51953125 139.68359375 C-113.30231445 139.21179688 -114.08509766 138.74 -114.89160156 138.25390625 C-116.30418973 137.39733007 -117.7114428 136.5318721 -119.11230469 135.65625 C-120.69754521 134.69428777 -122.34448186 133.8352356 -124 133 C-127.38672739 134.12890913 -127.75239171 134.7291466 -129.6875 137.5625 C-138.02749928 148.94629464 -149.37520521 157.00652566 -163 161 C-181.86005628 163.80000835 -197.89392033 162.04610513 -214 151 C-220.73496836 145.94614699 -225.58525241 140.14218328 -230 133 C-230.38929688 132.38898438 -230.77859375 131.77796875 -231.1796875 131.1484375 C-238.33303944 118.56075619 -240.23900488 101.5843867 -237.26953125 87.546875 C-236.34202354 84.59399333 -235.26303698 81.8242335 -234 79 C-233.45666016 77.71222656 -233.45666016 77.71222656 -232.90234375 76.3984375 C-226.45422347 62.27814699 -215.08802346 51.89556806 -200.7578125 45.99609375 C-184.18304431 40.00945651 -168.29818895 40.22809477 -152.0390625 47.28515625 C-142.59935981 52.03144934 -131.8334299 60.33314019 -127 70 C-122.86001766 69.40500425 -119.90665737 68.02258169 -116.30078125 65.9296875 C-114.63112305 64.96772461 -114.63112305 64.96772461 -112.92773438 63.98632812 C-111.72259536 63.28265635 -110.51751891 62.57887743 -109.3125 61.875 C-108.05442075 61.14712184 -106.79595088 60.41991844 -105.53710938 59.69335938 C-102.94782365 58.19745912 -100.36085478 56.69767135 -97.77587891 55.19433594 C-93.24521297 52.55972177 -88.70488168 49.94195451 -84.16430664 47.32446289 C-82.04182272 46.10068985 -79.91992169 44.87590534 -77.79858398 43.65014648 C-69.83945128 39.05211164 -61.86001734 34.49033912 -53.875 29.9375 C-44.93124612 24.83773365 -36.0132349 19.69605818 -27.125 14.5 C-26.14047852 13.92483643 -25.15595703 13.34967285 -24.14160156 12.75708008 C-18.89249635 9.69055036 -18.89249635 9.69055036 -13.64453125 6.62207031 C-11.64057895 5.45189888 -9.63350167 4.2873397 -7.625 3.125 C-6.56539063 2.50882813 -5.50578125 1.89265625 -4.4140625 1.2578125 C-2 0 -2 0 0 0 Z " fill="#1B598E" transform="translate(430,154)"/>
<path d="M0 0 C11.07127756 8.08327392 20.47604767 17.18566746 28.77441406 28.11279297 C29.29986816 28.80332764 29.82532227 29.4938623 30.36669922 30.20532227 C30.85315918 30.86314697 31.33961914 31.52097168 31.84082031 32.19873047 C32.27467041 32.78444824 32.70852051 33.37016602 33.15551758 33.97363281 C34.29722001 35.88025213 34.78266651 37.56742677 35.21191406 39.73779297 C27.89004514 44.09064515 20.5535463 48.418372 13.21191406 52.73779297 C12.04083805 53.4283603 10.86977706 54.11895309 9.69873047 54.80957031 C6.75997413 56.54133204 3.81637126 58.26460561 0.86956787 59.9826355 C-0.82885454 60.97509441 -2.52310212 61.97468667 -4.21728516 62.97436523 C-5.26287598 63.58207764 -6.3084668 64.18979004 -7.38574219 64.81591797 C-8.3087915 65.35635742 -9.23184082 65.89679688 -10.18286133 66.45361328 C-12.75654035 67.72224337 -14.96130253 68.32288742 -17.78808594 68.73779297 C-18.2121875 68.16931641 -18.63628906 67.60083984 -19.07324219 67.01513672 C-29.63761112 53.10731915 -42.16884016 43.6898057 -59.78808594 40.73779297 C-77.44150598 39.01520437 -93.24452278 43.66400248 -107.66308594 53.98779297 C-115.47346909 60.47708901 -120.86202178 69.47287641 -124.78808594 78.73779297 C-125.10777344 79.46869141 -125.42746094 80.19958984 -125.75683594 80.95263672 C-131.23419099 95.78714 -127.96433179 114.01911721 -121.60058594 128.05029297 C-113.40495405 142.80738241 -100.74558204 152.48120602 -84.78808594 157.73779297 C-69.95946453 161.69041362 -53.20234117 158.44492058 -39.78808594 151.73779297 C-30.3175914 146.12666181 -22.87418734 138.86694507 -16.78808594 129.73779297 C-10.89334556 131.32260841 -6.08483901 134.35369034 -0.91308594 137.48779297 C1.03437878 138.65391265 2.98231373 139.81924731 4.93066406 140.98388672 C6.45626953 141.89823486 6.45626953 141.89823486 8.01269531 142.83105469 C13.51445979 146.11011303 19.0512227 149.32895376 24.58691406 152.55029297 C25.64507324 153.16678711 26.70323242 153.78328125 27.79345703 154.41845703 C30.26592103 155.85884684 32.73873417 157.29863285 35.21191406 158.73779297 C34.67595616 162.14630998 33.99761675 164.49249843 31.94628906 167.26904297 C31.47505615 167.90841797 31.00382324 168.54779297 30.51831055 169.20654297 C29.74789429 170.21201172 29.74789429 170.21201172 28.96191406 171.23779297 C28.1615271 172.28966797 28.1615271 172.28966797 27.3449707 173.36279297 C7.09017009 199.42111766 -22.13550033 216.25726245 -54.90429688 220.44482422 C-86.11756473 223.6158301 -116.64761255 215.66497794 -141.78808594 196.73779297 C-145.261334 193.87288326 -148.54063651 190.8547179 -151.78808594 187.73779297 C-152.61050781 186.97853516 -153.43292969 186.21927734 -154.28027344 185.43701172 C-171.75918175 168.80210054 -182.78591965 146.18544744 -187.78808594 122.73779297 C-187.99433594 121.85349609 -188.20058594 120.96919922 -188.41308594 120.05810547 C-194.33652677 91.01679138 -186.96174838 60.00463731 -171.59277344 35.06982422 C-166.38167803 27.25318111 -160.27349294 20.48691381 -153.78808594 13.73779297 C-153.17964844 13.04298828 -152.57121094 12.34818359 -151.94433594 11.63232422 C-136.59355875 -5.28841881 -113.57326039 -14.47930353 -91.78808594 -19.26220703 C-90.58345703 -19.54040283 -90.58345703 -19.54040283 -89.35449219 -19.82421875 C-59.11540375 -26.44492542 -25.00777869 -17.65295137 0 0 Z " fill="#FEFEFE" transform="translate(320.7880859375,156.26220703125)"/>
<path d="M0 0 C2.62547409 1.22244491 3.34772846 3.0521626 4.73925781 5.55981445 C8.82321661 12.3137162 13.89306899 17.7428953 19.36132812 23.3762207 C20.51946729 24.58114508 21.64515435 25.81714343 22.76269531 27.05981445 C41.16142181 46.98507284 71.47587572 57.91983568 97.94238281 59.05981445 C131.18724666 60.02260804 162.24622688 49.50763172 186.73925781 26.80981445 C187.5990625 26.04282227 188.45886719 25.27583008 189.34472656 24.4855957 C197.08507629 17.23747808 202.85038946 8.56535099 208.73925781 -0.19018555 C213.45681239 0.36693518 216.95806589 2.49691735 220.92675781 4.93481445 C222.45063843 5.85160832 223.97543919 6.76687382 225.50097656 7.6809082 C226.3354834 8.18219238 227.16999023 8.68347656 228.02978516 9.19995117 C233.06517958 12.19178671 238.1576917 15.08486173 243.23925781 17.99731445 C256.17599034 25.43251514 268.97317486 33.08558916 281.73925781 40.80981445 C278.64675086 47.32576083 274.76780979 51.1838333 268.55175781 54.74731445 C267.59885864 55.30020142 267.59885864 55.30020142 266.62670898 55.86425781 C265.16717903 56.70898171 263.70446319 57.54821573 262.23925781 58.38305664 C259.47117161 59.96281209 256.71425695 61.56106128 253.95800781 63.16137695 C241.94975265 70.12379373 229.8968584 77.00755604 217.83956909 83.88452148 C208.75294267 89.06874389 199.70186161 94.31127838 190.671875 99.59350586 C182.33721173 104.46758602 173.98056992 109.30274624 165.61230469 114.11889648 C160.02591945 117.3341604 154.4464246 120.56029432 148.87988281 123.80981445 C143.4549 126.97493888 138.0088433 130.10048007 132.54638672 133.20043945 C130.08375985 134.61230555 127.65057244 136.06306249 125.21972656 137.52856445 C115.5160275 143.17038705 105.8811699 145.07937556 94.73925781 142.80981445 C88.95605796 141.00027477 83.87070478 137.97231223 78.73925781 134.80981445 C77.63582031 134.15883789 76.53238281 133.50786133 75.39550781 132.8371582 C73.01375357 131.41957741 70.64551805 129.98769806 68.28222656 128.5402832 C62.36024362 124.94484255 56.3231752 121.54734085 50.30175781 118.12231445 C41.4190826 113.0659043 32.5588293 107.97589199 23.73925781 102.80981445 C15.14416611 97.77777112 6.51597422 92.80620653 -2.13574219 87.87231445 C-14.49774645 80.82085041 -26.84458419 73.74455981 -39.15332031 66.6003418 C-42.2560959 64.81249169 -45.37375156 63.05324846 -48.49511719 61.2980957 C-50.45885592 60.17734717 -52.42240649 59.05626887 -54.38574219 57.93481445 C-55.70904541 57.20452026 -55.70904541 57.20452026 -57.05908203 56.45947266 C-63.19555177 52.92075531 -68.22358945 48.69902682 -72.26074219 42.80981445 C-72.26074219 41.81981445 -72.26074219 40.82981445 -72.26074219 39.80981445 C-71.23980469 39.25036133 -70.21886719 38.6909082 -69.16699219 38.11450195 C-60.33722175 33.25367918 -51.58305342 28.27893327 -42.88574219 23.18481445 C-40.862357 22.00373524 -38.83891794 20.82274832 -36.81542969 19.6418457 C-33.37953853 17.63590556 -29.94628424 15.6257486 -26.51953125 13.60424805 C-23.31608405 11.71511478 -20.1054786 9.83866834 -16.89031982 7.96954346 C-15.64326861 7.24156035 -14.39880148 6.50913144 -13.15704346 5.77215576 C-11.42228842 4.74334371 -9.67763926 3.73127048 -7.93261719 2.7199707 C-6.43359863 1.8403064 -6.43359863 1.8403064 -4.90429688 0.94287109 C-2.26074219 -0.19018555 -2.26074219 -0.19018555 0 0 Z " fill="#1A4674" transform="translate(147.2607421875,317.190185546875)"/>
<path d="M0 0 C7.3541127 5.84913463 13.4130823 12.4910523 19 20 C17.46859375 20.83917969 17.46859375 20.83917969 15.90625 21.6953125 C6.86348556 26.67391315 -2.09576096 31.77748504 -11 37 C-17.95772686 41.08051244 -24.93085456 45.11548961 -32 49 C-39.04250306 52.8727727 -45.99923666 56.88107438 -52.9375 60.9375 C-53.9490918 61.52732666 -54.96068359 62.11715332 -56.00292969 62.72485352 C-60.89107132 65.57914823 -65.76483902 68.45373408 -70.61328125 71.375 C-71.48283447 71.89328369 -72.3523877 72.41156738 -73.24829102 72.94555664 C-74.87601776 73.9162835 -76.49797899 74.89676637 -78.11303711 75.88842773 C-78.83370361 76.31583252 -79.55437012 76.7432373 -80.296875 77.18359375 C-80.91916992 77.56056396 -81.54146484 77.93753418 -82.18261719 78.32592773 C-84.54800789 79.20325763 -85.70223625 79.00298972 -88 78 C-89.11745747 75.55725603 -89.9348918 73.36555996 -90.6875 70.8125 C-91.00557617 69.8215332 -91.00557617 69.8215332 -91.33007812 68.81054688 C-95.59898654 55.16889318 -95.87922291 40.14632795 -90 27 C-89.63777344 26.14148438 -89.27554688 25.28296875 -88.90234375 24.3984375 C-82.45422347 10.27814699 -71.08802346 -0.10443194 -56.7578125 -6.00390625 C-37.48142978 -12.9663391 -17.29795585 -11.75740759 0 0 Z " fill="#5C8DBC" transform="translate(286,206)"/>
<path d="M0 0 C2.82641602 1.3918457 2.82641602 1.3918457 5.75390625 3.17578125 C6.84662842 3.83384766 7.93935059 4.49191406 9.06518555 5.16992188 C10.23097176 5.88409054 11.39674294 6.59828374 12.5625 7.3125 C14.36646922 8.40320768 16.17256522 9.49032846 17.97889709 10.57711792 C19.19804764 11.31073772 20.4165829 12.04538099 21.63450623 12.78103638 C27.43339553 16.27893677 33.2987806 19.6556936 39.1875 23 C40.53146851 23.76437378 40.53146851 23.76437378 41.90258789 24.54418945 C43.93396574 25.69807354 45.96631243 26.85019325 48 28 C45.88679871 34.27251811 41.52522395 38.32393525 37 43 C36.4534375 43.57234375 35.906875 44.1446875 35.34375 44.734375 C29.8733326 49.92568947 22.78232315 52.88943099 16 56 C15.19820313 56.37640625 14.39640625 56.7528125 13.5703125 57.140625 C-0.60944334 61.8815768 -18.0217162 59.89010186 -31.1484375 53.45703125 C-41.6480141 47.67829702 -49.95905161 40.45025799 -56 30 C-56 29.34 -56 28.68 -56 28 C-55.26700684 27.58339111 -54.53401367 27.16678223 -53.77880859 26.73754883 C-50.94764964 25.12721953 -48.11752948 23.51508829 -45.28790283 21.90206909 C-44.01486081 21.17695791 -42.74138368 20.45261007 -41.46746826 19.72903442 C-34.74095164 15.90818558 -28.04344286 12.06104139 -21.453125 8.0078125 C-20.46393066 7.40348389 -19.47473633 6.79915527 -18.45556641 6.17651367 C-16.60532768 5.03978343 -14.76338615 3.88940614 -12.93115234 2.72387695 C-12.1005127 2.2155835 -11.26987305 1.70729004 -10.4140625 1.18359375 C-9.7020166 0.73556396 -8.9899707 0.28753418 -8.25634766 -0.17407227 C-5.11178398 -1.3251282 -3.21284904 -0.86991875 0 0 Z " fill="#1A4674" transform="translate(256,257)"/>
<path d="M0 0 C4.62 0 9.24 0 14 0 C14 4.62 14 9.24 14 14 C18.62 14 23.24 14 28 14 C28 18.62 28 23.24 28 28 C23.38 28 18.76 28 14 28 C14 32.62 14 37.24 14 42 C9.38 42 4.76 42 0 42 C0 37.38 0 32.76 0 28 C-4.62 28 -9.24 28 -14 28 C-14 23.38 -14 18.76 -14 14 C-9.38 14 -4.76 14 0 14 C0 9.38 0 4.76 0 0 Z " fill="#F8FAFB" transform="translate(396,235)"/>
<path d="M0 0 C4.62 0 9.24 0 14 0 C14 4.62 14 9.24 14 14 C18.29 14 22.58 14 27 14 C27 18.62 27 23.24 27 28 C22.71 28 18.42 28 14 28 C14 32.62 14 37.24 14 42 C9.38 42 4.76 42 0 42 C0 37.38 0 32.76 0 28 C-4.62 28 -9.24 28 -14 28 C-14 23.38 -14 18.76 -14 14 C-9.38 14 -4.76 14 0 14 C0 9.38 0 4.76 0 0 Z " fill="#F9FBFC" transform="translate(346,235)"/>
</svg>
