<?xml version="1.0" encoding="UTF-8"?>
<svg version="1.1" xmlns="http://www.w3.org/2000/svg" width="512" height="512">
<path d="M0 0 C168.96 0 337.92 0 512 0 C512 168.96 512 337.92 512 512 C343.04 512 174.08 512 0 512 C0 343.04 0 174.08 0 0 Z " fill="#FEFEFE" transform="translate(0,0)"/>
<path d="M0 0 C4.96514425 2.9785219 9.99399186 5.84760865 15.01367188 8.73291016 C17.2624426 10.0283567 19.51113963 11.32393117 21.75976562 12.61962891 C22.88882324 13.2697998 24.01788086 13.9199707 25.18115234 14.58984375 C30.64787167 17.73873069 36.11192075 20.89224279 41.57617188 24.04541016 C43.74282498 25.29543366 45.90949167 26.54543362 48.07617188 27.79541016 C67.57617188 39.04541016 67.57617188 39.04541016 87.07617188 50.29541016 C88.15012207 50.91472412 89.22407227 51.53403809 90.33056641 52.17211914 C92.48354058 53.41476776 94.6355697 54.65905527 96.78662109 55.9050293 C101.81160892 58.81308952 106.8437755 61.70492097 111.91217041 64.53659058 C113.69575413 65.53410456 115.47621589 66.53697966 117.25585938 67.54150391 C119.48162738 68.79570651 121.71305895 70.03993453 123.95117188 71.27197266 C134.61694727 77.31048417 141.76938843 83.9639726 145.60877419 95.70248032 C146.61267352 99.69041076 146.83312314 103.07823438 146.84359741 107.18463135 C146.84812853 107.92197407 146.85265964 108.6593168 146.85732806 109.41900325 C146.86991956 111.87298769 146.86835511 114.32674869 146.86669922 116.78076172 C146.8726878 118.54717797 146.87949411 120.31359161 146.88705444 122.08000183 C146.90468922 126.86737736 146.90940879 131.65468135 146.91068602 136.44208622 C146.91210973 139.43678845 146.91638354 142.43147261 146.92168045 145.42617035 C146.9401732 155.88438568 146.94835211 166.34255011 146.94677734 176.80078125 C146.94557653 186.53184698 146.96666913 196.2626907 146.99826467 205.99370027 C147.0244639 214.36253213 147.03514309 222.73129165 147.03386652 231.10016418 C147.03335792 236.09214702 147.038985 241.08393253 147.06022263 246.07587433 C147.07966623 250.77424568 147.07968779 255.47223271 147.06518936 260.17061806 C147.06310766 261.88822049 147.0677638 263.60584738 147.07991028 265.32340813 C147.16233874 277.79369998 146.32287 288.26531449 137.45507812 297.79150391 C133.69993955 301.29682037 129.77289189 304.14677846 125.31445312 306.68994141 C124.29158203 307.27646484 123.26871094 307.86298828 122.21484375 308.46728516 C121.11720703 309.09119141 120.01957031 309.71509766 118.88867188 310.35791016 C117.7263047 311.02282428 116.56420006 311.68819753 115.40234375 312.35400391 C112.99075727 313.73550145 110.57805843 315.11502581 108.16455078 316.49316406 C102.62446232 319.65879571 97.10123206 322.85364903 91.57617188 326.04541016 C89.40958391 327.29554657 87.242917 328.54554615 85.07617188 329.79541016 C84.00367188 330.41416016 82.93117188 331.03291016 81.82617188 331.67041016 C72.07617188 337.29541015 72.07617188 337.29541015 68.82568359 339.1706543 C66.66060117 340.41976534 64.49556205 341.66895145 62.33056641 342.91821289 C56.89001482 346.05743325 51.44869972 349.19531578 46.00585938 352.33056641 C35.43329248 358.42213909 24.86825743 364.52620787 14.32617188 370.67041016 C13.35091553 371.23800049 12.37565918 371.80559082 11.37084961 372.39038086 C6.37032198 375.30690414 1.38914235 378.25158287 -3.56835938 381.24072266 C-4.56254883 381.83739746 -5.55673828 382.43407227 -6.58105469 383.04882812 C-8.46089017 384.17894098 -10.33683091 385.31556875 -12.20800781 386.45996094 C-18.94972297 390.50627417 -24.81419742 392.82833745 -32.79882812 392.85791016 C-33.8378125 392.87466797 -34.87679687 392.89142578 -35.94726562 392.90869141 C-44.28322417 392.03763057 -51.26674249 388.27371316 -58.48632812 384.23291016 C-59.43459473 383.70874512 -60.38286133 383.18458008 -61.35986328 382.64453125 C-71.45935177 377.0300293 -81.42902104 371.19233006 -91.38720703 365.33203125 C-96.41523616 362.3737488 -101.44951127 359.42620156 -106.48632812 356.48291016 C-107.47366943 355.90589355 -108.46101074 355.32887695 -109.47827148 354.734375 C-117.3705913 350.13391111 -125.31702246 345.63378201 -133.27832031 341.15405273 C-139.46553006 337.66749943 -145.60871354 334.11687483 -151.71801758 330.49584961 C-157.15857357 327.27584981 -162.63088642 324.11314818 -168.11083984 320.96069336 C-173.55296724 317.82998223 -178.98930746 314.68930324 -184.42382812 311.54541016 C-185.25414551 311.06587891 -186.08446289 310.58634766 -186.93994141 310.09228516 C-198.92748814 303.14510555 -209.34279164 297.0383544 -213.48551941 282.92965698 C-215.05156116 275.57779401 -214.71103266 268.02126176 -214.69848633 260.54199219 C-214.70283902 258.82454203 -214.70802402 257.10709381 -214.713974 255.38964844 C-214.72731537 250.74494078 -214.72794809 246.10031475 -214.7254107 241.45559168 C-214.72433767 237.56911695 -214.72923284 233.68265851 -214.73401612 229.79618728 C-214.74509452 220.62257589 -214.74555812 211.44900546 -214.73950195 202.27539062 C-214.7334631 192.83174458 -214.74577478 183.38824756 -214.76707202 173.94462693 C-214.78472143 165.8177919 -214.79068411 157.69100416 -214.78743428 149.56415069 C-214.78562659 144.71867115 -214.78820612 139.87329792 -214.80214882 135.02783585 C-214.81477699 130.4690151 -214.81273613 125.9104257 -214.79973793 121.35160828 C-214.79738342 119.68561091 -214.80006614 118.019597 -214.80836105 116.35361862 C-214.86779388 103.48143053 -214.18509833 91.7311185 -205.42382812 81.54541016 C-198.39872095 74.50437303 -188.85026217 70.01765279 -180.26953125 65.16113281 C-175.0760751 62.21241174 -169.90809304 59.21945472 -164.73632812 56.23291016 C-163.08455566 55.28085693 -163.08455566 55.28085693 -161.39941406 54.30957031 C-153.99574579 50.04021512 -146.61208258 45.73776311 -139.23632812 41.42041016 C-130.56562863 36.34742295 -121.84356706 31.37418055 -113.08740234 26.45043945 C-103.94317961 21.29809101 -94.88503245 16.00216847 -85.82617188 10.70166016 C-80.47575344 7.57187347 -75.11044204 4.47136992 -69.71679688 1.41650391 C-67.27226063 0.02749695 -64.83984187 -1.37667462 -62.41210938 -2.79443359 C-38.22912611 -16.82849273 -23.47143793 -14.2477607 0 0 Z " fill="#00599C" transform="translate(287.423828125,66.45458984375)"/>
<path d="M0 0 C3.50846983 2.87705507 6.88442782 5.87950667 10.20703125 8.96875 C12.47954086 11.08752502 12.47954086 11.08752502 15.0078125 12.984375 C17.69848745 15.21463619 19.7494999 17.57162421 21.93359375 20.296875 C22.70445312 21.25722656 23.4753125 22.21757812 24.26953125 23.20703125 C27.0697398 26.77852531 29.81865471 30.38245843 32.49609375 34.046875 C31.28388639 38.04535003 28.68094323 39.34156365 25.13916016 41.24291992 C24.39069824 41.6319751 23.64223633 42.02103027 22.87109375 42.421875 C21.23945087 43.29811522 19.60932269 44.17717997 17.98046875 45.05859375 C17.10068359 45.53345215 16.22089844 46.00831055 15.31445312 46.49755859 C10.19379704 49.3125 5.16100676 52.27803675 0.12109375 55.234375 C-0.85166504 55.80397949 -1.82442383 56.37358398 -2.82666016 56.96044922 C-3.77976074 57.51877441 -4.73286133 58.07709961 -5.71484375 58.65234375 C-6.65682617 59.19938965 -7.59880859 59.74643555 -8.56933594 60.31005859 C-10.65125289 61.54223473 -12.71265631 62.80937035 -14.75878906 64.10009766 C-15.82194336 64.75929199 -16.88509766 65.41848633 -17.98046875 66.09765625 C-18.94291504 66.70907471 -19.90536133 67.32049316 -20.89697266 67.95043945 C-23.50390625 69.046875 -23.50390625 69.046875 -25.72363281 68.36474609 C-28.07302239 66.6255792 -29.76250284 64.60801232 -31.62890625 62.359375 C-41.73214436 50.90243505 -56.1222268 43.42063331 -71.38208008 41.72753906 C-74.32581343 41.57500627 -77.24383525 41.52791724 -80.19140625 41.546875 C-81.75797974 41.55545532 -81.75797974 41.55545532 -83.35620117 41.56420898 C-101.92016267 41.98868328 -116.63827233 49.6745466 -129.50390625 63.046875 C-139.94062445 75.45083175 -144.86679911 89.46299725 -144.75390625 105.484375 C-144.76164062 106.57814453 -144.769375 107.67191406 -144.77734375 108.79882812 C-144.73599764 125.96779976 -137.72395857 141.08619552 -126.12109375 153.62109375 C-111.98527433 167.00694204 -96.04056396 172.21662118 -76.92236328 172.12890625 C-57.54999939 171.4718182 -42.68833531 162.40284248 -29.3515625 149.16015625 C-27.62377364 147.18397492 -26.5376568 145.4445268 -25.50390625 143.046875 C-21.24493051 144.59211812 -17.45004828 146.7267544 -13.578125 149.046875 C-12.91740494 149.43915283 -12.25668488 149.83143066 -11.57594299 150.2355957 C-9.44545051 151.50218332 -7.31827961 152.77422099 -5.19140625 154.046875 C-3.73474944 154.91544662 -2.27804366 155.78393613 -0.82128906 156.65234375 C25.36739056 172.28671718 25.36739056 172.28671718 31.49609375 177.046875 C29.36892652 183.04739152 25.58020827 187.24636662 21.49609375 192.046875 C20.28566406 193.47966797 20.28566406 193.47966797 19.05078125 194.94140625 C0.32063313 216.27141075 -24.14743611 229.15360955 -51.50390625 236.046875 C-52.56774536 236.33159668 -52.56774536 236.33159668 -53.65307617 236.62207031 C-61.07019832 238.38309921 -68.49466834 238.35061972 -76.07055664 238.30761719 C-78.30187469 238.29694451 -80.53237896 238.30753839 -82.76367188 238.3203125 C-94.78643594 238.33380868 -106.26379947 237.17297125 -117.75390625 233.421875 C-118.55256104 233.16390137 -119.35121582 232.90592773 -120.17407227 232.64013672 C-137.59729491 226.8123395 -152.44467893 217.85569795 -166.50390625 206.046875 C-167.26445312 205.42167969 -168.025 204.79648437 -168.80859375 204.15234375 C-174.8241446 199.04224779 -179.71049342 193.30223444 -184.50390625 187.046875 C-185.08785156 186.30179688 -185.67179687 185.55671875 -186.2734375 184.7890625 C-205.99726017 158.27507138 -215.33953526 123.67631284 -211.09228516 90.8671875 C-209.06299077 77.8108209 -206.07363032 65.06218229 -200.50390625 53.046875 C-200.03259277 52.02787109 -200.03259277 52.02787109 -199.55175781 50.98828125 C-184.19719518 18.5846544 -156.89377492 -6.53314756 -123.16796875 -18.828125 C-81.03010468 -31.76597665 -35.79290409 -27.23965303 0 0 Z " fill="#FEFEFE" transform="translate(340.50390625,150.953125)"/>
<path d="M0 0 C4.96514425 2.9785219 9.99399186 5.84760865 15.01367188 8.73291016 C17.2624426 10.0283567 19.51113963 11.32393117 21.75976562 12.61962891 C22.88882324 13.2697998 24.01788086 13.9199707 25.18115234 14.58984375 C30.64787167 17.73873069 36.11192075 20.89224279 41.57617188 24.04541016 C43.74282498 25.29543366 45.90949167 26.54543362 48.07617188 27.79541016 C67.57617188 39.04541016 67.57617188 39.04541016 87.07617188 50.29541016 C88.15012207 50.91472412 89.22407227 51.53403809 90.33056641 52.17211914 C92.48354058 53.41476776 94.6355697 54.65905527 96.78662109 55.9050293 C101.81160892 58.81308952 106.8437755 61.70492097 111.91217041 64.53659058 C113.69575413 65.53410456 115.47621589 66.53697966 117.25585938 67.54150391 C119.48162738 68.79570651 121.71305895 70.03993453 123.95117188 71.27197266 C131.53733786 75.5669394 138.90239626 80.33685332 142.57617188 88.54541016 C141.8559082 88.935271 141.8559082 88.935271 141.12109375 89.33300781 C127.76167003 96.58140634 114.59640684 104.13014127 101.49414062 111.83251953 C96.52788823 114.74778282 91.55182423 117.64622838 86.57617188 120.54541016 C85.97095703 119.78550781 85.36574219 119.02560547 84.7421875 118.24267578 C83.15686233 116.26852424 81.56111572 114.31622292 79.91992188 112.38916016 C79.45457031 111.84130859 78.98921875 111.29345703 78.50976562 110.72900391 C78.03667969 110.17341797 77.56359375 109.61783203 77.07617188 109.04541016 C74.49046237 106.00878673 71.91642851 102.97823661 69.45117188 99.84228516 C56.35334485 83.79744705 35.66595764 73.5143577 16.57617188 66.54541016 C15.17431641 65.97693359 15.17431641 65.97693359 13.74414062 65.39697266 C-6.88303288 57.54743309 -32.21330919 57.13367281 -53.42382812 62.54541016 C-54.93902294 62.89105141 -56.45467361 63.23469861 -57.97070312 63.57666016 C-80.49649259 68.84928862 -100.62242556 79.85342168 -117.02783203 96.17285156 C-118.26983258 97.39400006 -119.55327273 98.5726756 -120.84179688 99.74462891 C-143.46290262 120.76424043 -156.04749689 154.14798463 -157.87304688 184.42041016 C-158.67569824 208.87828402 -152.98020513 231.63545038 -142.42382812 253.54541016 C-143.16101074 253.9038501 -143.89819336 254.26229004 -144.65771484 254.6315918 C-151.79884445 258.14651733 -158.70434712 261.92457962 -165.54882812 265.98291016 C-167.62785864 267.20624062 -169.70730167 268.42887023 -171.78710938 269.65087891 C-172.8617041 270.28300293 -173.93629883 270.91512695 -175.04345703 271.56640625 C-182.04931462 275.66791439 -189.09357387 279.7033267 -196.13330078 283.74633789 C-197.17405762 284.34518799 -198.21481445 284.94403809 -199.28710938 285.56103516 C-200.20790283 286.08987305 -201.12869629 286.61871094 -202.07739258 287.16357422 C-203.89445579 288.23365827 -205.66924758 289.3756898 -207.42382812 290.54541016 C-208.41382813 290.54541016 -209.40382813 290.54541016 -210.42382812 290.54541016 C-213.14839992 283.55629122 -214.54664366 277.91516275 -214.56427002 270.33651733 C-214.56724114 269.62130122 -214.57021226 268.9060851 -214.57327342 268.16919577 C-214.58192883 265.77814981 -214.583466 263.38715411 -214.58496094 260.99609375 C-214.58959143 259.27923476 -214.5946164 257.56237679 -214.6000061 255.84552002 C-214.61311176 251.18406954 -214.61957174 246.52263345 -214.62401676 241.86116743 C-214.62695108 238.94588116 -214.63105662 236.03059879 -214.63552094 233.11531448 C-214.64919243 223.98553784 -214.6588602 214.85577015 -214.66272283 205.72598398 C-214.66719972 195.20327319 -214.68473197 184.68069255 -214.71372342 174.15802133 C-214.73537794 166.01428888 -214.74542915 157.87059295 -214.74676394 149.72683203 C-214.74780948 144.86786938 -214.75366332 140.00902912 -214.77158356 135.15009689 C-214.78812901 130.57492713 -214.79018847 125.99997092 -214.78144455 121.4247818 C-214.78067757 119.75233257 -214.7849718 118.07987155 -214.7949028 116.40745163 C-214.86693239 103.51357599 -214.20144279 91.7501203 -205.42382812 81.54541016 C-198.39872095 74.50437303 -188.85026217 70.01765279 -180.26953125 65.16113281 C-175.0760751 62.21241174 -169.90809304 59.21945472 -164.73632812 56.23291016 C-163.08455566 55.28085693 -163.08455566 55.28085693 -161.39941406 54.30957031 C-153.99574579 50.04021512 -146.61208258 45.73776311 -139.23632812 41.42041016 C-130.56562863 36.34742295 -121.84356706 31.37418055 -113.08740234 26.45043945 C-103.94317961 21.29809101 -94.88503245 16.00216847 -85.82617188 10.70166016 C-80.47575344 7.57187347 -75.11044204 4.47136992 -69.71679688 1.41650391 C-67.27226063 0.02749695 -64.83984187 -1.37667462 -62.41210938 -2.79443359 C-38.22912611 -16.82849273 -23.47143793 -14.2477607 0 0 Z " fill="#659AD1" transform="translate(287.423828125,66.45458984375)"/>
<path d="M0 0 C2.4986038 1.15050685 3.09494084 2.63400486 4.36621094 5.05175781 C8.19037255 11.81683559 12.90034865 17.74671203 17.74121094 23.80175781 C18.30066406 24.506875 18.86011719 25.21199219 19.43652344 25.93847656 C34.04988393 43.706087 56.09841347 55.97429178 77.74121094 62.80175781 C79.04445312 63.24455078 79.04445312 63.24455078 80.37402344 63.69628906 C92.36967697 67.61126924 104.72283903 68.24309963 117.24121094 68.23925781 C118.35722687 68.24085907 118.35722687 68.24085907 119.49578857 68.24249268 C132.15210424 68.2163832 143.68021193 66.83996691 155.74121094 62.80175781 C156.44793945 62.57713867 157.15466797 62.35251953 157.8828125 62.12109375 C174.10348517 56.90160798 188.76065661 48.8044812 201.74121094 37.80175781 C202.24990723 37.37668945 202.75860352 36.95162109 203.28271484 36.51367188 C211.62841319 29.48265248 218.2486791 21.54384614 224.74121094 12.80175781 C225.33804687 12.00640625 225.93488281 11.21105469 226.54980469 10.39160156 C226.94296875 9.86695313 227.33613281 9.34230469 227.74121094 8.80175781 C230.87045384 9.43887026 233.22331223 10.51230711 235.95996094 12.14550781 C237.21558838 12.89054565 237.21558838 12.89054565 238.49658203 13.65063477 C239.40230957 14.19550537 240.30803711 14.74037598 241.24121094 15.30175781 C242.18432129 15.86403076 243.12743164 16.42630371 244.09912109 17.00561523 C256.69045205 24.53094257 269.21681806 32.16570513 281.74121094 39.80175781 C280.86161315 44.76136162 277.66172144 46.97419691 273.74121094 49.80175781 C269.87908141 52.25114378 265.9154418 54.49984191 261.92871094 56.73925781 C260.18533548 57.73153475 258.44196652 58.72382333 256.69900513 59.71682739 C254.89973268 60.74072751 253.09868349 61.76144582 251.29736328 62.78173828 C245.7597521 65.92223416 240.25223213 69.11491891 234.74121094 72.30175781 C232.57468267 73.55199767 230.4080156 74.80199703 228.24121094 76.05175781 C227.16871094 76.67050781 226.09621094 77.28925781 224.99121094 77.92675781 C215.24121094 83.55175781 215.24121094 83.55175781 211.99072266 85.42700195 C209.82564023 86.67611299 207.66060112 87.92529911 205.49560547 89.17456055 C200.05505388 92.31378091 194.61373878 95.45166344 189.17089844 98.58691406 C178.59833154 104.67848675 168.0332965 110.78255552 157.49121094 116.92675781 C156.51595459 117.49434814 155.54069824 118.06193848 154.53588867 118.64672852 C149.53536104 121.56325179 144.55418141 124.50793052 139.59667969 127.49707031 C138.60249023 128.09374512 137.60830078 128.69041992 136.58398438 129.30517578 C134.7041489 130.43528864 132.82820816 131.5719164 130.95703125 132.71630859 C124.21531609 136.76262183 118.35084165 139.08468511 110.36621094 139.11425781 C109.32722656 139.13101563 108.28824219 139.14777344 107.21777344 139.16503906 C98.88181489 138.29397823 91.89829658 134.53006082 84.67871094 130.48925781 C83.73044434 129.96509277 82.78217773 129.44092773 81.80517578 128.90087891 C71.70568729 123.28637695 61.73601802 117.44867772 51.77783203 111.58837891 C46.7498029 108.63009645 41.7155278 105.68254922 36.67871094 102.73925781 C35.69136963 102.16224121 34.70402832 101.58522461 33.68676758 100.99072266 C25.79444776 96.39025877 17.8480166 91.89012967 9.88671875 87.41040039 C3.69950901 83.92384708 -2.44367448 80.37322249 -8.55297852 76.75219727 C-13.99353451 73.53219747 -19.46584736 70.36949583 -24.94580078 67.21704102 C-30.38792818 64.08632989 -35.8242684 60.9456509 -41.25878906 57.80175781 C-42.08910645 57.32222656 -42.91942383 56.84269531 -43.77490234 56.34863281 C-62.04613065 45.75985202 -62.04613065 45.75985202 -66.25878906 36.80175781 C-63.61702745 35.27766457 -60.97526452 33.75357362 -58.33349609 32.22949219 C-56.00893019 30.88838382 -53.68438271 29.54724359 -51.35986328 28.20605469 C-45.87635367 25.04226653 -40.39272162 21.87869235 -34.90811157 18.71681213 C-33.17778218 17.71926059 -31.44753337 16.72156929 -29.71728516 15.72387695 C-27.55889524 14.47933295 -25.40037503 13.23501485 -23.24169922 11.9909668 C-22.23929199 11.41290283 -21.23688477 10.83483887 -20.20410156 10.23925781 C-19.22989258 9.68109375 -18.25568359 9.12292969 -17.25195312 8.54785156 C-15.14363082 7.31793956 -13.05320105 6.05709827 -10.9765625 4.77441406 C-9.91211914 4.1234375 -8.84767578 3.47246094 -7.75097656 2.80175781 C-6.79304199 2.20363281 -5.83510742 1.60550781 -4.84814453 0.98925781 C-2.25878906 -0.19824219 -2.25878906 -0.19824219 0 0 Z " fill="#014482" transform="translate(144.2587890625,320.1982421875)"/>
<path d="M0 0 C1.57648315 0.01244751 1.57648315 0.01244751 3.18481445 0.02514648 C22.5942392 0.44562666 37.85663684 8.63853019 51.1875 22.4375 C55.1875 27.07189065 55.1875 27.07189065 55.1875 29.4375 C-3.3125 63.1875 -3.3125 63.1875 -6.56689453 65.06494141 C-8.7190213 66.30661527 -10.87104073 67.54847522 -13.02294922 68.79052734 C-18.06280977 71.69916823 -23.10367492 74.60601898 -28.14849854 77.50604248 C-29.92999578 78.53025665 -31.71114322 79.55507651 -33.4921875 80.58007812 C-35.72326625 81.86383375 -37.95499573 83.14645939 -40.1875 84.42773438 C-41.20070312 85.01103516 -42.21390625 85.59433594 -43.2578125 86.1953125 C-44.68722168 87.01757324 -44.68722168 87.01757324 -46.14550781 87.85644531 C-48.60435908 89.31410925 -50.98358046 90.85327374 -53.3671875 92.4296875 C-54.50414062 93.09226562 -55.64109375 93.75484375 -56.8125 94.4375 C-59.8125 93.4375 -59.8125 93.4375 -60.9453125 91.36328125 C-61.27273437 90.50089844 -61.60015625 89.63851562 -61.9375 88.75 C-62.27007812 87.90050781 -62.60265625 87.05101562 -62.9453125 86.17578125 C-67.20977771 72.71006001 -67.17977444 53.09624799 -60.8125 40.4375 C-60.338125 39.39078125 -59.86375 38.3440625 -59.375 37.265625 C-51.42176586 20.9767897 -37.53403468 8.53508445 -20.32714844 2.5769043 C-13.46547579 0.58495168 -7.13064611 -0.07314369 0 0 Z " fill="#659AD1" transform="translate(259.8125,191.5625)"/>
<path d="M0 0 C2.69360352 1.29077148 2.69360352 1.29077148 5.62890625 3.12109375 C6.73371338 3.80163818 7.83852051 4.48218262 8.97680664 5.18334961 C10.17212553 5.93459343 11.3673545 6.68598036 12.5625 7.4375 C13.79672977 8.20240799 15.0316862 8.9661446 16.26733398 9.72875977 C18.85418307 11.32645531 21.43777076 12.92925254 24.01953125 14.53515625 C29.88630943 18.17700281 35.79901752 21.74313143 41.70797729 25.31594849 C44.66232564 27.1026367 47.61477853 28.8924131 50.56640625 30.68359375 C52.03509155 31.57389282 52.03509155 31.57389282 53.53344727 32.48217773 C55.3789064 33.61780274 57.19704788 34.79803192 59 36 C58.66281837 41.18296337 55.72970182 43.92716942 52.1875 47.375 C51.30735229 48.23544922 51.30735229 48.23544922 50.40942383 49.11328125 C37.37444868 61.48047026 20.79874897 66.97927969 3 67 C1.41638672 67.01740234 1.41638672 67.01740234 -0.19921875 67.03515625 C-13.45924621 66.62740633 -25.82779273 61.38730548 -36 53 C-36.82886719 52.35546875 -37.65773437 51.7109375 -38.51171875 51.046875 C-45.74475488 45.0654975 -50.29308697 37.99265666 -55 30 C-51.50012598 27.06895608 -47.95853441 24.70202801 -43.984375 22.4609375 C-43.1309124 21.9766478 -43.1309124 21.9766478 -42.26020813 21.48257446 C-40.42578646 20.44256208 -38.58806793 19.4085523 -36.75 18.375 C-34.22147816 16.94738971 -31.69442805 15.51719428 -29.16796875 14.0859375 C-28.23754005 13.55948639 -28.23754005 13.55948639 -27.28831482 13.0223999 C-23.67780506 10.97333346 -20.09980519 8.8802379 -16.55078125 6.7265625 C-15.77702148 6.25814941 -15.00326172 5.78973633 -14.20605469 5.30712891 C-12.81963104 4.46169471 -11.43835413 3.60773636 -10.06347656 2.74365234 C-6.47315142 0.56183937 -4.18302641 -0.46816296 0 0 Z " fill="#014482" transform="translate(256,257)"/>
</svg>
