<?xml version="1.0" encoding="UTF-8"?>
<svg version="1.1" xmlns="http://www.w3.org/2000/svg" width="512" height="512">
<path d="M0 0 C168.96 0 337.92 0 512 0 C512 168.96 512 337.92 512 512 C343.04 512 174.08 512 0 512 C0 343.04 0 174.08 0 0 Z " fill="#FEFEFE" transform="translate(0,0)"/>
<path d="M0 0 C95.7 0 191.4 0 290 0 C288.85237051 24.10021922 288.85237051 24.10021922 287.8996582 34.40136719 C287.79209135 35.60575691 287.6845245 36.81014664 287.57369804 38.05103302 C287.27822902 41.35216486 286.97901163 44.65293138 286.67832732 47.95359135 C286.3483251 51.58843758 286.02372055 55.22376579 285.69880676 58.85906982 C285.27026912 63.65155894 284.84148214 68.44402437 284.41091824 73.23633194 C283.23581876 86.32094227 282.07979453 99.4071829 280.93115234 112.49414062 C280.84220459 113.50755303 280.75325684 114.52096544 280.6616137 115.56508732 C280.2962671 119.72829867 279.93102026 123.89151875 279.56591094 128.05475092 C278.6330446 138.69170643 277.69773834 149.32844698 276.76225686 159.96517277 C275.51022959 174.20114487 274.25865133 188.43715604 273.0090332 202.67333984 C272.14832746 212.47882796 271.28659088 222.28422487 270.42362672 232.08951449 C269.9718775 237.22287108 269.52063556 242.35627105 269.07066917 247.48978424 C268.65243416 252.26117125 268.23283106 257.03243596 267.81217194 261.80360985 C267.65887849 263.54504888 267.50608514 265.28653201 267.35383797 267.02806282 C267.1456757 269.40833673 266.93569013 271.78844324 266.7252655 274.16851807 C266.66612494 274.84978421 266.60698438 275.53105036 266.54605168 276.23296094 C266.13620608 280.83885417 265.59382317 285.41506735 265 290 C252.23680704 294.19191651 239.35955171 297.93185224 226.43664551 301.59286499 C217.24004575 304.19903712 208.06751489 306.85469345 198.9375 309.6875 C188.65676078 312.87089978 178.28622949 315.66974859 167.8828125 318.421875 C162.15669713 319.94130873 156.48578502 321.60012763 150.83203125 323.37109375 C143.74706574 324.94444471 137.97907449 323.3613612 131.25 321.265625 C129.09823516 320.61721639 126.94583745 319.97090594 124.79296875 319.32617188 C123.57399902 318.95967529 122.3550293 318.59317871 121.09912109 318.21557617 C113.85626481 316.05538901 106.57875762 314.01348221 99.30764771 311.95094299 C95.61712113 310.90357817 91.92758899 309.85273301 88.23802185 308.80199432 C81.55062917 306.89753008 74.8627941 304.99463465 68.17382812 303.09570312 C63.45099099 301.75482089 58.7290895 300.41068794 54.00778198 299.06443024 C52.2284446 298.55771527 50.44876719 298.05219258 48.66873169 297.54793549 C46.1910274 296.84590555 43.71454081 296.13972353 41.23828125 295.43261719 C40.5192865 295.2299826 39.80029175 295.02734802 39.05950928 294.818573 C34.27032426 293.44479778 29.64732108 291.79747962 25 290 C24.84966309 288.12351524 24.84966309 288.12351524 24.69628906 286.2091217 C22.45096833 258.23329932 20.08489389 230.27205195 17.53610229 202.32229614 C16.57073659 191.73370221 15.61584876 181.14415806 14.66015625 170.5546875 C14.55772173 169.42020487 14.45528721 168.28572224 14.34974861 167.11686134 C11.54889625 136.08753322 8.79706299 105.05386017 6.05307734 74.01945966 C5.57473982 68.61077218 5.09514797 63.20219683 4.61499023 57.79367065 C4.0269201 51.1693875 3.44041002 44.54496854 2.85594231 37.92036653 C2.55447943 34.50381863 2.25233095 31.08733502 1.94836235 27.67100906 C1.61643789 23.93587969 1.28723504 20.20052023 0.95874023 16.46508789 C0.86065063 15.36824393 0.76256104 14.27139997 0.66149902 13.14131832 C0.57355576 12.13486043 0.48561249 11.12840254 0.39500427 10.09144592 C0.31820151 9.22302598 0.24139875 8.35460604 0.16226864 7.45987034 C-0.00144778 4.9780527 0 2.48721166 0 0 Z " fill="#0277BD" transform="translate(109,94)"/>
<path d="M0 0 C51.48 0 102.96 0 156 0 C153.83996879 45.36065546 153.83996879 45.36065546 152.46435547 62.04785156 C151.68530516 71.67291168 151.23207909 81.31836053 150.73794556 90.96139526 C149.43420128 116.32805436 147.8225641 141.66577299 146 167 C137.76076702 169.72597769 129.51997792 172.44718375 121.27718163 175.16236782 C117.44947631 176.42338188 113.62232025 177.68601206 109.79638672 178.95239258 C106.1018264 180.17522177 102.40586683 181.39373107 98.7089119 182.60930061 C97.30106914 183.07303432 95.89373111 183.53830332 94.4869194 184.00515556 C92.51132506 184.66046373 90.53398121 185.31021273 88.55615234 185.95874023 C86.87070816 186.51500343 86.87070816 186.51500343 85.1512146 187.08250427 C79.3482446 188.77207507 75.68069344 189.27099939 69.89038086 187.30932617 C68.11340065 186.71827339 68.11340065 186.71827339 66.30052185 186.11528015 C65.02184993 185.67483631 63.74329329 185.23405768 62.46484375 184.79296875 C61.14056574 184.34678673 59.81589737 183.90176178 58.49085999 183.45783997 C55.01166108 182.28857099 51.53825168 181.10294311 48.06573486 179.91400146 C44.53892782 178.71007866 41.00642441 177.52311567 37.47460938 176.33398438 C32.30705443 174.59034609 27.14135702 172.84142333 21.98022461 171.07885742 C20.42518471 170.54804817 20.42518471 170.54804817 18.83872986 170.0065155 C16.19540697 169.06928456 13.59535114 168.0620368 11 167 C9.12752956 151.25118608 8.83031261 135.86577091 9 120 C20.22 120 31.44 120 43 120 C43.495 130.395 43.495 130.395 44 141 C48.42478226 142.59947306 52.8509179 144.18869654 57.28735352 145.75463867 C58.79356324 146.28946515 60.2978437 146.82975912 61.80004883 147.37573242 C63.96724754 148.16230272 66.14076184 148.92855655 68.31640625 149.69140625 C68.98023819 149.93717911 69.64407013 150.18295197 70.32801819 150.43617249 C77.51710542 152.91031059 83.07777842 151.15491336 90.02734375 148.71484375 C90.97801476 148.3840255 90.97801476 148.3840255 91.94789124 148.04652405 C93.9465772 147.3494882 95.94202627 146.64367236 97.9375 145.9375 C99.30252901 145.45969934 100.66776176 144.98248033 102.03320312 144.50585938 C105.35784861 143.34394817 108.67965369 142.17414868 112 141 C113.87682344 128.28133242 114.41187007 115.93885843 115 103 C90.25 103 65.5 103 40 103 C39.4851573 91.6734607 39 80.33823423 39 69 C64.74 68.67 90.48 68.34 117 68 C117.82015356 60.82233242 117.82015356 60.82233242 118.28125 53.66796875 C118.31863281 52.76755859 118.35601562 51.86714844 118.39453125 50.93945312 C118.46559119 49.08531495 118.53588814 47.2311474 118.60546875 45.37695312 C118.64285156 44.48298828 118.68023437 43.58902344 118.71875 42.66796875 C118.74904297 41.86641357 118.77933594 41.0648584 118.81054688 40.23901367 C119 38 119 38 120 34 C81.06 34 42.12 34 2 34 C0 16 0 16 0 0 Z " fill="#FEFEFE" transform="translate(176,162)"/>
<path d="M0 0 C38.61 0 77.22 0 117 0 C115.8512948 21.82539888 115.8512948 21.82539888 115.16516113 29.50712585 C115.08742478 30.40792981 115.00968843 31.30873377 114.92959642 32.23683482 C114.67552206 35.17208095 114.41690681 38.10690663 114.15820312 41.04174805 C113.97221398 43.17930252 113.78650766 45.31688161 113.60105896 47.45448303 C113.10196388 53.19777494 112.59885563 58.94070858 112.09488487 64.68357444 C111.56600296 70.71739265 111.0406207 76.75151571 110.51477051 82.78559875 C109.63266453 92.90177504 108.74806841 103.01773106 107.86181641 113.13354492 C106.83819675 124.81749184 105.81790894 136.50172588 104.79952478 148.18613023 C103.71221038 160.66111229 102.62260695 173.13589362 101.5322628 185.6106112 C101.21916716 189.1944438 100.906484 192.77831219 100.59388733 196.36218834 C100.10283218 201.99065045 99.61023158 207.61897528 99.11644173 213.2471981 C98.93573721 215.30949453 98.75553609 217.37183514 98.57588005 219.43422318 C98.33025673 222.25283741 98.08278146 225.07128319 97.83483887 227.88969421 C97.76450581 228.70165794 97.69417275 229.51362166 97.62170839 230.35019034 C97.18815423 235.25048293 96.63678461 240.12182467 96 245 C83.49782206 248.91164722 70.9647578 252.59785615 58.29736328 255.93603516 C44.41718248 259.63105182 30.64281248 263.70304697 16.85693359 267.73291016 C15.89129486 268.0141423 14.92565613 268.29537445 13.93075562 268.58512878 C12.09432527 269.12001441 10.25854224 269.65712871 8.42349243 270.19673157 C7.60569305 270.43465927 6.78789368 270.67258698 5.9453125 270.91772461 C4.87047607 271.23246986 4.87047607 271.23246986 3.77392578 271.55357361 C2 272 2 272 0 272 C0 258.47 0 244.94 0 231 C9.37947271 227.48269773 18.66727448 224.00985995 28.17578125 220.9140625 C29.23363327 220.56741547 30.29148529 220.22076843 31.38139343 219.86361694 C33.5794582 219.14447821 35.77809367 218.4270815 37.97729492 217.71142578 C41.35335824 216.61169064 44.72653244 215.50338799 48.09960938 214.39453125 C50.24983297 213.69219676 52.40021762 212.99035509 54.55078125 212.2890625 C55.55691971 211.95790436 56.56305817 211.62674622 57.59968567 211.28555298 C58.99340645 210.83410416 58.99340645 210.83410416 60.4152832 210.37353516 C61.63862114 209.97432358 61.63862114 209.97432358 62.88667297 209.56704712 C65 209 65 209 68 209 C67.97679687 208.08605469 67.95359375 207.17210937 67.9296875 206.23046875 C67.78061897 197.29899347 68.19508826 188.48847974 68.9140625 179.5859375 C70.08929319 164.39474828 70.89794292 149.19254001 71.67724609 133.97680664 C72.37735387 120.38800243 73.20409951 106.82480678 74.28807068 93.26092529 C75.11900904 82.76815002 75.67199698 72.26953241 76.17993164 61.75708008 C76.29533096 59.39388211 76.41509874 57.0309339 76.53515625 54.66796875 C76.56746841 53.96600876 76.59978058 53.26404877 76.6330719 52.54081726 C76.81978806 48.88306037 77.2757703 45.62114852 78 42 C52.26 42 26.52 42 0 42 C0 28.14 0 14.28 0 0 Z " fill="#039BE4" transform="translate(254,120)"/>
<path d="M0 0 C11.22 0 22.44 0 34 0 C34.495 10.395 34.495 10.395 35 21 C52.325 26.94 52.325 26.94 70 33 C70.495 50.82 70.495 50.82 71 69 C66.17131246 68.31018749 62.53420177 67.67698246 58.05224609 66.17407227 C56.36547256 65.61327721 56.36547256 65.61327721 54.6446228 65.04115295 C52.85213608 64.43490334 52.85213608 64.43490334 51.0234375 63.81640625 C49.78002594 63.40083969 48.53661438 62.98527313 47.25552368 62.55711365 C44.63363553 61.68061465 42.01308285 60.80027476 39.39355469 59.91674805 C36.04528606 58.78744733 32.69488531 57.66465012 29.34360313 56.54432774 C26.13200589 55.47046273 22.92144261 54.39353245 19.7109375 53.31640625 C18.51189789 52.91426407 17.31285828 52.51212189 16.07748413 52.09779358 C14.95927277 51.72077805 13.8410614 51.34376251 12.68896484 50.95532227 C11.21839127 50.46020897 11.21839127 50.46020897 9.71810913 49.95509338 C7.11297826 49.03969847 4.55517449 48.04592013 2 47 C0.12752956 31.25118608 -0.16968739 15.86577091 0 0 Z " fill="#EBECED" transform="translate(185,282)"/>
<path d="M0 0 C51.48 0 102.96 0 156 0 C156 1.65 156 3.3 156 5 C155.67 3.68 155.34 2.36 155 1 C129.92 1 104.84 1 79 1 C79 11.89 79 22.78 79 34 C53.59 34 28.18 34 2 34 C0 16 0 16 0 0 Z " fill="#EAECED" transform="translate(176,162)"/>
<path d="M0 0 C12.21 0 24.42 0 37 0 C37.16169656 12.93572504 37.04940639 25.22780659 35 38 C27.74294685 40.98229563 20.41255961 43.68082016 13 46.25 C11.96488281 46.61351562 10.92976563 46.97703125 9.86328125 47.3515625 C8.87714844 47.69445312 7.89101563 48.03734375 6.875 48.390625 C5.98554688 48.70032227 5.09609375 49.01001953 4.1796875 49.32910156 C2 50 2 50 0 50 C0 33.5 0 17 0 0 Z " fill="#049BE4" transform="translate(254,265)"/>
<path d="M0 0 C38.94 0 77.88 0 118 0 C116.66666667 33.33333333 116.66666667 33.33333333 115 35 C112.56603981 35.09498646 110.16057048 35.12558417 107.72631836 35.11352539 C106.58493156 35.11374443 106.58493156 35.11374443 105.42048645 35.1139679 C102.89357702 35.11326862 100.36674038 35.10547555 97.83984375 35.09765625 C96.0924941 35.09579212 94.34514393 35.0943682 92.59779358 35.09336853 C87.98968066 35.08954293 83.38159905 35.07971229 78.77349854 35.06866455 C74.07491479 35.05845134 69.37632601 35.0538711 64.67773438 35.04882812 C55.45180913 35.03809005 46.22590716 35.02101313 37 35 C37 34.67 37 34.34 37 34 C49.87 34 62.74 34 76 34 C76 23.11 76 12.22 76 1 C50.92 1 25.84 1 0 1 C0 0.67 0 0.34 0 0 Z " fill="#139FE4" transform="translate(178,196)"/>
<path d="M0 0 C13.2 0 26.4 0 40 0 C40 10.89 40 21.78 40 33 C52.21 33 64.42 33 77 33 C77 35.97 77 38.94 77 42 C76.67 42 76.34 42 76 42 C76 39.36 76 36.72 76 34 C51.25 34 26.5 34 1 34 C0.4851573 22.6734607 0 11.33823423 0 0 Z " fill="#E8ECED" transform="translate(215,231)"/>
</svg>
