<?xml version="1.0" encoding="UTF-8"?>
<svg version="1.1" xmlns="http://www.w3.org/2000/svg" width="512" height="512">
<path d="M0 0 C168.96 0 337.92 0 512 0 C512 168.96 512 337.92 512 512 C343.04 512 174.08 512 0 512 C0 343.04 0 174.08 0 0 Z " fill="#FEFEFE" transform="translate(0,0)"/>
<path d="M0 0 C108.9 0 217.8 0 330 0 C326.48345364 12.89400332 326.48345364 12.89400332 323.875 18.6875 C323.5764209 19.3568457 323.2778418 20.02619141 322.97021484 20.71582031 C317.33061943 33.07965966 310.56465558 44.42512774 302 55 C301.59056152 55.51095215 301.18112305 56.0219043 300.75927734 56.54833984 C270.95144411 93.57196775 230.9151039 116.53105855 183.6171875 122.6171875 C160.24708767 124.94948049 136.41477443 123.00761684 114 116 C113.03562012 115.70899414 113.03562012 115.70899414 112.05175781 115.41210938 C94.33665632 109.99701285 77.74034709 101.19020716 63 90 C62.14664063 89.35675781 61.29328125 88.71351563 60.4140625 88.05078125 C36.03897608 69.09665254 17.66748946 45.60651907 5 17.5 C4.72115967 16.89027344 4.44231934 16.28054688 4.1550293 15.65234375 C1.8682314 10.3501219 1.19219633 5.96098167 0 0 Z " fill="#2C2255" transform="translate(111,306)"/>
<path d="M0 0 C1.04438232 0.27166992 1.04438232 0.27166992 2.10986328 0.54882812 C5.80437578 1.5366139 9.40173319 2.70844334 13 4 C13.96421875 4.32097656 14.9284375 4.64195313 15.921875 4.97265625 C36.3324182 12.19923183 54.67851963 23.6155261 70.32421875 38.4765625 C72.5602668 40.5853027 74.83568144 42.58641577 77.1875 44.5625 C96.88750265 61.78986858 116.65561173 90.93367041 121 117 C12.1 117 -96.8 117 -209 117 C-208.08371267 110.58598867 -206.70359511 106.12312067 -204.1875 100.3125 C-203.59678711 98.94569092 -203.59678711 98.94569092 -202.99414062 97.55126953 C-196.60189826 83.20330358 -188.53847266 69.68353691 -178 58 C-176.99646484 56.83597656 -176.99646484 56.83597656 -175.97265625 55.6484375 C-173.69843767 53.04812053 -171.36380166 50.51926844 -169 48 C-168.48228027 47.44296387 -167.96456055 46.88592773 -167.43115234 46.31201172 C-125.24061345 1.26273979 -59.42336261 -15.6664762 0 0 Z " fill="#2C2255" transform="translate(320,89)"/>
<path d="M0 0 C-3.01286825 1.65812976 -5.79734071 2.51685747 -9.15625 3.2265625 C-56.87143678 13.72192907 -98.22618027 40.6830204 -125.4375 81.5 C-136.24339921 98.43375261 -144.46029139 116.21114532 -149.75 135.5625 C-150.04849854 136.64072021 -150.04849854 136.64072021 -150.35302734 137.74072266 C-153.96662738 151.720547 -154.40746155 165.77978304 -154.375 180.125 C-154.37445618 181.03108002 -154.37391235 181.93716003 -154.37335205 182.87069702 C-154.33624703 196.31711193 -153.67382792 208.9966198 -150 222 C-149.79101074 222.8048584 -149.58202148 223.6097168 -149.36669922 224.43896484 C-142.23011748 251.92148674 -129.53175384 277.92579946 -110.0703125 298.77734375 C-108.20374044 300.78126734 -106.44383926 302.83752915 -104.6875 304.9375 C-79.03881595 334.09169895 -41.28693638 350.97622888 -4 359 C-4 359.33 -4 359.66 -4 360 C-52.60645059 360.85079286 -96.86803457 342.38757806 -131.9765625 308.95703125 C-154.12755482 287.46986993 -170.1307111 260.3594875 -178.875 230.8125 C-179.14916748 229.88816162 -179.42333496 228.96382324 -179.70581055 228.01147461 C-183.86623417 213.17422341 -185.47900976 199.01790925 -185.33618164 183.65209961 C-185.31249027 180.9363845 -185.3156638 178.22165272 -185.32226562 175.50585938 C-185.30101697 161.31288285 -184.50893645 147.42518453 -180.375 133.75 C-180.11557617 132.87432373 -179.85615234 131.99864746 -179.58886719 131.09643555 C-171.04317273 103.07187995 -157.08580068 77.49605096 -136.48242188 56.51757812 C-135.01427332 55.01461182 -133.57620171 53.48716376 -132.140625 51.953125 C-109.95823099 28.59093671 -78.98587581 12.21702936 -47.8125 4.875 C-46.71534668 4.61638184 -45.61819336 4.35776367 -44.48779297 4.09130859 C-29.58099103 0.66443237 -15.2557737 -0.29848253 0 0 Z " fill="#F79521" transform="translate(249,76)"/>
<path d="M0 0 C70.29 0 140.58 0 213 0 C211.38296318 4.85111045 209.68508225 8.50810387 206.9375 12.6875 C206.54046875 13.2961792 206.1434375 13.9048584 205.734375 14.53198242 C187.53939497 41.95718398 161.59023772 58.50016912 130.00390625 66.45703125 C98.21542622 72.20293336 66.95251206 65.74743775 40.22998047 47.81201172 C22.10741426 35.13609001 10.45725369 19.60735067 0 0 Z " fill="#3F3179" transform="translate(169,306)"/>
<path d="M0 0 C112.2 0 224.4 0 340 0 C342 10 342 10 342 21 C228.48 21 114.96 21 -2 21 C-2 8 -2 8 0 0 Z " fill="#30265A" transform="translate(106,226)"/>
<path d="M0 0 C113.52 0 227.04 0 344 0 C343 15 343 15 342 21 C229.47 21 116.94 21 1 21 C0 11 0 11 0 0 Z " fill="#392E69" transform="translate(104,266)"/>
<path d="M0 0 C18.15 0 36.3 0 55 0 C55.99 6.6 56.98 13.2 58 20 C39.52 20 21.04 20 2 20 C0 11 0 11 0 0 Z " fill="#2C2255" transform="translate(104,266)"/>
<path d="M0 0 C18.15 0 36.3 0 55 0 C54 15 54 15 53 20 C34.52 20 16.04 20 -3 20 C-1 3 -1 3 0 0 Z " fill="#2C2255" transform="translate(393,266)"/>
</svg>
