<?xml version="1.0" encoding="UTF-8"?>
<svg version="1.1" xmlns="http://www.w3.org/2000/svg" width="512" height="512">
<path d="M0 0 C168.96 0 337.92 0 512 0 C512 168.96 512 337.92 512 512 C343.04 512 174.08 512 0 512 C0 343.04 0 174.08 0 0 Z " fill="#FEFEFE" transform="translate(0,0)"/>
<path d="M0 0 C3.26275031 0.72870812 4.58803378 1.94381249 7.01379395 4.23197937 C7.88777832 5.05298126 8.7617627 5.87398315 9.66223145 6.71986389 C10.64661732 7.67215307 11.62893528 8.62658312 12.60949707 9.58280945 C13.13668335 10.09519291 13.66386963 10.60757637 14.20703125 11.1354866 C18.53084775 15.35144274 22.80688282 19.61460452 27.07824707 23.8835907 C28.44914782 25.25127146 29.8201208 26.61887983 31.19116211 27.98641968 C34.0436372 30.83294869 36.89408076 33.68149417 39.74328613 36.53129578 C43.3943531 40.1824651 47.05229726 43.82666161 50.71196747 47.4692049 C53.53604299 50.28217852 56.35557872 53.09966846 59.17384338 55.91846275 C60.5214456 57.26488581 61.87066764 58.60968966 63.22154236 59.95282936 C65.10238123 61.8238881 66.97679947 63.70115496 68.84973145 65.5801239 C69.40657623 66.13134918 69.96342102 66.68257446 70.53713989 67.25050354 C74.29211027 71.03635812 76.56822709 73.4367704 76.67199707 78.83280945 C73.78397413 89.02583158 61.64885224 97.70742108 54.28527832 105.07499695 C52.89231773 106.47117532 51.49943056 107.86742695 50.10661316 109.26374817 C47.20105953 112.1752609 44.29347565 115.08472859 41.38464355 117.9929657 C37.65718897 121.72031813 33.93669324 125.45453531 30.21787739 129.19050407 C27.34999965 132.06948653 24.47760248 134.94392655 21.60390282 137.81709671 C20.22956922 139.19261005 18.8568562 140.56974457 17.4858036 141.94852829 C15.57381567 143.87029733 13.65561588 145.78564656 11.73571777 147.69950867 C11.17199966 148.26884628 10.60828156 148.8381839 10.02748108 149.42477417 C6.22708628 153.19483311 3.6185061 155.23509635 -1.64050293 156.14530945 C-11.70563844 154.63553912 -21.34239446 140.77529612 -28.35534668 133.7507782 C-29.79868727 132.30811204 -31.24217622 130.86559428 -32.68580627 129.42321777 C-35.69552518 126.41496644 -38.70344449 123.40493044 -41.71008301 120.39360046 C-45.56927743 116.52867841 -49.4329856 112.66830461 -53.29802608 108.80922985 C-56.27227691 105.83858385 -59.24415274 102.86557111 -62.21530342 99.89182472 C-63.63997509 98.46648516 -65.06539221 97.0418903 -66.49155998 95.61804771 C-68.47584253 93.63629369 -70.45691026 91.65138189 -72.43713379 89.66557312 C-73.02876816 89.07596298 -73.62040253 88.48635284 -74.22996521 87.87887573 C-77.66166793 84.42914395 -79.21836337 82.83082127 -79.89050293 77.95780945 C-79.82999382 74.25960009 -78.95265331 72.61896322 -76.46252441 69.91874695 C-75.82426727 69.22410339 -75.18601013 68.52945984 -74.52841187 67.81376648 C-70.65019665 63.76675992 -66.71353469 59.78434605 -62.73815918 55.83280945 C-61.83802597 54.93409119 -60.93789276 54.03537292 -60.01048279 53.10942078 C-57.6433903 50.7469437 -55.27415653 48.38665833 -52.90380859 46.02745056 C-50.47499551 43.60895764 -48.0490919 41.18754998 -45.6229248 38.7664032 C-40.88142924 34.03587991 -36.13708395 29.30822972 -31.39050293 24.58280945 C-28.50277326 25.96996569 -26.46063799 27.27889037 -24.22644043 29.5867157 C-23.66183105 30.1622821 -23.09722168 30.73784851 -22.51550293 31.33085632 C-21.93800293 31.92962585 -21.36050293 32.52839539 -20.76550293 33.14530945 C-19.60890142 34.33630329 -18.45014515 35.5252095 -17.28894043 36.7117157 C-16.78024414 37.2383783 -16.27154785 37.76504089 -15.74743652 38.30766296 C-14.39650188 39.69923115 -14.39650188 39.69923115 -12.39050293 40.58280945 C-12.43690918 41.16288757 -12.48331543 41.7429657 -12.53112793 42.34062195 C-12.79213384 47.98953555 -12.19644451 51.10523112 -8.39050293 55.58280945 C-7.73050293 55.91280945 -7.07050293 56.24280945 -6.39050293 56.58280945 C-6.26677391 62.75745858 -6.17610149 68.93138401 -6.11584473 75.10697937 C-6.09072242 77.20704215 -6.05661835 79.30701768 -6.01330566 81.40678406 C-5.95255422 84.42791785 -5.9242703 87.44789441 -5.90222168 90.4695282 C-5.87641525 91.40616806 -5.85060883 92.34280792 -5.82402039 93.30783081 C-5.8211977 99.88915701 -5.8211977 99.88915701 -8.85852051 103.58988953 C-9.69407471 104.2475531 -10.52962891 104.90521667 -11.39050293 105.58280945 C-12.94526983 108.69234324 -12.6769473 111.14547705 -12.39050293 114.58280945 C-10.13170923 118.82309563 -10.13170923 118.82309563 -6.39050293 121.58280945 C-2.12795129 122.01827641 1.55129246 122.01059429 5.54699707 120.39530945 C8.85359005 117.48951562 9.47416771 114.88197133 9.92199707 110.58280945 C9.5619203 107.12607246 8.68334328 105.34793773 6.60949707 102.58280945 C5.12449707 101.59280945 5.12449707 101.59280945 3.60949707 100.58280945 C3.24873352 98.74781799 3.24873352 98.74781799 3.2689209 96.50028992 C3.26914749 95.6595694 3.26937408 94.81884888 3.26960754 93.95265198 C3.2850914 93.04427582 3.30057526 92.13589966 3.31652832 91.19999695 C3.32077316 90.27059296 3.32501801 89.34118896 3.32939148 88.38362122 C3.34621695 85.40805889 3.38387604 82.43316789 3.42199707 79.45780945 C3.43703891 77.4434963 3.45072819 75.42917255 3.4630127 73.4148407 C3.49613313 68.47057066 3.54794178 63.52680396 3.60949707 58.58280945 C4.08444611 58.99037476 4.55939514 59.39794006 5.04873657 59.81785583 C5.67480804 60.35485107 6.30087952 60.89184631 6.94592285 61.44511414 C7.56524689 61.97642944 8.18457092 62.50774475 8.82266235 63.05516052 C10.28501596 64.30539531 11.7548095 65.5469232 13.22668457 66.78593445 C17.38726824 70.55781307 20.06967287 73.05812983 20.42199707 78.83280945 C20.43359863 80.07611023 20.43359863 80.07611023 20.44543457 81.3445282 C20.68988881 84.6795824 22.23296118 86.35030603 24.60949707 88.58280945 C27.80073481 90.17842832 31.13694798 89.96272365 34.60949707 89.58280945 C38.19502588 87.9459376 39.40264762 86.89308362 41.60949707 83.58280945 C42.40882237 78.61857864 42.38841193 74.77552282 39.60949707 70.52030945 C35.72429022 68.01111336 33.20142638 67.94724828 28.60949707 67.58280945 C24.04360357 65.70544567 20.91776434 62.40873484 17.42199707 59.02030945 C16.78068848 58.43700867 16.13937988 57.85370789 15.4786377 57.25273132 C11.33679064 53.22459918 9.84422152 50.39320012 9.71081543 44.57695007 C9.55821631 41.57350529 8.53006383 39.84633455 6.60949707 37.58280945 C3.54110784 35.82944417 1.55811428 35.5826428 -2.00378418 35.5710907 C-8.06601142 34.84420494 -11.43349415 30.28935271 -15.39050293 26.02030945 C-16.16522949 25.21400085 -16.93995605 24.40769226 -17.73815918 23.57695007 C-19.63913389 21.59383448 -21.52181417 19.59629612 -23.39050293 17.58280945 C-20.10571197 13.69377662 -16.81254332 9.8654405 -13.20300293 6.27030945 C-12.54944824 5.61417664 -11.89589355 4.95804382 -11.22253418 4.2820282 C-7.55051135 0.87620745 -4.90621486 -0.22063303 0 0 Z " fill="#DE4D37" transform="translate(148.3905029296875,178.4171905517578)"/>
<path d="M0 0 C1.38276123 0.00966797 1.38276123 0.00966797 2.79345703 0.01953125 C16.36621954 0.1611216 29.9365072 0.6936407 43.5 1.1875 C43.5 5.4775 43.5 9.7675 43.5 14.1875 C39.21 14.1875 34.92 14.1875 30.5 14.1875 C31.325 15.59 32.15 16.9925 33 18.4375 C36.37177969 25.25812863 36.94363963 31.67215138 34.61328125 38.9609375 C31.34080949 46.20168897 26.79362117 51.06608202 19.375 54 C13.11049419 56.1444885 7.24996258 56.31361821 0.6875 56.25 C-0.63797852 56.24323242 -0.63797852 56.24323242 -1.99023438 56.23632812 C-4.16018559 56.22459866 -6.33010172 56.20666495 -8.5 56.1875 C-9.82 58.4975 -11.14 60.8075 -12.5 63.1875 C-11.32824219 63.13529297 -11.32824219 63.13529297 -10.1328125 63.08203125 C-1.36707084 62.87704175 7.2201337 63.50327768 15.9375 64.4375 C17.05044434 64.54682861 18.16338867 64.65615723 19.31005859 64.76879883 C27.15781543 65.66705027 34.01210204 67.04339828 39.4375 73.25 C43.5326781 79.08252638 43.0643139 85.29305622 42.5 92.1875 C40.78490992 98.86214992 36.08738055 103.41146581 30.5 107.1875 C20.43941527 112.38310714 10.73035817 112.36920993 -0.375 112.375 C-1.60347656 112.38724609 -2.83195312 112.39949219 -4.09765625 112.41210938 C-14.54751975 112.4289098 -23.07755808 111.76691345 -31.5 105.1875 C-35.20994614 101.11852681 -35.94237211 97.03935746 -35.93359375 91.67578125 C-35.2552735 87.78307858 -33.17222661 85.13229742 -30.8125 82.03515625 C-29.3069611 80.29348221 -29.3069611 80.29348221 -29.5 78.1875 C-30.16 77.6925 -30.82 77.1975 -31.5 76.6875 C-34.14905464 73.3761817 -34.36032058 71.10186729 -34.23046875 66.921875 C-33.01482189 62.37132526 -29.97150174 59.63750328 -26.6640625 56.4140625 C-24.68417895 54.3769982 -23.57898317 52.78417378 -22.5 50.1875 C-23.4075 49.5275 -24.315 48.8675 -25.25 48.1875 C-30.53634165 43.80096118 -33.09051185 37.45020449 -33.73828125 30.70703125 C-33.99420446 21.37256908 -31.48031296 14.57724924 -25.1328125 7.6875 C-17.96606887 1.10369724 -9.34895519 -0.13868281 0 0 Z " fill="#312A0A" transform="translate(290.5,216.8125)"/>
<path d="M0 0 C4.62 0 9.24 0 14 0 C14 7.26 14 14.52 14 22 C21.59 22 29.18 22 37 22 C37 26.95 37 31.9 37 37 C29.41 37 21.82 37 14 37 C14.07405526 42.74822058 14.15693443 48.49490081 14.26245117 54.24243164 C14.29566354 56.19677702 14.32370695 58.15121747 14.34643555 60.10571289 C14.38004933 62.91854282 14.43236854 65.73050447 14.48828125 68.54296875 C14.49467117 69.41398727 14.5010611 70.2850058 14.50764465 71.18241882 C14.62173936 75.91167494 14.90728099 79.17261211 18 83 C23.39897315 85.69948658 31.2377736 83.83814202 37 83 C37.50512244 84.60256108 38.00391627 86.20711792 38.5 87.8125 C38.7784375 88.70582031 39.056875 89.59914063 39.34375 90.51953125 C40 93 40 93 40 96 C38.22934889 96.64633275 36.45847247 97.2920483 34.6875 97.9375 C33.70136719 98.29714844 32.71523438 98.65679687 31.69921875 99.02734375 C26.3323471 100.96128158 21.97466011 101.25117697 16.3125 101.3125 C15.43916016 101.34150391 14.56582031 101.37050781 13.66601562 101.40039062 C6.35173149 101.47140309 0.92853972 99.85147289 -4.375 94.6875 C-8.41130396 88.01207421 -8.27255696 81.40282935 -8.1953125 73.81640625 C-8.1924826 72.76090073 -8.18965271 71.7053952 -8.18673706 70.61790466 C-8.17559415 67.26598496 -8.15050024 63.91433816 -8.125 60.5625 C-8.1149626 58.28190492 -8.10583808 56.00130562 -8.09765625 53.72070312 C-8.07567407 48.14703119 -8.04118473 42.57356178 -8 37 C-11.96 37 -15.92 37 -20 37 C-20 32.71 -20 28.42 -20 24 C-18.288125 23.46375 -16.57625 22.9275 -14.8125 22.375 C-9.91432885 20.54132567 -6.28385685 18.89140995 -4 14 C-2.43147057 9.34634976 -1.21726814 4.77890455 0 0 Z " fill="#302808" transform="translate(402,193)"/>
<path d="M0 0 C10.23 0 20.46 0 31 0 C31.33 21.12 31.66 42.24 32 64 C34.97 64.33 37.94 64.66 41 65 C41 68.96 41 72.92 41 77 C26.81 77 12.62 77 -2 77 C-2 73.04 -2 69.08 -2 65 C2.95 64.505 2.95 64.505 8 64 C8 47.83 8 31.66 8 15 C4.7 14.01 1.4 13.02 -2 12 C-1.51775271 7.86645178 -1.01114519 4.04458076 0 0 Z " fill="#332B0B" transform="translate(343,217)"/>
<path d="M0 0 C3.39366345 2.31386145 4.93764821 4.18059058 6.75 7.875 C7.697942 13.21116787 6.72699024 17.30319356 3.75 21.875 C-0.2377542 25.48890224 -3.89839298 26.17236304 -9.25390625 26.09375 C-13.17914453 25.6635869 -15.47208374 23.76404715 -18 20.875 C-20.73045205 16.50627673 -21.01816689 11.87661994 -20.25 6.875 C-18.59625963 3.73950826 -16.25891477 1.64038362 -13.4375 -0.5 C-8.65372203 -1.86679371 -4.61162496 -1.59633172 0 0 Z " fill="#332B0C" transform="translate(367.25,179.125)"/>
<path d="M0 0 C3.28958104 1.59711543 5.34433531 3.68867062 7 7 C7.54923479 12.00614007 7.52016569 15.92113784 5.3125 20.5 C2.2818041 23.77642801 -0.29729009 24.81162548 -4.71875 25.30078125 C-14.1645183 25.34058084 -14.1645183 25.34058084 -18 22 C-21.11319473 17.33020791 -20.72810766 12.46441192 -20 7 C-15.83210064 -1.27382253 -8.25751717 -0.9219558 0 0 Z " fill="#FCFCFB" transform="translate(299,232)"/>
<path d="M0 0 C0.64936523 0.01506592 1.29873047 0.03013184 1.96777344 0.0456543 C7.20174217 0.21784068 12.41712508 0.64821306 17.625 1.1875 C18.35154785 1.25727051 19.0780957 1.32704102 19.82666016 1.39892578 C22.72782976 1.74415604 24.9347601 2.065266 27.3515625 3.765625 C28.375 5.375 28.375 5.375 28.5 8.3125 C27.21348974 11.81466681 25.85788057 12.82702804 22.6171875 14.5612793 C18.13865399 16.18660075 13.51934845 15.90549701 8.8125 15.8125 C7.79736328 15.81958984 6.78222656 15.82667969 5.73632812 15.83398438 C0.03478008 15.78557149 -5.31374668 15.68625332 -9.625 11.375 C-10.08390968 5.2944467 -10.08390968 5.2944467 -8.5234375 2.16796875 C-5.74412081 -0.45694146 -3.77152465 -0.08883677 0 0 Z " fill="#F9F8F7" transform="translate(282.625,299.625)"/>
</svg>
