<?xml version="1.0" encoding="UTF-8"?>
<svg version="1.1" xmlns="http://www.w3.org/2000/svg" width="512" height="512">
<path d="M0 0 C168.96 0 337.92 0 512 0 C512 168.96 512 337.92 512 512 C343.04 512 174.08 512 0 512 C0 343.04 0 174.08 0 0 Z " fill="#FEFEFE" transform="translate(0,0)"/>
<path d="M0 0 C94.71 0 189.42 0 287 0 C284.30608191 33.67397616 284.30608191 33.67397616 283.1875 47.1875 C283.1045166 48.19047119 283.0215332 49.19344238 282.93603516 50.22680664 C281.4630514 67.96755568 279.84392972 85.69282279 278.17907715 103.41647339 C276.6678756 119.52037666 275.25369209 135.62901773 273.9375 151.75 C272.70314319 166.86010352 271.36473605 181.95374249 269.88851929 197.04205322 C268.01816454 216.22254949 266.38724715 235.42350471 264.75 254.625 C264.68141029 255.42929695 264.61282059 256.2335939 264.5421524 257.06226349 C263.69142014 267.04122569 262.84407727 277.0204726 262 287 C260.9861171 287.29717926 259.97223419 287.59435852 258.92762756 287.90054321 C237.43216428 294.18831706 237.43216428 294.18831706 216 300.6875 C207.24268245 303.38397759 198.43276207 305.82552803 189.56835938 308.14501953 C182.97732611 309.88242525 176.44252974 311.75277705 169.921875 313.734375 C167.55882807 314.44312127 165.19530222 315.15025008 162.83166504 315.85702515 C161.29391491 316.32229097 159.75857676 316.7956151 158.22595215 317.27749634 C149.71334854 319.95162061 142.73811125 322.03881763 134 319 C133.17564453 318.76047607 132.35128906 318.52095215 131.50195312 318.27416992 C128.820312 317.49454683 126.16252106 316.65507934 123.5 315.8125 C115.35024355 313.266868 107.16887755 310.9250338 98.9140625 308.74609375 C86.3200031 305.38672063 73.78278579 301.84746835 61.26123047 298.22802734 C57.81464001 297.23256654 54.36636033 296.24310754 50.91796875 295.25390625 C48.69260582 294.61233462 46.46734151 293.97042083 44.2421875 293.328125 C43.22760468 293.03746155 42.21302185 292.7467981 41.16769409 292.44732666 C35.67300753 290.85335097 30.32745972 289.08743646 25 287 C23.44622943 276.18439741 22.34355563 265.38346302 21.44921875 254.49609375 C21.30918035 252.82662374 21.16875904 251.15718582 21.02798462 249.48777771 C20.73119112 245.96195586 20.43636926 242.43597769 20.14321899 238.90985107 C19.3729206 229.64876093 18.58892499 220.38882472 17.8046875 211.12890625 C17.72696672 210.21005142 17.64924595 209.29119659 17.56917 208.34449768 C16.22902562 192.5135817 14.80592303 176.69225751 13.3125 160.875 C11.68520287 143.61746605 10.17210357 126.35493246 8.76144409 109.07836914 C7.13441158 89.18968382 5.30936828 69.32101107 3.4463501 49.45318604 C3.24928686 47.34984587 3.05278531 45.246453 2.85687256 43.14300537 C2.3848098 38.07757459 1.9046713 33.01320058 1.40722656 27.95019531 C1.221953 26.02148939 1.03672939 24.09277867 0.8515625 22.1640625 C0.76530609 21.31290863 0.67904968 20.46175476 0.59017944 19.58480835 C-0.03682669 12.96758057 0 6.73463105 0 0 Z " fill="#E65100" transform="translate(109,94)"/>
<path d="M0 0 C38.28 0 76.56 0 116 0 C116 5.45156264 115.96974991 10.4358146 115.44921875 15.7890625 C115.32933594 17.04348145 115.20945312 18.29790039 115.0859375 19.59033203 C114.95313735 20.93522257 114.8203245 22.28011186 114.6875 23.625 C114.55036301 25.0492762 114.41365267 26.47359353 114.27734375 27.89794922 C113.61274588 34.81888385 112.92743167 41.73772033 112.23828125 48.65625 C110.7594469 63.57734694 109.45796304 78.49721023 108.3125 93.44714355 C107.40026483 105.3305508 106.32763592 117.18423956 105.12939453 129.04272461 C103.85285406 141.9532289 102.91704814 154.88718454 102.00195312 167.82763672 C101.91241867 169.07411736 101.91241867 169.07411736 101.82107544 170.34577942 C101.70955806 171.90133546 101.60040181 173.45706339 101.49411011 175.01298523 C101.27749112 178.02680986 101.0023489 180.98599993 100.50219727 183.96704102 C99.85222725 187.89245546 99.58721056 191.80632176 99.31640625 195.7734375 C99.19212342 197.503911 99.06777216 199.23437959 98.94335938 200.96484375 C98.75335945 203.65403607 98.56470344 206.34331349 98.37768555 209.03271484 C97.58172575 220.41230435 96.55832185 231.69694565 95 243 C94.39818909 243.17015625 93.79637817 243.3403125 93.17633057 243.515625 C59.23634552 253.10437642 59.23634552 253.10437642 25.3125 262.75 C24.26803711 263.04777344 23.22357422 263.34554688 22.14746094 263.65234375 C21.18743164 263.92691406 20.22740234 264.20148438 19.23828125 264.484375 C17.9227124 264.86045898 17.9227124 264.86045898 16.58056641 265.24414062 C14.79151809 265.76816083 13.00756553 266.30977521 11.22802734 266.86523438 C9.89892334 267.27999023 9.89892334 267.27999023 8.54296875 267.703125 C7.76332764 267.95223633 6.98368652 268.20134766 6.18041992 268.45800781 C4 269 4 269 0 269 C0 255.8 0 242.6 0 229 C-3.63 228.01 -7.26 227.02 -11 226 C-14.53402086 224.86964215 -18.05255987 223.72012357 -21.56640625 222.53125 C-22.52594711 222.20966919 -23.48548798 221.88808838 -24.47410583 221.5567627 C-27.50455361 220.54074182 -30.53361789 219.52067786 -33.5625 218.5 C-36.59512619 217.47985348 -39.62805769 216.46063912 -42.66160583 215.4432373 C-44.53772092 214.81384799 -46.41330012 214.18285798 -48.28822327 213.54992676 C-53.52220694 211.79208804 -58.77344835 210.15227365 -64.08164978 208.63195801 C-66 208 -66 208 -67 207 C-67.86108123 201.31296976 -68.25471691 195.64722356 -68.53515625 189.90625 C-68.57813339 189.07411987 -68.62111053 188.24198975 -68.66539001 187.38464355 C-68.80049905 184.75656038 -68.93156754 182.12829422 -69.0625 179.5 C-69.1540286 177.70571546 -69.24582294 175.91144446 -69.33789062 174.1171875 C-69.56215928 169.744959 -69.78094939 165.37250543 -70 161 C-58.78 161 -47.56 161 -36 161 C-35.27580891 166.06933762 -34.88942929 170.39007559 -34.9375 175.4375 C-34.94652344 176.67371094 -34.95554688 177.90992188 -34.96484375 179.18359375 C-34.97644531 180.11300781 -34.98804688 181.04242188 -35 182 C-34.17435547 182.20302734 -34.17435547 182.20302734 -33.33203125 182.41015625 C-28.44584268 183.67526244 -23.66325594 185.09487074 -18.91015625 186.79296875 C-18.00096436 187.11322021 -17.09177246 187.43347168 -16.1550293 187.76342773 C-14.33197773 188.4103893 -12.51411129 189.0721943 -10.70239258 189.75024414 C0.45585783 193.68067199 8.56608405 190.38947207 19.375 186.4375 C21.69384494 185.59879593 24.01409571 184.76396541 26.3359375 183.93359375 C27.35220215 183.56290771 28.3684668 183.19222168 29.41552734 182.81030273 C32 182 32 182 35 182 C35 178.04 35 174.08 35 170 C35.66 161.42 36.32 152.84 37 144 C1.36 144 -34.28 144 -71 144 C-72.15889036 128.93442538 -73.30973871 113.9179151 -74.0703125 98.8359375 C-74.14741315 97.35325628 -74.22480798 95.87059032 -74.30249023 94.38793945 C-74.58017462 89.05047465 -74.85229326 83.71272144 -75.125 78.375 C-75.74375 66.37125 -76.3625 54.3675 -77 42 C-51.59 42 -26.18 42 0 42 C0 28.14 0 14.28 0 0 Z " fill="#FE6D00" transform="translate(252,119)"/>
<path d="M0 0 C51.15 0 102.3 0 155 0 C154.34 11.22 153.68 22.44 153 34 C114.39 34 75.78 34 36 34 C36.66 41.26 37.32 48.52 38 56 C38 59.96 38 63.92 38 68 C74.96 68 111.92 68 150 68 C148.8637817 97.54167567 148.8637817 97.54167567 148.0625 107.0625 C147.12351366 118.92487903 146.38033348 130.79281623 145.69750977 142.67211914 C145.26196708 150.13027344 144.7420642 157.56570634 144 165 C141.29172555 165.92725563 138.58338992 166.85433174 135.875 167.78125 C135.02904266 168.07080063 134.18308533 168.36035126 133.31149292 168.65867615 C128.65435654 170.25204123 123.9962584 171.84251468 119.33642578 173.42797852 C117.45604911 174.06785471 115.57567799 174.70774722 113.6953125 175.34765625 C112.76647247 175.66368301 111.83763245 175.97970978 110.88064575 176.30531311 C105.63719117 178.09209689 100.40406315 179.90430137 95.1796875 181.74609375 C94.08914063 182.12507812 92.99859375 182.5040625 91.875 182.89453125 C89.93587341 183.56868073 88.00062124 184.25412741 86.0703125 184.953125 C85.21953125 185.24574219 84.36875 185.53835938 83.4921875 185.83984375 C82.78433105 186.09113037 82.07647461 186.34241699 81.34716797 186.60131836 C74.23565562 187.80925467 67.12634393 184.54396963 60.51171875 182.2890625 C59.41334183 181.9202597 58.3149649 181.55145691 57.18330383 181.17147827 C53.68276033 179.99499597 50.18504501 178.81036347 46.6875 177.625 C43.20016771 176.44831795 39.71226128 175.27336842 36.22383118 174.09994507 C34.05819074 173.37091877 31.89325945 172.63978117 29.72917175 171.90615845 C24.13956715 170.01870527 18.54088935 168.2332852 12.86726379 166.61410522 C11 166 11 166 10 165 C9.13891877 159.31296976 8.74528309 153.64722356 8.46484375 147.90625 C8.42186661 147.07411987 8.37888947 146.24198975 8.33460999 145.38464355 C8.19950095 142.75656038 8.06843246 140.12829422 7.9375 137.5 C7.8459714 135.70571546 7.75417706 133.91144446 7.66210938 132.1171875 C7.43784072 127.744959 7.21905061 123.37250543 7 119 C18.22 119 29.44 119 41 119 C41.72419109 124.06933762 42.11057071 128.39007559 42.0625 133.4375 C42.05347656 134.67371094 42.04445312 135.90992188 42.03515625 137.18359375 C42.02355469 138.11300781 42.01195312 139.04242188 42 140 C42.82564453 140.20302734 42.82564453 140.20302734 43.66796875 140.41015625 C48.55415732 141.67526244 53.33674406 143.09487074 58.08984375 144.79296875 C58.99903564 145.11322021 59.90822754 145.43347168 60.8449707 145.76342773 C62.66802227 146.4103893 64.48588871 147.0721943 66.29760742 147.75024414 C77.45585783 151.68067199 85.56608405 148.38947207 96.375 144.4375 C98.69384494 143.59879593 101.01409571 142.76396541 103.3359375 141.93359375 C104.35220215 141.56290771 105.3684668 141.19222168 106.41552734 140.81030273 C109 140 109 140 112 140 C112 136.04 112 132.08 112 128 C112.66 119.42 113.32 110.84 114 102 C78.36 102 42.72 102 6 102 C3.38781138 68.04154788 1.79008935 34.0116977 0 0 Z " fill="#EEECEA" transform="translate(175,161)"/>
<path d="M0 0 C23.76 0 47.52 0 72 0 C70.8637817 29.54167567 70.8637817 29.54167567 70.0625 39.0625 C69.12351366 50.92487903 68.38033348 62.79281623 67.69750977 74.67211914 C67.26196708 82.13027344 66.7420642 89.56570634 66 97 C63.29172555 97.92725563 60.58338992 98.85433174 57.875 99.78125 C57.02904266 100.07080063 56.18308533 100.36035126 55.31149292 100.65867615 C50.65435654 102.25204123 45.9962584 103.84251468 41.33642578 105.42797852 C39.45604911 106.06785471 37.57567799 106.70774722 35.6953125 107.34765625 C34.30205246 107.8216964 34.30205246 107.8216964 32.88064575 108.30531311 C27.63719117 110.09209689 22.40406315 111.90430137 17.1796875 113.74609375 C16.08914063 114.12507813 14.99859375 114.5040625 13.875 114.89453125 C11.93587341 115.56868073 10.00062124 116.25412741 8.0703125 116.953125 C7.21953125 117.24574219 6.36875 117.53835938 5.4921875 117.83984375 C4.78433105 118.09113037 4.07647461 118.34241699 3.34716797 118.60131836 C-3.76434438 119.80925467 -10.87365607 116.54396963 -17.48828125 114.2890625 C-18.58665817 113.9202597 -19.6850351 113.55145691 -20.81669617 113.17147827 C-24.31723967 111.99499597 -27.81495499 110.81036347 -31.3125 109.625 C-34.79983229 108.44831795 -38.28773872 107.27336842 -41.77616882 106.09994507 C-43.94180926 105.37091877 -46.10674055 104.63978117 -48.27082825 103.90615845 C-53.86043285 102.01870527 -59.45911065 100.2332852 -65.13273621 98.61410522 C-67 98 -67 98 -68 97 C-68.86108123 91.31296976 -69.25471691 85.64722356 -69.53515625 79.90625 C-69.59962196 78.65805481 -69.59962196 78.65805481 -69.66539001 77.38464355 C-69.80049905 74.75656038 -69.93156754 72.12829422 -70.0625 69.5 C-70.1540286 67.70571546 -70.24582294 65.91144446 -70.33789062 64.1171875 C-70.56215928 59.744959 -70.78094939 55.37250543 -71 51 C-59.78 51 -48.56 51 -37 51 C-36.27580891 56.06933762 -35.88942929 60.39007559 -35.9375 65.4375 C-35.94652344 66.67371094 -35.95554688 67.90992188 -35.96484375 69.18359375 C-35.97644531 70.11300781 -35.98804688 71.04242188 -36 72 C-35.44957031 72.13535156 -34.89914063 72.27070313 -34.33203125 72.41015625 C-29.44584268 73.67526244 -24.66325594 75.09487074 -19.91015625 76.79296875 C-19.00096436 77.11322021 -18.09177246 77.43347168 -17.1550293 77.76342773 C-15.33197773 78.4103893 -13.51411129 79.0721943 -11.70239258 79.75024414 C-0.54414217 83.68067199 7.56608405 80.38947207 18.375 76.4375 C20.69384494 75.59879593 23.01409571 74.76396541 25.3359375 73.93359375 C26.35220215 73.56290771 27.3684668 73.19222168 28.41552734 72.81030273 C31 72 31 72 34 72 C33.98839844 71.29907227 33.97679687 70.59814453 33.96484375 69.87597656 C33.89076355 61.78800624 34.35288919 53.80892633 35 45.75 C35.33 41.5425 35.66 37.335 36 33 C24.12 33 12.24 33 0 33 C0 22.11 0 11.22 0 0 Z " fill="#FFFEFD" transform="translate(253,229)"/>
<path d="M0 0 C11.22 0 22.44 0 34 0 C34.72419109 5.06933762 35.11057071 9.39007559 35.0625 14.4375 C35.05347656 15.67371094 35.04445312 16.90992188 35.03515625 18.18359375 C35.02355469 19.11300781 35.01195312 20.04242188 35 21 C35.96160034 21.25197144 35.96160034 21.25197144 36.94262695 21.5090332 C44.4352552 23.50818287 51.81126875 25.79812777 59.1875 28.1875 C63.085625 29.445625 66.98375 30.70375 71 32 C71.495 49.82 71.495 49.82 72 68 C67.37465293 67.33923613 63.94012349 66.81241462 59.68237305 65.37353516 C58.69412033 65.04294098 57.70586761 64.7123468 56.68766785 64.37173462 C55.63960464 64.01445282 54.59154144 63.65717102 53.51171875 63.2890625 C52.41334183 62.9202597 51.3149649 62.55145691 50.18330383 62.17147827 C46.68276033 60.99499597 43.18504501 59.81036347 39.6875 58.625 C36.20016771 57.44831795 32.71226128 56.27336842 29.22383118 55.09994507 C27.05819074 54.37091877 24.89325945 53.63978117 22.72917175 52.90615845 C17.13956715 51.01870527 11.54088935 49.2332852 5.86726379 47.61410522 C4 47 4 47 3 46 C2.13891877 40.31296976 1.74528309 34.64722356 1.46484375 28.90625 C1.42186661 28.07411987 1.37888947 27.24198975 1.33460999 26.38464355 C1.19950095 23.75656038 1.06843246 21.12829422 0.9375 18.5 C0.8459714 16.70571546 0.75417706 14.91144446 0.66210938 13.1171875 C0.43784072 8.744959 0.21905061 4.37250543 0 0 Z " fill="#EEECEB" transform="translate(182,280)"/>
<path d="M0 0 C25.41 0 50.82 0 77 0 C76.34 10.89 75.68 21.78 75 33 C50.25 33 25.5 33 0 33 C0 22.11 0 11.22 0 0 Z " fill="#FFFEFE" transform="translate(253,162)"/>
<path d="M0 0 C12.21 0 24.42 0 37 0 C37 12.375 37 12.375 36.5625 17.98046875 C36.42714844 19.75454102 36.42714844 19.75454102 36.2890625 21.56445312 C36.14597656 23.35786133 36.14597656 23.35786133 36 25.1875 C35.85691406 27.0447168 35.85691406 27.0447168 35.7109375 28.93945312 C35.47769475 31.95994678 35.24064568 34.98008869 35 38 C30.49967304 39.57247211 25.99730019 41.13888352 21.49291992 42.69970703 C19.96076587 43.23157201 18.4291849 43.76509085 16.89819336 44.30029297 C14.69793764 45.06913435 12.49569199 45.83201147 10.29296875 46.59375 C9.60849167 46.83436157 8.92401459 47.07497314 8.21879578 47.32287598 C5.34162782 48.31225239 3.06690063 49 0 49 C0 32.83 0 16.66 0 0 Z " fill="#FE6D00" transform="translate(252,263)"/>
<path d="M0 0 C13.53 0 27.06 0 41 0 C41 10.89 41 21.78 41 33 C28.13 33 15.26 33 2 33 C0 14 0 14 0 0 Z " fill="#E65100" transform="translate(211,195)"/>
</svg>
