<?xml version="1.0" encoding="UTF-8"?>
<svg version="1.1" xmlns="http://www.w3.org/2000/svg" width="512" height="512">
<path d="M0 0 C168.96 0 337.92 0 512 0 C512 168.96 512 337.92 512 512 C343.04 512 174.08 512 0 512 C0 343.04 0 174.08 0 0 Z " fill="#FEFEFE" transform="translate(0,0)"/>
<path d="M0 0 C0.77537109 0.23783203 1.55074219 0.47566406 2.34960938 0.72070312 C40.16363756 12.43889647 71.29683348 34.35115725 95 66 C95.63808594 66.84304687 96.27617187 67.68609375 96.93359375 68.5546875 C109.62650164 85.96712928 118.49157092 106.2299534 124 127 C124.29414795 128.02697998 124.29414795 128.02697998 124.59423828 129.07470703 C136.30550612 171.19888301 126.74352921 219.46764782 105.9765625 256.9140625 C102.10048208 263.65669756 97.840027 269.91757237 93 276 C92.57928223 276.53206055 92.15856445 277.06412109 91.72509766 277.61230469 C62.50680084 314.26419299 23.05188172 336.23605689 -23 344 C-23.92828613 344.17885742 -24.85657227 344.35771484 -25.81298828 344.54199219 C-29.65027131 345.09345097 -33.43993572 345.19909226 -37.30859375 345.23828125 C-38.50101685 345.25310799 -38.50101685 345.25310799 -39.7175293 345.26823425 C-88.00415672 345.74429877 -132.04205195 332.60322003 -168 299 C-168.8355542 298.2280127 -168.8355542 298.2280127 -169.68798828 297.44042969 C-184.17454697 283.92609618 -195.67378845 268.45467838 -205 251 C-205.32162109 250.40074707 -205.64324219 249.80149414 -205.97460938 249.18408203 C-217.09153824 228.03465819 -224.33974766 202.94132415 -225 179 C-225.02046387 178.2584668 -225.04092773 177.51693359 -225.06201172 176.75292969 C-226.24661122 126.41234601 -208.17227697 82.76295501 -174 46 C-173.38898438 45.33484375 -172.77796875 44.6696875 -172.1484375 43.984375 C-150.81887559 21.65640806 -121.63587029 6.61382382 -92 -1 C-90.94296875 -1.27714844 -89.8859375 -1.55429688 -88.796875 -1.83984375 C-60.72317983 -8.78912051 -27.68249061 -8.87429125 0 0 Z " fill="#FDFDFD" transform="translate(304,86)"/>
<path d="M0 0 C0.77537109 0.23783203 1.55074219 0.47566406 2.34960938 0.72070312 C40.16363756 12.43889647 71.29683348 34.35115725 95 66 C95.63808594 66.84304687 96.27617187 67.68609375 96.93359375 68.5546875 C109.62650164 85.96712928 118.49157092 106.2299534 124 127 C124.29414795 128.02697998 124.29414795 128.02697998 124.59423828 129.07470703 C136.30550612 171.19888301 126.74352921 219.46764782 105.9765625 256.9140625 C102.10048208 263.65669756 97.840027 269.91757237 93 276 C92.57928223 276.53206055 92.15856445 277.06412109 91.72509766 277.61230469 C62.50680084 314.26419299 23.05188172 336.23605689 -23 344 C-23.92828613 344.17885742 -24.85657227 344.35771484 -25.81298828 344.54199219 C-29.65027131 345.09345097 -33.43993572 345.19909226 -37.30859375 345.23828125 C-38.50101685 345.25310799 -38.50101685 345.25310799 -39.7175293 345.26823425 C-88.00415672 345.74429877 -132.04205195 332.60322003 -168 299 C-168.8355542 298.2280127 -168.8355542 298.2280127 -169.68798828 297.44042969 C-184.17454697 283.92609618 -195.67378845 268.45467838 -205 251 C-205.32162109 250.40074707 -205.64324219 249.80149414 -205.97460938 249.18408203 C-217.09153824 228.03465819 -224.33974766 202.94132415 -225 179 C-225.02046387 178.2584668 -225.04092773 177.51693359 -225.06201172 176.75292969 C-226.24661122 126.41234601 -208.17227697 82.76295501 -174 46 C-173.38898438 45.33484375 -172.77796875 44.6696875 -172.1484375 43.984375 C-150.81887559 21.65640806 -121.63587029 6.61382382 -92 -1 C-90.94296875 -1.27714844 -89.8859375 -1.55429688 -88.796875 -1.83984375 C-60.72317983 -8.78912051 -27.68249061 -8.87429125 0 0 Z M-59.32177734 29.1171875 C-95.93880526 31.27626654 -130.29129906 50.05312313 -154.72265625 76.9375 C-180.21472703 106.56661473 -191.00403017 142.72633568 -188.86376953 181.46582031 C-185.96041239 217.96751715 -167.77638073 252.35003492 -140.296875 276.296875 C-110.86990651 300.99485367 -74.22092122 312.2501381 -36 310 C2.84133927 306.32607517 38.09511147 286.86108525 63 257 C86.7379107 226.79243828 96.38417321 189.15930219 92.3125 151.25 C87.7406085 115.62077655 68.23074349 81.28768482 39.89453125 59.11328125 C10.31629761 37.51837652 -22.67862406 27.2676908 -59.32177734 29.1171875 Z " fill="#8A4282" transform="translate(304,86)"/>
<path d="M0 0 C1.7148681 4.92758532 3.42370025 9.85720608 5.12695312 14.78881836 C5.70732517 16.4664766 6.28934749 18.14356488 6.87304688 19.82006836 C7.71137224 22.22882807 8.54375694 24.63956978 9.375 27.05078125 C9.63748535 27.80087967 9.8999707 28.55097809 10.17041016 29.32380676 C11.20420273 32.33806007 12 34.78955964 12 38 C2.11122366 41.76663599 -7.74860945 45.3423815 -17.93334961 48.2253418 C-22.35841793 49.48735368 -26.67723957 50.91285193 -31 52.5 C-55.09467734 61.22633066 -55.09467734 61.22633066 -64 59 C-65.27230469 58.71189453 -65.27230469 58.71189453 -66.5703125 58.41796875 C-69.61414269 56.64158553 -70.11254861 54.84958141 -71.06591797 51.54003906 C-71.25041504 50.82557617 -71.43491211 50.11111328 -71.625 49.375 C-72.03455456 47.91873408 -72.44599277 46.46299651 -72.859375 45.0078125 C-73.05208984 44.31204102 -73.24480469 43.61626953 -73.44335938 42.89941406 C-74.11185588 40.61831635 -74.95820715 38.44196836 -75.875 36.25 C-77.24125846 32.30303111 -76.79891586 30.7404666 -75.10414124 27.04833984 C-70.42644908 19.71841853 -63.25886659 18.01810278 -55.37109375 15.625 C-53.9336299 15.16780804 -52.49687619 14.70837789 -51.06080627 14.24682617 C-48.06252173 13.28922781 -45.05943573 12.34960379 -42.05102539 11.42431641 C-38.20105178 10.24006232 -34.36147088 9.02573269 -30.52462673 7.79968262 C-26.85161395 6.62721419 -23.17414327 5.46905256 -19.49609375 4.3125 C-18.79877073 4.09209045 -18.10144772 3.87168091 -17.3829937 3.64459229 C-15.40406943 3.02212605 -13.42229709 2.40983289 -11.43920898 1.80078125 C-10.31369125 1.45184814 -9.18817352 1.10291504 -8.02854919 0.7434082 C-5.2076644 0.05097471 -2.88683544 -0.15489978 0 0 Z " fill="#8B4383" transform="translate(356,201)"/>
<path d="M0 0 C1.4111048 1.08373904 2.81330015 2.17916318 4.20703125 3.28515625 C5.61687432 4.37800831 7.02701876 5.47047172 8.4375 6.5625 C9.05391357 7.048396 9.67032715 7.53429199 10.30541992 8.03491211 C11.8301968 9.20265535 13.42152482 10.28231863 15.01953125 11.34765625 C16.40253281 17.35742668 16.27653267 23.10104187 13.23828125 28.53125 C11.08380995 31.2768019 8.85924047 33.90989446 6.55517578 36.52832031 C3.74899585 39.85290741 1.28392389 43.42560076 -1.23046875 46.97265625 C-2.32809899 48.50355726 -3.42708188 50.03348926 -4.52734375 51.5625 C-5.08744141 52.34093262 -5.64753906 53.11936523 -6.22460938 53.92138672 C-9.85487621 58.93773709 -13.5406474 63.91340891 -17.22363281 68.89111328 C-20.5183398 73.3475769 -23.77218369 77.82852338 -26.98046875 82.34765625 C-29.7214959 81.04105459 -32.1901329 79.59661108 -34.66796875 77.84375 C-35.36156494 77.35422852 -36.05516113 76.86470703 -36.76977539 76.36035156 C-37.4993042 75.84053711 -38.22883301 75.32072266 -38.98046875 74.78515625 C-39.72997803 74.25374023 -40.4794873 73.72232422 -41.25170898 73.17480469 C-47.57701377 68.67302944 -53.80832979 64.05703396 -59.98046875 59.34765625 C-59.3673849 56.09686503 -58.26269545 54.06383182 -56.27734375 51.43359375 C-55.71595703 50.68207031 -55.15457031 49.93054688 -54.57617188 49.15625 C-53.96708984 48.35316406 -53.35800781 47.55007813 -52.73046875 46.72265625 C-51.44320098 45.00190732 -50.15676118 43.28053872 -48.87109375 41.55859375 C-48.21818359 40.68686523 -47.56527344 39.81513672 -46.89257812 38.91699219 C-44.04546934 35.09128064 -41.26306274 31.22038299 -38.48046875 27.34765625 C-37.41410066 25.87757648 -36.34769403 24.40752467 -35.28125 22.9375 C-32.92774399 19.68451983 -30.62404658 16.40082325 -28.3359375 13.1015625 C-27.11354281 11.37090897 -25.89089285 9.64043572 -24.66796875 7.91015625 C-24.11753906 7.09869141 -23.56710938 6.28722656 -23 5.45117188 C-16.92491642 -3.05830525 -9.18814157 -6.520126 0 0 Z " fill="#8A4283" transform="translate(234.98046875,272.65234375)"/>
<path d="M0 0 C4.65020907 0.57478044 8.94060368 1.46038674 13.40673828 2.87011719 C14.63135773 3.25431824 15.85597717 3.63851929 17.1177063 4.03436279 C18.43542672 4.4546205 19.75295777 4.87547238 21.0703125 5.296875 C22.4383699 5.73192008 23.80644267 6.16691683 25.17453003 6.60186768 C28.03196658 7.51219993 30.88773613 8.42757256 33.74267578 9.34570312 C37.39081432 10.51777375 41.0448358 11.67022743 44.70063972 12.81812668 C47.52478966 13.70857129 50.34437366 14.61283857 53.16289902 15.52091217 C54.50801876 15.95174131 55.85476822 16.37751789 57.20315933 16.79799652 C59.09075688 17.38814418 60.97157969 17.99982838 62.85205078 18.61230469 C63.92125763 18.95348328 64.99046448 19.29466187 66.09207153 19.6461792 C69.50386052 21.23457828 71.48269903 23.2314051 74 26 C74.639375 26.5775 75.27875 27.155 75.9375 27.75 C77.7060076 31.49507491 75.98984278 35.10865931 75 39 C74.80639893 39.78310547 74.61279785 40.56621094 74.41333008 41.37304688 C73.80512059 43.72436463 73.12962114 46.04713339 72.4375 48.375 C72.13489258 49.56416016 72.13489258 49.56416016 71.82617188 50.77734375 C70.81743073 54.08020257 70.05639435 56.31305948 67.09423828 58.23925781 C56.81974749 62.18291153 46.51714045 57.84913623 36.59375 54.6328125 C35.21908122 54.19262448 33.84428234 53.75284254 32.46936035 53.31344604 C29.60657853 52.39623078 26.74598648 51.4725427 23.88671875 50.54443359 C20.2180474 49.35443929 16.54358732 48.18354714 12.86721039 47.01761055 C10.03526361 46.1167346 7.20700635 45.20470358 4.37971497 44.28933334 C3.02529837 43.85258579 1.66965109 43.41963602 0.31278992 42.99054337 C-1.57447979 42.39215312 -3.45635067 41.77681432 -5.33789062 41.16064453 C-6.40994751 40.81502472 -7.48200439 40.46940491 -8.58654785 40.11331177 C-9.38298706 39.74591888 -10.17942627 39.378526 -11 39 C-12.39708835 34.80873496 -10.86288524 31.84186356 -9.47265625 27.83203125 C-9.20488876 27.03721848 -8.93712128 26.2424057 -8.66123962 25.42350769 C-7.80339098 22.88356861 -6.93312509 20.34808461 -6.0625 17.8125 C-5.47899544 16.09207554 -4.89630288 14.37137545 -4.31445312 12.65039062 C-2.88570752 8.4303367 -1.44581063 4.21423632 0 0 Z " fill="#8B4283" transform="translate(156,201)"/>
<path d="M0 0 C0.75539063 0.18175781 1.51078125 0.36351562 2.2890625 0.55078125 C3.03929687 0.71964844 3.78953125 0.88851563 4.5625 1.0625 C10.21882294 2.98865648 13.14986277 6.06567467 16.4140625 10.92578125 C17.29346853 12.19456687 18.17371858 13.4627678 19.0546875 14.73046875 C19.51810547 15.40303711 19.98152344 16.07560547 20.45898438 16.76855469 C22.97947806 20.39705063 25.57329441 23.97229016 28.1640625 27.55078125 C28.97121704 28.66791504 28.97121704 28.66791504 29.79467773 29.80761719 C33.99649766 35.61574306 38.22850997 41.40139876 42.4765625 47.17578125 C43.06018555 47.97008545 43.64380859 48.76438965 44.24511719 49.58276367 C46.5474409 52.70528181 48.84978646 55.78520938 51.31640625 58.78125 C52.9140625 60.86328125 52.9140625 60.86328125 52.9140625 62.86328125 C51.59155273 64.01733398 51.59155273 64.01733398 49.72265625 65.296875 C49.03179932 65.77608398 48.34094238 66.25529297 47.62915039 66.74902344 C46.87754639 67.26110352 46.12594238 67.77318359 45.3515625 68.30078125 C43.79590009 69.37619525 42.24123334 70.45305079 40.6875 71.53125 C39.8944043 72.08087402 39.10130859 72.63049805 38.28417969 73.19677734 C33.976341 76.22575415 29.76302411 79.38494839 25.56225586 82.56030273 C21.13035708 85.86328125 21.13035708 85.86328125 18.9140625 85.86328125 C17.69995117 84.49658203 17.69995117 84.49658203 16.33203125 82.55859375 C15.81906494 81.83937744 15.30609863 81.12016113 14.77758789 80.37915039 C14.22449951 79.59016357 13.67141113 78.80117676 13.1015625 77.98828125 C11.91680437 76.3228187 10.73190472 74.65745682 9.546875 72.9921875 C8.63856934 71.70852295 8.63856934 71.70852295 7.71191406 70.39892578 C4.98894217 66.55851485 2.23416954 62.74136219 -0.5234375 58.92578125 C-1.04824707 58.19818604 -1.57305664 57.47059082 -2.11376953 56.72094727 C-6.8946291 50.10257597 -11.73588708 43.52922462 -16.59350586 36.96704102 C-17.15175049 36.21221436 -17.70999512 35.4573877 -18.28515625 34.6796875 C-18.77846436 34.01396729 -19.27177246 33.34824707 -19.7800293 32.66235352 C-23.26808598 27.85706474 -24.33316548 24.45815266 -24.33984375 18.5078125 C-21.53990976 10.36968661 -12.12358463 6.15070244 -5.0859375 1.86328125 C-2.0859375 -0.13671875 -2.0859375 -0.13671875 0 0 Z " fill="#8A4282" transform="translate(285.0859375,269.13671875)"/>
<path d="M0 0 C13.53 0 27.06 0 41 0 C41.28076167 17.85733322 41.28076167 17.85733322 41.34179688 25.50976562 C41.38353296 30.71771598 41.43273125 35.92479927 41.52807617 41.13208008 C41.60452104 45.33375561 41.64606982 49.53450067 41.6641407 53.73681831 C41.6770066 55.33440348 41.70213152 56.93194163 41.7401104 58.52912712 C42.09374994 74.02738737 42.09374994 74.02738737 35.94352722 80.51097107 C33.07580451 82.70807026 30.99731441 83.14776071 27.40234375 83.16015625 C25.58186523 83.17079102 25.58186523 83.17079102 23.72460938 83.18164062 C22.47486328 83.14232422 21.22511719 83.10300781 19.9375 83.0625 C18.05708008 83.10213867 18.05708008 83.10213867 16.13867188 83.14257812 C7.41288102 83.03588318 7.41288102 83.03588318 4.2845459 80.74227905 C-1.91287267 74.17586839 -0.75418131 65.4304836 -0.5859375 57.03125 C-0.57473199 55.3836014 -0.56619821 53.73593266 -0.56021118 52.08825684 C-0.53741886 47.7739641 -0.47858127 43.460904 -0.4119873 39.14709473 C-0.33949953 33.95931468 -0.31221279 28.77111997 -0.27726746 23.58297729 C-0.21929317 15.7211304 -0.10426008 7.86198226 0 0 Z " fill="#8B4283" transform="translate(236,143)"/>
<path d="M0 0 C0.99 3.63 1.98 7.26 3 11 C-11.24533354 16.01811826 -25.4616942 20.90357129 -40 25 C-42.02218814 25.59961641 -44.04324678 26.20307309 -46.0625 26.8125 C-46.83722656 27.04582031 -47.61195313 27.27914063 -48.41015625 27.51953125 C-48.93480469 27.67808594 -49.45945313 27.83664062 -50 28 C-50.5345256 26.75579353 -51.05208611 25.50429064 -51.5625 24.25 C-51.85253906 23.55390625 -52.14257812 22.8578125 -52.44140625 22.140625 C-53.10483971 19.59823665 -52.96738812 18.43129839 -52 16 C-50.29541016 15.04614258 -50.29541016 15.04614258 -48.0390625 14.39453125 C-46.76156128 14.00890015 -46.76156128 14.00890015 -45.45825195 13.61547852 C-44.52327881 13.35049561 -43.58830566 13.0855127 -42.625 12.8125 C-40.63075872 12.21604922 -38.63730444 11.61696251 -36.64453125 11.015625 C-35.5767041 10.69658203 -34.50887695 10.37753906 -33.40869141 10.04882812 C-26.13660206 7.81126217 -18.94951853 5.30566733 -11.75048828 2.8449707 C-10.65333496 2.47460693 -9.55618164 2.10424316 -8.42578125 1.72265625 C-7.45036377 1.39015869 -6.47494629 1.05766113 -5.4699707 0.71508789 C-3 0 -3 0 0 0 Z " fill="#8D4685" transform="translate(199,266)"/>
<path d="M0 0 C3.99455527 0.61454696 6.74466336 2.70646737 10 5 C8.35896265 10.3042562 4.98886746 14.32070331 1.6875 18.6875 C0.42224441 20.37951129 -0.84205432 22.07223848 -2.10546875 23.765625 C-2.7504834 24.62865234 -3.39549805 25.49167969 -4.06005859 26.38085938 C-7.68558926 31.27573642 -11.21516884 36.24080798 -14.7355957 41.21166992 C-17.27538248 44.76248328 -19.76387976 48.03484676 -23 51 C-25.64 49.02 -28.28 47.04 -31 45 C-29.35890169 39.69554674 -25.9886041 35.67967802 -22.6875 31.3125 C-21.42499505 29.62168051 -20.163297 27.93025826 -18.90234375 26.23828125 C-17.93530518 24.94398193 -17.93530518 24.94398193 -16.94873047 23.62353516 C-13.84387689 19.44353559 -10.79458679 15.22400182 -7.75 11 C-7.20174561 10.24114502 -6.65349121 9.48229004 -6.08862305 8.70043945 C-4.01463961 5.82445007 -1.9672318 2.9508477 0 0 Z " fill="#8C4585" transform="translate(318,159)"/>
<path d="M0 0 C5.99064805 1.25017092 11.72095089 2.77109255 17.5078125 4.75 C18.27753387 5.0087793 19.04725525 5.26755859 19.84030151 5.53417969 C22.27001725 6.35180047 24.69759609 7.1755439 27.125 8 C29.55988919 8.82338781 31.99522063 9.64543123 34.43112183 10.46582031 C35.9377506 10.97360921 37.44375518 11.48325548 38.94900513 11.99511719 C43.26993847 13.45576403 47.60468504 14.78055714 52 16 C52.95465783 18.16967689 53.14401212 19.56328793 52.3984375 21.82421875 C51.64129615 23.5684743 50.82390802 25.28627131 50 27 C43.78164776 26.36501418 38.17033052 24.59073735 32.25390625 22.62109375 C31.24279282 22.28956802 30.23167938 21.9580423 29.18992615 21.61647034 C25.97895929 20.56226919 22.770725 19.50001255 19.5625 18.4375 C17.37843097 17.71886666 15.19418794 17.00076188 13.00976562 16.28320312 C7.67114293 14.52824959 2.33495524 12.76606944 -3 11 C-2.01 7.37 -1.02 3.74 0 0 Z " fill="#8D4685" transform="translate(313,267)"/>
<path d="M0 0 C4.28811785 4.01222792 7.61745733 8.39939993 11 13.1875 C12.14159172 14.78930157 13.28352948 16.39085656 14.42578125 17.9921875 C15.01053223 18.81428711 15.5952832 19.63638672 16.19775391 20.48339844 C18.00351167 23.00490359 19.83151722 25.50859252 21.66796875 28.0078125 C22.25771484 28.81323486 22.84746094 29.61865723 23.45507812 30.44848633 C24.58675376 31.99273875 25.72202046 33.5343677 26.86132812 35.07299805 C29.43438236 38.60045524 31.65246607 41.79205662 33 46 C30.69 47.65 28.38 49.3 26 51 C22.7425081 49.61839226 21.09226686 48.18026874 19.0390625 45.31640625 C18.4915332 44.56246582 17.94400391 43.80852539 17.37988281 43.03173828 C16.51121582 41.80946533 16.51121582 41.80946533 15.625 40.5625 C14.38326017 38.84212471 13.14105858 37.12208262 11.8984375 35.40234375 C11.2600293 34.51401855 10.62162109 33.62569336 9.96386719 32.71044922 C8.01332272 30.01838748 6.03283314 27.35157574 4.0390625 24.69140625 C3.40403809 23.8418335 2.76901367 22.99226074 2.11474609 22.11694336 C0.89451773 20.48629778 -0.32899032 18.8581 -1.55615234 17.23266602 C-4.24671314 13.61563484 -6.64443477 10.36213939 -8 6 C-5.36 4.02 -2.72 2.04 0 0 Z " fill="#8C4584" transform="translate(193,158)"/>
<path d="M0 0 C3.63 0 7.26 0 11 0 C11 18.48 11 36.96 11 56 C7.37 56 3.74 56 0 56 C0 37.52 0 19.04 0 0 Z " fill="#8B4484" transform="translate(250,312)"/>
</svg>
