<?xml version="1.0" encoding="UTF-8"?>
<svg version="1.1" xmlns="http://www.w3.org/2000/svg" width="512" height="512">
<path d="M0 0 C168.96 0 337.92 0 512 0 C512 168.96 512 337.92 512 512 C343.04 512 174.08 512 0 512 C0 343.04 0 174.08 0 0 Z " fill="#FFFFFF" transform="translate(0,0)"/>
<path d="M0 0 C101.64 0 203.28 0 308 0 C308 101.64 308 203.28 308 308 C206.36 308 104.72 308 0 308 C0 206.36 0 104.72 0 0 Z " fill="#FED500" transform="translate(102,102)"/>
<path d="M0 0 C3.40038777 3.25254483 6.47567895 6.68306575 8.875 10.75 C8.875 11.74 8.875 12.73 8.875 13.75 C7.0390625 15.28393555 7.0390625 15.28393555 4.5 16.88671875 C3.59765625 17.46357422 2.6953125 18.04042969 1.765625 18.63476562 C0.33476562 19.52711914 0.33476562 19.52711914 -1.125 20.4375 C-2.55585938 21.34725586 -2.55585938 21.34725586 -4.015625 22.27539062 C-6.37958503 23.77650525 -8.74937288 25.2674444 -11.125 26.75 C-13.30960066 24.58383478 -15.43507815 22.40728204 -17.5 20.125 C-21.85383919 16.18581216 -26.42985228 15.28297525 -32.1640625 15.42578125 C-35.47166342 15.97265551 -37.59715861 17.64346551 -40.125 19.75 C-42.62804378 23.50456567 -42.57780074 25.29745934 -42.125 29.75 C-37.29542055 39.81162384 -24.74193934 43.31590927 -15.14453125 47.46875 C-3.28185528 52.74440005 9.68571691 60.28658941 15.1328125 72.69921875 C18.9621945 83.28040586 19.31355906 93.8702466 15.00390625 104.3515625 C13.54739684 107.44601502 12.0083814 110.06803482 9.875 112.75 C9.42898438 113.31203125 8.98296875 113.8740625 8.5234375 114.453125 C-0.31503926 124.4671627 -13.22581415 127.17236522 -25.9765625 128 C-41.93540131 128.64565561 -55.42949896 123.51748363 -67.23046875 112.75 C-76.125 103.36030928 -76.125 103.36030928 -76.125 97.75 C-74.71972656 96.5390625 -74.71972656 96.5390625 -72.765625 95.375 C-72.06179688 94.94703125 -71.35796875 94.5190625 -70.6328125 94.078125 C-69.88773437 93.63984375 -69.14265625 93.2015625 -68.375 92.75 C-66.92094806 91.87654124 -65.46779562 91.00158299 -64.015625 90.125 C-63.33177734 89.71765625 -62.64792969 89.3103125 -61.94335938 88.890625 C-59.98157396 87.70965064 -59.98157396 87.70965064 -57.796875 85.875 C-57.24515625 85.50375 -56.6934375 85.1325 -56.125 84.75 C-52.67879139 85.8987362 -52.03330804 86.82581642 -49.9375 89.6875 C-49.40769531 90.39777344 -48.87789063 91.10804688 -48.33203125 91.83984375 C-47.125 93.75 -47.125 93.75 -47.125 95.75 C-46.3515625 96.12125 -46.3515625 96.12125 -45.5625 96.5 C-43.125 97.75 -43.125 97.75 -40.25 99.875 C-34.26027604 103.33659371 -26.34326056 102.59645029 -19.76953125 101.27734375 C-16.58508373 100.143436 -15.12446686 98.74924329 -13.1875 96 C-11.5536535 91.0023519 -11.323424 87.53532837 -13.5 82.6875 C-19.52535788 75.94483761 -27.94156969 72.88957645 -36.0625 69.3125 C-49.94540344 63.17335867 -62.27498475 56.6529511 -68.43359375 41.98828125 C-71.39816286 32.39111684 -71.68051627 21.15861862 -67.3828125 11.9921875 C-61.47595279 1.46256802 -53.62316953 -4.59234411 -42.125 -8.25 C-27.59197065 -11.83576378 -12.04799533 -8.67455664 0 0 Z " fill="#030200" transform="translate(358.125,248.25)"/>
<path d="M0 0 C9.57 0 19.14 0 29 0 C29.06797896 12.94423913 29.12293308 25.88835823 29.15543652 38.83273602 C29.17104239 44.8443691 29.1921874 50.85587292 29.22631836 56.86743164 C29.2590935 62.67703827 29.27689114 68.48652114 29.28463173 74.29621315 C29.29014279 76.50440224 29.30090389 78.71258514 29.31719017 80.92072105 C29.55150974 114.02963757 29.55150974 114.02963757 17.6875 126.8125 C14.17176658 130.12142557 10.42552379 132.14353027 6 134 C4.700625 134.5878125 4.700625 134.5878125 3.375 135.1875 C-8.28879009 139.17774398 -21.97394674 137.70672835 -33.01953125 132.60546875 C-39.80730154 129.0162194 -45.31500741 125.17993185 -50.125 119.125 C-51.11886719 117.89136719 -51.11886719 117.89136719 -52.1328125 116.6328125 C-54.09252494 113.86953596 -55.56241015 111.06269142 -57 108 C-49.46601821 103.08094219 -41.96994562 98.19581793 -34 94 C-33.6596875 94.51949219 -33.319375 95.03898437 -32.96875 95.57421875 C-29.42888548 100.66748126 -25.9152469 104.75700514 -20 107 C-14.86780925 107.74436354 -9.53898321 107.75089891 -5 105 C-1.56513688 101.31978951 -0.88632845 97.7493667 -0.84178162 92.83648682 C-0.8319928 92.01481522 -0.82220398 91.19314362 -0.81211853 90.34657288 C-0.80636307 89.45393234 -0.8006076 88.56129181 -0.79467773 87.64160156 C-0.78477814 86.69492111 -0.77487854 85.74824066 -0.76467896 84.77287292 C-0.73310546 81.64548234 -0.70832286 78.51807657 -0.68359375 75.390625 C-0.66302065 73.22157396 -0.64202408 71.05252689 -0.62062073 68.88348389 C-0.5654369 63.17563092 -0.51601131 57.46774199 -0.46777344 51.75982666 C-0.41753152 45.93490398 -0.36185949 40.1100335 -0.30664062 34.28515625 C-0.19910414 22.85681378 -0.09815091 11.42842694 0 0 Z " fill="#030300" transform="translate(239,239)"/>
</svg>
