<?xml version="1.0" encoding="UTF-8"?>
<svg version="1.1" xmlns="http://www.w3.org/2000/svg" width="512" height="512">
<path d="M0 0 C168.96 0 337.92 0 512 0 C512 168.96 512 337.92 512 512 C343.04 512 174.08 512 0 512 C0 343.04 0 174.08 0 0 Z " fill="#FEFEFE" transform="translate(0,0)"/>
<path d="M0 0 C7.26 0 14.52 0 22 0 C22.99 3.3 23.98 6.6 25 10 C28.90191622 18.05705415 34.75416576 22.72544594 42.5 26.875 C50.28137721 29.44824751 60.874874 29.42618509 68.3125 26 C69.29669922 25.443125 69.29669922 25.443125 70.30078125 24.875 C72 24 72 24 75 24 C77.80977963 29.57484128 78.51590573 34.03914643 78.4375 40.25 C78.42614014 41.50744019 78.42614014 41.50744019 78.41455078 42.7902832 C78.08550319 55.21603311 73.27505689 64.03744432 64.5 72.625 C52.1485583 82.79813866 35.2920467 84.70145707 19.9453125 86.6640625 C-5.05578601 89.88778459 -26.62193311 100.50057828 -49.09375 111.453125 C-51.4372 112.59436623 -53.78094627 113.73499931 -56.125 114.875 C-57.25526611 115.42470459 -58.38553223 115.97440918 -59.55004883 116.54077148 C-67.88136231 120.55387267 -76.23033119 124.06221555 -85 127 C-85.96292969 127.35707031 -86.92585938 127.71414063 -87.91796875 128.08203125 C-100.17169348 131.73174647 -116.93514671 132.31984897 -128.45703125 126.55078125 C-139.12782096 120.04340258 -147.32738581 112.08459417 -150.91015625 99.90625 C-156.16033501 78.22179074 -150.88707297 59.70278912 -142 40 C-141.70206543 39.33790527 -141.40413086 38.67581055 -141.09716797 37.99365234 C-139.43224243 34.31275721 -137.73269303 30.64944503 -136 27 C-133.03 27.66 -130.06 28.32 -127 29 C-127.02320313 30.2065625 -127.04640625 31.413125 -127.0703125 32.65625 C-127.08908665 34.27082709 -127.10728507 35.88541094 -127.125 37.5 C-127.14175781 38.29148437 -127.15851563 39.08296875 -127.17578125 39.8984375 C-127.26886365 51.25448994 -123.54294658 61.48976749 -115.6875 69.875 C-111.9897486 73.26938821 -107.78254432 76.37765281 -103 78 C-87.50311845 76.41057625 -71.1973348 64.05400888 -60 54 C-59.31808594 53.38898438 -58.63617188 52.77796875 -57.93359375 52.1484375 C-50.77172373 45.34827809 -44.47089008 37.20633512 -39 29 C-36.4603979 28.57871087 -34.05671602 28.31116016 -31.5 28.125 C-21.03340973 27.05243126 -13.65102492 23.9501891 -6.76171875 15.69140625 C-3.55618895 10.79426649 -1.86260036 5.52959483 0 0 Z " fill="#99425B" transform="translate(288,263)"/>
<path d="M0 0 C46.2 0 92.4 0 140 0 C136.62304764 11.25650787 136.62304764 11.25650787 135.30517578 15.22973633 C134.85726936 16.58290451 134.85726936 16.58290451 134.40031433 17.96340942 C134.08516373 18.91005463 133.77001312 19.85669983 133.4453125 20.83203125 C133.10699905 21.85102509 132.76868561 22.87001892 132.42012024 23.91989136 C131.32384716 27.21813091 130.22474476 30.51541652 129.125 33.8125 C128.75094025 34.93540436 128.37688049 36.05830872 127.9914856 37.21524048 C121.21122858 57.55456402 114.20808495 77.80859735 107 98 C105.35 98 103.7 98 102 98 C101.72961914 97.44671021 101.45923828 96.89342041 101.18066406 96.32336426 C98.32557656 90.4812641 95.46946216 84.63966675 92.61279297 78.79833984 C91.5516656 76.62821711 90.49078633 74.45797303 89.43017578 72.28759766 C87.89162929 69.13931602 86.35222222 65.99145677 84.8125 62.84375 C84.31298828 61.82176514 83.81347656 60.79978027 83.29882812 59.74682617 C81.04445594 55.14192199 78.77906625 50.54391 76.46484375 45.96875 C76.08674561 45.22065063 75.70864746 44.47255127 75.3190918 43.70178223 C74.62768491 42.33846806 73.93276756 40.97692609 73.23364258 39.61755371 C71 35.21801857 71 35.21801857 71 33 C70.34 33 69.68 33 69 33 C68.62875 34.22468994 68.62875 34.22468994 68.25 35.47412109 C66.78050658 39.61912578 64.94053599 43.47296585 63 47.4140625 C62.60758621 48.21830154 62.21517242 49.02254059 61.81086731 49.85115051 C60.54430134 52.44427382 59.27230766 55.03468969 58 57.625 C57.13347719 59.39580194 56.26718505 61.16671678 55.40112305 62.93774414 C49.66475699 74.65712964 43.88973269 86.35680092 38 98 C35.67700195 97.91430664 35.67700195 97.91430664 33 97 C31.7483139 94.7172552 30.95579349 92.81736855 30.16796875 90.37109375 C29.92249802 89.66504501 29.67702728 88.95899628 29.42411804 88.23155212 C28.5950849 85.82766667 27.79757053 83.41449264 27 81 C26.40193442 79.23797466 25.80244397 77.47643241 25.20166016 75.71533203 C23.2078047 69.84118443 21.25907758 63.95244866 19.3125 58.0625 C18.66239887 56.10211752 18.01200892 54.14183079 17.36132812 52.18164062 C15.23982925 45.78811078 13.1199594 39.39404047 11 33 C7.37 22.11 3.74 11.22 0 0 Z " fill="#99425B" transform="translate(228,128)"/>
<path d="M0 0 C0.66 0 1.32 0 2 0 C4.04736852 4.06969866 6.09190952 8.14080178 8.1340332 12.21313477 C8.82664921 13.59339085 9.51998769 14.97328468 10.21411133 16.3527832 C12.19480523 20.28985925 14.16278216 24.23274888 16.10784912 28.18756104 C16.94692288 29.89217178 17.79281416 31.59342184 18.63916016 33.29443359 C19.10499512 34.2633252 19.57083008 35.2322168 20.05078125 36.23046875 C20.45594971 37.06344482 20.86111816 37.8964209 21.27856445 38.75463867 C22.11031581 41.34334163 21.95586722 42.48795449 21 45 C20.06886093 46.69396729 19.08519693 48.35968414 18.0625 50 C16.21729421 52.97409091 14.57015882 55.85968236 13 59 C5.41 59 -2.18 59 -10 59 C-11.65 55.7 -13.3 52.4 -15 49 C-15.969375 47.9275 -16.93875 46.855 -17.9375 45.75 C-18.618125 44.8425 -19.29875 43.935 -20 43 C-18.95288755 38.75799416 -17.110864 34.99539752 -15.13671875 31.11328125 C-14.57919922 30.00919922 -14.02167969 28.90511719 -13.44726562 27.76757812 C-12.86654297 26.62740234 -12.28582031 25.48722656 -11.6875 24.3125 C-7.61024481 16.2826622 -3.64814362 8.23503332 0 0 Z " fill="#9A455D" transform="translate(297,191)"/>
<path d="M0 0 C5.01619182 4.68325874 7.96433839 9.25992877 8.4375 16.1875 C8.2695001 22.47699613 5.78493356 28.33694537 1.21484375 32.70703125 C-5.1452905 37.39273525 -11.32408939 37.98213515 -19 37 C-24.63560882 34.71711511 -29.24921392 30.7470641 -32.1796875 25.3984375 C-34.21079719 19.45985965 -34.31976864 13.10798759 -31.85546875 7.3046875 C-28.55228341 2.02307716 -24.692443 -1.83396537 -18.625 -3.75 C-11.23759384 -4.45356249 -6.19341748 -4.37634045 0 0 Z " fill="#9A445D" transform="translate(178,242)"/>
<path d="M0 0 C4.32459209 3.1831225 7.76474229 7.36910124 9.8203125 12.33984375 C10.8055769 19.07630265 9.87132034 24.82004944 5.8203125 30.33984375 C1.04275837 35.434392 -3.48541333 38.35381021 -10.5546875 38.65234375 C-17.19564833 38.4868713 -22.37951707 35.87333804 -27.1796875 31.33984375 C-31.49231862 25.17894215 -32.08795951 18.71827815 -31.1796875 11.33984375 C-28.74908316 5.25829015 -24.62784125 1.31021732 -18.9921875 -1.91015625 C-12.32808522 -3.68725019 -6.04779871 -3.44014461 0 0 Z " fill="#9A445D" transform="translate(265.1796875,240.66015625)"/>
<path d="M0 0 C5.99337731 2.73462083 10.1833872 7.16440669 12.6796875 13.3125 C13.58411824 20.50986464 13.55293619 26.79113587 9.1015625 32.73046875 C4.91132118 37.3926878 0.84947662 39.80096453 -5.421875 40.5703125 C-11.21797145 40.86908036 -15.5727071 39.68143396 -20.3203125 36.3125 C-24.50265112 32.43799849 -26.99053885 28.12707979 -27.65625 22.4453125 C-27.74298224 15.76692991 -27.45716241 11.6468591 -23.3203125 6.3125 C-16.59165499 -0.41615751 -9.3293873 -2.7642629 0 0 Z " fill="#9A435C" transform="translate(350.3203125,238.6875)"/>
</svg>
