<?xml version="1.0" encoding="UTF-8"?>
<svg version="1.1" xmlns="http://www.w3.org/2000/svg" width="512" height="512">
<path d="M0 0 C168.96 0 337.92 0 512 0 C512 168.96 512 337.92 512 512 C343.04 512 174.08 512 0 512 C0 343.04 0 174.08 0 0 Z " fill="#FEFEFE" transform="translate(0,0)"/>
<path d="M0 0 C3.36050472 2.96285135 6.61835703 6.02511872 9.83496094 9.14306641 C11.12026422 10.38631478 12.42330889 11.61115963 13.72851562 12.83349609 C24.32553078 22.98432114 32.03173355 34.87397999 39.26757812 47.52880859 C39.62674316 48.1463501 39.9859082 48.7638916 40.35595703 49.40014648 C42.656981 53.37249033 44.51128226 57.2977322 46.26757812 61.52880859 C46.68007813 62.27130859 47.09257812 63.01380859 47.51757812 63.77880859 C48.26757812 65.52880859 48.26757812 65.52880859 47.26757812 68.52880859 C46.66945313 67.72443359 46.07132812 66.92005859 45.45507812 66.09130859 C41.36728523 61.19747203 36.27772624 57.42780832 31.26757812 53.52880859 C29.98173828 52.51947266 29.98173828 52.51947266 28.66992188 51.48974609 C20.99296173 45.67702514 12.73629324 41.06480414 4.26757812 36.52880859 C3.3471875 36.03251953 2.42679687 35.53623047 1.47851562 35.02490234 C-4.42360896 31.95848908 -10.51239506 29.49498981 -16.76806641 27.24414062 C-18.12755376 26.74907501 -19.48248033 26.24137044 -20.83349609 25.72363281 C-32.56123388 21.24483917 -44.34909517 18.38723971 -56.66992188 16.15380859 C-57.36339722 16.02652374 -58.05687256 15.89923889 -58.7713623 15.76809692 C-103.70372124 7.62113049 -153.67511008 11.28933212 -195.73242188 29.52880859 C-196.40885742 29.81836426 -197.08529297 30.10791992 -197.78222656 30.40625 C-216.49906432 38.5203124 -237.14427853 49.9836162 -249.90039062 66.30224609 C-250.50496094 67.03701172 -251.10953125 67.77177734 -251.73242188 68.52880859 C-252.39242187 68.52880859 -253.05242187 68.52880859 -253.73242188 68.52880859 C-246.97930071 46.22274514 -232.855541 27.0070625 -216.73242188 10.52880859 C-216.13300781 9.87912109 -215.53359375 9.22943359 -214.91601562 8.56005859 C-199.89716425 -7.39982357 -178.36186914 -20.33345863 -157.73242188 -27.47119141 C-156.77505127 -27.81512939 -156.77505127 -27.81512939 -155.79833984 -28.16601562 C-103.73483214 -46.69550144 -42.29898519 -35.92075602 0 0 Z " fill="#F37828" transform="translate(357.732421875,122.47119140625)"/>
<path d="M0 0 C3.61155906 2.78605985 6.7778561 5.7778561 10 9 C28.82705758 27.42492626 52.26071949 37.94387532 77 46 C77.66467285 46.23557617 78.3293457 46.47115234 79.01416016 46.71386719 C84.57423417 48.65617663 90.08427847 49.95198598 95.875 51 C96.67679687 51.15210938 97.47859375 51.30421875 98.3046875 51.4609375 C100.10210805 51.79521388 101.90203099 52.11617929 103.70361328 52.42724609 C105.45622236 52.73176549 107.2083597 53.03988483 108.95550537 53.37432861 C121.74896388 55.82316725 134.20107356 56.46972806 147.21484375 56.39111328 C150.365026 56.37505086 153.51391909 56.39104963 156.6640625 56.41015625 C207.33745444 56.45958599 258.24810328 40.58230476 295.8359375 5.91796875 C298 4 298 4 301 2 C300.36923989 6.5190074 298.6067617 10.28649075 296.5625 14.3125 C296.03450806 15.35603638 296.03450806 15.35603638 295.49584961 16.4206543 C289.25110411 28.52792498 282.05085567 39.78840148 273 50 C272.54367187 50.52190918 272.08734375 51.04381836 271.6171875 51.58154297 C264.96327209 59.1628256 258.08467735 65.91464151 250 72 C249.48244141 72.39783691 248.96488281 72.79567383 248.43164062 73.20556641 C212.50213867 100.7107377 168.25479561 109.53912019 123.8046875 103.8203125 C114.97471548 102.45259688 106.45433977 99.83734356 98 97 C97.32130859 96.77328613 96.64261719 96.54657227 95.94335938 96.31298828 C74.08879419 88.78993121 55.56926019 75.82634499 39 60 C38.13375 59.18660156 37.2675 58.37320313 36.375 57.53515625 C20.35241965 42.08838738 8.26316181 22.60194925 0 2 C0 1.34 0 0.68 0 0 Z " fill="#F37828" transform="translate(104,302)"/>
<path d="M0 0 C7.2469092 4.92887427 12.04371828 11.35975575 14 20 C15.20274609 30.76056834 12.55797636 39.91773957 5.8125 48.4375 C-0.3736756 54.94926379 -8.66749281 58.04573557 -17.5 58.4375 C-25.55461057 58.3489878 -32.2463874 55.41419018 -38.203125 49.99609375 C-45.21788321 42.22975431 -48.59365369 34.7785222 -48.37109375 24.2265625 C-47.24389828 14.42589454 -42.55713707 7.1228233 -35 1 C-24.61702118 -6.41641344 -10.99249068 -5.82156827 0 0 Z " fill="#9F9F9F" transform="translate(152,402)"/>
<path d="M0 0 C5.51719011 4.54673973 8.85319704 9.04759676 9.7734375 16.27148438 C10.74022822 27.99865576 9.62750506 36.57318797 2.25 46 C-3.96793428 50.8047674 -9.94066789 52.8678462 -17.8359375 52.58984375 C-22.01081309 51.86138305 -25.41920632 50.03807139 -28.5 47.125 C-28.5 46.465 -28.5 45.805 -28.5 45.125 C-29.16 45.125 -29.82 45.125 -30.5 45.125 C-30.5 54.365 -30.5 63.605 -30.5 73.125 C-33.47 73.125 -36.44 73.125 -39.5 73.125 C-39.5 48.375 -39.5 23.625 -39.5 -1.875 C-36.86 -1.875 -34.22 -1.875 -31.5 -1.875 C-31.17 0.435 -30.84 2.745 -30.5 5.125 C-29.96890625 4.63128906 -29.4378125 4.13757813 -28.890625 3.62890625 C-28.18421875 2.98824219 -27.4778125 2.34757813 -26.75 1.6875 C-26.05390625 1.04941406 -25.3578125 0.41132813 -24.640625 -0.24609375 C-17.94138895 -5.34387009 -6.76366779 -4.32631003 0 0 Z " fill="#535353" transform="translate(226.5,222.875)"/>
<path d="M0 0 C7.0858708 3.64067155 12.9206983 9.51076851 15.390625 17.1640625 C16.58982043 26.36719018 14.2321291 32.81823269 9.265625 40.4140625 C3.88516292 45.56059144 -1.78409897 48.43671577 -9.296875 48.6640625 C-16.89446815 48.2479022 -22.29231241 45.347536 -27.80859375 40.23828125 C-32.89496953 34.37957075 -34.30761457 27.37884244 -33.99609375 19.7734375 C-33.01391298 13.14619753 -29.64540706 8.48066141 -24.609375 4.1640625 C-17.14757481 -1.20843364 -8.99251251 -2.88083485 0 0 Z " fill="#787879" transform="translate(382.609375,52.8359375)"/>
<path d="M0 0 C4.98887279 2.94135625 8.38208815 7.00817229 11 12.125 C11.94714059 17.1448451 11.625 22.3290834 11.625 27.4375 C-0.585 27.4375 -12.795 27.4375 -25.375 27.4375 C-23.02141022 36.29896517 -23.02141022 36.29896517 -17.26953125 43.125 C-13.371617 44.89247529 -10.09860019 44.80421434 -5.875 44.6875 C-5.12863281 44.68234375 -4.38226563 44.6771875 -3.61328125 44.671875 C0.25037978 44.6171683 3.85313397 44.36549878 7.625 43.4375 C8.12 46.9025 8.12 46.9025 8.625 50.4375 C-0.29579381 54.33021003 -11.11993819 55.51204311 -20.484375 52.40625 C-26.85212433 48.93293218 -31.55461853 43.54813617 -34.00390625 36.671875 C-35.49983232 27.66482542 -35.80472721 17.52221632 -31 9.5234375 C-23.38340608 -0.25363258 -12.09790379 -5.43123619 0 0 Z " fill="#545454" transform="translate(375.375,221.5625)"/>
<path d="M0 0 C3.3 0 6.6 0 10 0 C13.48104067 8.08499769 16.6530408 16.26114055 19.75 24.5 C20.15081787 25.56283203 20.55163574 26.62566406 20.96459961 27.72070312 C21.34237549 28.73068359 21.72015137 29.74066406 22.109375 30.78125 C22.44936523 31.68939453 22.78935547 32.59753906 23.13964844 33.53320312 C23.88789081 35.67856094 24.49510162 37.78671146 25 40 C25.43699219 38.58074219 25.43699219 38.58074219 25.8828125 37.1328125 C28.90916222 27.35191043 32.08819986 17.62853283 35.35302734 7.92480469 C36.24037094 5.28487378 37.12053463 2.64256418 38 0 C41.3 0 44.6 0 48 0 C46.70317638 6.65123455 44.7443266 12.57497157 42.125 18.8125 C39.82174235 24.41261793 37.58894013 29.97572799 35.75 35.75 C34.45909758 39.7933111 32.91731313 43.47014867 30.92578125 47.21484375 C30.0587668 48.88668174 29.33555696 50.63090564 28.625 52.375 C24.63730167 61.27063473 19.75795014 70.19171365 11 75 C7.125 75.75 7.125 75.75 4 76 C3.67 73.36 3.34 70.72 3 68 C3.51949219 67.70867187 4.03898438 67.41734375 4.57421875 67.1171875 C10.40047511 63.69251186 15.70912596 59.66436085 18 53 C18.2679906 48.70023965 17.81880505 45.95148415 15.875 42.125 C13.70772347 37.61998699 11.83938046 33.06780178 10.125 28.375 C7.66883427 21.66434641 5.00298873 15.06232689 2.18408203 8.49560547 C0.92089847 5.50295294 0 3.28374316 0 0 Z " fill="#555555" transform="translate(244,221)"/>
<path d="M0 0 C2.97 0 5.94 0 9 0 C9 17.82 9 35.64 9 54 C6.36 54 3.72 54 1 54 C1 51.36 1 48.72 1 46 C0.34 46 -0.32 46 -1 46 C-1.2578125 46.60328125 -1.515625 47.2065625 -1.78125 47.828125 C-3.88870849 51.58372411 -7.09143957 53.36113606 -11 55 C-17.26979976 56.05637812 -22.53383947 55.17037311 -28 52 C-32.54516999 47.45483001 -35.11473776 42.02498471 -35.34057617 35.62524414 C-35.34010763 34.01180354 -35.32354326 32.39830721 -35.29296875 30.78515625 C-35.28872391 29.92941513 -35.28447906 29.07367401 -35.28010559 28.19200134 C-35.26342789 25.4818358 -35.22579705 22.77243752 -35.1875 20.0625 C-35.17243902 18.2155056 -35.1587531 16.36849944 -35.14648438 14.52148438 C-35.11356026 10.01403116 -35.06185469 5.50714528 -35 1 C-31.7 1 -28.4 1 -25 1 C-24.9906543 2.11971191 -24.98130859 3.23942383 -24.97167969 4.39306641 C-24.93167839 8.56436316 -24.86589195 12.73493022 -24.79248047 16.90576172 C-24.76432947 18.70774939 -24.74308578 20.50985919 -24.72900391 22.31201172 C-24.70749245 24.90916198 -24.66080243 27.50485295 -24.609375 30.1015625 C-24.60814636 30.9017984 -24.60691772 31.7020343 -24.60565186 32.52651978 C-24.46949234 37.77672761 -23.47202531 40.83015771 -20 45 C-16.78079518 46.60960241 -13.49111461 46.46158126 -10 46 C-4.99478599 43.544612 -3.06040576 41.10620693 -1 36 C-0.56518664 33.17753984 -0.51237535 30.39150739 -0.48828125 27.5390625 C-0.47033005 26.74849457 -0.45237885 25.95792664 -0.43388367 25.1434021 C-0.38003294 22.63732109 -0.34596719 20.13142773 -0.3125 17.625 C-0.27930452 15.91794278 -0.24481281 14.21091024 -0.20898438 12.50390625 C-0.12432148 8.33607347 -0.05739093 4.1682939 0 0 Z " fill="#555555" transform="translate(159,220)"/>
<path d="M0 0 C4.20200719 1.91000327 7.15740453 4.44893232 9.3046875 8.6171875 C11.3192934 15.52117402 11.36039534 24.12110983 8.25 30.6875 C5.81255064 34.64943183 3.49877845 37.50040718 -1 39 C-5.5623129 39.57392153 -10.04401862 40.03165036 -14.20703125 37.8359375 C-17.73030831 34.9431416 -19.67587936 32.41786044 -21 28 C-21.21447731 25.30649927 -21.32498534 22.75184159 -21.3125 20.0625 C-21.32861328 19.37220703 -21.34472656 18.68191406 -21.36132812 17.97070312 C-21.36668027 12.32418561 -19.94142441 8.56394637 -16.5625 4.1015625 C-11.51906101 -0.66448735 -6.74670259 -1.17201027 0 0 Z " fill="#FAFAFA" transform="translate(217,228)"/>
<path d="M0 0 C4.47220088 2.280331 7.96958296 5.70119999 9.83984375 10.34375 C10.70632753 16.00629751 10.67087626 20.68168497 8.08984375 25.84375 C7.34734375 26.66875 6.60484375 27.49375 5.83984375 28.34375 C5.20046875 29.08625 4.56109375 29.82875 3.90234375 30.59375 C-0.59412978 34.40893966 -4.9894185 34.78802722 -10.7265625 34.66015625 C-15.59607525 34.02704143 -18.28374787 31.34188177 -21.41015625 27.78125 C-25.65687715 21.86617446 -26.21214266 17.57043926 -25.16015625 10.34375 C-20.30243465 0.10841686 -10.71897386 -3.25639712 0 0 Z " fill="#646565" transform="translate(118.16015625,91.65625)"/>
<path d="M0 0 C0 4.95 0 9.9 0 15 C4.29 15 8.58 15 13 15 C13 17.31 13 19.62 13 22 C8.71 22 4.42 22 0 22 C0.09367845 26.76922298 0.19980386 31.5379469 0.31738281 36.30664062 C0.35562358 37.92830859 0.39048503 39.55005996 0.421875 41.171875 C0.46763257 43.50551117 0.52560816 45.83857562 0.5859375 48.171875 C0.59748871 48.89493835 0.60903992 49.61800171 0.62094116 50.36297607 C0.72726969 54.00401401 0.83581013 56.9785166 3 60 C5.18541552 60.6993514 5.18541552 60.6993514 7.625 60.75 C8.85089844 60.83507812 8.85089844 60.83507812 10.1015625 60.921875 C10.72804688 60.94765625 11.35453125 60.9734375 12 61 C12 63.31 12 65.62 12 68 C8.02824407 69.98587797 3.31844275 69.5367556 -1 69 C-5.76818713 66.78756117 -8.07825877 62.72529955 -10 58 C-10.38040448 55.16963249 -10.35133405 52.39059188 -10.29296875 49.5390625 C-10.28872391 48.74849457 -10.28447906 47.95792664 -10.28010559 47.1434021 C-10.26341301 44.6369106 -10.22577983 42.13124539 -10.1875 39.625 C-10.17244092 37.91798042 -10.15875466 36.21094815 -10.14648438 34.50390625 C-10.11354056 30.33562275 -10.06182493 26.16795111 -10 22 C-12.64 22 -15.28 22 -18 22 C-18 19.69 -18 17.38 -18 15 C-15.36 15 -12.72 15 -10 15 C-10 10.71 -10 6.42 -10 2 C-4 0 -4 0 0 0 Z " fill="#565656" transform="translate(319,206)"/>
<path d="M0 0 C3.3 0 6.6 0 10 0 C10.09326839 7.24178262 10.16404967 14.48343272 10.20724869 21.72569752 C10.22799721 25.08972925 10.25607591 28.4533458 10.30175781 31.81713867 C10.35062704 35.69721156 10.37305005 39.57670526 10.390625 43.45703125 C10.42159271 45.24207817 10.42159271 45.24207817 10.45318604 47.06318665 C10.45532477 55.13573522 9.7851615 63.64807298 4.25933838 70.001297 C-1.1077198 74.93934381 -5.70645143 76.28602151 -13 76 C-13 73.69 -13 71.38 -13 69 C-11.95199219 68.54560547 -11.95199219 68.54560547 -10.8828125 68.08203125 C-9.97273438 67.66308594 -9.06265625 67.24414062 -8.125 66.8125 C-7.22007813 66.40644531 -6.31515625 66.00039063 -5.3828125 65.58203125 C-2.41847186 63.61390344 -2.05449289 62.35972054 -1 59 C-0.67654506 56.11331702 -0.67654506 56.11331702 -0.68115234 53.01635742 C-0.65134781 51.24508736 -0.65134781 51.24508736 -0.62094116 49.43803406 C-0.60938995 48.17328751 -0.59783875 46.90854095 -0.5859375 45.60546875 C-0.55688828 43.65173088 -0.55688828 43.65173088 -0.5272522 41.65852356 C-0.47605482 38.2079265 -0.43636324 34.75729056 -0.39910889 31.30651855 C-0.35899112 27.78042074 -0.30793438 24.25448292 -0.2578125 20.72851562 C-0.16120027 13.8191275 -0.07674878 6.90963654 0 0 Z " fill="#565656" transform="translate(96,220)"/>
<path d="M0 0 C0 3.3 0 6.6 0 10 C-3.75976562 10.73242188 -3.75976562 10.73242188 -7.51953125 11.46484375 C-10.11397171 11.97741153 -10.11397171 11.97741153 -13 13 C-14.18391223 15.37625345 -14.18391223 15.37625345 -15 18 C-15.33 18.99 -15.66 19.98 -16 21 C-16.15322359 23.58330229 -16.25706889 26.14492239 -16.31640625 28.73046875 C-16.33718735 29.48088943 -16.35796844 30.23131012 -16.37937927 31.00447083 C-16.44469926 33.39872184 -16.50367792 35.79308139 -16.5625 38.1875 C-16.60570193 39.81186013 -16.64931676 41.43620933 -16.69335938 43.06054688 C-16.80036263 47.04025371 -16.90167937 51.02006958 -17 55 C-19.97 55 -22.94 55 -26 55 C-26 37.51 -26 20.02 -26 2 C-23.36 2 -20.72 2 -18 2 C-17.67 4.64 -17.34 7.28 -17 10 C-16.443125 9.071875 -15.88625 8.14375 -15.3125 7.1875 C-11.18554486 1.49899427 -6.80751302 0 0 0 Z " fill="#555555" transform="translate(428,219)"/>
<path d="M0 0 C3.84324769 2.03039501 6.95120023 4.1180636 9 8 C9.33 10.64 9.66 13.28 10 16 C0.43 16 -9.14 16 -19 16 C-17.91201133 8.38407934 -16.48417824 5.82500938 -10.6875 1.125 C-7.0716674 -0.38860435 -3.82238852 -0.68203403 0 0 Z " fill="#F3F3F3" transform="translate(369,226)"/>
<path d="M0 0 C2.5 1.625 2.5 1.625 5 4 C5.3125 7.25 5.3125 7.25 5 10 C2.35534962 6.8745041 1.15585285 3.91211733 0 0 Z " fill="#F59353" transform="translate(104,302)"/>
</svg>
