<?xml version="1.0" encoding="UTF-8"?>
<svg version="1.1" xmlns="http://www.w3.org/2000/svg" width="512" height="512">
<path d="M0 0 C168.96 0 337.92 0 512 0 C512 168.96 512 337.92 512 512 C343.04 512 174.08 512 0 512 C0 343.04 0 174.08 0 0 Z " fill="#FEFEFE" transform="translate(0,0)"/>
<path d="M0 0 C0.84242752 -0.00570007 1.68485504 -0.01140015 2.55281067 -0.01727295 C4.33735908 -0.02671899 6.1219249 -0.03325536 7.90649414 -0.03710938 C10.61701589 -0.04677686 13.32676678 -0.07778765 16.03710938 -0.109375 C17.7747351 -0.11590935 19.51236623 -0.12115812 21.25 -0.125 C22.05237595 -0.1373468 22.85475189 -0.1496936 23.68144226 -0.16241455 C30.5319012 -0.13573277 36.04047745 1.14648347 41.39453125 5.703125 C44.07378327 8.95070321 44.5806339 11.33240242 44.61816406 15.41162109 C44.62777161 16.25614838 44.63737915 17.10067566 44.64727783 17.97079468 C44.65152771 18.88019806 44.65577759 19.78960144 44.66015625 20.7265625 C44.66585632 21.66488922 44.6715564 22.60321594 44.6774292 23.56997681 C44.68687519 25.55542881 44.69341159 27.54089646 44.69726562 29.52636719 C44.70697173 32.55952364 44.73799911 35.59200256 44.76953125 38.625 C44.77606148 40.55468348 44.78131187 42.4843718 44.78515625 44.4140625 C44.79750305 45.31941742 44.80984985 46.22477234 44.8225708 47.15756226 C44.80556186 51.9797099 44.65468063 55.31553849 41.45703125 59.203125 C40.46703125 59.698125 40.46703125 59.698125 39.45703125 60.203125 C41.04092564 64.47963985 43.99957874 66.42213059 47.45703125 69.203125 C47.45703125 69.533125 47.45703125 69.863125 47.45703125 70.203125 C44.913547 70.33905943 42.37741629 70.43761407 39.83203125 70.515625 C39.11917969 70.55751953 38.40632813 70.59941406 37.671875 70.64257812 C33.61171374 70.73570109 31.15999254 70.39104052 27.93359375 67.80859375 C25.45703125 65.203125 25.45703125 65.203125 25.45703125 63.203125 C24.52955078 63.21883545 23.60207031 63.2345459 22.64648438 63.25073242 C19.17246803 63.30216557 15.69886219 63.33962182 12.22460938 63.36791992 C10.72714818 63.38291388 9.2297302 63.40331605 7.73242188 63.42944336 C-7.93023363 63.6957085 -7.93023363 63.6957085 -14.54296875 60.203125 C-17.97286367 56.59733803 -19.65447048 54.05674318 -19.7199707 49.12402344 C-19.73280594 48.28264832 -19.74564117 47.44127319 -19.75886536 46.57440186 C-19.76625229 45.66297424 -19.77363922 44.75154663 -19.78125 43.8125 C-19.78932175 42.87513 -19.79739349 41.93776001 -19.80570984 40.97198486 C-19.81955561 38.98476005 -19.83027556 36.99751141 -19.83813477 35.01025391 C-19.85532187 31.97902955 -19.89920039 28.9489031 -19.94335938 25.91796875 C-19.95348858 23.98698719 -19.96200397 22.05599635 -19.96875 20.125 C-19.98625809 19.22166931 -20.00376617 18.31833862 -20.02180481 17.38763428 C-20.00270265 11.81164357 -19.27171841 8.62514236 -15.54296875 4.203125 C-10.74321281 -0.01484234 -6.14258987 0.03212966 0 0 Z " fill="#050505" transform="translate(324.54296875,248.796875)"/>
<path d="M0 0 C7.25428909 7.08558469 10.52816647 18.98439315 14.47338867 28.22314453 C15.51052025 30.64961313 16.55480236 33.07292172 17.59960938 35.49609375 C18.26084454 37.03887918 18.92166734 38.58184144 19.58203125 40.125 C19.89445267 40.84888916 20.20687408 41.57277832 20.52876282 42.31860352 C22.6875 47.395375 22.6875 47.395375 22.6875 49.625 C23.3475 49.625 24.0075 49.625 24.6875 49.625 C24.94039795 48.81417969 25.1932959 48.00335938 25.45385742 47.16796875 C26.90887235 42.98922807 28.63586272 38.9816844 30.42578125 34.9375 C30.78842575 34.11677002 31.15107025 33.29604004 31.52470398 32.45043945 C32.29046934 30.72176841 33.0579018 28.993835 33.8269043 27.26660156 C34.99452041 24.63733905 36.14865466 22.00241405 37.30273438 19.3671875 C38.05125442 17.68192325 38.80057709 15.99701523 39.55078125 14.3125 C39.89055496 13.53108643 40.23032867 12.74967285 40.58039856 11.94458008 C42.86582688 6.86712331 45.48346727 1.22701636 50.6875 -1.375 C57.07140729 -1.98187967 62.07652255 -1.53117481 67.6875 1.625 C69.97208499 5.05187748 69.93201452 6.26440311 69.91455078 10.28979492 C69.91439972 11.45077194 69.91424866 12.61174896 69.91409302 13.8079071 C69.90377045 15.06110245 69.89344788 16.31429779 69.8828125 17.60546875 C69.8799826 18.88859451 69.87715271 20.17172028 69.87423706 21.49372864 C69.86660797 24.90176202 69.84696587 28.30962441 69.8248291 31.71759033 C69.80435497 35.19646898 69.795232 38.67537532 69.78515625 42.15429688 C69.76371916 48.97794183 69.72854299 55.8014451 69.6875 62.625 C65.0675 62.625 60.4475 62.625 55.6875 62.625 C55.3575 46.785 55.0275 30.945 54.6875 14.625 C49.22678688 26.53098141 49.22678688 26.53098141 43.76831055 38.43798828 C43.0786937 39.9404666 42.38900142 41.4429103 41.69921875 42.9453125 C41.3475061 43.71351318 40.99579346 44.48171387 40.63342285 45.27319336 C34.25860198 59.14898643 34.25860198 59.14898643 29.6875 61.625 C24.89717948 62.26707609 20.57518845 62.40989579 16.06640625 60.53515625 C12.95615827 58.03776502 11.66492697 55.20304067 10.125 51.625 C9.64160156 50.55197632 9.64160156 50.55197632 9.1484375 49.45727539 C8.41209327 47.81595459 7.68331223 46.17122838 6.96044922 44.52392578 C5.48974908 41.17465585 3.99767738 37.8351132 2.50390625 34.49609375 C-0.45387551 27.880568 -3.38163117 21.2527602 -6.3125 14.625 C-6.6425 30.465 -6.9725 46.305 -7.3125 62.625 C-11.9325 62.625 -16.5525 62.625 -21.3125 62.625 C-21.40290815 55.0015068 -21.47627739 47.37821345 -21.51974869 39.75431442 C-21.54061412 36.21409928 -21.56891126 32.67427026 -21.61425781 29.13427734 C-21.66607738 25.06343909 -21.68545369 20.99300573 -21.703125 16.921875 C-21.72377014 15.65196716 -21.74441528 14.38205933 -21.76568604 13.07366943 C-21.76598816 11.89274719 -21.76629028 10.71182495 -21.76660156 9.49511719 C-21.77548401 8.45587097 -21.78436646 7.41662476 -21.79351807 6.34588623 C-21.18875371 2.92502717 -19.98511669 1.76847054 -17.3125 -0.375 C-11.82639522 -2.43504336 -5.33650111 -2.2151514 0 0 Z " fill="#050505" transform="translate(101.3125,250.375)"/>
<path d="M0 0 C8.12389872 3.27528682 8.12389872 3.27528682 11.05859375 5.5859375 C13.46680431 7.29854939 15.2932371 7.57682627 18.20703125 7.98046875 C37.24331154 11.17413797 52.79469948 24.39494297 64.2890625 39.5390625 C68.83911433 45.95843585 72.34605108 52.52402101 75.45703125 59.73046875 C75.9058667 60.75358154 75.9058667 60.75358154 76.36376953 61.79736328 C77.81465554 65.11914921 79.19915729 68.44008996 80.45703125 71.83984375 C84.3818281 81.36565278 88.84579544 84.17516461 97.85546875 88.046875 C105.87754063 91.55629922 114.18430549 97.6677882 119.01953125 104.98046875 C118.68953125 105.97046875 118.35953125 106.96046875 118.01953125 107.98046875 C112.40953125 108.97046875 106.79953125 109.96046875 101.01953125 110.98046875 C101.01953125 111.64046875 101.01953125 112.30046875 101.01953125 112.98046875 C102.67724046 114.31666496 104.39805141 115.57509014 106.14453125 116.79296875 C112.98193514 121.66056998 118.71056035 126.44779888 124.01953125 132.98046875 C123.68953125 133.64046875 123.35953125 134.30046875 123.01953125 134.98046875 C122.00890625 134.15546875 120.99828125 133.33046875 119.95703125 132.48046875 C116.02455434 129.49430982 111.90618487 127.32021106 107.51953125 125.10546875 C101.50250701 122.0170912 95.89233484 118.72092614 92.01953125 112.98046875 C91.32421875 110.2421875 91.32421875 110.2421875 91.01953125 107.98046875 C98.48497075 105.20570363 105.08667606 104.61244969 113.01953125 104.98046875 C105.1652509 96.70312412 95.86192697 92.15216977 85.26953125 88.5 C77.91839585 85.06299078 75.76345695 77.45380974 72.64453125 70.41796875 C71.65849274 68.24176105 70.67152519 66.06597403 69.68359375 63.890625 C68.48384027 61.2345018 67.2843325 58.57860306 66.10449219 55.91357422 C58.67375623 39.17746423 45.6546353 24.93972623 29.01953125 16.98046875 C24.04116277 15.20248001 19.17039306 14.0029441 13.89453125 13.66796875 C9.34689856 12.86113069 6.77375139 11.14407954 3.09765625 8.453125 C-1.10016939 5.47835007 -3.79257855 4.74465556 -8.98046875 4.98046875 C-9.43706107 8.47886628 -9.09576243 9.80716719 -7.109375 12.79296875 C-6.2586812 13.85929567 -5.40285068 14.92153717 -4.54296875 15.98046875 C0.64296491 22.72552947 3.86598648 29.89524401 6.97436523 37.78320312 C8.8627053 42.52960743 10.79578579 45.97982968 14.01953125 49.98046875 C14.26171875 52.19140625 14.26171875 52.19140625 13.89453125 54.35546875 C13.76949219 55.14308594 13.64445312 55.93070313 13.515625 56.7421875 C13.01953125 58.98046875 13.01953125 58.98046875 11.95703125 62.16796875 C9.60443051 71.73521175 10.11997299 81.3257746 15.01953125 89.98046875 C15.67953125 90.64046875 16.33953125 91.30046875 17.01953125 91.98046875 C17.36564453 90.44326172 17.36564453 90.44326172 17.71875 88.875 C18.04724376 87.51409729 18.37672336 86.15343228 18.70703125 84.79296875 C18.85591797 84.11943359 19.00480469 83.44589844 19.15820312 82.75195312 C20.36622988 77.8961593 22.114154 75.31590703 26.01953125 71.98046875 C26.35984375 72.84027344 26.70015625 73.70007813 27.05078125 74.5859375 C30.20766434 82.28503801 33.78278785 89.24041408 38.28515625 96.23828125 C39.68392718 98.44985151 40.91053511 100.61536473 42.01953125 102.98046875 C34.06449967 99.37720499 29.76318787 92.58854511 26.01953125 84.98046875 C25.9215625 85.58375 25.82359375 86.18703125 25.72265625 86.80859375 C25.02240894 90.55129491 24.40089948 93.40841641 22.26953125 96.60546875 C20.01953125 97.98046875 20.01953125 97.98046875 17.08203125 98.16796875 C12.81682884 96.51411475 10.99399967 93.9434089 9.01953125 89.98046875 C5.72537879 81.46837878 4.78266692 72.95199853 6.91015625 64.046875 C8.95405923 56.68809278 8.95405923 56.68809278 8.05859375 49.34375 C6.54811827 47.14034784 6.54811827 47.14034784 4.77734375 45.1171875 C2.78645896 42.69715643 1.65146293 40.34611487 0.39453125 37.48046875 C-0.0128125 36.55363281 -0.42015625 35.62679687 -0.83984375 34.671875 C-1.54959496 32.99715383 -2.24937344 31.31812563 -2.93359375 29.6328125 C-5.14483865 24.32020293 -7.97824194 19.87431776 -11.39453125 15.2421875 C-13.9040085 11.66340097 -15.01162653 9.86846542 -14.85546875 5.41796875 C-13.98046875 1.98046875 -13.98046875 1.98046875 -12.35546875 0.04296875 C-7.79210959 -1.99853403 -4.6020518 -1.57422742 0 0 Z " fill="#0C0C0C" transform="translate(305.98046875,137.01953125)"/>
<path d="M0 0 C4.62 0 9.24 0 14 0 C14.04898438 2.28679687 14.09796875 4.57359375 14.1484375 6.9296875 C14.20242291 9.14052975 14.25973985 11.35126217 14.31738281 13.56201172 C14.35570301 15.10034021 14.39055056 16.63875925 14.421875 18.17724609 C14.46746059 20.38672276 14.5254634 22.59557448 14.5859375 24.8046875 C14.59748871 25.49432587 14.60903992 26.18396423 14.62094116 26.89450073 C14.64951022 30.8920154 14.64951022 30.8920154 17 34 C19.71615864 34.37207354 19.71615864 34.37207354 22.8828125 34.4140625 C23.93355957 34.44967285 24.98430664 34.4852832 26.06689453 34.52197266 C27.40606934 34.55597168 28.74524414 34.5899707 30.125 34.625 C34.37375 34.74875 38.6225 34.8725 43 35 C43 23.45 43 11.9 43 0 C47.62 0 52.24 0 57 0 C57.09904755 6.58361444 57.17155431 13.16679293 57.21972656 19.75097656 C57.23981316 21.98966021 57.2670878 24.22829158 57.30175781 26.46679688 C57.35040464 29.68893349 57.37299874 32.91037501 57.390625 36.1328125 C57.41127014 37.12991241 57.43191528 38.12701233 57.45318604 39.15432739 C57.45454912 43.39767051 57.21656117 46.4693269 55.60058594 50.42919922 C49.96904638 55.99623935 43.03841392 57.4559003 35.31100464 57.45318604 C33.97756516 57.42221832 33.97756516 57.42221832 32.6171875 57.390625 C31.67690704 57.38496521 30.73662659 57.37930542 29.76785278 57.37347412 C26.80302154 57.3513165 23.83945782 57.30116127 20.875 57.25 C18.84897595 57.22990827 16.82293271 57.21166222 14.796875 57.1953125 C9.86410467 57.15151969 4.93226623 57.08263882 0 57 C0 54.36 0 51.72 0 49 C1.80186768 48.970271 1.80186768 48.970271 3.64013672 48.93994141 C8.08696854 48.8640038 12.53346805 48.77526868 16.97998047 48.68261719 C18.90634614 48.64427832 20.8327846 48.60943418 22.75927734 48.578125 C25.52467918 48.53258055 28.28957769 48.47456963 31.0546875 48.4140625 C31.9193161 48.40251129 32.7839447 48.39096008 33.67477417 48.37905884 C38.31782848 48.47337842 38.31782848 48.47337842 42 46 C42.6425235 43.93125966 42.6425235 43.93125966 43 42 C41.65421875 42.0314209 41.65421875 42.0314209 40.28125 42.06347656 C36.91900141 42.13207616 33.55750765 42.18200294 30.19482422 42.21972656 C28.74581083 42.23971295 27.29687675 42.26691197 25.84814453 42.30175781 C10.59264688 42.6592264 10.59264688 42.6592264 4 38 C1.06428238 35.08698123 0.06989505 33.55363643 -0.45410156 29.40307617 C-0.45347463 28.03287713 -0.4312491 26.66256559 -0.390625 25.29296875 C-0.38496521 24.56757401 -0.37930542 23.84217926 -0.37347412 23.09480286 C-0.35119099 20.79167992 -0.30101487 18.49014776 -0.25 16.1875 C-0.22992434 14.62046528 -0.21167543 13.05340601 -0.1953125 11.48632812 C-0.15135337 7.65694481 -0.08238623 3.82874154 0 0 Z " fill="#0A0A0A" transform="translate(178,270)"/>
<path d="M0 0 C0.91949936 0.00565979 1.83899872 0.01131958 2.78636169 0.01715088 C5.69016139 0.03933651 8.59267432 0.08949742 11.49609375 0.140625 C13.47849766 0.1607131 15.46092113 0.1789598 17.44335938 0.1953125 C22.27392461 0.23914259 27.10354191 0.30804372 31.93359375 0.390625 C31.93359375 2.700625 31.93359375 5.010625 31.93359375 7.390625 C30.23046021 7.40464355 30.23046021 7.40464355 28.49291992 7.41894531 C24.28255902 7.4588007 20.0729323 7.52454629 15.86303711 7.59814453 C14.04054186 7.62638014 12.21792356 7.6475818 10.39526367 7.66162109 C7.77588792 7.6830154 5.1579956 7.72964479 2.5390625 7.78125 C1.72334274 7.78247864 0.90762299 7.78370728 0.06718445 7.78497314 C-4.43029336 7.86390305 -4.43029336 7.86390305 -8.0793457 10.24682617 C-9.38669278 13.08625598 -9.46459367 15.33441683 -9.44140625 18.453125 C-9.44914062 19.49597656 -9.456875 20.53882813 -9.46484375 21.61328125 C-9.28717184 24.34028281 -9.28717184 24.34028281 -7.90917969 26.04101562 C-5.30196326 27.95048733 -3.39340908 27.75951924 -0.18359375 27.76171875 C0.98429687 27.77912109 2.1521875 27.79652344 3.35546875 27.81445312 C5.80077013 27.82348114 8.24608856 27.82876344 10.69140625 27.83007812 C17.73374461 27.94204513 23.9670117 28.30369878 29.93359375 32.390625 C32.69580079 36.53393556 32.30128286 39.89657395 32.30859375 44.765625 C32.33308594 45.61640625 32.35757813 46.4671875 32.3828125 47.34375 C32.40063667 51.15812241 32.23051662 53.78516775 30.53515625 57.2421875 C23.83577264 62.7747115 16.21490755 63.98233272 7.76953125 63.78125 C6.85144684 63.77559021 5.93336243 63.76993042 4.98745728 63.76409912 C2.09394145 63.74194975 -0.79827336 63.69179671 -3.69140625 63.640625 C-5.66925278 63.62053218 -7.64711898 63.60228633 -9.625 63.5859375 C-14.43929303 63.54215575 -19.25263014 63.47328131 -24.06640625 63.390625 C-24.06640625 61.080625 -24.06640625 58.770625 -24.06640625 56.390625 C-22.93098389 56.37604248 -21.79556152 56.36145996 -20.62573242 56.34643555 C-16.41545016 56.28848824 -12.20570475 56.21125559 -7.99584961 56.12817383 C-6.17334706 56.0949076 -4.35074106 56.06688094 -2.52807617 56.04418945 C0.09110625 56.01067419 2.70933923 55.95836148 5.328125 55.90234375 C6.55170464 55.89275887 6.55170464 55.89275887 7.80000305 55.88298035 C12.00203788 55.88124549 12.00203788 55.88124549 15.647995 54.06892395 C17.7382343 51.34019819 17.3294422 48.68820033 17.30859375 45.328125 C17.31632812 44.07902344 17.3240625 42.82992187 17.33203125 41.54296875 C17.20054687 40.50269531 17.0690625 39.46242188 16.93359375 38.390625 C13.51880593 36.11409979 12.24694839 36.14058074 8.234375 36.1171875 C7.10708984 36.0965625 5.97980469 36.0759375 4.81835938 36.0546875 C2.45645107 36.02886018 0.09444803 36.01050373 -2.26757812 36 C-10.65123513 35.82841862 -16.23734519 34.83738678 -22.53125 29.171875 C-24.64467049 25.34298088 -24.69213879 22.19787662 -24.62890625 17.890625 C-24.65275391 17.14425781 -24.67660156 16.39789063 -24.70117188 15.62890625 C-24.69082768 11.73259432 -24.39619763 9.8555982 -22.09375 6.609375 C-15.01927129 1.42446673 -8.68302461 -0.20551775 0 0 Z " fill="#040404" transform="translate(266.06640625,248.609375)"/>
<path d="M0 0 C1.04414063 0.00257813 2.08828125 0.00515625 3.1640625 0.0078125 C4.24429687 0.03617188 5.32453125 0.06453125 6.4375 0.09375 C7.51773437 0.09117187 8.59796875 0.08859375 9.7109375 0.0859375 C15.24248363 0.15422819 18.84019238 0.24631075 23.4375 3.59375 C26.02745441 7.47868162 25.68975542 10.69942236 25.6328125 15.19921875 C25.6299826 16.03842361 25.62715271 16.87762848 25.62423706 17.74226379 C25.61304385 20.42207103 25.58794101 23.10154381 25.5625 25.78125 C25.55246908 27.59830246 25.54334343 29.41536017 25.53515625 31.23242188 C25.51310734 35.68632675 25.47858351 40.13998167 25.4375 44.59375 C24.1175 44.59375 22.7975 44.59375 21.4375 44.59375 C20.9425 44.09875 20.9425 44.09875 20.4375 43.59375 C17.90700598 43.52061433 15.40445163 43.50127473 12.875 43.53125 C12.16408203 43.53576172 11.45316406 43.54027344 10.72070312 43.54492188 C8.95959987 43.55674136 7.19853964 43.57467737 5.4375 43.59375 C7.0875 45.57375 8.7375 47.55375 10.4375 49.59375 C7.85304227 49.7019366 5.27312648 49.78112237 2.6875 49.84375 C1.95789063 49.87726563 1.22828125 49.91078125 0.4765625 49.9453125 C-3.12727804 50.01083687 -5.11646072 49.93751276 -8.015625 47.703125 C-12.16525688 42.04453607 -10.86673337 34.26575408 -10.91259766 27.48217773 C-10.92915091 25.68679842 -10.9564329 23.89148484 -10.99462891 22.09643555 C-11.04946923 19.50534959 -11.07128148 16.91580732 -11.0859375 14.32421875 C-11.10860687 13.52509567 -11.13127625 12.7259726 -11.15463257 11.90263367 C-11.13896434 7.7577242 -10.88715639 6.04076014 -8.37744141 2.58520508 C-5.23511897 0.36214141 -3.79976428 -0.02843361 0 0 Z " fill="#F9F9F9" transform="translate(329.5625,255.40625)"/>
<path d="M0 0 C4.62 0 9.24 0 14 0 C14.33 17.82 14.66 35.64 15 54 C18.86323338 55.28774446 22.57490537 55.23382793 26.60546875 55.31640625 C27.44467361 55.33718735 28.28387848 55.35796844 29.14851379 55.37937927 C31.82809294 55.44474018 34.50776969 55.50369714 37.1875 55.5625 C39.00456737 55.60569802 40.82162488 55.64931273 42.63867188 55.69335938 C47.09234799 55.8004078 51.54612226 55.90171319 56 56 C56 58.64 56 61.28 56 64 C51.09278798 64.05001078 46.1857293 64.08600384 41.27832031 64.10986328 C39.61423147 64.11982596 37.95015969 64.13340102 36.28613281 64.15087891 C10.3703323 64.4159623 10.3703323 64.4159623 3 59 C0.39909247 55.38089308 -0.37172037 52.90819945 -0.34057617 48.4753418 C-0.34034958 47.39459885 -0.34012299 46.3138559 -0.33988953 45.20036316 C-0.32440567 44.0449855 -0.30892181 42.88960785 -0.29296875 41.69921875 C-0.28872391 40.50770706 -0.28447906 39.31619537 -0.28010559 38.08857727 C-0.26333093 34.28798704 -0.22567959 30.48792962 -0.1875 26.6875 C-0.17245166 24.10873162 -0.15876351 21.52995492 -0.14648438 18.95117188 C-0.11343115 12.63390971 -0.06165593 6.31704515 0 0 Z " fill="#060606" transform="translate(376,249)"/>
<path d="M0 0 C2.97 0.495 2.97 0.495 6 1 C6.33 3.31 6.66 5.62 7 8 C6.01 8.495 6.01 8.495 5 9 C1.125 3.375 1.125 3.375 0 0 Z " fill="#1A1A1A" transform="translate(319,159)"/>
</svg>
