<?xml version="1.0" encoding="UTF-8"?>
<svg version="1.1" xmlns="http://www.w3.org/2000/svg" width="512" height="512">
<path d="M0 0 C168.96 0 337.92 0 512 0 C512 168.96 512 337.92 512 512 C343.04 512 174.08 512 0 512 C0 343.04 0 174.08 0 0 Z " fill="#FEFEFE" transform="translate(0,0)"/>
<path d="M0 0 C3.54298466 0.4626539 6.25414041 1.4760456 9.35546875 3.21484375 C10.14244141 3.65376953 10.92941406 4.09269531 11.74023438 4.54492188 C12.54783203 5.00447266 13.35542969 5.46402344 14.1875 5.9375 C15.00669922 6.39318359 15.82589844 6.84886719 16.66992188 7.31835938 C22.71851504 10.71851504 22.71851504 10.71851504 25 13 C25.25726891 15.12462425 25.25726891 15.12462425 25.26742554 17.80722046 C25.27595551 18.82230179 25.28448547 19.83738312 25.29327393 20.88322449 C25.29236755 22.00118912 25.29146118 23.11915375 25.29052734 24.27099609 C25.29724457 25.44504501 25.30396179 26.61909393 25.31088257 27.82872009 C25.32665784 31.05401409 25.33323952 34.27915378 25.33451414 37.50448179 C25.33641153 40.19582705 25.34376733 42.8871475 25.35085833 45.57848322 C25.36715443 51.92831145 25.37202623 58.27808295 25.37060547 64.62792969 C25.36940414 71.17977088 25.39050111 77.73128259 25.4220928 84.2830404 C25.44824072 89.90604242 25.45897338 95.52893676 25.45769465 101.15199912 C25.45718451 104.51128499 25.46289559 107.87027826 25.48405075 111.22950363 C25.50358395 114.97668757 25.49792163 118.72301799 25.48583984 122.47021484 C25.49707886 123.58413101 25.50831787 124.69804718 25.51989746 125.84571838 C25.51150848 126.86643936 25.50311951 127.88716034 25.49447632 128.93881226 C25.49556585 129.82482306 25.49665539 130.71083385 25.49777794 131.62369347 C24.83607064 134.78257068 23.43809447 135.95487512 21 138 C18.59667969 139.50463867 18.59667969 139.50463867 15.921875 140.91796875 C14.93300293 141.44624268 13.94413086 141.9745166 12.92529297 142.51879883 C11.87744629 143.06947021 10.82959961 143.6201416 9.75 144.1875 C7.57995728 145.33969323 5.41068811 146.49334453 3.2421875 147.6484375 C1.64842285 148.49680176 1.64842285 148.49680176 0.02246094 149.36230469 C-2.6576892 150.81452174 -5.30026479 152.30994944 -7.9296875 153.8515625 C-8.64866211 154.27155518 -9.36763672 154.69154785 -10.10839844 155.12426758 C-11.41206612 155.8924214 -12.7100778 156.67029289 -14.00097656 157.4597168 C-17.91878964 159.75345589 -20.49837056 160.40013714 -25 160 C-27.9375 158.75 -27.9375 158.75 -31 157 C-32.12865479 156.36344482 -33.25730957 155.72688965 -34.42016602 155.07104492 C-35.61365357 154.38105897 -36.80692818 153.69070456 -38 153 C-39.21804467 152.30660137 -40.43671541 151.61430137 -41.65600586 150.9230957 C-44.03885143 149.56971711 -46.4175386 148.20948442 -48.79248047 146.84228516 C-51.4590847 145.31068251 -54.13296735 143.7947747 -56.81640625 142.29296875 C-65.69298986 137.30701014 -65.69298986 137.30701014 -68 135 C-68.30107117 132.8637085 -68.30107117 132.8637085 -68.36987305 130.18652344 C-68.39877121 129.1849823 -68.42766937 128.18344116 -68.45744324 127.15155029 C-68.47535416 126.06513245 -68.49326508 124.9787146 -68.51171875 123.859375 C-68.53023392 122.74443665 -68.54874908 121.62949829 -68.56782532 120.48077393 C-68.59991279 118.11697952 -68.6255402 115.75309006 -68.64526367 113.38916016 C-68.67334171 110.96990452 -68.72108552 108.55079449 -68.78881836 106.13232422 C-68.88626747 102.64464671 -68.92429831 99.16073691 -68.94921875 95.671875 C-68.98939621 94.59355408 -69.02957367 93.51523315 -69.07096863 92.40423584 C-69.02924382 85.07769383 -69.02924382 85.07769383 -66.15299988 82.0660553 C-63.83583416 80.48913997 -61.52140991 79.21955826 -59 78 C-57.91710693 77.37730225 -56.83421387 76.75460449 -55.71850586 76.11303711 C-54.72729736 75.5897583 -53.73608887 75.06647949 -52.71484375 74.52734375 C-51.60689453 73.93759766 -50.49894531 73.34785156 -49.35742188 72.74023438 C-48.22884766 72.14533203 -47.10027344 71.55042969 -45.9375 70.9375 C-43.67439435 69.7409006 -41.41264192 68.54173788 -39.15234375 67.33984375 C-37.55688721 66.49268799 -37.55688721 66.49268799 -35.92919922 65.62841797 C-32.77722933 63.87615599 -29.80402138 61.95979118 -26.88110352 59.84985352 C-23.96194485 58.53102271 -22.20615162 58.57895257 -19 59 C-15.7304706 60.42555227 -12.69409843 62.18888929 -9.625 64 C-8.79355469 64.47695312 -7.96210938 64.95390625 -7.10546875 65.4453125 C-5.0634069 66.61891127 -3.02893125 67.80389127 -1 69 C-1.00222061 68.15031143 -1.00444122 67.30062286 -1.00672913 66.42518616 C-1.02673014 58.43463275 -1.04197316 50.4440877 -1.05181217 42.45351505 C-1.05704046 38.34505715 -1.06413713 34.23661986 -1.07543945 30.12817383 C-1.08627025 26.16653172 -1.09227724 22.20490948 -1.09487724 18.24325371 C-1.09673114 16.72851689 -1.1003511 15.21378121 -1.10573006 13.69905281 C-1.11294307 11.58458187 -1.11399083 9.47019406 -1.11352539 7.35571289 C-1.115746 6.14992081 -1.11796661 4.94412872 -1.12025452 3.70179749 C-1 1 -1 1 0 0 Z " fill="#394951" transform="translate(331,153)"/>
<path d="M0 0 C3.63565069 0.94241272 6.45092174 2.34985804 9.72705078 4.18603516 C10.33378632 4.52315521 10.94052185 4.86027527 11.56564331 5.20761108 C13.49659521 6.28330641 15.42033618 7.37122924 17.34423828 8.45947266 C18.61202659 9.16729411 19.88025277 9.87433189 21.14892578 10.58056641 C24.85002342 12.64603117 28.53742967 14.73484599 32.21923828 16.83447266 C32.80926636 17.17039429 33.39929443 17.50631592 34.00720215 17.85241699 C43.86222993 23.47746431 43.86222993 23.47746431 46.21923828 25.83447266 C46.51358032 27.93280029 46.51358032 27.93280029 46.57324219 30.55615234 C46.61174789 32.02843292 46.61174789 32.02843292 46.65103149 33.53045654 C46.66580536 34.59500061 46.68057922 35.65954468 46.69580078 36.75634766 C46.71194427 37.84908997 46.72808777 38.94183228 46.74472046 40.06768799 C46.77241809 42.38441607 46.79385531 44.70122605 46.80957031 47.01806641 C46.84397519 50.55740743 46.93170883 54.09299935 47.02001953 57.63134766 C47.04027566 59.88132015 47.05730717 62.13132445 47.07080078 64.38134766 C47.10581696 65.4377948 47.14083313 66.49424194 47.1769104 67.58270264 C47.13468032 74.75774582 47.13468032 74.75774582 44.57775879 77.76515198 C42.53112966 79.34013824 40.49059391 80.61001302 38.21923828 81.83447266 C37.2553418 82.41640381 36.29144531 82.99833496 35.29833984 83.59790039 C34.41114258 84.06655518 33.52394531 84.53520996 32.60986328 85.01806641 C31.6133374 85.55028809 30.61681152 86.08250977 29.59008789 86.63085938 C28.56020752 87.17242676 27.53032715 87.71399414 26.46923828 88.27197266 C19.0207993 92.22066488 11.70346188 96.17832359 4.68408203 100.85791016 C1.18887944 102.24269724 -1.11757144 101.58538384 -4.78076172 100.83447266 C-8.04711914 99.36328125 -8.04711914 99.36328125 -11.38623047 97.48291016 C-11.99155106 97.1457901 -12.59687164 96.80867004 -13.22053528 96.46133423 C-15.14239927 95.38761178 -17.0552259 94.29883019 -18.96826172 93.20947266 C-20.23137954 92.50145206 -21.49504813 91.79441311 -22.75927734 91.08837891 C-44.96093529 78.65429909 -44.96093529 78.65429909 -46.78076172 76.83447266 C-47.61303487 69.64465664 -47.6096359 62.32070301 -47.79003906 55.09155273 C-47.86672172 52.64337003 -47.97572301 50.19597051 -48.11816406 47.75073242 C-49.23991799 28.09605821 -49.23991799 28.09605821 -45.26153564 22.81951904 C-41.32172633 19.42585714 -36.82651642 17.49739479 -31.99200439 15.69308472 C-28.7891778 14.44944666 -25.95481694 12.79669373 -22.97607422 11.08447266 C-20.95439893 9.9978543 -18.93100501 8.91442638 -16.90576172 7.83447266 C-14.84517845 6.7315894 -12.78525024 5.62748113 -10.72607422 4.52197266 C-9.8445166 4.05146484 -8.96295898 3.58095703 -8.0546875 3.09619141 C-2.23483924 -0.13303082 -2.23483924 -0.13303082 0 0 Z " fill="#4CAE50" transform="translate(199.78076171875,212.16552734375)"/>
<path d="M0 0 C3.26635742 1.47119141 3.26635742 1.47119141 6.60546875 3.3515625 C7.21078934 3.68868256 7.81610992 4.02580261 8.43977356 4.37313843 C10.36163755 5.44686088 12.27446418 6.53564247 14.1875 7.625 C15.45061782 8.33302059 16.71428641 9.04005955 17.97851562 9.74609375 C40.18017357 22.18017357 40.18017357 22.18017357 42 24 C42.69583363 29.28237133 42.71502907 34.66916328 42.5859375 39.98828125 C42.5657959 40.85493408 42.5456543 41.72158691 42.52490234 42.61450195 C41.85097812 45.67725244 40.61436072 46.86872651 38.25 48.875 C36.51629623 49.62233348 34.76392292 50.32708691 33 51 C30.8821575 52.2691191 28.77816879 53.56159826 26.6875 54.875 C22.9085529 57.15718766 21.49863951 58 17 58 C17.06396973 57.44650879 17.12793945 56.89301758 17.19384766 56.32275391 C17.77121996 50.17137051 18.22099122 43.86515324 16 38 C11.49869574 32.90227612 4.52339308 29.67520734 -2 28 C-7.26188268 28.02654165 -11.28143839 30.52095072 -15.75 33.0625 C-22.76346154 37 -22.76346154 37 -25 37 C-25 45.25 -25 53.5 -25 62 C-23.35 62.66 -21.7 63.32 -20 64 C-17.89991649 65.06355126 -15.81374704 66.15479928 -13.73828125 67.265625 C-13.14758347 67.58150574 -12.55688568 67.89738647 -11.94828796 68.22283936 C-10.7012426 68.89059527 -9.45490133 69.5596676 -8.20922852 70.22998047 C-6.33746989 71.23657173 -4.46288161 72.23772663 -2.58789062 73.23828125 C4.38916479 76.97463924 11.26382273 80.84053991 18 85 C17.4892838 89.56491423 17.4892838 89.56491423 15.3293457 91.4855957 C14.61866943 91.87835693 13.90799316 92.27111816 13.17578125 92.67578125 C12.00305664 93.32836914 12.00305664 93.32836914 10.80664062 93.99414062 C9.98357422 94.42919922 9.16050781 94.86425781 8.3125 95.3125 C7.50876953 95.76689453 6.70503906 96.22128906 5.87695312 96.68945312 C1.32846765 99.16266886 -1.70426745 100.50846098 -7 100 C-9.7980957 98.87353516 -9.7980957 98.87353516 -12.67578125 97.2890625 C-13.7438501 96.70801758 -14.81191895 96.12697266 -15.91235352 95.52832031 C-17.03440186 94.90022461 -18.1564502 94.27212891 -19.3125 93.625 C-20.46355225 92.99174805 -21.61460449 92.35849609 -22.80053711 91.70605469 C-26.21034868 89.82126533 -29.607625 87.91596944 -33 86 C-34.41442383 85.20190918 -34.41442383 85.20190918 -35.85742188 84.38769531 C-38.26615873 83.02020701 -40.66711997 81.64072962 -43.0625 80.25 C-43.7635083 79.84475098 -44.4645166 79.43950195 -45.18676758 79.02197266 C-49.87763512 76.24472975 -49.87763512 76.24472975 -51 74 C-51.11007496 72.44890747 -51.15907791 70.89326902 -51.17700195 69.33837891 C-51.18983719 68.37042389 -51.20267242 67.40246887 -51.21589661 66.40518188 C-51.22328354 65.35623749 -51.23067047 64.30729309 -51.23828125 63.2265625 C-51.246353 62.15127289 -51.25442474 61.07598328 -51.26274109 59.96810913 C-51.27658743 57.69001888 -51.28730712 55.41190784 -51.29516602 53.13378906 C-51.31239583 49.64608624 -51.35627998 46.15932696 -51.40039062 42.671875 C-51.41051579 40.46094449 -51.41903244 38.2500059 -51.42578125 36.0390625 C-51.44328934 34.99416656 -51.46079742 33.94927063 -51.47883606 32.87271118 C-51.45723482 25.6791644 -51.45723482 25.6791644 -49.32250977 22.50830078 C-46.72895012 20.82397286 -44.15318048 19.26777332 -41.4140625 17.828125 C-40.32456299 17.2494165 -39.23506348 16.67070801 -38.11254883 16.07446289 C-36.96165771 15.47239014 -35.8107666 14.87031738 -34.625 14.25 C-25.4159161 9.44865272 -25.4159161 9.44865272 -16.41796875 4.26953125 C-15.79003418 3.88829102 -15.16209961 3.50705078 -14.51513672 3.11425781 C-12.94490502 2.14428962 -11.38779988 1.15315667 -9.83203125 0.16015625 C-6.08186934 -1.37611697 -3.9499566 -0.82680114 0 0 Z " fill="#394951" transform="translate(415,213)"/>
<path d="M0 0 C2.6037695 1.30188475 4.93607154 2.62856688 7.375 4.1875 C15.79214731 9.36845685 24.42464941 14.07106259 33.15185547 18.70776367 C34.1420166 19.23732666 35.13217773 19.76688965 36.15234375 20.3125 C37.03913818 20.78300781 37.92593262 21.25351563 38.83959961 21.73828125 C41 23 41 23 43 25 C43.24050903 27.78408813 43.24050903 27.78408813 43.22705078 31.37744141 C43.22734283 32.03122269 43.22763489 32.68500397 43.22793579 33.3585968 C43.22654065 35.52305296 43.2109712 37.68716636 43.1953125 39.8515625 C43.19158302 41.35085868 43.18873574 42.8501573 43.18673706 44.34945679 C43.17909548 48.29836743 43.1594426 52.24713129 43.1373291 56.19598389 C43.1168819 60.22438572 43.10773776 64.25281124 43.09765625 68.28125 C43.07619711 76.18756741 43.04205495 84.09376545 43 92 C40 93 40 93 37.74755859 92.04370117 C36.46099365 91.30083862 36.46099365 91.30083862 35.1484375 90.54296875 C34.21515625 90.00736328 33.281875 89.47175781 32.3203125 88.91992188 C31.34835938 88.34822266 30.37640625 87.77652344 29.375 87.1875 C28.3953125 86.62740234 27.415625 86.06730469 26.40625 85.49023438 C19.13889185 81.2777837 19.13889185 81.2777837 18 79 C18.04345871 76.97633002 18.09527872 74.95242338 18.19366455 72.93067932 C19.95881919 53.92511667 19.95881919 53.92511667 15.28710938 36.11669922 C10.74690732 31.82953391 5.17469537 29.65416487 -1 29 C-6.30052793 29.16041951 -10.24244881 31.49877491 -14.75 34.0625 C-21.76346154 38 -21.76346154 38 -24 38 C-23.97381592 39.22106445 -23.94763184 40.44212891 -23.9206543 41.70019531 C-23.83012436 46.23239809 -23.7727406 50.76452106 -23.7253418 55.29736328 C-23.70020396 57.25876303 -23.66608835 59.22006916 -23.62280273 61.18115234 C-23.56211792 64.00121144 -23.53378359 66.82003194 -23.51171875 69.640625 C-23.48591232 70.51680481 -23.4601059 71.39298462 -23.43351746 72.29571533 C-23.43071056 78.39438203 -23.43071056 78.39438203 -26.27636719 81.42163086 C-27.17516602 81.94249268 -28.07396484 82.46335449 -29 83 C-30.02202515 83.68703003 -30.02202515 83.68703003 -31.06469727 84.38793945 C-33.22306976 85.70918248 -35.38918509 87.01597308 -37.5625 88.3125 C-38.31724609 88.77978516 -39.07199219 89.24707031 -39.84960938 89.72851562 C-40.58115234 90.16486328 -41.31269531 90.60121094 -42.06640625 91.05078125 C-42.72584229 91.44950439 -43.38527832 91.84822754 -44.06469727 92.2590332 C-46.45991752 93.17608801 -47.58925022 92.70089792 -50 92 C-50.0926956 83.46380765 -50.16376219 74.92782571 -50.20724869 66.39125443 C-50.22812052 62.42732207 -50.25642999 58.46373413 -50.30175781 54.5 C-50.34523119 50.67447273 -50.36914015 46.84927666 -50.37950897 43.02352142 C-50.38689778 41.56424495 -50.40132665 40.10498654 -50.42292023 38.64585114 C-50.45197624 36.601068 -50.45595541 34.5576518 -50.45410156 32.51269531 C-50.46298401 31.34909485 -50.47186646 30.18549438 -50.48101807 28.9866333 C-49.89465269 25.34590025 -48.85184125 24.25686721 -46 22 C-44.00794148 20.7910017 -41.97088032 19.65462408 -39.90625 18.57421875 C-39.31888062 18.26353958 -38.73151123 17.95286041 -38.12634277 17.63276672 C-36.25446011 16.64405291 -34.37762071 15.66526615 -32.5 14.6875 C-30.05012117 13.40344563 -27.60298309 12.11425411 -25.15625 10.82421875 C-24.55482178 10.509758 -23.95339355 10.19529724 -23.33374023 9.87130737 C-18.31424566 7.22630373 -13.49065893 4.30427102 -8.70117188 1.26098633 C-5.52524934 -0.22162754 -3.46867201 -0.35823893 0 0 Z " fill="#394951" transform="translate(101,212)"/>
<path d="M0 0 C2.2199707 0.91796875 2.2199707 0.91796875 4.42578125 2.1875 C5.14419189 2.59355469 5.86260254 2.99960938 6.6027832 3.41796875 C7.94409302 4.20107422 7.94409302 4.20107422 9.3125 5 C13.6128125 7.475 13.6128125 7.475 18 10 C18 18.25 18 26.5 18 35 C15.1125 36.629375 12.225 38.25875 9.25 39.9375 C8.34668945 40.45046631 7.44337891 40.96343262 6.51269531 41.49194336 C5.79178711 41.89550049 5.07087891 42.29905762 4.328125 42.71484375 C3.5949707 43.12855225 2.86181641 43.54226074 2.10644531 43.96850586 C-0.01257396 45.00615728 -1.65401896 45.72849302 -4 46 C-6.07470703 45.22729492 -6.07470703 45.22729492 -8.2578125 43.98046875 C-9.04800781 43.53509766 -9.83820313 43.08972656 -10.65234375 42.63085938 C-11.46832031 42.15455078 -12.28429687 41.67824219 -13.125 41.1875 C-14.36056641 40.49043945 -14.36056641 40.49043945 -15.62109375 39.77929688 C-21.67199405 36.32800595 -21.67199405 36.32800595 -24 34 C-24.58702186 30.25399082 -24.55577754 26.47396873 -24.625 22.6875 C-24.68300781 21.64142578 -24.74101562 20.59535156 -24.80078125 19.51757812 C-24.92545512 11.98439953 -24.92545512 11.98439953 -22.37475586 9.27124023 C-20.30314517 7.96822144 -18.24557912 6.96760937 -16 6 C-15.00613281 5.40574219 -14.01226562 4.81148437 -12.98828125 4.19921875 C-11.66376953 3.45091797 -11.66376953 3.45091797 -10.3125 2.6875 C-8.97638672 1.91986328 -8.97638672 1.91986328 -7.61328125 1.13671875 C-4.7204735 -0.12158776 -3.12194244 -0.24820376 0 0 Z " fill="#FDFDFD" transform="translate(312,240)"/>
<path d="M0 0 C2.88213645 3.45516509 5.26424113 6.95238033 7.51171875 10.84765625 C7.83745377 11.40861496 8.16318878 11.96957367 8.49879456 12.54753113 C9.199848 13.75514489 9.8992167 14.96373799 10.5970459 16.17321777 C12.47055467 19.41919283 14.3576657 22.65721896 16.24609375 25.89453125 C16.63511871 26.56165131 17.02414368 27.22877136 17.42495728 27.91610718 C22.29861121 36.25189228 27.33295044 44.48990324 32.37768555 52.72290039 C36.05856387 58.74400481 39.6458177 64.79017618 43 71 C39.14988947 70.41214106 36.34007009 69.27892914 32.97265625 67.33984375 C31.54590576 66.52531738 31.54590576 66.52531738 30.09033203 65.69433594 C29.09114746 65.11458008 28.09196289 64.53482422 27.0625 63.9375 C26.0401123 63.35129883 25.01772461 62.76509766 23.96435547 62.16113281 C21.91979092 60.98829184 19.87679057 59.81271938 17.83544922 58.63427734 C15.36590062 57.21089536 12.89076606 55.79851276 10.41015625 54.39453125 C9.75845459 54.02529541 9.10675293 53.65605957 8.43530273 53.27563477 C7.83790283 52.93717529 7.24050293 52.59871582 6.625 52.25 C1.12707182 49.12707182 1.12707182 49.12707182 0 48 C-0.09311889 46.49581261 -0.11746028 44.98728644 -0.11352539 43.48022461 C-0.11344986 42.51930405 -0.11337433 41.55838348 -0.11329651 40.56834412 C-0.10813522 39.523564 -0.10297394 38.47878387 -0.09765625 37.40234375 C-0.0962413 36.33834854 -0.09482635 35.27435333 -0.09336853 34.17811584 C-0.08775064 30.76454917 -0.07519511 27.351047 -0.0625 23.9375 C-0.05748731 21.62955824 -0.052924 19.32161545 -0.04882812 17.01367188 C-0.0377754 11.34242574 -0.02101987 5.67121747 0 0 Z " fill="#2F7E33" transform="translate(153,241)"/>
<path d="M0 0 C3.61949466 0.6958083 6.49547203 2.20256431 9.7265625 3.94921875 C11.39912109 4.85124023 11.39912109 4.85124023 13.10546875 5.77148438 C13.68474121 6.08690186 14.26401367 6.40231934 14.86083984 6.72729492 C16.59585026 7.67163425 18.33500503 8.60834643 20.07421875 9.54492188 C38.54225986 19.54225986 38.54225986 19.54225986 41 22 C41.09304018 23.47354348 41.11746265 24.95150591 41.11352539 26.42797852 C41.11344986 27.36887833 41.11337433 28.30977814 41.11329651 29.27919006 C41.10813522 30.30209641 41.10297394 31.32500275 41.09765625 32.37890625 C41.0962413 33.42070541 41.09482635 34.46250458 41.09336853 35.53587341 C41.0877508 38.87811094 41.0751953 42.22028257 41.0625 45.5625 C41.05748728 47.82226466 41.05292398 50.08203037 41.04882812 52.34179688 C41.03777561 57.89455391 41.02102024 63.44727225 41 69 C38.65274502 66.13388792 36.46413704 63.3125964 34.58203125 60.12109375 C34.14084961 59.37867432 33.69966797 58.63625488 33.24511719 57.87133789 C32.77235352 57.06817139 32.29958984 56.26500488 31.8125 55.4375 C30.75210211 53.65317015 29.69085286 51.86934606 28.62890625 50.0859375 C27.76483154 48.6333252 27.76483154 48.6333252 26.88330078 47.15136719 C23.73245407 41.87898849 20.5441017 36.62944928 17.35458374 31.38040161 C16.28242276 29.61586073 15.21110314 27.85081133 14.13989258 26.08569336 C13.45950928 24.96557861 12.77912598 23.84546387 12.078125 22.69140625 C11.41232422 21.59328613 10.74652344 20.49516602 10.06054688 19.36376953 C8.62450651 17.01948468 7.17621291 14.68860046 5.70507812 12.36669922 C5.33308289 11.77541733 4.96108765 11.18413544 4.57781982 10.57493591 C3.54340556 8.9335142 2.50189403 7.29657137 1.45996094 5.65991211 C0 3 0 3 0 0 Z " fill="#2F7E33" transform="translate(204,215)"/>
<path d="M0 0 C2.53768303 3.17210378 4.59563125 5.78983807 6.578125 9.20703125 C7.01640625 9.95791016 7.4546875 10.70878906 7.90625 11.48242188 C8.3496875 12.25134766 8.793125 13.02027344 9.25 13.8125 C9.70890625 14.60076172 10.1678125 15.38902344 10.640625 16.20117188 C11.76404386 18.13204804 12.88371244 20.06499526 14 22 C11.67435159 26.00451885 9.33975113 30.00370507 7 34 C6.41734375 34.99773437 5.8346875 35.99546875 5.234375 37.0234375 C4.70328125 37.92320312 4.1721875 38.82296875 3.625 39.75 C3.14289063 40.56984375 2.66078125 41.3896875 2.1640625 42.234375 C1.77992188 42.81703125 1.39578125 43.3996875 1 44 C0.67 44 0.34 44 0 44 C0 29.48 0 14.96 0 0 Z " fill="#388E3C" transform="translate(153,241)"/>
<path d="M0 0 C0.33 0 0.66 0 1 0 C1 13.86 1 27.72 1 42 C-1.44320064 38.94599919 -3.56414201 36.27119122 -5.578125 33.01171875 C-6.01640625 32.30595703 -6.4546875 31.60019531 -6.90625 30.87304688 C-7.57140625 29.79120117 -7.57140625 29.79120117 -8.25 28.6875 C-8.70890625 27.94693359 -9.1678125 27.20636719 -9.640625 26.44335938 C-10.76330813 24.6306939 -11.88205606 22.81559216 -13 21 C-12.34 20.67 -11.68 20.34 -11 20 C-10.32631608 18.3361574 -9.66167023 16.66865657 -9 15 C-7.56021351 12.34670978 -6.00131879 9.76915977 -4.4375 7.1875 C-4.02564453 6.49462891 -3.61378906 5.80175781 -3.18945312 5.08789062 C-2.15713173 3.37298683 -1.08229765 1.68380945 0 0 Z " fill="#388E3C" transform="translate(244,242)"/>
<path d="M0 0 C1.77518 1.08483222 3.5189904 2.2209936 5.25 3.375 C5.54296875 5.7578125 5.54296875 5.7578125 5.4375 8.5 C5.41042969 9.41007812 5.38335937 10.32015625 5.35546875 11.2578125 C5.32066406 11.95648438 5.28585937 12.65515625 5.25 13.375 C0.02640845 16.41197183 0.02640845 16.41197183 -3.375 16.25 C-7.88126492 14.58979714 -7.88126492 14.58979714 -9.75 12.375 C-10.08878788 9.34741945 -9.97892133 6.40820768 -9.75 3.375 C-3.49576271 -0.79449153 -3.49576271 -0.79449153 0 0 Z " fill="#3C9040" transform="translate(412.75,254.625)"/>
</svg>
