<?xml version="1.0" encoding="UTF-8"?>
<svg version="1.1" xmlns="http://www.w3.org/2000/svg" width="512" height="512">
<path d="M0 0 C168.96 0 337.92 0 512 0 C512 168.96 512 337.92 512 512 C343.04 512 174.08 512 0 512 C0 343.04 0 174.08 0 0 Z " fill="#FFFEFE" transform="translate(0,0)"/>
<path d="M0 0 C0.82636963 0.65718018 0.82636963 0.65718018 1.66943359 1.32763672 C35.231526 28.31921813 59.72830009 67.52059263 64.8052063 110.84010315 C65.14946934 114.65733472 65.20367857 118.46993148 65.23828125 122.30078125 C65.246353 123.17663376 65.25442474 124.05248627 65.26274109 124.95487976 C65.27650351 126.80461702 65.28726032 128.65437883 65.29516602 130.50415039 C65.30660093 132.35676767 65.32691529 134.20935427 65.35668945 136.06176758 C65.56779394 149.24577348 64.30000583 161.23140358 61 174 C60.74839111 175.01247803 60.49678223 176.02495605 60.23754883 177.06811523 C59.62481784 179.41854314 58.96136754 181.74023087 58.25 184.0625 C57.99959961 184.88210205 57.74919922 185.7017041 57.49121094 186.54614258 C44.21060396 228.51399022 13.89459952 263.69371114 -25 284 C-41.15029332 292.37799229 -58.15554506 297.62140012 -76 301 C-76.90274658 301.17877686 -77.80549316 301.35755371 -78.7355957 301.54174805 C-86.33997129 302.94810963 -93.71232261 303.35028121 -101.4375 303.3125 C-103.27066772 303.30404053 -103.27066772 303.30404053 -105.14086914 303.29541016 C-150.79011887 302.69252369 -193.11715126 283.15817617 -225.11572266 250.96630859 C-257.6666546 216.99828503 -272.04641975 172.27595838 -271.39573669 125.85528564 C-270.58056388 88.23062523 -254.7803637 49.72257645 -229.0625 22.21875 C-227.22554251 20.24262907 -225.52188835 18.21045379 -223.8125 16.125 C-168.3782106 -46.90302767 -64.05810084 -51.02404316 0 0 Z " fill="#FF6C37" transform="translate(357,122)"/>
<path d="M0 0 C3.63305664 0.10766602 3.63305664 0.10766602 6.16430664 1.85766602 C7.13883789 2.97141602 7.13883789 2.97141602 8.13305664 4.10766602 C8.80336914 4.85016602 9.47368164 5.59266602 10.16430664 6.35766602 C10.64899414 6.93516602 11.13368164 7.51266602 11.63305664 8.10766602 C10.2875073 11.21380562 8.93551366 12.94992122 6.24633789 14.99047852 C5.56313477 15.51279053 4.87993164 16.03510254 4.17602539 16.57324219 C3.4399707 17.12085205 2.70391602 17.66846191 1.94555664 18.23266602 C0.80086914 19.09371948 0.80086914 19.09371948 -0.36694336 19.97216797 C-18.61751926 33.58254251 -38.15203335 44.69727189 -58.36694336 55.10766602 C-58.40408855 59.49079877 -58.41135585 63.75236606 -57.86694336 68.10766602 C-57.77413086 68.87079102 -57.68131836 69.63391602 -57.58569336 70.42016602 C-57.51350586 70.97704102 -57.44131836 71.53391602 -57.36694336 72.10766602 C-63.40025698 67.12362433 -68.88536046 61.68851299 -74.36694336 56.10766602 C-72.82125804 52.48987506 -70.64028176 50.04617008 -67.94335938 47.203125 C-67.49566193 46.72943481 -67.04796448 46.25574463 -66.58670044 45.7677002 C-61.88247419 40.80924843 -57.10585505 35.91976754 -52.32470703 31.03564453 C-50.06938647 28.72711108 -47.83811118 26.39879072 -45.62548828 24.04931641 C-23.72194958 0.82439892 -23.72194958 0.82439892 -10.52479553 -0.07215881 C-7.00834563 -0.11041935 -3.52048371 0.09752432 0 0 Z " fill="#FFFCFC" transform="translate(243.366943359375,276.892333984375)"/>
<path d="M0 0 C0.825 0.495 1.65 0.99 2.5 1.5 C0.97372818 2.51751455 -0.55265756 3.53486854 -2.08209229 4.54762268 C-8.67484214 9.19581209 -14.16144509 14.97785623 -19.77974701 20.7211132 C-21.64061661 22.62175305 -23.50920938 24.51448006 -25.38018799 26.40516663 C-30.6933027 31.77604421 -35.99609394 37.15695517 -41.28466797 42.55200195 C-44.53170817 45.86331135 -47.79069081 49.16245566 -51.05762482 52.45413399 C-52.29829137 53.70908198 -53.53426192 54.96869035 -54.76543427 56.23295403 C-56.47923145 57.99223171 -58.20771851 59.7356957 -59.94042969 61.47631836 C-60.69949364 62.26706001 -60.69949364 62.26706001 -61.47389221 63.07377625 C-62.90887451 64.49668884 -62.90887451 64.49668884 -65.5 66.5 C-69.58164372 66.39449101 -71.52775885 63.77984002 -74.25 60.9375 C-75.04921875 60.11121094 -75.8484375 59.28492188 -76.671875 58.43359375 C-77.57679688 57.47646484 -77.57679688 57.47646484 -78.5 56.5 C-76.94064367 52.75938188 -74.62945322 50.38534364 -71.7734375 47.54296875 C-71.07367294 46.84389153 -71.07367294 46.84389153 -70.35977173 46.13069153 C-69.3719326 45.14586655 -68.38167105 44.16346619 -67.38916016 43.18334961 C-65.89566953 41.70791957 -64.4101425 40.2248426 -62.92578125 38.74023438 C-57.62072153 33.45478784 -52.20874457 28.35069627 -46.5 23.5 C-45.44321781 22.57642698 -44.38718653 21.65199378 -43.33203125 20.7265625 C-36.0340342 14.43876685 -28.58677369 8.74746434 -20.5 3.5 C-19.66339844 2.94957031 -18.82679688 2.39914063 -17.96484375 1.83203125 C-11.70037339 -2.00401664 -7.02062055 -3.00883738 0 0 Z " fill="#FFFCFB" transform="translate(302.5,190.5)"/>
<path d="M0 0 C2.625 2.125 2.625 2.125 4 5 C3.71655966 9.7991603 2.59013312 12.03850412 -0.875 15.3125 C-1.69097656 16.08464844 -2.50695312 16.85679687 -3.34765625 17.65234375 C-6.85004289 20.75239437 -10.46239291 23.69444007 -14.11328125 26.6171875 C-17.17803659 29.14695848 -20.09375105 31.79212821 -23 34.5 C-27.58730196 38.76948696 -32.33445488 42.75760737 -37.21875 46.6875 C-40.24026689 49.19977247 -43.12355598 51.82485153 -46 54.5 C-49.93572894 58.14208467 -53.90783073 61.72112789 -58 65.1875 C-58.86625 65.92355469 -59.7325 66.65960938 -60.625 67.41796875 C-63 69 -63 69 -67 69 C-69.3125 67.25 -69.3125 67.25 -71 65 C-70.88351749 60.5747374 -67.35351332 57.88785683 -64.4296875 54.94628906 C-63.8490303 54.35073715 -63.26837311 53.75518524 -62.67012024 53.1415863 C-60.74681695 51.17447547 -58.81201983 49.21922541 -56.875 47.265625 C-55.53034791 45.90371369 -54.18570283 44.54179546 -52.84106445 43.17987061 C-50.01885077 40.32614326 -47.18971315 37.47946712 -44.35693359 34.63623047 C-40.73269499 30.99554067 -37.13711338 27.32788168 -33.54760742 23.65298843 C-30.779687 20.82912977 -27.99178026 18.02566239 -25.19805908 15.22734833 C-23.86375285 13.88397382 -22.53693991 12.53311252 -21.21795654 11.17469025 C-19.36779272 9.27320882 -17.49112058 7.40233719 -15.60546875 5.53613281 C-14.80076897 4.68996651 -14.80076897 4.68996651 -13.97981262 3.82670593 C-9.75985753 -0.25874698 -5.80381704 -1.171173 0 0 Z " fill="#FFFCFB" transform="translate(311,198)"/>
<path d="M0 0 C1.46933196 0.81378385 2.93202123 1.64035308 4.375 2.5 C-0.77223697 8.69289613 -6.36868849 14.28550273 -12.14257812 19.890625 C-13.17995117 20.9115625 -13.17995117 20.9115625 -14.23828125 21.953125 C-15.17861206 22.86819824 -15.17861206 22.86819824 -16.13793945 23.80175781 C-17.85323783 25.5396061 -17.85323783 25.5396061 -18.625 28.5 C-17.965 28.5 -17.305 28.5 -16.625 28.5 C-14.5 30.375 -14.5 30.375 -12.625 32.5 C-12.625 33.16 -12.625 33.82 -12.625 34.5 C-11.75101562 34.88285156 -11.75101562 34.88285156 -10.859375 35.2734375 C-8.41111777 36.61741087 -6.80756752 38.11810296 -4.875 40.125 C-4.26140625 40.75664062 -3.6478125 41.38828125 -3.015625 42.0390625 C-2.32726562 42.76222656 -2.32726562 42.76222656 -1.625 43.5 C-1.955 44.49 -2.285 45.48 -2.625 46.5 C-10.8043415 48.48287067 -17.28695438 47.5047119 -24.625 43.5 C-29.37654441 39.91191786 -33.46533748 35.48303762 -34.625 29.5 C-35.38311473 21.87626199 -36.0569195 14.4654802 -31.17578125 8.140625 C-22.34342327 -1.2034313 -12.29853778 -6.12317581 0 0 Z " fill="#FFFBFA" transform="translate(340.625,152.5)"/>
<path d="M0 0 C-6.15165915 23.0687218 -29.43535344 42.70204722 -46 59 C-46.83402344 59.91523438 -47.66804688 60.83046875 -48.52734375 61.7734375 C-51 64 -51 64 -55 64 C-57.140625 62.25 -57.140625 62.25 -59.25 60 C-59.95640625 59.2575 -60.6628125 58.515 -61.390625 57.75 C-61.92171875 57.1725 -62.4528125 56.595 -63 56 C-61.5045292 52.40278644 -59.47293692 50.36902779 -56.5625 47.8125 C-55.66273438 47.02101563 -54.76296875 46.22953125 -53.8359375 45.4140625 C-51.15157755 43.12902883 -48.43146731 40.90037687 -45.6875 38.6875 C-40.87254256 34.79614512 -36.34912829 30.66870856 -31.83447266 26.43994141 C-27.68000636 22.5705494 -23.34911607 18.9907388 -18.9140625 15.4453125 C-14.64301402 11.86129595 -10.61166419 8.02874017 -6.59399414 4.16430664 C-2.21106916 0 -2.21106916 0 0 0 Z " fill="#FFFBF9" transform="translate(314,217)"/>
<path d="M0 0 C4.93133925 4.70718746 7.11705363 9.03647669 7.5 15.8125 C7.30731366 21.55805624 5.35461028 26.35815554 2 31 C-0.97 33.475 -0.97 33.475 -4 36 C-8.95 31.05 -13.9 26.1 -19 21 C-17.19522505 17.3904501 -15.88074534 15.64371929 -13.0859375 12.890625 C-12.32539063 12.13652344 -11.56484375 11.38242188 -10.78125 10.60546875 C-9.9871875 9.82816406 -9.193125 9.05085937 -8.375 8.25 C-7.57320313 7.45722656 -6.77140625 6.66445312 -5.9453125 5.84765625 C-3.96797154 3.89385507 -1.98611091 1.94487897 0 0 Z " fill="#FFF9F8" transform="translate(348,159)"/>
<path d="M0 0 C4.05227809 1.61126295 6.76221847 4.50021998 9.75 7.5625 C10.25660156 8.06974609 10.76320312 8.57699219 11.28515625 9.09960938 C15 12.85951188 15 12.85951188 15 14 C6.28299826 14.14368684 -2.31320899 13.71961582 -11 13 C-9.46356148 9.31930113 -7.21849055 7.01224796 -4.375 4.25 C-3.55773437 3.45078125 -2.74046875 2.6515625 -1.8984375 1.828125 C-0.95871094 0.92320312 -0.95871094 0.92320312 0 0 Z " fill="#FFF7F4" transform="translate(164,336)"/>
<path d="M0 0 C3.12390809 1.56195404 5.16922214 2.79420696 7.75 5 C8.67039063 5.7734375 8.67039063 5.7734375 9.609375 6.5625 C11 8 11 8 11 10 C7.21077018 10.86523268 3.41829877 11.71529998 -0.375 12.5625 C-1.45523438 12.80935547 -2.53546875 13.05621094 -3.6484375 13.31054688 C-5.1953125 13.65375977 -5.1953125 13.65375977 -6.7734375 14.00390625 C-7.72653809 14.21861572 -8.67963867 14.4333252 -9.66162109 14.65454102 C-12 15 -12 15 -14 14 C-9.38 9.38 -4.76 4.76 0 0 Z " fill="#FFFAF8" transform="translate(219,250)"/>
<path d="M0 0 C1.16959987 0.97566112 2.33561177 1.955625 3.5 2.9375 C4.1496875 3.48277344 4.799375 4.02804687 5.46875 4.58984375 C6.22671875 5.28787109 6.22671875 5.28787109 7 6 C7 6.33 7 6.66 7 7 C2.32798795 8.20568053 -2.21496292 8.09382426 -7 8 C-6.02133662 6.85373678 -5.04205413 5.70800212 -4.0625 4.5625 C-3.51722656 3.92441406 -2.97195312 3.28632813 -2.41015625 2.62890625 C-1.63204305 1.73008851 -0.84063472 0.84063472 0 0 Z " fill="#FFF4F0" transform="translate(235,265)"/>
<path d="M0 0 C1.98 0.495 1.98 0.495 4 1 C4.25 8.625 4.25 8.625 2 12 C1.01 12 0.02 12 -1 12 C-0.67 8.04 -0.34 4.08 0 0 Z " fill="#FF7847" transform="translate(346,171)"/>
</svg>
