<?xml version="1.0" encoding="UTF-8"?>
<svg version="1.1" xmlns="http://www.w3.org/2000/svg" width="512" height="512">
<path d="M0 0 C168.96 0 337.92 0 512 0 C512 168.96 512 337.92 512 512 C343.04 512 174.08 512 0 512 C0 343.04 0 174.08 0 0 Z " fill="#FEFEFE" transform="translate(0,0)"/>
<path d="M0 0 C1.48709976 0.00031723 1.48709976 0.00031723 3.00424194 0.00064087 C24.47139869 0.04629587 44.90436221 1.89331564 65.1875 9.375 C66.53908203 9.81585938 66.53908203 9.81585938 67.91796875 10.265625 C81.71075005 15.08980924 92.77588671 24.72182735 99.14453125 37.78515625 C101.84408605 44.48854514 102.4851638 50.18010876 102.47802734 57.35498047 C102.48474457 58.33331345 102.49146179 59.31164642 102.49838257 60.31962585 C102.51732686 63.5438653 102.52128603 66.76789589 102.5234375 69.9921875 C102.52987156 72.25074344 102.53660037 74.50929856 102.54360962 76.76785278 C102.55557615 81.50378344 102.55929145 86.23964123 102.55810547 90.97558594 C102.55790316 97.00153836 102.58511667 103.02701449 102.61964989 109.05285454 C102.64205808 113.72189412 102.64593865 118.39082201 102.64488602 123.05990982 C102.6472245 125.27874506 102.65594738 127.49758421 102.67155075 129.71636581 C102.79867573 149.67384856 101.71921676 167.19662 87.6875 182.5625 C72.12092935 197.40558685 53.04779171 197.80894306 32.8193264 197.75512505 C29.03736486 197.74592814 25.25589005 197.75633711 21.47395325 197.77174377 C12.08316351 197.80658166 2.69242162 197.81417974 -6.69842529 197.81164551 C-14.64827488 197.80977313 -22.59775542 197.82387787 -30.54755211 197.86012459 C-34.24760605 197.87084905 -37.94713473 197.85887991 -41.64717102 197.84629822 C-61.66452632 197.87747036 -78.35640598 199.72260731 -93.51953125 213.921875 C-104.99268917 226.19639489 -108.079484 242.09620376 -108.2265625 258.28125 C-108.24530442 259.6150427 -108.26488001 260.94882391 -108.2852478 262.28259277 C-108.33625622 265.76767157 -108.37604774 269.25278868 -108.41339111 272.73803711 C-108.45362874 276.30461865 -108.5046302 279.87104516 -108.5546875 283.4375 C-108.65107536 290.41655297 -108.73559713 297.39570583 -108.8125 304.375 C-114.14694247 304.44992194 -119.48106946 304.50396171 -124.81591797 304.53979492 C-126.62554265 304.55475449 -128.4351319 304.57512957 -130.24462891 304.60131836 C-149.12745061 304.86749412 -163.13426327 302.41534741 -177.36328125 289.03515625 C-186.08260709 279.56488369 -190.93930416 268.51267213 -194.8125 256.375 C-195.05125351 255.63638733 -195.29000702 254.89777466 -195.53599548 254.13677979 C-200.59758687 237.9382921 -201.28849999 221.28668096 -201.14868164 204.42431641 C-201.12479825 201.34902185 -201.12819121 198.27458459 -201.13476562 195.19921875 C-201.12088604 185.08572954 -200.94946669 175.29842842 -198.8125 165.375 C-198.65160889 164.61509766 -198.49071777 163.85519531 -198.32495117 163.07226562 C-194.0081513 144.49286328 -184.59023596 125.38666492 -168.21875 114.80078125 C-164.81243838 112.78243102 -161.44121401 110.95801863 -157.8125 109.375 C-157.20965211 109.10599223 -156.60680422 108.83698446 -155.98568821 108.55982494 C-148.73459688 105.73407089 -141.51543032 105.97331456 -133.83764648 106.03442383 C-132.33880124 106.03527136 -130.83995475 106.0347925 -129.34111023 106.03309631 C-125.29620686 106.03223985 -121.25157346 106.04980861 -117.20673251 106.07081819 C-112.97068594 106.08964357 -108.73463236 106.09134003 -104.49855042 106.09489441 C-96.48769902 106.10419772 -88.47697127 106.12878816 -80.46617419 106.15894288 C-71.34161 106.19254041 -62.21703974 106.20898633 -53.09242904 106.22402918 C-34.33238079 106.25533935 -15.5724549 106.30867462 3.1875 106.375 C3.1875 101.755 3.1875 97.135 3.1875 92.375 C-29.4825 92.375 -62.1525 92.375 -95.8125 92.375 C-95.895 83.83625 -95.9775 75.2975 -96.0625 66.5 C-96.09891602 63.82406738 -96.13533203 61.14813477 -96.17285156 58.39111328 C-96.18454673 56.24252115 -96.19473659 54.09392008 -96.203125 51.9453125 C-96.22358887 50.85210693 -96.24405273 49.75890137 -96.26513672 48.63256836 C-96.27009712 37.60311859 -93.13359412 29.71447709 -85.48046875 21.76171875 C-74.1223663 11.60095653 -60.33260105 7.51941857 -45.8125 4.1875 C-45.13807861 4.03249023 -44.46365723 3.87748047 -43.76879883 3.71777344 C-29.18606531 0.57714015 -14.85619602 -0.02922287 0 0 Z " fill="#3773A5" transform="translate(252.8125,51.625)"/>
<path d="M0 0 C5.61925232 -0.09982274 11.23797418 -0.1719136 16.85791016 -0.21972656 C18.76457729 -0.23968492 20.67118448 -0.2668616 22.57763672 -0.30175781 C39.78950403 -0.60862907 53.24221435 1.45732568 66.59375 13.30078125 C85.56436735 32.59343069 92.01141793 62.40115541 92.23828125 88.66796875 C92.246353 89.58347 92.25442474 90.49897125 92.26274109 91.44221497 C92.27651103 93.37771761 92.28726455 95.3132438 92.29516602 97.2487793 C92.30658516 99.18472664 92.32687318 101.12064508 92.35668945 103.05639648 C92.77806589 130.51648645 88.03076903 161.15299755 68.41503906 181.91674805 C56.89823703 193.34143135 42.92848086 198.42866729 26.86334229 198.49768066 C25.49377044 198.48353357 24.12420261 198.46899449 22.75463867 198.45410156 C21.27490774 198.45297017 19.79517458 198.45361263 18.31544495 198.45587158 C14.34093254 198.45700829 10.36691373 198.43367067 6.39251494 198.40557575 C2.22323542 198.38038573 -1.94605834 198.37820635 -6.11540222 198.37347412 C-13.99158826 198.36109562 -21.86754933 198.32834428 -29.74363679 198.28807616 C-38.71834263 198.24319782 -47.69305982 198.22133123 -56.66785014 198.20129442 C-75.11203067 198.1596064 -93.55598891 198.0885392 -112 198 C-112 202.62 -112 207.24 -112 212 C-79.33 212 -46.66 212 -13 212 C-12.87625 220.4975 -12.7525 228.995 -12.625 237.75 C-12.54306396 241.73658691 -12.54306396 241.73658691 -12.45947266 245.80371094 C-12.44192342 247.94724723 -12.42664018 250.09080377 -12.4140625 252.234375 C-12.3680188 253.85883545 -12.3680188 253.85883545 -12.32104492 255.51611328 C-12.31402933 265.91321878 -16.08949092 273.94299633 -22.875 281.75 C-29.00548566 287.42789947 -36.38449496 290.76249061 -44 294 C-45.13953125 294.4846875 -46.2790625 294.969375 -47.453125 295.46875 C-66.86081576 302.73555659 -88.32358122 303.67377483 -108.82421875 303.52148438 C-112.26372988 303.49991389 -115.7011735 303.52151319 -119.140625 303.546875 C-147.19877137 303.58264861 -178.81630758 299.24380163 -200 279 C-212.13220689 265.24086881 -211.60171433 250.25857233 -211.53125 232.9140625 C-211.53394951 230.5657841 -211.53783574 228.21750679 -211.54284668 225.86923218 C-211.54872238 220.96219171 -211.54024241 216.05544378 -211.52148438 211.1484375 C-211.49872179 204.89248608 -211.51181388 198.63722228 -211.53577423 192.38129616 C-211.55030588 187.53564378 -211.54559211 182.69015136 -211.53526306 177.84449387 C-211.53261479 175.53946219 -211.53579779 173.23441549 -211.54518127 170.9294014 C-211.60576696 151.86389292 -210.28917062 135.87987062 -196.6875 121.1875 C-184.63061783 110.01282872 -169.26712346 106.84970279 -153.32324219 106.8581543 C-151.726698 106.85294266 -151.726698 106.85294266 -150.09790039 106.84762573 C-147.78988922 106.84028563 -145.48187106 106.83493096 -143.17385101 106.83133507 C-139.50543091 106.82413743 -135.83714208 106.80844285 -132.16876221 106.78999329 C-121.73915489 106.73770256 -111.30961819 106.68964097 -100.87988281 106.67407227 C-94.49261641 106.66391486 -88.10567946 106.63439047 -81.71854401 106.59275246 C-79.29961912 106.5805423 -76.88064747 106.57530266 -74.46169281 106.57755089 C-53.98251665 106.59189149 -32.65881504 106.10645004 -16.6875 91.5 C-11.36665222 85.78628063 -7.64924269 79.3271068 -5 72 C-4.65130859 71.08774658 -4.30261719 70.17549316 -3.94335938 69.2355957 C0.44855624 55.74852569 -0.32454888 41.5976262 -0.25 27.5625 C-0.22394774 24.88471769 -0.19212283 22.20701427 -0.16015625 19.52929688 C-0.08680002 13.01960041 -0.03486104 6.51001054 0 0 Z " fill="#FFD243" transform="translate(368,155)"/>
<path d="M0 0 C5.14026846 2.6429267 9.09056686 6.81466933 10.91796875 12.296875 C11.7517127 18.3355633 10.92723902 22.56561456 7.41796875 27.5703125 C4.07054987 31.42333111 0.00973145 33.87000441 -5.0625 34.5703125 C-11.31109902 34.85785865 -15.39835742 33.49181765 -20.08203125 29.296875 C-23.49069782 25.49108222 -25.37291682 21.87752574 -25.64453125 16.734375 C-25.20970315 10.24540179 -22.26950579 6.03389061 -17.51953125 1.859375 C-12.14359434 -1.88171543 -6.14292895 -2.0745351 0 0 Z " fill="#FFFEFB" transform="translate(319.08203125,392.703125)"/>
<path d="M0 0 C3.66864538 2.68437467 6.50666083 5.76332166 8.5625 9.875 C9.24493922 17.24758109 9.32918165 23.00831489 4.5625 28.875 C2.28745738 30.52681268 0.11998833 31.64361673 -2.4375 32.875 C-3.4275 33.37 -3.4275 33.37 -4.4375 33.875 C-10.45767153 34.74929877 -14.73151462 33.86654752 -19.7109375 30.375 C-23.56395611 27.02758112 -26.01062941 22.9667627 -26.7109375 17.89453125 C-27.00053912 11.60126536 -25.50349258 7.67829257 -21.4375 2.875 C-15.59861531 -2.82147287 -7.39435044 -2.41996924 0 0 Z " fill="#FBFCFD" transform="translate(208.4375,85.125)"/>
</svg>
