<?xml version="1.0" encoding="UTF-8"?>
<svg version="1.1" xmlns="http://www.w3.org/2000/svg" width="512" height="512">
<path d="M0 0 C168.96 0 337.92 0 512 0 C512 168.96 512 337.92 512 512 C343.04 512 174.08 512 0 512 C0 343.04 0 174.08 0 0 Z " fill="#FEFEFE" transform="translate(0,0)"/>
<path d="M0 0 C25.39060572 21.58239875 43.50562759 54.51434749 46.55908203 88.01171875 C46.94141361 93.22579099 47.17342253 98.44067147 47.34521484 103.66552734 C41.91422063 103.01093069 36.79024421 101.85322436 31.53271484 100.35302734 C30.77023437 100.15257812 30.00775391 99.95212891 29.22216797 99.74560547 C23.75743151 98.18494245 23.75743151 98.18494245 21.88818359 95.82958984 C21.26298531 93.33779239 20.81548528 90.9002776 20.47021484 88.35302734 C16.96067528 66.25096518 7.99330609 46.36366193 -5.65478516 28.66552734 C-6.12400391 28.02873047 -6.59322266 27.39193359 -7.07666016 26.73583984 C-16.41982993 14.80955843 -32.17433459 6.22439369 -47.21533203 4.34570312 C-49.84915366 4.19251556 -52.45410796 4.14645503 -55.09228516 4.16552734 C-56.04312988 4.17197266 -56.99397461 4.17841797 -57.97363281 4.18505859 C-78.92818547 4.71493582 -99.81554024 13.5439133 -115.21728516 27.79052734 C-129.59651507 42.94610065 -138.9964732 63.24366859 -144.40478516 83.16552734 C-144.60354248 83.88764404 -144.8022998 84.60976074 -145.00708008 85.35375977 C-148.40869262 98.60007352 -149.06618829 111.94421948 -149.02978516 125.54052734 C-149.028909 126.34612091 -149.02803284 127.15171448 -149.02713013 127.98171997 C-148.94753548 150.30099614 -145.27659333 170.67032803 -137.65478516 191.66552734 C-137.39938965 192.37918457 -137.14399414 193.0928418 -136.88085938 193.828125 C-133.96331263 201.87430911 -130.36508499 209.45612463 -126.1940918 216.92114258 C-123.65478516 221.47850692 -123.65478516 221.47850692 -123.65478516 223.66552734 C-122.96513672 223.61912109 -122.27548828 223.57271484 -121.56494141 223.52490234 C-114.5714003 223.25628897 -109.71736501 224.17983153 -103.65478516 227.66552734 C-102.713125 228.1740625 -102.713125 228.1740625 -101.75244141 228.69287109 C-95.58234621 232.48673707 -91.91018532 238.89932684 -89.65478516 245.66552734 C-88.60920658 255.60514136 -89.71473954 263.46607788 -95.65478516 271.66552734 C-100.97223491 277.0777623 -106.41650693 280.33802403 -114.09228516 280.93115234 C-115.26791016 280.92599609 -116.44353516 280.92083984 -117.65478516 280.91552734 C-118.83041016 280.92068359 -120.00603516 280.92583984 -121.21728516 280.93115234 C-129.24813815 280.31058643 -134.93065016 276.7137077 -140.34228516 270.91552734 C-146.57660076 263.41228024 -147.49764166 256.30399929 -146.65478516 246.66552734 C-146.03222487 244.65136173 -145.37911862 242.64537215 -144.65478516 240.66552734 C-145.10894707 237.11229264 -146.14644699 234.3787577 -147.84228516 231.24365234 C-148.28950928 230.39536865 -148.7367334 229.54708496 -149.19750977 228.6730957 C-149.67841064 227.76309814 -150.15931152 226.85310059 -150.65478516 225.91552734 C-156.84467867 213.88756555 -161.37367252 201.47553068 -165.65478516 188.66552734 C-166.08533203 187.42287109 -166.51587891 186.18021484 -166.95947266 184.89990234 C-172.89240655 166.96312545 -174.84196686 148.7034933 -174.84008789 129.92700195 C-174.84226502 127.50046993 -174.86045133 125.0744007 -174.87939453 122.64794922 C-174.91469252 112.80075146 -174.24029054 103.38923636 -172.65478516 93.66552734 C-172.47375244 92.48917725 -172.29271973 91.31282715 -172.10620117 90.10083008 C-166.33250301 54.3148729 -147.73788005 19.8817663 -118.35400391 -1.80712891 C-108.8607744 -8.50170169 -97.84166567 -14.17919867 -86.65478516 -17.33447266 C-85.64673828 -17.63095703 -84.63869141 -17.92744141 -83.60009766 -18.23291016 C-54.03323036 -25.54082067 -23.66260073 -19.08229206 0 0 Z " fill="#774BBC" transform="translate(310.65478515625,72.33447265625)"/>
<path d="M0 0 C3.56925038 2.37299889 6.39114415 4.5474082 8.07080078 8.5546875 C9.87610711 11.39436892 9.87610711 11.39436892 13.67919922 11.68774414 C15.22033275 11.74431066 16.76254964 11.77499997 18.3046875 11.78515625 C19.13199875 11.81144608 19.95931 11.8377359 20.81169128 11.86482239 C22.58195822 11.92040031 24.35256079 11.96601416 26.12332153 12.00262451 C30.70565171 12.10233429 35.28403698 12.28791574 39.86328125 12.48046875 C40.75645554 12.51742859 41.64962982 12.55438843 42.56987 12.59246826 C52.30004003 13.0372049 61.57257782 14.60025149 71 17 C72.27875 17.29777344 73.5575 17.59554687 74.875 17.90234375 C122.99139899 29.77853121 169.24283241 59.33575305 195.36181641 102.23681641 C210.81561558 128.81959473 218.3228366 160.57192581 210.59521484 190.97216797 C203.12796213 216.41228325 184.25524816 234.39310902 161.58203125 246.8828125 C130.71801989 262.99487267 95.15608511 263.75525222 62.2421875 253.73046875 C54.63314998 251.29710024 47.2987721 248.23326995 40 245 C40 244.34 40 243.68 40 243 C41.76303678 241.56212567 43.58825847 240.20017433 45.4375 238.875 C50.31896037 235.35468132 54.71101982 231.61435001 58.96484375 227.3359375 C61 226 61 226 63.45703125 226.17578125 C65.92968638 226.97721018 68.33640405 227.84783028 70.75 228.8125 C75.68340334 230.64912026 80.63317032 231.98938867 85.75 233.1875 C86.81299316 233.43753784 86.81299316 233.43753784 87.89746094 233.69262695 C110.13970405 238.75880002 134.93702597 236.75449478 154.75 224.75 C171.18212635 213.51456368 183.40349788 197.58225161 187.4921875 177.84375 C191.11625713 150.41233068 181.78629355 126.02850289 165.75 104 C137.09996974 66.88078849 91.35525271 43.96472738 45.20874023 37.78466797 C37.84579659 36.94638478 30.46830511 36.5220593 23.0625 36.3125 C21.95422852 36.25658691 20.84595703 36.20067383 19.70410156 36.14306641 C13.8930497 35.98392351 13.8930497 35.98392351 9.02075195 38.73071289 C7.51297669 40.75534713 6.27701951 42.82636106 5 45 C0.40002275 49.91743383 -4.65363905 52.71192883 -11.3125 53.28515625 C-22.05002153 53.54676959 -29.06431782 51.40219095 -37 44 C-42.36341845 37.33635889 -44.52804303 30.06667074 -44.30859375 21.546875 C-43.35541769 13.68015615 -38.80691062 7.19565687 -33 2 C-22.05463106 -5.33940712 -11.88444439 -5.91492255 0 0 Z " fill="#774BBC" transform="translate(244,172)"/>
<path d="M0 0 C2.71322303 4.06983454 3.51735889 8.22693195 4.6875 12.9375 C4.92533203 13.84435547 5.16316406 14.75121094 5.40820312 15.68554688 C5.62798828 16.56146484 5.84777344 17.43738281 6.07421875 18.33984375 C6.27619873 19.13769287 6.47817871 19.93554199 6.6862793 20.75756836 C7.03179621 23.22727486 6.89345698 24.67918733 6 27 C4.04396371 28.98514397 2.09813057 30.80423549 0 32.625 C-16.67266827 47.61581628 -33.31083711 68.87646004 -35.26757812 92.18774414 C-35.36461738 95.52643929 -35.36090048 98.84786692 -35.3125 102.1875 C-35.31572266 103.31091797 -35.31894531 104.43433594 -35.32226562 105.59179688 C-35.19925832 124.63556454 -26.86797245 142.71648048 -13.796875 156.4609375 C-4.06893537 165.29216761 9.04226077 171.64612497 22 174 C22.96808594 174.18433594 23.93617188 174.36867188 24.93359375 174.55859375 C56.82788335 179.90503536 87.92353287 172.20601583 116 157 C116.64888184 156.65743164 117.29776367 156.31486328 117.96630859 155.96191406 C132.94294622 148.04764065 146.67293603 138.64726264 159 127 C160.35008458 125.84935973 161.70411589 124.7033304 163.0625 123.5625 C173.08848299 114.73723354 180.62114069 104.03680024 188 93 C188.41185547 92.38672852 188.82371094 91.77345703 189.24804688 91.14160156 C192.53535824 86.28170904 192.53535824 86.28170904 195 81 C194.38090769 78.37663318 194.38090769 78.37663318 193 76 C192.65839844 75.30777344 192.31679688 74.61554688 191.96484375 73.90234375 C191.27831934 72.58933319 190.59081435 71.27683489 189.90234375 69.96484375 C186.98945661 63.62206353 186.87862927 56.44115293 189.0234375 49.859375 C192.98890553 41.13972706 198.20126744 36.86078287 206.25 32.0625 C214.4000973 29.75330576 221.71393656 29.9696981 229.4375 33.5625 C236.95581127 37.77791199 241.98114791 43.42799212 244.55078125 51.79296875 C246.20542653 59.92231293 245.72895542 67.57182532 241.5390625 74.78125 C237.08140476 81.20751801 232.74917401 84.59438196 225.33203125 87.17578125 C224.56246094 87.44777344 223.79289062 87.71976562 223 88 C222.32453125 88.20753906 221.6490625 88.41507812 220.953125 88.62890625 C217.800359 90.84214798 216.57079859 94.24221743 214.9375 97.625 C191.45716173 143.91621617 148.45469815 176.09129843 99.84765625 192.17578125 C85.20589422 196.84300958 70.36240332 200.13992501 55 201 C53.64914307 201.07589355 53.64914307 201.07589355 52.27099609 201.15332031 C22.48496725 202.55513443 -6.3805775 195.46772003 -29.1875 175.625 C-30.80796135 174.10046996 -32.41245401 172.55877662 -34 171 C-35.15822266 169.87851562 -35.15822266 169.87851562 -36.33984375 168.734375 C-53.02761714 151.50460555 -58.44039062 127.7099266 -58.375 104.4375 C-58.37412384 103.67921906 -58.37324768 102.92093811 -58.37234497 102.13967896 C-58.32956218 90.93725004 -57.83626302 80.63484749 -54 70 C-53.75862305 69.31276855 -53.51724609 68.62553711 -53.26855469 67.91748047 C-43.59903839 40.87324213 -24.32424426 15.49816859 0 0 Z " fill="#774BBC" transform="translate(114,229)"/>
</svg>
