<?xml version="1.0" encoding="UTF-8"?>
<svg version="1.1" xmlns="http://www.w3.org/2000/svg" width="512" height="512">
<path d="M0 0 C168.96 0 337.92 0 512 0 C512 168.96 512 337.92 512 512 C343.04 512 174.08 512 0 512 C0 343.04 0 174.08 0 0 Z " fill="#FEFEFE" transform="translate(0,0)"/>
<path d="M0 0 C1.8253125 0.0309375 1.8253125 0.0309375 3.6875 0.0625 C4.09742188 0.89394531 4.50734375 1.72539062 4.9296875 2.58203125 C5.46851563 3.66871094 6.00734375 4.75539062 6.5625 5.875 C7.09617187 6.95394531 7.62984375 8.03289062 8.1796875 9.14453125 C9.65971139 12.14088265 9.65971139 12.14088265 11.6875 15.0625 C12.10902344 14.14726562 12.53054688 13.23203125 12.96484375 12.2890625 C13.51269531 11.10054687 14.06054688 9.91203125 14.625 8.6875 C15.44291016 6.91246094 15.44291016 6.91246094 16.27734375 5.1015625 C17.06104023 3.4125989 17.8548202 1.72785959 18.6875 0.0625 C25.99168687 -0.36715805 32.6650939 1.07230268 39.6875 3.0625 C40.6875 4.0625 40.6875 4.0625 40.80102539 5.92016602 C40.79317017 7.10630493 40.79317017 7.10630493 40.78515625 8.31640625 C40.78032227 9.59741211 40.78032227 9.59741211 40.77539062 10.90429688 C40.76282227 12.25104492 40.76282227 12.25104492 40.75 13.625 C40.74548828 14.52669922 40.74097656 15.42839844 40.73632812 16.35742188 C40.72450225 18.59251314 40.7080222 20.82747437 40.6875 23.0625 C41.6775 23.0625 42.6675 23.0625 43.6875 23.0625 C44.04908203 22.20591797 44.04908203 22.20591797 44.41796875 21.33203125 C45.93848181 18.61382175 47.70906804 16.85611728 50 14.75 C50.75925781 14.03199219 51.51851562 13.31398437 52.30078125 12.57421875 C54.6875 11.0625 54.6875 11.0625 57.12890625 11.0859375 C60.29141603 12.2930023 62.62093032 13.94980988 65.3125 16 C66.25351562 16.71027344 67.19453125 17.42054688 68.1640625 18.15234375 C68.99679687 18.78269531 69.82953125 19.41304687 70.6875 20.0625 C71.6775 20.7225 72.6675 21.3825 73.6875 22.0625 C73.08825082 25.89769478 71.9133509 29.30862885 70.50390625 32.90234375 C69.4854375 35.59714384 68.58671953 38.32591414 67.6875 41.0625 C68.62851562 40.68996094 69.56953125 40.31742188 70.5390625 39.93359375 C71.79659095 39.45498218 73.05441974 38.97715921 74.3125 38.5 C75.54226563 38.02433594 76.77203125 37.54867187 78.0390625 37.05859375 C81.94193807 35.9930335 83.89864938 35.66078336 87.6875 37.0625 C89.98828125 39.79296875 89.98828125 39.79296875 92 43.25 C93.01513672 44.94189453 93.01513672 44.94189453 94.05078125 46.66796875 C95.61595472 49.91411611 96.314564 52.50069099 96.6875 56.0625 C95.92824219 56.66578125 95.16898438 57.2690625 94.38671875 57.890625 C93.39285156 58.68984375 92.39898437 59.4890625 91.375 60.3125 C90.38886719 61.10140625 89.40273438 61.8903125 88.38671875 62.703125 C86.0856453 64.71448298 84.38144604 66.5418158 82.6875 69.0625 C83.29335938 69.05089844 83.89921875 69.03929687 84.5234375 69.02734375 C90.64674948 68.96140039 96.60843331 69.33818567 102.6875 70.0625 C104.04459504 77.79309495 105.00668373 85.20703364 104.6875 93.0625 C102.27320231 93.90330019 99.85646007 94.73531402 97.4375 95.5625 C96.41462891 95.92021484 96.41462891 95.92021484 95.37109375 96.28515625 C91.92336997 97.45671287 89.37047096 98.0625 85.6875 98.0625 C88.47792625 101.35084617 92.16078176 103.18985689 95.875 105.25 C96.85629883 105.80204102 96.85629883 105.80204102 97.85742188 106.36523438 C99.46496961 107.2687466 101.07590651 108.1662241 102.6875 109.0625 C102.454615 115.46683751 100.87644329 120.94300946 98.75 126.9375 C98.48493652 127.68700928 98.21987305 128.43651855 97.94677734 129.20874023 C96.76940022 132.43940168 95.60271476 135.18967786 93.6875 138.0625 C91.62109375 138.90625 91.62109375 138.90625 89.125 139.5625 C88.22394531 139.81128906 87.32289063 140.06007813 86.39453125 140.31640625 C85.50121094 140.56261719 84.60789062 140.80882812 83.6875 141.0625 C81.48184414 141.76692412 79.29070194 142.50738135 77.09765625 143.25 C75.33793979 143.84322694 73.57434743 144.42499202 71.80859375 145 C67.1198783 146.53296444 62.49181202 148.10173213 57.9375 150 C52.86365934 152.08536493 47.67117803 153.67409769 42.43066406 155.27709961 C39.14436123 156.2853087 35.88703321 157.30401694 32.6875 158.5625 C28.70517899 160.09484723 24.67529333 161.47219441 20.625 162.8125 C19.61469727 163.16538086 19.61469727 163.16538086 18.58398438 163.52539062 C17.92591797 163.73873047 17.26785156 163.95207031 16.58984375 164.171875 C15.71573853 164.46529785 15.71573853 164.46529785 14.82397461 164.76464844 C9.42868027 165.51682066 4.1762527 163.72779243 -0.8984375 162.05859375 C-2.14729736 161.65141113 -3.39615723 161.24422852 -4.68286133 160.82470703 C-6.01778301 160.38326538 -7.35266164 159.94169354 -8.6875 159.5 C-10.0684107 159.04742558 -11.44951672 158.59544671 -12.83081055 158.14404297 C-14.93664322 157.4558053 -17.04233645 156.76717483 -19.14732361 156.07635498 C-23.60991482 154.61279691 -28.08024781 153.17655516 -32.55859375 151.76171875 C-34.22752686 151.23396851 -34.22752686 151.23396851 -35.93017578 150.69555664 C-37.99156988 150.04512899 -40.05369402 149.39700839 -42.11669922 148.75170898 C-47.55064516 147.02960492 -52.83561095 145.10563098 -58.10913086 142.94189453 C-61.62454508 141.538845 -65.24416301 140.47077612 -68.8671875 139.3828125 C-75.2466139 135.93832988 -77.05094615 127.99526925 -79.2734375 121.56640625 C-80.53191354 117.32259795 -81.08439278 113.47257284 -81.3125 109.0625 C-80.57644531 108.66417969 -79.84039062 108.26585937 -79.08203125 107.85546875 C-78.10621094 107.32566406 -77.13039062 106.79585938 -76.125 106.25 C-75.16207031 105.72792969 -74.19914063 105.20585937 -73.20703125 104.66796875 C-70.53851643 103.18786134 -67.91875773 101.64912491 -65.3125 100.0625 C-69.12063118 97.55960399 -72.75940994 96.15380921 -77.125 94.875 C-78.86716797 94.35873047 -78.86716797 94.35873047 -80.64453125 93.83203125 C-81.52496094 93.57808594 -82.40539062 93.32414062 -83.3125 93.0625 C-83.61321865 85.51112068 -82.73875566 78.47393564 -81.3125 71.0625 C-76.60788677 69.20117327 -72.4367304 68.8115504 -67.4375 68.9375 C-66.74914062 68.94652344 -66.06078125 68.95554687 -65.3515625 68.96484375 C-63.67172162 68.98817487 -61.99206254 69.02403674 -60.3125 69.0625 C-64.17313032 65.11272546 -68.23048083 61.59542253 -72.51953125 58.125 C-74.3125 56.0625 -74.3125 56.0625 -74.57421875 53.3125 C-74.48785156 52.57 -74.40148437 51.8275 -74.3125 51.0625 C-73.3225 50.5675 -73.3225 50.5675 -72.3125 50.0625 C-71.61257714 48.39601699 -70.9158705 46.72804356 -70.2421875 45.05078125 C-68.69118805 41.73372781 -66.51448399 38.97864096 -64.3125 36.0625 C-57.63066637 37.1065365 -51.5659035 38.4667476 -45.3125 41.0625 C-45.71082031 40.13630859 -45.71082031 40.13630859 -46.1171875 39.19140625 C-48.48439366 33.51529514 -50.1439502 28.1000073 -51.3125 22.0625 C-46.25714135 17.54494546 -41.02235379 13.71369902 -35.3125 10.0625 C-31.6626677 11.58395629 -29.45421371 13.77436524 -26.75 16.625 C-23.52923663 20.10487626 -23.52923663 20.10487626 -19.3125 22.0625 C-19.3125 16.1225 -19.3125 10.1825 -19.3125 4.0625 C-5.74755587 -0.0974162 -5.74755587 -0.0974162 0 0 Z " fill="#017BA6" transform="translate(245.3125,153.9375)"/>
<path d="M0 0 C1.48036619 0.71765952 2.96084535 1.43508601 4.44140625 2.15234375 C14.97516365 7.36696015 24.15008901 13.28334146 33 21 C33.55913086 21.47695312 34.11826172 21.95390625 34.69433594 22.4453125 C48.2291882 34.04883055 59.6209886 48.16170865 66 65 C66.45375 66.03125 66.9075 67.0625 67.375 68.125 C73 81.22115385 73 81.22115385 73 86 C74.60875 85.9071875 74.60875 85.9071875 76.25 85.8125 C85.4173098 85.84500819 93.68850212 88.53758163 101 94 C101.94875 94.680625 102.8975 95.36125 103.875 96.0625 C107.0752149 98.980343 107.91807553 100.95252605 108.25878906 105.30883789 C108.26217285 107.24617798 108.26217285 107.24617798 108.265625 109.22265625 C108.26753845 109.92337753 108.2694519 110.62409882 108.27142334 111.34605408 C108.27278225 112.82958332 108.26910631 114.31312457 108.26074219 115.79663086 C108.25015066 118.03072013 108.26058812 120.2639844 108.2734375 122.49804688 C108.29210531 140.57933789 104.36715723 158.73459098 91.6875 172.50390625 C82.8792972 180.31303049 72.37176898 181.34417851 61.0625 181.25 C60.13759766 181.25773438 59.21269531 181.26546875 58.25976562 181.2734375 C51.95904983 181.25577607 46.12602964 180.46020199 40 179 C41.37198713 175.33665292 43.0299981 171.90263075 44.81762695 168.43164062 C57.33767069 144.07956295 62.38043402 114.51686476 54.25390625 87.73828125 C53.84011719 86.50464844 53.42632812 85.27101563 53 84 C52.68651611 83.00105713 52.68651611 83.00105713 52.36669922 81.98193359 C49.08022766 71.57600455 44.31344385 62.86782307 38 54 C37.43539062 53.19175781 36.87078125 52.38351563 36.2890625 51.55078125 C28.82999611 41.41736667 19.61552084 32.71931102 9 26 C8.05769531 25.38253906 7.11539063 24.76507813 6.14453125 24.12890625 C-18.3728056 8.21414373 -48.56935355 4.90665544 -77 10 C-84.45826839 11.66506609 -91.33250667 13.67846927 -97.83984375 17.75390625 C-100 19 -100 19 -103.33984375 20.375 C-107.08401789 21.94716421 -110.34696009 24.05738472 -113.625 26.4375 C-114.22256104 26.86925537 -114.82012207 27.30101074 -115.43579102 27.74584961 C-134.03558043 41.4799126 -146.48166303 58.51425834 -155 80 C-155.3403125 80.78632813 -155.680625 81.57265625 -156.03125 82.3828125 C-165.14877843 107.01484496 -162.69723843 135.97127408 -153 160 C-150.79768021 164.70347943 -148.31762868 169.23758462 -145.7578125 173.75390625 C-144 177 -144 177 -144 179 C-159.16115317 182.51562972 -177.08710326 183.45644837 -191.25 176.375 C-200.72969374 168.18799177 -206.14560207 157.50687431 -208.75 145.4375 C-208.95753906 144.54353516 -209.16507812 143.64957031 -209.37890625 142.72851562 C-211.43916069 133.64345814 -212.24172898 124.86118255 -212.375 115.5625 C-212.41238281 114.57701172 -212.44976562 113.59152344 -212.48828125 112.57617188 C-212.58623639 104.36426632 -210.45274404 98.54606145 -204.6875 92.625 C-195.88203478 87.30076521 -186.15223553 85.67770681 -176 86 C-175.89429688 84.99839844 -175.78859375 83.99679688 -175.6796875 82.96484375 C-175.09994638 78.91987808 -173.7189108 75.30621366 -172.125 71.5625 C-170.50677589 67.67790994 -168.90598935 63.82401929 -167.625 59.8125 C-163.86440348 49.71136284 -155.85127265 41.12100658 -149 33 C-148.14577674 31.91671129 -147.29159869 30.83338693 -146.4375 29.75 C-143.23260151 26.13421709 -139.69620892 23.10127118 -136 20 C-135.1853125 19.28585938 -134.370625 18.57171875 -133.53125 17.8359375 C-124.13045313 9.78996135 -113.54397077 3.49421763 -102 -1 C-100.22302734 -1.72509766 -100.22302734 -1.72509766 -98.41015625 -2.46484375 C-68.53854898 -14.18570124 -28.88719035 -14.83396261 0 0 Z " fill="#057BA6" transform="translate(308,129)"/>
<path d="M0 0 C16.1820825 3.17862335 31.81364463 9.27212286 47.375 14.625 C50.30268293 15.63173922 53.23059788 16.63777239 56.15933228 17.64144897 C57.9631535 18.25962071 59.76640329 18.8794637 61.56893921 19.50137329 C65.81786035 20.95755158 70.0789384 22.37065758 74.36523438 23.71313477 C75.15410034 23.96104263 75.94296631 24.2089505 76.7557373 24.46437073 C85.5206267 26.5562521 94.69311045 22.0111686 102.875 19.1875 C104.18592382 18.74333084 105.49712063 18.29996652 106.80859375 17.85742188 C113.45698994 15.60506147 120.07338071 13.27689421 126.64941406 10.82080078 C129.03670384 9.98718339 131.42611313 9.31485354 133.875 8.6875 C137.72304909 7.69608124 141.46821769 6.51763462 145.22265625 5.22265625 C146.16061035 4.90014893 147.09856445 4.5776416 148.06494141 4.24536133 C149.95968095 3.58882103 151.85139443 2.92347264 153.73974609 2.2487793 C154.61840332 1.94496338 155.49706055 1.64114746 156.40234375 1.328125 C157.58558228 0.90901855 157.58558228 0.90901855 158.79272461 0.48144531 C161.23786496 -0.0518825 162.65464398 0.20160938 165 1 C164.31224487 1.63446045 164.31224487 1.63446045 163.6105957 2.28173828 C161.5076886 4.22570011 159.41007963 6.17529152 157.3125 8.125 C156.59126953 8.79015625 155.87003906 9.4553125 155.12695312 10.140625 C151.92027798 13.12766486 148.84705299 16.06696914 146.10546875 19.4921875 C145.41066406 20.31976563 144.71585938 21.14734375 144 22 C143.34 22 142.68 22 142 22 C141.75378906 22.57073242 141.50757813 23.14146484 141.25390625 23.72949219 C139.79101003 26.3784281 138.07354681 28.18548546 135.9375 30.328125 C135.14085937 31.12734375 134.34421875 31.9265625 133.5234375 32.75 C132.69070313 33.575 131.85796875 34.4 131 35.25 C129.75089844 36.51070313 129.75089844 36.51070313 128.4765625 37.796875 C127.67992187 38.5909375 126.88328125 39.385 126.0625 40.203125 C125.33160156 40.93176758 124.60070312 41.66041016 123.84765625 42.41113281 C122 44 122 44 120 44 C119.61328125 44.87398438 119.61328125 44.87398438 119.21875 45.765625 C117.90165983 48.1802903 116.44911616 49.81740177 114.5 51.75 C113.8915625 52.36359375 113.283125 52.9771875 112.65625 53.609375 C111 55 111 55 109 55 C109 55.66 109 56.32 109 57 C108.34 57 107.68 57 107 57 C107 57.66 107 58.32 107 59 C105.42578125 60.515625 105.42578125 60.515625 103.3125 62.25 C100.64650867 64.50075728 98.28989909 66.70049545 96.125 69.4375 C95.073125 70.7059375 95.073125 70.7059375 94 72 C93.34 72 92.68 72 92 72 C91.61714844 72.87398437 91.61714844 72.87398437 91.2265625 73.765625 C89.88258913 76.21388223 88.38189704 77.81743248 86.375 79.75 C85.74335938 80.36359375 85.11171875 80.9771875 84.4609375 81.609375 C83.97882813 82.06828125 83.49671875 82.5271875 83 83 C81.2925002 81.71937515 79.62626404 80.38232443 78 79 C78 78.34 78 77.68 78 77 C77.14728516 76.63841797 77.14728516 76.63841797 76.27734375 76.26953125 C73.55211092 74.75031912 71.73309661 72.92581019 69.5625 70.6875 C68.77101563 69.87796875 67.97953125 69.0684375 67.1640625 68.234375 C66.44992188 67.49703125 65.73578125 66.7596875 65 66 C64.154375 65.154375 63.30875 64.30875 62.4375 63.4375 C61.633125 62.633125 60.82875 61.82875 60 61 C59.31421875 60.33742188 58.6284375 59.67484375 57.921875 58.9921875 C57.18453125 58.27289063 56.4471875 57.55359375 55.6875 56.8125 C54.99011719 56.13832031 54.29273438 55.46414063 53.57421875 54.76953125 C52 53 52 53 52 51 C51.19937134 50.68832886 51.19937134 50.68832886 50.38256836 50.37036133 C47.04685745 48.45178921 44.55334222 45.79846343 41.87890625 43.07421875 C41.2971312 42.4896138 40.71535614 41.90500885 40.11595154 41.3026886 C38.26004158 39.43561298 36.41119648 37.56171566 34.5625 35.6875 C33.32272942 34.4376908 32.08249975 33.18833682 30.84179688 31.93945312 C28.55255606 29.6339166 26.26604865 27.32574236 23.98266602 25.0144043 C21.33211295 22.332539 18.66886223 19.66365808 16 17 C11 12 11 12 9.01171875 9.9765625 C8.30660156 9.26242187 7.60148438 8.54828125 6.875 7.8125 C6.21242187 7.13832031 5.54984375 6.46414063 4.8671875 5.76953125 C2.92056683 3.82446642 2.92056683 3.82446642 0 2 C0 1.34 0 0.68 0 0 Z " fill="#047BA6" transform="translate(174,311)"/>
<path d="M0 0 C1.8253125 0.0309375 1.8253125 0.0309375 3.6875 0.0625 C4.75525224 2.02716413 5.75303465 4.03105359 6.6875 6.0625 C6.3575 6.7225 6.0275 7.3825 5.6875 8.0625 C4.3675 8.0625 3.0475 8.0625 1.6875 8.0625 C1.6875 7.4025 1.6875 6.7425 1.6875 6.0625 C0.0375 6.0625 -1.6125 6.0625 -3.3125 6.0625 C-3.3125 6.7225 -3.3125 7.3825 -3.3125 8.0625 C-3.90417969 7.92972656 -4.49585938 7.79695312 -5.10546875 7.66015625 C-5.89566406 7.48355469 -6.68585938 7.30695313 -7.5 7.125 C-8.27730469 6.95097656 -9.05460938 6.77695313 -9.85546875 6.59765625 C-12.33597652 6.05738667 -14.82182716 5.55355628 -17.3125 5.0625 C-17.26649658 5.62759277 -17.22049316 6.19268555 -17.1730957 6.77490234 C-16.97428833 9.32814573 -16.799373 11.88247663 -16.625 14.4375 C-16.55216797 15.32695312 -16.47933594 16.21640625 -16.40429688 17.1328125 C-16.34951172 17.98359375 -16.29472656 18.834375 -16.23828125 19.7109375 C-16.18067627 20.49645996 -16.12307129 21.28198242 -16.0637207 22.09130859 C-16.14581787 22.74180176 -16.22791504 23.39229492 -16.3125 24.0625 C-17.3025 24.7225 -18.2925 25.3825 -19.3125 26.0625 C-20.3025 25.7325 -21.2925 25.4025 -22.3125 25.0625 C-23 23 -23 23 -23.3125 21.0625 C-21.9925 21.3925 -20.6725 21.7225 -19.3125 22.0625 C-19.3125 16.1225 -19.3125 10.1825 -19.3125 4.0625 C-5.74755587 -0.0974162 -5.74755587 -0.0974162 0 0 Z " fill="#157EA4" transform="translate(245.3125,153.9375)"/>
<path d="M0 0 C0.96669081 3.1471964 1.02472717 5.67092633 0.6875 8.9375 C0.60886719 9.77152344 0.53023437 10.60554687 0.44921875 11.46484375 C0 14 0 14 -1.01367188 16.08056641 C-2.39376134 20.16549458 -2.26657736 23.96364268 -2.23046875 28.24609375 C-2.23001053 29.13482681 -2.22955231 30.02355988 -2.2290802 30.93922424 C-2.22606613 32.81439554 -2.21820519 34.68956451 -2.20581055 36.56469727 C-2.18758552 39.4240819 -2.18530086 42.28314152 -2.18554688 45.14257812 C-2.18062975 46.96875278 -2.17480059 48.79492525 -2.16796875 50.62109375 C-2.16685593 51.47126572 -2.1657431 52.32143768 -2.16459656 53.19737244 C-2.1298773 57.5741642 -1.87390263 61.69063578 -1 66 C-9.44750974 53.32873538 -7.45509775 30.04835876 -4.66479492 15.84887695 C-3.47912517 10.41495947 -2.24451822 5.11588387 0 0 Z " fill="#D2EFF6" transform="translate(152,209)"/>
<path d="M0 0 C11.26595799 2.21295603 22.33193691 5.77722502 33 10 C33 10.33 33 10.66 33 11 C31.27014758 10.88487847 29.54111249 10.75744323 27.8125 10.625 C26.36810547 10.52058594 26.36810547 10.52058594 24.89453125 10.4140625 C21.97542882 9.99648509 19.72036153 9.09526831 17 8 C15.68 8 14.36 8 13 8 C12.6626154 11.12498166 12.6626154 11.12498166 15 13.1875 C15.66 13.785625 16.32 14.38375 17 15 C16.67 15.66 16.34 16.32 16 17 C15.34 16.34 14.68 15.68 14 15 C13.54882812 14.55011719 13.09765625 14.10023438 12.6328125 13.63671875 C11.41420159 12.4151925 10.20162257 11.1876432 8.9921875 9.95703125 C8.29351562 9.24933594 7.59484375 8.54164063 6.875 7.8125 C6.21242187 7.13832031 5.54984375 6.46414063 4.8671875 5.76953125 C2.92056683 3.82446642 2.92056683 3.82446642 0 2 C0 1.34 0 0.68 0 0 Z " fill="#2383A4" transform="translate(174,311)"/>
<path d="M0 0 C0.66 0 1.32 0 2 0 C2.38800781 0.40863281 2.77601563 0.81726563 3.17578125 1.23828125 C5.82643977 3.79812492 8.98810314 5.41290976 12.1875 7.1875 C12.84169922 7.55552734 13.49589844 7.92355469 14.16992188 8.30273438 C15.77746961 9.2062466 17.38840651 10.1037241 19 11 C18.57200914 19.27449001 15.95555804 26.33299888 13 34 C12.0192336 31.05770079 11.83511872 29.0091216 11.8125 25.9375 C11.79832031 25.05964844 11.78414063 24.18179687 11.76953125 23.27734375 C12 21 12 21 14 19 C14.99 19 15.98 19 17 19 C16.67 16.69 16.34 14.38 16 12 C14.68 11.67 13.36 11.34 12 11 C12.33 10.34 12.66 9.68 13 9 C10.69 8.67 8.38 8.34 6 8 C6 7.01 6 6.02 6 5 C4.02 4.34 2.04 3.68 0 3 C0 2.01 0 1.02 0 0 Z " fill="#1E7CA0" transform="translate(329,252)"/>
<path d="M0 0 C3.3 0 6.6 0 10 0 C10.75 2.25 10.75 2.25 11 5 C9.3125 7.3125 9.3125 7.3125 7 9 C5.68 9 4.36 9 3 9 C3 9.99 3 10.98 3 12 C2.34 12.391875 1.68 12.78375 1 13.1875 C-3.31770656 15.79611438 -6.52787494 19.37279244 -10 23 C-10 20 -10 20 -7.5859375 17.2578125 C-6.52325233 16.20578082 -5.45255472 15.16179615 -4.375 14.125 C-3.85292969 13.60808594 -3.33085937 13.09117187 -2.79296875 12.55859375 C0.65780596 9.17598249 4.25257619 6.04970527 8 3 C6.41642541 3.31127516 4.83315007 3.62407289 3.25 3.9375 C2.36828125 4.11152344 1.4865625 4.28554688 0.578125 4.46484375 C-1.63235053 4.92368488 -3.81512068 5.43336074 -6 6 C-5.67 5.01 -5.34 4.02 -5 3 C-3.67696283 2.6278958 -2.34262065 2.29369827 -1 2 C-0.67 1.34 -0.34 0.68 0 0 Z " fill="#CFECF1" transform="translate(330,309)"/>
<path d="M0 0 C1.98 0 3.96 0 6 0 C6.33 2.31 6.66 4.62 7 7 C9.98385511 8.37982969 9.98385511 8.37982969 12.625 6.75 C15.26881745 5.15380936 15.26881745 5.15380936 16 2 C16.99 2 17.98 2 19 2 C17.24009216 7.91969002 14.60305395 13.41634992 12 19 C9.44006232 16.44006232 8.38152865 13.78961812 6.875 10.5 C6.33617187 9.3346875 5.79734375 8.169375 5.2421875 6.96875 C4 4 4 4 4 2 C2.68 2 1.36 2 0 2 C0 1.34 0 0.68 0 0 Z " fill="#DEF5F7" transform="translate(245,152)"/>
<path d="M0 0 C0.66 0.33 1.32 0.66 2 1 C2 1.99 2 2.98 2 4 C3.32 4.33 4.64 4.66 6 5 C6 5.99 6 6.98 6 8 C7.32 8 8.64 8 10 8 C10 8.99 10 9.98 10 11 C12.475 11.495 12.475 11.495 15 12 C16.125 16.75 16.125 16.75 15 19 C8.19925464 20.48329014 0.92054682 20.1184124 -6 20 C-6 19.67 -6 19.34 -6 19 C-1.71702469 17.94380997 2.42985646 17.88297908 6.8125 17.9375 C7.50537109 17.94201172 8.19824219 17.94652344 8.91210938 17.95117188 C10.60811068 17.96286844 12.30406703 17.98080076 14 18 C10.13936968 14.05022546 6.08201917 10.53292253 1.79296875 7.0625 C0 5 0 5 -0.26171875 2.25 C-0.17535156 1.5075 -0.08898437 0.765 0 0 Z " fill="#3E93AD" transform="translate(171,205)"/>
<path d="M0 0 C9.58588387 7.13842416 16.55477212 18.47255943 22 29 C22 29.66 22 30.32 22 31 C21.34 31 20.68 31 20 31 C20 30.34 20 29.68 20 29 C19.01 29 18.02 29 17 29 C16.566875 27.7625 16.13375 26.525 15.6875 25.25 C14.50158931 22.04804113 13.10026213 19.70033702 11 17 C11 16.01 11 15.02 11 14 C10.401875 13.7525 9.80375 13.505 9.1875 13.25 C6.68373081 11.81927475 5.51927612 10.4308418 4 8 C4 7.34 4 6.68 4 6 C3.01 6 2.02 6 1 6 C0.67 4.02 0.34 2.04 0 0 Z " fill="#388DA8" transform="translate(349,158)"/>
<path d="M0 0 C0.66 0 1.32 0 2 0 C2.25394531 1.09699219 2.50789063 2.19398438 2.76953125 3.32421875 C3.11674245 4.77875214 3.46442358 6.23317342 3.8125 7.6875 C4.0609668 8.7693457 4.0609668 8.7693457 4.31445312 9.87304688 C5.33540183 14.09168398 6.61594089 17.31802906 9 21 C9 21.66 9 22.32 9 23 C9.99 23 10.98 23 12 23 C11.67 22.01 11.34 21.02 11 20 C11.99 20.33 12.98 20.66 14 21 C13.67 23.31 13.34 25.62 13 28 C14.32 28.33 15.64 28.66 17 29 C17.33 30.98 17.66 32.96 18 35 C11.42322638 32.80774213 7.21281016 24.31741515 4.06640625 18.3984375 C1.4421326 12.49622496 -0.22128875 6.47560768 0 0 Z " fill="#2682A2" transform="translate(99,269)"/>
<path d="M0 0 C0 4.2250498 -0.01803139 6.95665835 -3 10.125 C-3.66 10.74375 -4.32 11.3625 -5 12 C-5.33 12.99 -5.66 13.98 -6 15 C-6.99 15 -7.98 15 -9 15 C-9.28875 16.0725 -9.5775 17.145 -9.875 18.25 C-10.72820109 21.09400364 -11.5636503 23.43508983 -13 26 C-13.66 26 -14.32 26 -15 26 C-15.33 27.32 -15.66 28.64 -16 30 C-16.66 30 -17.32 30 -18 30 C-14.7756984 19.40363017 -7.86414465 7.86414465 0 0 Z " fill="#C7E9EF" transform="translate(173,173)"/>
<path d="M0 0 C4.92127034 -0.16682272 8.50343896 -0.24828052 13 2 C13 2.66 13 3.32 13 4 C13.99 3.67 14.98 3.34 16 3 C16.78375 3.804375 17.5675 4.60875 18.375 5.4375 C20.71982856 7.98690417 20.71982856 7.98690417 23 9 C23.47407856 15.51858013 22.38982147 20.34617369 19 26 C18.34 26.33 17.68 26.66 17 27 C20.07517084 16.44191344 20.07517084 16.44191344 22 12 C21.45214844 11.75636719 20.90429688 11.51273438 20.33984375 11.26171875 C16.4780143 9.17929653 13.182582 6.30494342 9.75390625 3.58203125 C7.13339434 1.73473062 7.13339434 1.73473062 4.27734375 2.19921875 C2.00828624 2.94369334 2.00828624 2.94369334 0 4 C0 2.68 0 1.36 0 0 Z " fill="#CEEBEF" transform="translate(297,164)"/>
<path d="M0 0 C3.21043882 1.38188453 5.04936365 2.92421903 7.25 5.625 C7.77078125 6.25664062 8.2915625 6.88828125 8.828125 7.5390625 C9.40820312 8.26222656 9.40820312 8.26222656 10 9 C8.0625 8.625 8.0625 8.625 6 8 C5.67 7.34 5.34 6.68 5 6 C1.34618617 4.9204641 -0.323614 4.64643459 -3.75 6.4375 C-4.4925 6.953125 -5.235 7.46875 -6 8 C-6.66 8 -7.32 8 -8 8 C-8 8.66 -8 9.32 -8 10 C-9.63260714 11.37482707 -11.30225062 12.70647667 -13 14 C-13.66 14.66 -14.32 15.32 -15 16 C-15.33 14.68 -15.66 13.36 -16 12 C-10.94464135 7.48244546 -5.70985379 3.65119902 0 0 Z " fill="#3489A4" transform="translate(210,164)"/>
<path d="M0 0 C4.4574445 4.4574445 6.35373285 11.86046207 7 18 C2.54856736 17.35731596 -1.58881647 16.29333357 -5.875 14.9375 C-7.02742187 14.57527344 -8.17984375 14.21304688 -9.3671875 13.83984375 C-10.23601562 13.56269531 -11.10484375 13.28554687 -12 13 C-11.67 12.34 -11.34 11.68 -11 11 C-9.96939453 11.2165625 -9.96939453 11.2165625 -8.91796875 11.4375 C-8.01691406 11.623125 -7.11585938 11.80875 -6.1875 12 C-5.29417969 12.185625 -4.40085938 12.37125 -3.48046875 12.5625 C-0.92739307 13.08684843 -0.92739307 13.08684843 2 13 C2 11.35 2 9.7 2 8 C1.34 8 0.68 8 0 8 C0 5.36 0 2.72 0 0 Z " fill="#C4E5ED" transform="translate(193,177)"/>
<path d="M0 0 C2.89932357 2.39509338 3.50168276 4.31245243 4 8 C4.66 8 5.32 8 6 8 C9.03004552 17.40611277 9.22646541 25.95663291 8.6875 35.75 C8.62404225 37.14055252 8.56218397 38.53117898 8.50195312 39.921875 C8.35026667 43.28231334 8.1826587 46.64112724 8 50 C7.67 50 7.34 50 7 50 C6.98598145 48.95211304 6.98598145 48.95211304 6.97167969 47.88305664 C6.73458236 33.73043801 6.03950508 20.61236996 2 7 C1.62229199 5.68139149 1.24594845 4.36239123 0.87109375 3.04296875 C0.58363281 2.03878906 0.29617188 1.03460938 0 0 Z " fill="#2E86A5" transform="translate(359,206)"/>
<path d="M0 0 C0.33 0.66 0.66 1.32 1 2 C-0.32152787 5.9645836 -1.59284856 9.22236368 -5.375 11.3125 C-8.59502864 13.38251841 -10.0488871 15.74814516 -12 19 C-13.65 18.67 -15.3 18.34 -17 18 C-13.44135571 12.81031041 -9.67709899 8.56619068 -4.83203125 4.54296875 C-3.1243223 3.10470642 -1.55359529 1.60169421 0 0 Z " fill="#E3F3F4" transform="translate(305,345)"/>
<path d="M0 0 C6.93 0.33 13.86 0.66 21 1 C22.3880139 8.46057469 23.30203807 15.41548848 23 23 C21.02 23.33 19.04 23.66 17 24 C17 23.34 17 22.68 17 22 C18.32 22 19.64 22 21 22 C20.85761163 19.95809019 20.71092972 17.91647955 20.5625 15.875 C20.48128906 14.73804688 20.40007812 13.60109375 20.31640625 12.4296875 C20.02485329 9.26939737 19.52175475 6.13052852 19 3 C13.06 2.67 7.12 2.34 1 2 C0.67 1.34 0.34 0.68 0 0 Z " fill="#15789A" transform="translate(327,224)"/>
<path d="M0 0 C1.14404987 4.09680565 1.12609467 8.04053531 1.09765625 12.265625 C1.0962413 13.05902283 1.09482635 13.85242065 1.09336853 14.66986084 C1.08778415 17.19661272 1.07523454 19.72327504 1.0625 22.25 C1.05748298 23.96614455 1.05292043 25.68229049 1.04882812 27.3984375 C1.03781984 31.59899269 1.02056596 35.79948117 1 40 C0.67 40 0.34 40 0 40 C-1.79956828 31.62879401 -2.21790363 23.47580321 -2.25 14.9375 C-2.25902344 13.9261499 -2.26804687 12.9147998 -2.27734375 11.87280273 C-2.27347656 10.91317627 -2.26960938 9.9535498 -2.265625 8.96484375 C-2.26336914 8.1049585 -2.26111328 7.24507324 -2.25878906 6.35913086 C-1.981213 3.82873697 -1.2722016 2.18592535 0 0 Z " fill="#4093B2" transform="translate(98,229)"/>
<path d="M0 0 C4.83281543 0.65224373 9.59548807 1.4540823 14.375 2.4375 C16.21191406 2.80681641 16.21191406 2.80681641 18.0859375 3.18359375 C19.52839844 3.58771484 19.52839844 3.58771484 21 4 C21.33 4.66 21.66 5.32 22 6 C23.64363134 6.72159424 25.31050386 7.39351421 27 8 C27 8.66 27 9.32 27 10 C27.5775 10.144375 28.155 10.28875 28.75 10.4375 C29.4925 10.623125 30.235 10.80875 31 11 C31.70125 11.0825 32.4025 11.165 33.125 11.25 C35 12 35 12 36.25 14.5625 C36.4975 15.366875 36.745 16.17125 37 17 C33.5009283 15.71475222 30.61200116 14.19878156 27.5625 12.0625 C21.42193365 7.76739903 15.28057108 5.31969833 8.125 3.3125 C7.34125 3.08755859 6.5575 2.86261719 5.75 2.63085938 C3.83482747 2.08199895 1.91761541 1.54026358 0 1 C0 0.67 0 0.34 0 0 Z " fill="#3E91AD" transform="translate(283,139)"/>
<path d="M0 0 C-1.65 0.33 -3.3 0.66 -5 1 C-5 1.66 -5 2.32 -5 3 C-6.30324219 3.38091797 -6.30324219 3.38091797 -7.6328125 3.76953125 C-8.78523438 4.11371094 -9.93765625 4.45789063 -11.125 4.8125 C-12.83042969 5.31716797 -12.83042969 5.31716797 -14.5703125 5.83203125 C-18.0188124 6.91778803 -18.0188124 6.91778803 -21.15625 8.59375 C-24.89699661 10.44356975 -27.87387985 10.64429999 -32 11 C-31.01 10.67 -30.02 10.34 -29 10 C-29 9.34 -29 8.68 -29 8 C-24.92308123 6.46156534 -20.83758284 4.94734811 -16.75 3.4375 C-15.59113281 2.99986328 -14.43226563 2.56222656 -13.23828125 2.11132812 C-12.12324219 1.70205078 -11.00820313 1.29277344 -9.859375 0.87109375 C-8.83295898 0.48880615 -7.80654297 0.10651855 -6.74902344 -0.28735352 C-3.96208748 -1.0098283 -2.6532528 -1.00190822 0 0 Z " fill="#378EAC" transform="translate(298,325)"/>
<path d="M0 0 C-1.65 0.33 -3.3 0.66 -5 1 C-5 1.66 -5 2.32 -5 3 C-9.873261 4.5912689 -13.80790596 5.21192221 -19 5 C-19.33 5.99 -19.66 6.98 -20 8 C-23.3 8 -26.6 8 -30 8 C-30.33 7.01 -30.66 6.02 -31 5 C-32.65 5 -34.3 5 -36 5 C-36 4.34 -36 3.68 -36 3 C-34.845 3.350625 -33.69 3.70125 -32.5 4.0625 C-24.74888133 6.41551817 -16.9418184 3.18924138 -9.6484375 0.640625 C-3.38364137 -1.44764038 -3.38364137 -1.44764038 0 0 Z " fill="#C6E9F0" transform="translate(281,313)"/>
<path d="M0 0 C2.03652001 6.72668729 0.50587672 13.71671861 -2.28125 20.015625 C-4.34391674 25.71037883 -4.28748943 31.88788473 -4.5625 37.875 C-4.62727539 39.19371094 -4.62727539 39.19371094 -4.69335938 40.5390625 C-4.79869339 42.69255797 -4.89977649 44.84626064 -5 47 C-5.33 47 -5.66 47 -6 47 C-6.56004571 31.0322352 -6.54449888 14.9167407 0 0 Z " fill="#A7D5E2" transform="translate(152,209)"/>
<path d="M0 0 C0.66 0.33 1.32 0.66 2 1 C1.34 3.97 0.68 6.94 0 10 C-0.89460938 10.10957031 -1.78921875 10.21914062 -2.7109375 10.33203125 C-9.30978453 11.19733848 -15.58637876 12.23237389 -21.9140625 14.31640625 C-23.92714183 14.97612326 -25.9396752 15.51055633 -28 16 C-28 15.01 -28 14.02 -28 13 C-19.4743265 9.91098786 -11.12481383 7.60326896 -2 8 C-1.855625 7.236875 -1.71125 6.47375 -1.5625 5.6875 C-1 3 -1 3 0 0 Z " fill="#DDF8FA" transform="translate(132,205)"/>
<path d="M0 0 C0.33 0 0.66 0 1 0 C1 9.57 1 19.14 1 29 C1.66 29 2.32 29 3 29 C1.50723624 34.39691512 -0.19695845 39.69905784 -2 45 C-2.66 45 -3.32 45 -4 45 C-3.51204428 42.54246267 -3.01908261 40.08777821 -2.48681641 37.6394043 C-0.8703014 29.71074623 -0.56847735 21.88614865 -0.375 13.8125 C-0.3367036 12.46547279 -0.2976457 11.11846701 -0.2578125 9.77148438 C-0.16442092 6.51445318 -0.078646 3.25741491 0 0 Z " fill="#CDE9EF" transform="translate(416,235)"/>
<path d="M0 0 C1.258125 -0.020625 2.51625 -0.04125 3.8125 -0.0625 C4.52019531 -0.07410156 5.22789062 -0.08570313 5.95703125 -0.09765625 C8 0 8 0 11 1 C13.86430864 1.30239035 16.72919934 1.50765769 19.6015625 1.71875 C22 2 22 2 23 3 C23.08685603 4.56172745 23.10702219 6.12729344 23.09765625 7.69140625 C23.09443359 8.63564453 23.09121094 9.57988281 23.08789062 10.55273438 C23.07951172 11.54595703 23.07113281 12.53917969 23.0625 13.5625 C23.05798828 14.55958984 23.05347656 15.55667969 23.04882812 16.58398438 C23.03700007 19.05604849 23.02051849 21.52799518 23 24 C23.66 24.33 24.32 24.66 25 25 C24.01 25 23.02 25 22 25 C21.505 15.595 21.505 15.595 21 6 C13.99547123 4.32183165 7.16927133 2.70286974 0 2 C0 1.34 0 0.68 0 0 Z " fill="#ABD6E5" transform="translate(264,152)"/>
<path d="M0 0 C1.32 0 2.64 0 4 0 C4 1.65 4 3.3 4 5 C5.65 4.67 7.3 4.34 9 4 C7.60667426 7.36720387 6.0210714 8.9859524 3 11 C1.62437146 9.71034824 0.29233607 8.37310707 -1 7 C-1 6.34 -1 5.68 -1 5 C-2.32 4.34 -3.64 3.68 -5 3 C-4.360625 2.690625 -3.72125 2.38125 -3.0625 2.0625 C-1.06389179 1.1654837 -1.06389179 1.1654837 0 0 Z " fill="#187CA2" transform="translate(253,383)"/>
<path d="M0 0 C0.66 0 1.32 0 2 0 C2 0.66 2 1.32 2 2 C2.66 2 3.32 2 4 2 C4 3.32 4 4.64 4 6 C-1.0111071 7.63206154 -5.51166724 8.30790385 -10.796875 8.30078125 C-11.51232483 8.30506638 -12.22777466 8.3093515 -12.96490479 8.31376648 C-14.46405993 8.31946914 -15.96324272 8.32004031 -17.46240234 8.31567383 C-19.75795933 8.31248896 -22.05225583 8.33610664 -24.34765625 8.36132812 C-25.80989421 8.36359905 -27.27213563 8.36430557 -28.734375 8.36328125 C-29.76096222 8.37709587 -29.76096222 8.37709587 -30.80828857 8.39118958 C-33.77978311 8.36217272 -35.56586897 8.33829026 -37.95410156 6.47729492 C-38.47182129 5.74603394 -38.47182129 5.74603394 -39 5 C-37.89140625 5.16242188 -36.7828125 5.32484375 -35.640625 5.4921875 C-30.67047871 6.11072374 -25.75289133 6.15046232 -20.75 6.125 C-19.83065674 6.12306641 -18.91131348 6.12113281 -17.96411133 6.11914062 C-11.26485228 6.07666932 -4.65914634 5.77207494 2 5 C1.34 3.35 0.68 1.7 0 0 Z " fill="#DAF5F7" transform="translate(162,303)"/>
<path d="M0 0 C1.28785652 0.00424484 1.28785652 0.00424484 2.60173035 0.00857544 C5.3322875 0.0197318 8.06251145 0.04482791 10.79296875 0.0703125 C12.64908379 0.08034818 14.50520399 0.089473 16.36132812 0.09765625 C20.90116921 0.11965624 25.44076256 0.15415469 29.98046875 0.1953125 C29.98046875 0.5253125 29.98046875 0.8553125 29.98046875 1.1953125 C28.99203979 1.2250415 28.99203979 1.2250415 27.98364258 1.25537109 C11.66471602 1.72082973 11.66471602 1.72082973 -4.50390625 3.78515625 C-7.73561332 4.31206501 -10.75539708 4.34713269 -14.01953125 4.1953125 C-14.01953125 3.5353125 -14.01953125 2.8753125 -14.01953125 2.1953125 C-9.34216943 -0.19084384 -5.11786771 -0.06386003 0 0 Z " fill="#9FD0DC" transform="translate(238.01953125,117.8046875)"/>
<path d="M0 0 C14.31113732 2.40474029 26.09757393 7.34289719 39 14 C36.26980214 15.06528748 35.20701188 15.07998186 32.421875 14.00390625 C31.54015625 13.52824219 30.6584375 13.05257812 29.75 12.5625 C28.85796875 12.08941406 27.9659375 11.61632812 27.046875 11.12890625 C26.37140625 10.75636719 25.6959375 10.38382813 25 10 C25 9.34 25 8.68 25 8 C22.03 8 19.06 8 16 8 C16 7.01 16 6.02 16 5 C10.72 4.01 5.44 3.02 0 2 C0 1.34 0 0.68 0 0 Z " fill="#287F9F" transform="translate(281,121)"/>
<path d="M0 0 C2.84328397 2.71966293 3.95374949 4.01878963 4.14526367 8.08178711 C4.16552773 11.60315743 4.18568037 15.12432383 4.18530273 18.64575195 C4.18746165 20.89749855 4.20553802 23.14873259 4.22460938 25.40039062 C4.29124914 42.03335204 4.29124914 42.03335204 2 49 C1.01 49.495 1.01 49.495 0 50 C0 47.69 0 45.38 0 43 C0.66 43 1.32 43 2 43 C2.04942365 37.927993 2.08573068 32.85612606 2.10986328 27.78393555 C2.11992326 26.05832477 2.13357276 24.33273105 2.15087891 22.60717773 C2.17512754 20.1273986 2.18648301 17.64784477 2.1953125 15.16796875 C2.20563507 14.39599655 2.21595764 13.62402435 2.22659302 12.82865906 C2.22739422 9.00718524 2.17242595 7.25863893 0 4 C0 2.68 0 1.36 0 0 Z " fill="#509AB5" transform="translate(412,226)"/>
<path d="M0 0 C-3 2 -3 2 -7 2 C-6.95399658 2.56509277 -6.90799316 3.13018555 -6.8605957 3.71240234 C-6.66178833 6.26564573 -6.486873 8.81997663 -6.3125 11.375 C-6.23966797 12.26445312 -6.16683594 13.15390625 -6.09179688 14.0703125 C-6.03701172 14.92109375 -5.98222656 15.771875 -5.92578125 16.6484375 C-5.86817627 17.43395996 -5.81057129 18.21948242 -5.7512207 19.02880859 C-5.83331787 19.67930176 -5.91541504 20.32979492 -6 21 C-6.99 21.66 -7.98 22.32 -9 23 C-9.99 22.67 -10.98 22.34 -12 22 C-12.6875 19.9375 -12.6875 19.9375 -13 18 C-11.68 18.33 -10.36 18.66 -9 19 C-9 13.06 -9 7.12 -9 1 C-3.375 -1.25 -3.375 -1.25 0 0 Z " fill="#388DAA" transform="translate(235,157)"/>
<path d="M0 0 C-1.87945312 0.61488281 -1.87945312 0.61488281 -3.796875 1.2421875 C-5.44796946 1.78629817 -7.09900822 2.33057786 -8.75 2.875 C-9.575 3.14441406 -10.4 3.41382813 -11.25 3.69140625 C-12.44882812 4.08779297 -12.44882812 4.08779297 -13.671875 4.4921875 C-14.4050293 4.73308105 -15.13818359 4.97397461 -15.89355469 5.22216797 C-18.03656282 5.96179878 -18.03656282 5.96179878 -20.08300781 7.09423828 C-22 8 -22 8 -25 8 C-25 8.66 -25 9.32 -25 10 C-26.0725 10.28875 -27.145 10.5775 -28.25 10.875 C-31.81899259 11.7982687 -31.81899259 11.7982687 -34.125 13.1875 C-36.69009115 14.2990395 -38.36477202 13.73200777 -41 13 C-38.50081904 11.33387936 -36.89252915 10.51768632 -34.12109375 9.6328125 C-33.36924805 9.38885742 -32.61740234 9.14490234 -31.84277344 8.89355469 C-31.0490332 8.63993164 -30.25529297 8.38630859 -29.4375 8.125 C-22.84848395 5.97931247 -16.40611963 3.64600593 -10 1 C-5.99879864 -0.55602275 -4.07007017 -1.2037016 0 0 Z " fill="#B6DAE5" transform="translate(327,297)"/>
<path d="M0 0 C3.57087275 0.4578042 6.80958977 1.23457513 10.1875 2.4375 C13.65283411 3.64715289 17.00302442 4.40875844 20.625 5 C25.17209671 5.75465177 28.86683161 6.9793399 33 9 C33 9.66 33 10.32 33 11 C28.29637913 10.43763872 24.0926943 9.5103547 19.62890625 7.93359375 C18.47841797 7.53076172 17.32792969 7.12792969 16.14257812 6.71289062 C14.96115234 6.29201172 13.77972656 5.87113281 12.5625 5.4375 C11.35400391 5.01275391 10.14550781 4.58800781 8.90039062 4.15039062 C5.93151317 3.1060029 2.96486218 2.05572123 0 1 C0 0.67 0 0.34 0 0 Z " fill="#BBE1E8" transform="translate(214,323)"/>
<path d="M0 0 C0 0.66 0 1.32 0 2 C-0.77601563 2.09796875 -1.55203125 2.1959375 -2.3515625 2.296875 C-9.87560803 3.33838966 -16.85186907 4.96338441 -24.1015625 7.1953125 C-27 8 -27 8 -30 8 C-20.96641168 1.44622024 -11.05661425 -0.56220072 0 0 Z " fill="#4595B0" transform="translate(132,215)"/>
<path d="M0 0 C-1.423125 0.37125 -1.423125 0.37125 -2.875 0.75 C-6.43559968 2.17423987 -6.51742659 2.71715887 -8 6 C-10.95319818 7.23843794 -11.87438528 7.04187157 -15 6 C-15.721875 6.309375 -16.44375 6.61875 -17.1875 6.9375 C-20.95973326 8.3625659 -23.98078413 8.13624461 -28 8 C-24.88788454 5.92525636 -22.38619563 5.10570072 -18.8125 4.0625 C-14.94001343 2.915416 -11.17226651 1.72368698 -7.4375 0.1875 C-3.97961993 -1.00704039 -3.26159399 -1.04913417 0 0 Z " fill="#2889A5" transform="translate(326,316)"/>
<path d="M0 0 C2.64 0.33 5.28 0.66 8 1 C-1.27246664 7.18164443 -14.15092582 9.98865479 -25 12 C-25 11.34 -25 10.68 -25 10 C-21.17679443 8.57741188 -18.08718695 7.75957724 -14 8 C-14 7.34 -14 6.68 -14 6 C-13.05125 5.855625 -12.1025 5.71125 -11.125 5.5625 C-8.1065506 5.17064601 -8.1065506 5.17064601 -6 4 C-5.01 3.814375 -5.01 3.814375 -4 3.625 C-1.62014703 3.11133621 -1.62014703 3.11133621 0 0 Z " fill="#CDEBF1" transform="translate(314,314)"/>
<path d="M0 0 C2.27156921 0.06001504 4.54239274 0.14879968 6.8125 0.25 C8.07707031 0.29640625 9.34164062 0.3428125 10.64453125 0.390625 C14 1 14 1 15.625 2.90625 C16.305625 3.94265625 16.305625 3.94265625 17 5 C19.47192304 6.32520759 19.47192304 6.32520759 22.1875 7.25 C23.08855469 7.58515625 23.98960937 7.9203125 24.91796875 8.265625 C25.60503906 8.50796875 26.29210937 8.7503125 27 9 C24.26368546 10.36815727 23.22216539 9.62234768 20.3515625 8.671875 C19.42859375 8.36636719 18.505625 8.06085938 17.5546875 7.74609375 C16.58789062 7.41738281 15.62109375 7.08867187 14.625 6.75 C13.18640625 6.28013672 13.18640625 6.28013672 11.71875 5.80078125 C10.79320312 5.49011719 9.86765625 5.17945313 8.9140625 4.859375 C8.0679541 4.57545898 7.2218457 4.29154297 6.35009766 3.99902344 C3.89945609 2.95725891 2.05514948 1.67992316 0 0 Z " fill="#4498AF" transform="translate(191,297)"/>
<path d="M0 0 C7.55507141 0.75550714 7.55507141 0.75550714 9.79492188 1.98632812 C12.41256409 3.18965524 14.55294796 3.40967373 17.421875 3.6328125 C18.44667969 3.71660156 19.47148437 3.80039062 20.52734375 3.88671875 C21.59082031 3.96535156 22.65429688 4.04398437 23.75 4.125 C24.82894531 4.21136719 25.90789062 4.29773438 27.01953125 4.38671875 C29.67919656 4.5985505 32.33922419 4.80269402 35 5 C35 5.33 35 5.66 35 6 C7.14927954 6.7562861 7.14927954 6.7562861 1.2265625 1.39453125 C0.82179688 0.93433594 0.41703125 0.47414063 0 0 Z " fill="#4F9FB5" transform="translate(117,304)"/>
<path d="M0 0 C-0.16298584 0.57975586 -0.32597168 1.15951172 -0.49389648 1.75683594 C-1.27677556 5.22673123 -1.10312359 8.712623 -1.0625 12.25 C-1.05798828 12.99507813 -1.05347656 13.74015625 -1.04882812 14.5078125 C-1.03709246 16.3385764 -1.0191585 18.16929873 -1 20 C-4.93239315 16.06760685 -5.90780214 9.78249194 -6.1875 4.375 C-6.125625 3.59125 -6.06375 2.8075 -6 2 C-2.25 0 -2.25 0 0 0 Z " fill="#1E7AA2" transform="translate(170,261)"/>
<path d="M0 0 C2.79872437 2.52788007 4.45773019 4.20411134 5 8 C0.64667264 8.84023188 -3.44442519 9.10770995 -7.875 9.0625 C-9.02742187 9.05347656 -10.17984375 9.04445313 -11.3671875 9.03515625 C-12.23601562 9.02355469 -13.10484375 9.01195312 -14 9 C-9.72352613 6.14901742 -6.0682068 5.85519409 -1 6 C-1.020625 5.195625 -1.04125 4.39125 -1.0625 3.5625 C-1 1 -1 1 0 0 Z " fill="#1C7FA0" transform="translate(159,300)"/>
<path d="M0 0 C-0.61277612 2.96175123 -1.25372522 4.38058783 -3 7 C2.28 7.33 7.56 7.66 13 8 C13 9.98 13 11.96 13 14 C12.67 14 12.34 14 12 14 C12 12.35 12 10.7 12 9 C11.09121094 9.01740234 11.09121094 9.01740234 10.1640625 9.03515625 C4.04075052 9.10109961 -1.92093331 8.72431433 -8 8 C-4.23529412 0 -4.23529412 0 0 0 Z " fill="#B7E2EC" transform="translate(336,215)"/>
<path d="M0 0 C-3.3 2.97 -6.6 5.94 -10 9 C-10.66 7.68 -11.32 6.36 -12 5 C-11.67 4.34 -11.34 3.68 -11 3 C-11.66 2.67 -12.32 2.34 -13 2 C-11.5882217 1.46605821 -10.17029756 0.94834896 -8.75 0.4375 C-7.96109375 0.14746094 -7.1721875 -0.14257812 -6.359375 -0.44140625 C-4 -1 -4 -1 0 0 Z " fill="#2C83A3" transform="translate(339,312)"/>
<path d="M0 0 C-3.39117787 2.26078525 -6.76652607 3.28549206 -10.625 4.4375 C-12.06929026 4.87538011 -13.51330287 5.31417711 -14.95703125 5.75390625 C-15.6526416 5.96547363 -16.34825195 6.17704102 -17.06494141 6.39501953 C-19.50433692 7.15767687 -21.90695907 8.01218615 -24.3125 8.875 C-28 10 -28 10 -31 9 C-25.63809899 6.38592128 -20.96564796 4.50771472 -15 4 C-15 3.34 -15 2.68 -15 2 C-9.92523206 0.73694665 -5.27203646 -0.27036084 0 0 Z " fill="#1E7B9B" transform="translate(339,291)"/>
<path d="M0 0 C0.99 0.33 1.98 0.66 3 1 C4.33257403 12.52164009 4.33257403 12.52164009 3 18 C-0.96 18.495 -0.96 18.495 -5 19 C-4.34 18.34 -3.68 17.68 -3 17 C-1.68 17 -0.36 17 1 17 C0.67 11.39 0.34 5.78 0 0 Z " fill="#B4DBE3" transform="translate(349,230)"/>
<path d="M0 0 C0 0.33 0 0.66 0 1 C0.928125 1 1.85625 1 2.8125 1 C4.875 1 6.9375 1 9 1 C10.6875 3.5 10.6875 3.5 12 6 C10 7 10 7 8.12060547 6.56274414 C7.37697754 6.30614014 6.63334961 6.04953613 5.8671875 5.78515625 C5.06152344 5.51123047 4.25585938 5.23730469 3.42578125 4.95507812 C2.58402344 4.66052734 1.74226562 4.36597656 0.875 4.0625 C-0.39923828 3.62647461 -0.39923828 3.62647461 -1.69921875 3.18164062 C-3.80186749 2.46106999 -5.90187477 1.73361685 -8 1 C-8 0.67 -8 0.34 -8 0 C-2.25 -1.125 -2.25 -1.125 0 0 Z " fill="#D8EDF3" transform="translate(197,315)"/>
<path d="M0 0 C-2.71871903 1.81247935 -4.75827574 2.71075498 -7.81640625 3.7265625 C-8.74517578 4.0359375 -9.67394531 4.3453125 -10.63085938 4.6640625 C-11.59830078 4.98117187 -12.56574219 5.29828125 -13.5625 5.625 C-14.53380859 5.94984375 -15.50511719 6.2746875 -16.50585938 6.609375 C-23.73297991 9 -23.73297991 9 -26 9 C-26 8.34 -26 7.68 -26 7 C-24.35 7 -22.7 7 -21 7 C-21 6.34 -21 5.68 -21 5 C-17.36576791 2.67409146 -14.22911669 2.83734167 -10 3 C-10 2.34 -10 1.68 -10 1 C-6.61981469 -0.04005702 -3.5219721 -0.08004482 0 0 Z " fill="#D0EDF2" transform="translate(289,326)"/>
<path d="M0 0 C4.38145801 4.88701086 10 12.24827894 10 19 C9.01 19.33 8.02 19.66 7 20 C7.33 18.02 7.66 16.04 8 14 C7.01 14 6.02 14 5 14 C1.15919679 10.00556466 0 5.42706451 0 0 Z " fill="#3589A4" transform="translate(332,191)"/>
<path d="M0 0 C0.99 0 1.98 0 3 0 C3 1.32 3 2.64 3 4 C3.66 4 4.32 4 5 4 C7.32590854 7.63423209 7.16265833 10.77088331 7 15 C4.03 15 1.06 15 -2 15 C-2.33 14.01 -2.66 13.02 -3 12 C-0.36 12.66 2.28 13.32 5 14 C4.72285156 13.32453125 4.44570312 12.6490625 4.16015625 11.953125 C3.79792969 11.06109375 3.43570313 10.1690625 3.0625 9.25 C2.70285156 8.36828125 2.34320313 7.4865625 1.97265625 6.578125 C1.14643424 4.38813896 0.50630057 2.28101729 0 0 Z " fill="#318CA7" transform="translate(195,181)"/>
<path d="M0 0 C1.09248047 0.36158203 1.09248047 0.36158203 2.20703125 0.73046875 C2.20703125 1.72046875 2.20703125 2.71046875 2.20703125 3.73046875 C1.09328125 3.83359375 -0.02046875 3.93671875 -1.16796875 4.04296875 C-2.36421875 4.26984375 -3.56046875 4.49671875 -4.79296875 4.73046875 C-5.78296875 6.21546875 -5.78296875 6.21546875 -6.79296875 7.73046875 C-8.45245023 8.7423477 -10.11877437 9.74312335 -11.79296875 10.73046875 C-12.12296875 11.39046875 -12.45296875 12.05046875 -12.79296875 12.73046875 C-14.11296875 12.40046875 -15.43296875 12.07046875 -16.79296875 11.73046875 C-15.80296875 11.73046875 -14.81296875 11.73046875 -13.79296875 11.73046875 C-13.43138672 10.87388672 -13.43138672 10.87388672 -13.0625 10 C-11.54198694 7.2817905 -9.77140071 5.52408603 -7.48046875 3.41796875 C-6.72121094 2.69996094 -5.96195312 1.98195312 -5.1796875 1.2421875 C-2.79296875 -0.26953125 -2.79296875 -0.26953125 0 0 Z " fill="#2C83A0" transform="translate(302.79296875,165.26953125)"/>
<path d="M0 0 C6.34669242 2.42667651 12.1235614 5.5895978 17.875 9.1875 C18.46796875 9.55552734 19.0609375 9.92355469 19.671875 10.30273438 C21.11602522 11.19950507 22.55822056 12.09942264 24 13 C21 14 21 14 17.8125 12.5625 C16.884375 12.046875 15.95625 11.53125 15 11 C15 10.34 15 9.68 15 9 C12.03 8.505 12.03 8.505 9 8 C9 7.34 9 6.68 9 6 C8.34 6 7.68 6 7 6 C7 5.34 7 4.68 7 4 C5.35 4 3.7 4 2 4 C1.34 2.68 0.68 1.36 0 0 Z " fill="#C5E8F0" transform="translate(298,144)"/>
<path d="M0 0 C4.91935902 4.11619836 9.52647956 8.40410362 14 13 C13.01 13.33 12.02 13.66 11 14 C8.8125 12.75 8.8125 12.75 7 11 C7 10.01 7 9.02 7 8 C6.401875 7.87625 5.80375 7.7525 5.1875 7.625 C3 7 3 7 0 5 C-0.1875 2.375 -0.1875 2.375 0 0 Z " fill="#C7E9EE" transform="translate(206,344)"/>
<path d="M0 0 C3.4375 0.8125 3.4375 0.8125 7 2 C7.33 2.99 7.66 3.98 8 5 C9.65 5.33 11.3 5.66 13 6 C12.67 6.99 12.34 7.98 12 9 C12.99 9.33 13.98 9.66 15 10 C15.33 10.99 15.66 11.98 16 13 C17.49985609 14.66710346 17.49985609 14.66710346 19 16 C16 16 16 16 14.51367188 14.85424805 C14.00384766 14.32871338 13.49402344 13.80317871 12.96875 13.26171875 C12.40542969 12.68873047 11.84210938 12.11574219 11.26171875 11.52539062 C10.68035156 10.91888672 10.09898437 10.31238281 9.5 9.6875 C8.62794922 8.79514648 8.62794922 8.79514648 7.73828125 7.88476562 C6.65083582 6.77119164 5.56650183 5.65456455 4.48632812 4.53393555 C3.00637616 3.00658039 1.50760383 1.50002087 0 0 Z " fill="#348AAA" transform="translate(324,159)"/>
<path d="M0 0 C0 0.66 0 1.32 0 2 C-2.046875 3.62109375 -2.046875 3.62109375 -4.75 5.4375 C-8.52010379 7.97157229 -8.52010379 7.97157229 -12.078125 10.78515625 C-14 12 -14 12 -16.25 11.6875 C-16.8275 11.460625 -17.405 11.23375 -18 11 C-16.0862931 9.53763907 -14.16924767 8.08005754 -12.25 6.625 C-11.71117187 6.2125 -11.17234375 5.8 -10.6171875 5.375 C-3.50831653 0 -3.50831653 0 0 0 Z " fill="#368CAB" transform="translate(195,134)"/>
<path d="M0 0 C3.96 0 7.92 0 12 0 C11.67 0.99 11.34 1.98 11 3 C11.5775 3.12375 12.155 3.2475 12.75 3.375 C15.02335767 4.00648824 16.9253529 4.88858191 19 6 C14.9579946 7.34733513 12.23396029 6.02580484 8.375 4.6875 C7.68148437 4.46126953 6.98796875 4.23503906 6.2734375 4.00195312 C1.12940458 2.25880916 1.12940458 2.25880916 0 0 Z " fill="#21819E" transform="translate(173,290)"/>
<path d="M0 0 C3.06277267 0.14126626 6.12513542 0.28784396 9.1875 0.4375 C10.05181641 0.47681641 10.91613281 0.51613281 11.80664062 0.55664062 C15.95914122 0.76347016 19.94537862 1.00103531 24 2 C24 2.99 24 3.98 24 5 C18.44686304 4.35588614 12.98744364 3.49942196 7.5 2.4375 C6.77296875 2.29892578 6.0459375 2.16035156 5.296875 2.01757812 C3.53081963 1.68063335 1.76534574 1.34064317 0 1 C0 0.67 0 0.34 0 0 Z " fill="#BAE0E8" transform="translate(272,119)"/>
<path d="M0 0 C-0.33 0.66 -0.66 1.32 -1 2 C-3.6686062 2.26006351 -6.26275714 2.42139909 -8.9375 2.5 C-14.46983601 2.34451863 -14.46983601 2.34451863 -19 5 C-19.71408334 6.98356483 -20.38617742 8.98315437 -21 11 C-22.2380014 7.42355152 -21.74926071 4.66305234 -21 1 C-13.97252688 0.33411422 -7.05985273 -0.11766421 0 0 Z " fill="#2180A2" transform="translate(185,224)"/>
<path d="M0 0 C0.99 0 1.98 0 3 0 C3.66 1.65 4.32 3.3 5 5 C6.98 5 8.96 5 11 5 C11.33 5.66 11.66 6.32 12 7 C12.99 7.66 13.98 8.32 15 9 C8.58008874 8.42934122 2.98410537 6.32655091 -3 4 C-2.01 3.34 -1.02 2.68 0 2 C0 1.34 0 0.68 0 0 Z " fill="#1E82A1" transform="translate(236,308)"/>
<path d="M0 0 C1.32 0.33 2.64 0.66 4 1 C3.66226563 1.51949219 3.32453125 2.03898438 2.9765625 2.57421875 C0.60108299 6.28848007 -1.55762815 9.80400915 -3 14 C-3.66 14 -4.32 14 -5 14 C-5 15.65 -5 17.3 -5 19 C-5.33 19 -5.66 19 -6 19 C-6 16.69 -6 14.38 -6 12 C-5.34 12 -4.68 12 -4 12 C-4.04125 11.236875 -4.0825 10.47375 -4.125 9.6875 C-4 7 -4 7 -2 4 C-1.34 4 -0.68 4 0 4 C0 2.68 0 1.36 0 0 Z " fill="#D1ECF1" transform="translate(176,191)"/>
<path d="M0 0 C10.56 0 21.12 0 32 0 C28.61558122 2.25627918 27.31942343 2.27036074 23.34375 2.34375 C22.23902344 2.37339844 21.13429688 2.40304687 19.99609375 2.43359375 C17.66536458 2.47786458 15.33463542 2.52213542 13.00390625 2.56640625 C11.89917969 2.59605469 10.79445313 2.62570312 9.65625 2.65625 C8.64369141 2.67494141 7.63113281 2.69363281 6.58789062 2.71289062 C3.76381692 2.82554367 3.76381692 2.82554367 1 5 C0.67 3.35 0.34 1.7 0 0 Z " fill="#E4FCFB" transform="translate(352,309)"/>
<path d="M0 0 C2.51406437 2.51406437 5.01787299 5.01924783 7.4375 7.625 C10.12704976 10.11775343 12.66093537 11.52459935 16 13 C16 13.33 16 13.66 16 14 C14.02 14 12.04 14 10 14 C10 13.34 10 12.68 10 12 C8.68 11.67 7.36 11.34 6 11 C6 10.34 6 9.68 6 9 C5.01 9 4.02 9 3 9 C2.67 8.01 2.34 7.02 2 6 C1.34 5.67 0.68 5.34 0 5 C0 3.35 0 1.7 0 0 Z " fill="#D2F1F3" transform="translate(107,294)"/>
<path d="M0 0 C1.32 0 2.64 0 4 0 C4.66 1.32 5.32 2.64 6 4 C6.66 4 7.32 4 8 4 C8.33 4.99 8.66 5.98 9 7 C9.99 7.33 10.98 7.66 12 8 C13.75 9.3125 13.75 9.3125 15 11 C14.578125 13.10546875 14.578125 13.10546875 14 15 C12.03580523 13.03580523 10.07182948 11.07140276 8.109375 9.10546875 C6.87514262 7.87352198 5.63725604 6.64518006 4.390625 5.42578125 C1.10284582 2.20569164 1.10284582 2.20569164 0 0 Z " fill="#2787A3" transform="translate(233,370)"/>
<path d="M0 0 C0.99 0.33 1.98 0.66 3 1 C2.16855469 1.81404297 2.16855469 1.81404297 1.3203125 2.64453125 C0.23363281 3.71767578 0.23363281 3.71767578 -0.875 4.8125 C-1.59429687 5.52019531 -2.31359375 6.22789062 -3.0546875 6.95703125 C-5.15358937 9.04399194 -5.15358937 9.04399194 -7 12 C-7.66 12 -8.32 12 -9 12 C-9.33 10.68 -9.66 9.36 -10 8 C-9.195625 7.7525 -8.39125 7.505 -7.5625 7.25 C-4.828919 6.27761141 -4.828919 6.27761141 -4.1875 3.875 C-4.125625 3.25625 -4.06375 2.6375 -4 2 C-2.68 2 -1.36 2 0 2 C0 1.34 0 0.68 0 0 Z " fill="#1380A1" transform="translate(325,321)"/>
<path d="M0 0 C0.33 0 0.66 0 1 0 C1.33 8.91 1.66 17.82 2 27 C1.34 27 0.68 27 0 27 C-1.30192693 17.88651147 -0.6888091 9.13466832 0 0 Z " fill="#2684A4" transform="translate(145,237)"/>
<path d="M0 0 C0.33 0.99 0.66 1.98 1 3 C2.134375 2.95875 3.26875 2.9175 4.4375 2.875 C9.14383562 2.85816159 13.46316004 3.82378223 18 5 C14.59611697 5.98316039 11.27740411 6.29411056 7.75 6.5625 C6.67234375 6.64628906 5.5946875 6.73007813 4.484375 6.81640625 C3.25460937 6.90728516 3.25460937 6.90728516 2 7 C0 4 0 4 0 0 Z " fill="#3D93AF" transform="translate(380,212)"/>
<path d="M0 0 C0.33 0 0.66 0 1 0 C1 2.97 1 5.94 1 9 C1.928125 8.95875 2.85625 8.9175 3.8125 8.875 C7 9 7 9 10 11 C11.65549531 11.38499891 13.3222433 11.72793135 15 12 C15 12.66 15 13.32 15 14 C16.32 14.33 17.64 14.66 19 15 C17 16 17 16 14.609375 15.29296875 C13.66578125 14.92816406 12.7221875 14.56335938 11.75 14.1875 C10.76902344 13.81496094 9.78804687 13.44242188 8.77734375 13.05859375 C7.86082031 12.70925781 6.94429687 12.35992187 6 12 C4.00340982 11.32318977 2.00535378 10.65038501 0 10 C0 6.7 0 3.4 0 0 Z " fill="#4496B0" transform="translate(162,237)"/>
<path d="M0 0 C0.66 0.33 1.32 0.66 2 1 C1.071875 1.886875 0.14375 2.77375 -0.8125 3.6875 C-3.40030377 6.2570798 -5.15977034 8.84532058 -7 12 C-7.99 12.66 -8.98 13.32 -10 14 C-10.99 13.67 -11.98 13.34 -13 13 C-9.13242719 8.04467233 -4.81123996 4.03523352 0 0 Z " fill="#378BA8" transform="translate(175,146)"/>
<path d="M0 0 C2.81519008 2.81519008 4.35579498 5.10971366 6.25 8.5625 C6.79140625 9.53316406 7.3328125 10.50382813 7.890625 11.50390625 C8.25671875 12.32761719 8.6228125 13.15132812 9 14 C8.67 14.66 8.34 15.32 8 16 C7.67 14.68 7.34 13.36 7 12 C6.34 12 5.68 12 5 12 C5 11.01 5 10.02 5 9 C3.35 9.66 1.7 10.32 0 11 C0 7.37 0 3.74 0 0 Z " fill="#BEE2E9" transform="translate(348,186)"/>
<path d="M0 0 C0.66 0.33 1.32 0.66 2 1 C0.47005348 3.29491977 -0.54990301 4.78177116 -3.0625 6 C-5.18989329 6.83672859 -5.18989329 6.83672859 -5.875 9.0625 C-6.431875 10.0215625 -6.431875 10.0215625 -7 11 C-10.125 11.75 -10.125 11.75 -13 12 C-8.87675353 7.74790208 -4.48717034 3.86364295 0 0 Z " fill="#D1EDF2" transform="translate(192,156)"/>
<path d="M0 0 C5.75 1.75 5.75 1.75 8 4 C8.86625 4.639375 9.7325 5.27875 10.625 5.9375 C11.800625 6.9584375 11.800625 6.9584375 13 8 C13 8.99 13 9.98 13 11 C13.99 11.33 14.98 11.66 16 12 C15.34 12.66 14.68 13.32 14 14 C9.33333333 9.33333333 4.66666667 4.66666667 0 0 Z " fill="#23859E" transform="translate(192,330)"/>
<path d="M0 0 C0.99 0 1.98 0 3 0 C3.33 2.64 3.66 5.28 4 8 C4.66 8 5.32 8 6 8 C9.10096154 13.45769231 9.10096154 13.45769231 8.58984375 16.203125 C8.39519531 16.79609375 8.20054687 17.3890625 8 18 C6.66180502 15.3773768 5.3292849 12.75213401 4 10.125 C3.6184375 9.37863281 3.236875 8.63226563 2.84375 7.86328125 C2.4828125 7.14785156 2.121875 6.43242187 1.75 5.6953125 C1.41484375 5.03547363 1.0796875 4.37563477 0.734375 3.69580078 C0 2 0 2 0 0 Z " fill="#C8ECF3" transform="translate(153,284)"/>
<path d="M0 0 C2.89932357 2.39509338 3.50168276 4.31245243 4 8 C4.66 8 5.32 8 6 8 C6.66 11.63 7.32 15.26 8 19 C7.01 19 6.02 19 5 19 C4.35377959 16.58343624 3.70800996 14.16675354 3.0625 11.75 C2.88009766 11.06808594 2.69769531 10.38617188 2.50976562 9.68359375 C1.64946879 6.46139106 0.79316866 3.23946777 0 0 Z " fill="#1E7D9F" transform="translate(359,206)"/>
<path d="M0 0 C1.82421875 0.19921875 1.82421875 0.19921875 4 1 C5.51953125 3.14453125 5.51953125 3.14453125 6.8125 5.8125 C7.25207031 6.68519531 7.69164062 7.55789062 8.14453125 8.45703125 C9.06404749 11.19038776 9.0076835 12.34787595 8 15 C6.66407203 12.6889639 5.33115569 10.37628245 4 8.0625 C3.6184375 7.40314453 3.236875 6.74378906 2.84375 6.06445312 C0 1.11328125 0 1.11328125 0 0 Z " fill="#D8F4F7" transform="translate(363,174)"/>
<path d="M0 0 C0.556875 0.226875 1.11375 0.45375 1.6875 0.6875 C0.6975 1.0175 -0.2925 1.3475 -1.3125 1.6875 C-1.6425 2.6775 -1.9725 3.6675 -2.3125 4.6875 C-5.57452163 5.99230865 -8.89206185 6.89816812 -12.3125 7.6875 C-4.46923575 -0.60395078 -4.46923575 -0.60395078 0 0 Z " fill="#C0E4EB" transform="translate(206.3125,148.3125)"/>
<path d="M0 0 C4.455 0.99 4.455 0.99 9 2 C9 4.31 9 6.62 9 9 C7.68103535 8.07161713 6.37001311 7.13194268 5.0625 6.1875 C4.33160156 5.66542969 3.60070312 5.14335937 2.84765625 4.60546875 C1 3 1 3 0 0 Z " fill="#34859D" transform="translate(174,311)"/>
<path d="M0 0 C0.33 0 0.66 0 1 0 C1.30769231 9.07692308 1.30769231 9.07692308 -1 13 C-3.078125 14.1328125 -3.078125 14.1328125 -5 15 C-1.92482916 4.44191344 -1.92482916 4.44191344 0 0 Z " fill="#C4E8ED" transform="translate(345,276)"/>
<path d="M0 0 C0.66 0.33 1.32 0.66 2 1 C0.576875 2.3303125 0.576875 2.3303125 -0.875 3.6875 C-3.00956076 5.78731209 -3.9574318 6.88293746 -5 9.75 C-6 12 -6 12 -9.125 13.3125 C-10.07375 13.539375 -11.0225 13.76625 -12 14 C-10.43387807 10.15588253 -7.97905879 7.84049791 -5 5 C-3.6078125 3.6078125 -3.6078125 3.6078125 -2.1875 2.1875 C-1.1046875 1.1046875 -1.1046875 1.1046875 0 0 Z " fill="#ACD7E3" transform="translate(276,373)"/>
<path d="M0 0 C3.3125 -0.25 3.3125 -0.25 7 0 C8.9375 2 8.9375 2 10 4 C7.69 3.67 5.38 3.34 3 3 C3.33 3.99 3.66 4.98 4 6 C3.01 6 2.02 6 1 6 C0.67 4.02 0.34 2.04 0 0 Z " fill="#D3EFEF" transform="translate(171,308)"/>
<path d="M0 0 C-10.37357631 4.40774487 -10.37357631 4.40774487 -16 5 C-16 4.34 -16 3.68 -16 3 C-5.78382511 -1.60729456 -5.78382511 -1.60729456 0 0 Z " fill="#2E88A2" transform="translate(308,302)"/>
<path d="M0 0 C0.66 0 1.32 0 2 0 C2.3152595 5.98993047 1.68219822 9.63560356 -1 15 C-1.9807664 12.05770079 -2.16488128 10.0091216 -2.1875 6.9375 C-2.20167969 6.05964844 -2.21585937 5.18179687 -2.23046875 4.27734375 C-2 2 -2 2 0 0 Z " fill="#127B9B" transform="translate(343,271)"/>
<path d="M0 0 C0.66 0.33 1.32 0.66 2 1 C1.67 2.98 1.34 4.96 1 7 C2.98 6.67 4.96 6.34 7 6 C2.5 10 2.5 10 -2 10 C-2.17942163 6.05272412 -2.09350689 3.4019487 0 0 Z " fill="#2785A6" transform="translate(312,188)"/>
<path d="M0 0 C-1 2 -1 2 -3.36328125 2.88671875 C-4.33652344 3.15097656 -5.30976563 3.41523438 -6.3125 3.6875 C-7.27800781 3.95949219 -8.24351562 4.23148438 -9.23828125 4.51171875 C-11.95205711 4.99152353 -13.43665005 4.90721887 -16 4 C-11.26264015 0.8417601 -5.69043486 -2.27617394 0 0 Z " fill="#B7DFE7" transform="translate(228,141)"/>
<path d="M0 0 C1.32 0.66 2.64 1.32 4 2 C3.67 3.32 3.34 4.64 3 6 C-1.55737263 5.56179109 -4.57653445 5.14958831 -8 2 C-5.69 2.33 -3.38 2.66 -1 3 C-0.67 2.01 -0.34 1.02 0 0 Z " fill="#D0ECED" transform="translate(304,122)"/>
<path d="M0 0 C1.65 0.33 3.3 0.66 5 1 C4.06725891 2.12894876 3.12859878 3.25300876 2.1875 4.375 C1.66542969 5.00148438 1.14335937 5.62796875 0.60546875 6.2734375 C-1 8 -1 8 -4 10 C-3.42655063 7.13275314 -3.1385485 6.1385485 -1 4 C-0.3574765 1.93125966 -0.3574765 1.93125966 0 0 Z " fill="#2684A6" transform="translate(302,342)"/>
<path d="M0 0 C-0.33 0.99 -0.66 1.98 -1 3 C-3.64 3.33 -6.28 3.66 -9 4 C-9 4.99 -9 5.98 -9 7 C-11.97 6.505 -11.97 6.505 -15 6 C-14 4 -14 4 -11.34765625 2.9296875 C-10.26355469 2.58164062 -9.17945313 2.23359375 -8.0625 1.875 C-6.98097656 1.52179688 -5.89945312 1.16859375 -4.78515625 0.8046875 C-2 0 -2 0 0 0 Z " fill="#E8FBFA" transform="translate(323,298)"/>
<path d="M0 0 C1.22419163 3.93795909 0.48320272 6.16112237 -1 10 C-2.32 10 -3.64 10 -5 10 C-5.12375 10.639375 -5.2475 11.27875 -5.375 11.9375 C-5.58125 12.618125 -5.7875 13.29875 -6 14 C-6.99 14.495 -6.99 14.495 -8 15 C-6.51194289 9.19657726 -3.40902445 4.82409121 0 0 Z " fill="#519DB7" transform="translate(148,176)"/>
<path d="M0 0 C0.33 0 0.66 0 1 0 C1 4.29 1 8.58 1 13 C2.65 13 4.3 13 6 13 C4.71937515 14.7074998 3.38232443 16.37373596 2 18 C1.34 18 0.68 18 0 18 C0 12.06 0 6.12 0 0 Z " fill="#D7F4F9" transform="translate(287,158)"/>
<path d="M0 0 C0.99 0.33 1.98 0.66 3 1 C-1.95 7.93 -1.95 7.93 -7 15 C-7.33 13.68 -7.66 12.36 -8 11 C-7.34 11 -6.68 11 -6 11 C-5.67 9.68 -5.34 8.36 -5 7 C-4.34 7 -3.68 7 -3 7 C-2.67 5.68 -2.34 4.36 -2 3 C-1.34 3 -0.68 3 0 3 C0 2.01 0 1.02 0 0 Z " fill="#D3F0F4" transform="translate(154,164)"/>
<path d="M0 0 C4.82675589 2.41337795 7.69984002 5.86062408 11 10 C8.03 9.505 8.03 9.505 5 9 C5 7.68 5 6.36 5 5 C3.68 4.67 2.36 4.34 1 4 C0.67 2.68 0.34 1.36 0 0 Z " fill="#D3EFF3" transform="translate(324,160)"/>
<path d="M0 0 C0.66 1.65 1.32 3.3 2 5 C-0.97 6.65 -3.94 8.3 -7 10 C-7 9.01 -7 8.02 -7 7 C-5.68 6.34 -4.36 5.68 -3 5 C-3.33 3.68 -3.66 2.36 -4 1 C-2 0 -2 0 0 0 Z " fill="#EAF7F7" transform="translate(189,131)"/>
<path d="M0 0 C0.33 0 0.66 0 1 0 C1 5.94 1 11.88 1 18 C-3 17 -3 17 -5 14 C-3.35 14 -1.7 14 0 14 C0 9.38 0 4.76 0 0 Z " fill="#C3E7ED" transform="translate(225,158)"/>
<path d="M0 0 C0.33 1.32 0.66 2.64 1 4 C0.01 4.495 0.01 4.495 -1 5 C-5.20652198 7.80434799 -8.51503815 11.35938229 -12 15 C-12 12 -12 12 -9.375 9.08203125 C-8.25750594 7.98449244 -7.13214357 6.89492105 -6 5.8125 C-5.42765625 5.25369141 -4.8553125 4.69488281 -4.265625 4.11914062 C-2.85037212 2.73926907 -1.42602845 1.36873266 0 0 Z " fill="#93C6D5" transform="translate(332,317)"/>
<path d="M0 0 C4.13621084 3.3810038 7.81316569 6.66590534 11 11 C10.01 11.495 10.01 11.495 9 12 C8.67 11.34 8.34 10.68 8 10 C7.01 10.495 7.01 10.495 6 11 C5.67 9.35 5.34 7.7 5 6 C3.68 5.67 2.36 5.34 1 5 C0.67 3.35 0.34 1.7 0 0 Z " fill="#C1E4EB" transform="translate(176,314)"/>
<path d="M0 0 C1.79379098 0.44994757 3.58498928 0.91024143 5.375 1.375 C6.37273437 1.63023437 7.37046875 1.88546875 8.3984375 2.1484375 C11 3 11 3 13 5 C8.545 5.495 8.545 5.495 4 6 C4 5.34 4 4.68 4 4 C2.02 3.34 0.04 2.68 -2 2 C-1.34 1.34 -0.68 0.68 0 0 Z " fill="#D6EFF4" transform="translate(222,308)"/>
<path d="M0 0 C0.33 0 0.66 0 1 0 C0.52432875 7.25398658 -1.29466594 13.26812223 -4 20 C-4.33 20 -4.66 20 -5 20 C-4.88541307 18.56163249 -4.75790884 17.12429034 -4.625 15.6875 C-4.55539062 14.88699219 -4.48578125 14.08648437 -4.4140625 13.26171875 C-4 11 -4 11 -2 8 C-1.33841957 5.95415921 -1.33841957 5.95415921 -0.875 3.8125 C-0.58625 2.554375 -0.2975 1.29625 0 0 Z " fill="#B0DDE7" transform="translate(363,267)"/>
<path d="M0 0 C2.475 0.495 2.475 0.495 5 1 C4.27991594 5.60853797 2.68704061 9.67237409 1 14 C-0.3609623 11.2780754 0.29633752 9.8168043 0.9375 6.875 C1.13214844 5.96492187 1.32679688 5.05484375 1.52734375 4.1171875 C1.68332031 3.41851562 1.83929688 2.71984375 2 2 C1.34 2 0.68 2 0 2 C0 1.34 0 0.68 0 0 Z " fill="#33849F" transform="translate(314,175)"/>
<path d="M0 0 C0.66 0.99 1.32 1.98 2 3 C1.01 3.495 1.01 3.495 0 4 C-0.99 3.67 -1.98 3.34 -3 3 C-3 3.66 -3 4.32 -3 5 C-3.66 5 -4.32 5 -5 5 C-5.66 3.35 -6.32 1.7 -7 0 C-4.27584084 -1.36207958 -2.87220643 -0.86166193 0 0 Z " fill="#1780AA" transform="translate(310,169)"/>
<path d="M0 0 C4.51617599 -0.07654536 8.59085217 -0.10228696 13 1 C13 1.33 13 1.66 13 2 C9.37 1.67 5.74 1.34 2 1 C1.731875 1.969375 1.46375 2.93875 1.1875 3.9375 C0.795625 4.948125 0.40375 5.95875 0 7 C-0.99 7.33 -1.98 7.66 -3 8 C-1.125 2.25 -1.125 2.25 0 0 Z " fill="#2F84A3" transform="translate(264,154)"/>
<path d="M0 0 C7.48291572 6.15034169 7.48291572 6.15034169 10 10 C6.62537285 9.45276317 4.91765 8.9451 2 7 C0.8125 3.375 0.8125 3.375 0 0 Z " fill="#C2E7ED" transform="translate(190,328)"/>
<path d="M0 0 C0.33 0 0.66 0 1 0 C1 1.98 1 3.96 1 6 C0.34 6 -0.32 6 -1 6 C-1.66 8.97 -2.32 11.94 -3 15 C-4.32 15.33 -5.64 15.66 -7 16 C-5.89407668 12.95871087 -4.58262406 10.21327296 -2.9375 7.4375 C-1.4391943 4.77921569 -0.47198038 2.9498774 0 0 Z " fill="#ABD8E1" transform="translate(411,280)"/>
<path d="M0 0 C0.66 0 1.32 0 2 0 C2.33 1.32 2.66 2.64 3 4 C4.32 3.34 5.64 2.68 7 2 C5.125 5.875 5.125 5.875 4 7 C2.33382885 7.04063832 0.66611905 7.042721 -1 7 C-0.67 4.69 -0.34 2.38 0 0 Z " fill="#EEF9F7" transform="translate(290,164)"/>
<path d="M0 0 C1.65 0 3.3 0 5 0 C4.01 1.485 4.01 1.485 3 3 C2.34 3 1.68 3 1 3 C0.71125 3.639375 0.4225 4.27875 0.125 4.9375 C-1 7 -1 7 -3 8 C-3.33 6.35 -3.66 4.7 -4 3 C-3.01 3.33 -2.02 3.66 -1 4 C-0.67 2.68 -0.34 1.36 0 0 Z " fill="#2484A9" transform="translate(293,352)"/>
<path d="M0 0 C1.32 0 2.64 0 4 0 C4.66 2.97 5.32 5.94 6 9 C3.69 7.02 1.38 5.04 -1 3 C-0.67 2.01 -0.34 1.02 0 0 Z " fill="#14799C" transform="translate(208,342)"/>
<path d="M0 0 C7.48291572 6.15034169 7.48291572 6.15034169 10 10 C8.35 10 6.7 10 5 10 C4.896875 9.360625 4.79375 8.72125 4.6875 8.0625 C4.3471875 7.0415625 4.3471875 7.0415625 4 6 C3.01 5.67 2.02 5.34 1 5 C0.67 3.35 0.34 1.7 0 0 Z " fill="#BDE3EB" transform="translate(238,376)"/>
<path d="M0 0 C0 3.99191204 -1.25498212 5.18079244 -4 8 C-6.75 8.8125 -6.75 8.8125 -9 9 C-6.46636932 4.77728219 -4.43379675 2.21689838 0 0 Z " fill="#D5F1F4" transform="translate(321,330)"/>
<path d="M0 0 C1.79158489 -0.02696365 3.58328473 -0.04637917 5.375 -0.0625 C6.37273437 -0.07410156 7.37046875 -0.08570313 8.3984375 -0.09765625 C11 0 11 0 13 1 C13 1.66 13 2.32 13 3 C13.99 3 14.98 3 16 3 C16 3.66 16 4.32 16 5 C10.72 3.68 5.44 2.36 0 1 C0 0.67 0 0.34 0 0 Z " fill="#C8ECF1" transform="translate(389,215)"/>
<path d="M0 0 C0.66 0 1.32 0 2 0 C1.21450457 5.81266619 -0.40682459 11.36877624 -2 17 C-3.1727212 13.51487081 -2.82907069 10.95322227 -2.125 7.375 C-1.94195312 6.41335937 -1.75890625 5.45171875 -1.5703125 4.4609375 C-1 2 -1 2 0 0 Z " fill="#2B83A3" transform="translate(151,206)"/>
<path d="M0 0 C2.60608273 2.5162178 4.89381685 5.05134359 7 8 C6.67 8.66 6.34 9.32 6 10 C4.35 10 2.7 10 1 10 C0.67 6.7 0.34 3.4 0 0 Z " fill="#CAE8EE" transform="translate(341,176)"/>
<path d="M0 0 C0 3.01082766 -0.00485799 5.15673711 -1 8 C-4.0625 9.8125 -4.0625 9.8125 -7 11 C-5.5140084 6.40693504 -3.14985318 3.56430755 0 0 Z " fill="#B8DCE6" transform="translate(173,173)"/>
<path d="M0 0 C-2.90600261 1.25664978 -4.79604584 2 -8 2 C-8 3.32 -8 4.64 -8 6 C-10.475 5.01 -10.475 5.01 -13 4 C-13 3.34 -13 2.68 -13 2 C-11.5882217 1.46605821 -10.17029756 0.94834896 -8.75 0.4375 C-7.96109375 0.14746094 -7.1721875 -0.14257812 -6.359375 -0.44140625 C-3.80896548 -1.04522837 -2.44677771 -0.8473932 0 0 Z " fill="#ACDDE6" transform="translate(344,250)"/>
<path d="M0 0 C0.33 1.32 0.66 2.64 1 4 C-0.8125 6.5 -0.8125 6.5 -3 9 C-3.70885894 10.31138904 -4.39456452 11.63777017 -5 13 C-5.66 11.68 -6.32 10.36 -7 9 C-4.69 6.03 -2.38 3.06 0 0 Z " fill="#08789B" transform="translate(314,183)"/>
<path d="M0 0 C0.33 0.66 0.66 1.32 1 2 C-0.76227632 5.61730402 -2.64326421 7.80075931 -6 10 C-6.66 9.34 -7.32 8.68 -8 8 C-5.33333333 5.33333333 -2.66666667 2.66666667 0 0 Z " fill="#BCE5EB" transform="translate(403,296)"/>
<path d="M0 0 C1.0169313 2.65498232 1.13022151 3.69155375 0.00390625 6.359375 C-0.47175781 7.14828125 -0.94742187 7.9371875 -1.4375 8.75 C-1.91058594 9.54921875 -2.38367188 10.3484375 -2.87109375 11.171875 C-3.24363281 11.77515625 -3.61617188 12.3784375 -4 13 C-4.66 13 -5.32 13 -6 13 C-4.58707905 8.1725201 -2.57025846 4.2837641 0 0 Z " fill="#4994B1" transform="translate(357,290)"/>
<path d="M0 0 C0.99 0.495 0.99 0.495 2 1 C2 1.99 2 2.98 2 4 C3.32 4.33 4.64 4.66 6 5 C6 6.32 6 7.64 6 9 C3.53199953 7.84826645 1.95216435 6.95216435 0 5 C-0.125 2.375 -0.125 2.375 0 0 Z " fill="#388BA7" transform="translate(171,205)"/>
<path d="M0 0 C1 2 1 2 -0.0625 5.4375 C-1.4600707 8.57223801 -2.04571055 9.02778485 -5.1875 10.9375 C-6.115625 11.288125 -7.04375 11.63875 -8 12 C-6.59023295 8.96147295 -4.91129772 6.4060405 -2.875 3.75 C-2.06675781 2.69039062 -2.06675781 2.69039062 -1.2421875 1.609375 C-0.83226562 1.07828125 -0.42234375 0.5471875 0 0 Z " fill="#4090AD" transform="translate(157,164)"/>
<path d="M0 0 C2.25 0.125 2.25 0.125 5 1 C7.1875 3.9375 7.1875 3.9375 9 7 C9.66 7.66 10.32 8.32 11 9 C10.01 9 9.02 9 8 9 C7.7525 8.38125 7.505 7.7625 7.25 7.125 C5.76718549 4.60421533 4.59136042 4.2147002 2 3 C1.34 2.01 0.68 1.02 0 0 Z " fill="#23829F" transform="translate(220,357)"/>
<path d="M0 0 C0.33 0.99 0.66 1.98 1 3 C1.66 3.33 2.32 3.66 3 4 C2.67 4.66 2.34 5.32 2 6 C0.35 6 -1.3 6 -3 6 C-3 4.35 -3 2.7 -3 1 C-2.01 0.67 -1.02 0.34 0 0 Z " fill="#F9FAF5" transform="translate(176,316)"/>
<path d="M0 0 C2.64 0.33 5.28 0.66 8 1 C4.09101684 3.60598877 1.66919342 3.70354328 -3 4 C-3.66 3.34 -4.32 2.68 -5 2 C-3.35 1.67 -1.7 1.34 0 1 C0 0.67 0 0.34 0 0 Z " fill="#2C88A3" transform="translate(256,315)"/>
<path d="M0 0 C0.66 0.33 1.32 0.66 2 1 C2 1.99 2 2.98 2 4 C2.66 4.33 3.32 4.66 4 5 C3.34 5.66 2.68 6.32 2 7 C-0.125 6.625 -0.125 6.625 -2 6 C-2 4.68 -2 3.36 -2 2 C-1.34 2 -0.68 2 0 2 C0 1.34 0 0.68 0 0 Z " fill="#F9FAF4" transform="translate(108,299)"/>
<path d="M0 0 C1.41805831 0.28482368 2.83440379 0.57818144 4.25 0.875 C5.03890625 1.03742188 5.8278125 1.19984375 6.640625 1.3671875 C8.96831144 1.99150075 10.89031952 2.84838542 13 4 C11.04196493 4.05389087 9.08351091 4.09274217 7.125 4.125 C6.03445312 4.14820313 4.94390625 4.17140625 3.8203125 4.1953125 C1 4 1 4 -1 2 C-0.67 1.34 -0.34 0.68 0 0 Z " fill="#C5E9ED" transform="translate(176,293)"/>
<path d="M0 0 C-0.33 0.66 -0.66 1.32 -1 2 C-1.66 2 -2.32 2 -3 2 C-3.33 2.66 -3.66 3.32 -4 4 C-3.34 4 -2.68 4 -2 4 C-1.67 4.99 -1.34 5.98 -1 7 C-3.4375 6.1875 -3.4375 6.1875 -6 5 C-6.33 4.01 -6.66 3.02 -7 2 C-5.26578631 -1.46842738 -3.40984787 -1.13661596 0 0 Z " fill="#DFF4F1" transform="translate(342,252)"/>
<path d="M0 0 C0.99 0 1.98 0 3 0 C2.67 2.31 2.34 4.62 2 7 C0.68 7 -0.64 7 -2 7 C-1.125 1.125 -1.125 1.125 0 0 Z " fill="#2684A5" transform="translate(101,224)"/>
<path d="M0 0 C-2.64 0.66 -5.28 1.32 -8 2 C-8 2.66 -8 3.32 -8 4 C-10.64 4 -13.28 4 -16 4 C-13.41588269 2.27725513 -11.45097344 1.31104478 -8.5625 0.3125 C-7.41974609 -0.09548828 -7.41974609 -0.09548828 -6.25390625 -0.51171875 C-4 -1 -4 -1 0 0 Z " fill="#388DAA" transform="translate(227,123)"/>
<path d="M0 0 C2.97 0.495 2.97 0.495 6 1 C5.04578192 2.14926266 4.08647955 3.29430541 3.125 4.4375 C2.59132813 5.07558594 2.05765625 5.71367187 1.5078125 6.37109375 C0 8 0 8 -2 9 C-2 8.01 -2 7.02 -2 6 C-1.34 6 -0.68 6 0 6 C0 4.02 0 2.04 0 0 Z " fill="#2C85A7" transform="translate(309,334)"/>
<path d="M0 0 C3.3 0 6.6 0 10 0 C10 0.33 10 0.66 10 1 C7.03 1 4.06 1 1 1 C0.67 1.99 0.34 2.98 0 4 C-3.0625 5.1875 -3.0625 5.1875 -6 6 C-5.67 5.01 -5.34 4.02 -5 3 C-3.67696283 2.6278958 -2.34262065 2.29369827 -1 2 C-0.67 1.34 -0.34 0.68 0 0 Z " fill="#DDF5F8" transform="translate(330,309)"/>
<path d="M0 0 C4.10899581 1.12795963 8.07561214 2.33510818 12 4 C11.01 5.485 11.01 5.485 10 7 C9.34 7 8.68 7 8 7 C8 6.01 8 5.02 8 4 C6.865625 3.71125 5.73125 3.4225 4.5625 3.125 C3.386875 2.75375 2.21125 2.3825 1 2 C0.67 1.34 0.34 0.68 0 0 Z " fill="#C4EBF1" transform="translate(169,249)"/>
<path d="M0 0 C0.33 0 0.66 0 1 0 C0.91306859 1.79258558 0.80489496 3.58415144 0.6875 5.375 C0.62949219 6.37273437 0.57148438 7.37046875 0.51171875 8.3984375 C0.34285156 9.25695312 0.17398438 10.11546875 0 11 C-0.99 11.66 -1.98 12.32 -3 13 C-2.45144652 8.428721 -1.58255197 4.32564205 0 0 Z " fill="#378CAA" transform="translate(135,202)"/>
<path d="M0 0 C2.36425667 1.93439182 3.02125626 3.06943712 3.9375 6.0625 C4.7063828 9.11386081 4.7063828 9.11386081 7.125 10.375 C7.74375 10.58125 8.3625 10.7875 9 11 C7.02 11 5.04 11 3 11 C2.49632243 9.54293274 1.99717444 8.08429904 1.5 6.625 C1.2215625 5.81289062 0.943125 5.00078125 0.65625 4.1640625 C0 2 0 2 0 0 Z " fill="#D1EFF7" transform="translate(378,204)"/>
<path d="M0 0 C0.33 0.99 0.66 1.98 1 3 C-0.37263317 5.74526635 -2.40592747 6.44355648 -5 8 C-5.33 8.66 -5.66 9.32 -6 10 C-7.32 9.67 -8.64 9.34 -10 9 C-9.01 9 -8.02 9 -7 9 C-6.6596875 8.1646875 -6.6596875 8.1646875 -6.3125 7.3125 C-4.64103234 4.36753316 -2.44723648 2.31843456 0 0 Z " fill="#408EAE" transform="translate(296,168)"/>
<path d="M0 0 C1.32 0.33 2.64 0.66 4 1 C4 6.61 4 12.22 4 18 C3.67 18 3.34 18 3 18 C3 13.05 3 8.1 3 3 C2.01 2.67 1.02 2.34 0 2 C0 1.34 0 0.68 0 0 Z " fill="#09779B" transform="translate(281,158)"/>
<path d="M0 0 C4.75675676 6.27027027 4.75675676 6.27027027 6 10 C4.35 9.67 2.7 9.34 1 9 C0.67 6.03 0.34 3.06 0 0 Z " fill="#3E93AC" transform="translate(252,162)"/>
<path d="M0 0 C-0.99 1.485 -0.99 1.485 -2 3 C-3.9453125 3.29296875 -3.9453125 3.29296875 -6.125 3.1875 C-7.40375 3.125625 -8.6825 3.06375 -10 3 C-4.375 -1.3125 -4.375 -1.3125 0 0 Z " fill="#2F88A6" transform="translate(205,131)"/>
<path d="M0 0 C0.99 0.66 1.98 1.32 3 2 C2.01 3.485 2.01 3.485 1 5 C0.34 5 -0.32 5 -1 5 C-1.33 5.99 -1.66 6.98 -2 8 C-2.5534764 5.92446352 -3 4.15634036 -3 2 C-2.01 1.34 -1.02 0.68 0 0 Z " fill="#2082A6" transform="translate(267,378)"/>
<path d="M0 0 C0.99 0.66 1.98 1.32 3 2 C2.67 3.32 2.34 4.64 2 6 C0.68 6 -0.64 6 -2 6 C-2.33 5.01 -2.66 4.02 -3 3 C-2.01 2.01 -1.02 1.02 0 0 Z " fill="#EDF4F5" transform="translate(311,339)"/>
<path d="M0 0 C0.309375 0.639375 0.61875 1.27875 0.9375 1.9375 C1.8345163 3.93610821 1.8345163 3.93610821 3 5 C3.23363881 6.84891946 3.41303635 8.70488031 3.5625 10.5625 C3.64628906 11.57441406 3.73007813 12.58632813 3.81640625 13.62890625 C3.87699219 14.41136719 3.93757812 15.19382812 4 16 C0.64002241 10.96003362 -0.29282455 6.00290323 0 0 Z " fill="#549BB3" transform="translate(164,263)"/>
<path d="M0 0 C0.99 0.33 1.98 0.66 3 1 C3.33 3.31 3.66 5.62 4 8 C2.35 8.33 0.7 8.66 -1 9 C-0.67 8.34 -0.34 7.68 0 7 C0.66 7 1.32 7 2 7 C1.34 4.69 0.68 2.38 0 0 Z " fill="#D5F1F4" transform="translate(340,203)"/>
<path d="M0 0 C4.20626034 1.50223584 5.73900021 4.28550034 8 8 C6.35 7.67 4.7 7.34 3 7 C3 6.01 3 5.02 3 4 C2.34 4 1.68 4 1 4 C0.67 2.68 0.34 1.36 0 0 Z " fill="#BDE0E9" transform="translate(248,386)"/>
<path d="M0 0 C1.48206495 0.254496 2.96068615 0.52911762 4.4375 0.8125 C5.67306641 1.03873047 5.67306641 1.03873047 6.93359375 1.26953125 C7.95646484 1.63111328 7.95646484 1.63111328 9 2 C9.33 2.99 9.66 3.98 10 5 C2.90178571 3.25892857 2.90178571 3.25892857 0 0 Z " fill="#2581A1" transform="translate(228,329)"/>
<path d="M0 0 C-1.90401138 1.90401138 -3.33425686 2.93520439 -6.046875 3.19921875 C-8.03233273 3.1886578 -10.0169914 3.09915043 -12 3 C-8.52582963 0.68388642 -4.04642977 -2.02321489 0 0 Z " fill="#4699AE" transform="translate(310,321)"/>
<path d="M0 0 C2.64 0 5.28 0 8 0 C8.33 0.66 8.66 1.32 9 2 C9.99 2.66 10.98 3.32 12 4 C7.6822542 3.49202991 3.96697886 2.80317221 0 1 C0 0.67 0 0.34 0 0 Z " fill="#3790A9" transform="translate(239,313)"/>
<path d="M0 0 C1.98 0 3.96 0 6 0 C6.33 0.99 6.66 1.98 7 3 C4.69 3.33 2.38 3.66 0 4 C0 2.68 0 1.36 0 0 Z " fill="#F4FBFA" transform="translate(341,185)"/>
<path d="M0 0 C1.32 0.99 2.64 1.98 4 3 C0.25 6 0.25 6 -2 6 C-2.33 4.68 -2.66 3.36 -3 2 C-2.01 1.34 -1.02 0.68 0 0 Z " fill="#E8F3F2" transform="translate(200,166)"/>
<path d="M0 0 C0 0.66 0 1.32 0 2 C-2.75 4.1875 -2.75 4.1875 -6 6 C-8.203125 5.61328125 -8.203125 5.61328125 -10 5 C-8.71186658 4.16121545 -7.41936744 3.32913217 -6.125 2.5 C-5.40570313 2.0359375 -4.68640625 1.571875 -3.9453125 1.09375 C-2 0 -2 0 0 0 Z " fill="#4E9BB5" transform="translate(195,134)"/>
<path d="M0 0 C4.95 0.99 4.95 0.99 10 2 C10 2.99 10 3.98 10 5 C9.67 4.34 9.34 3.68 9 3 C6.03 3 3.06 3 0 3 C0 2.01 0 1.02 0 0 Z " fill="#1B82A1" transform="translate(297,126)"/>
<path d="M0 0 C0.33 0.66 0.66 1.32 1 2 C-2.03525486 4.02350324 -3.19426202 4.32124018 -6.6875 4.625 C-7.49574219 4.69976562 -8.30398438 4.77453125 -9.13671875 4.8515625 C-10.05904297 4.92503906 -10.05904297 4.92503906 -11 5 C-10 3 -10 3 -7.71484375 2.1484375 C-6.34005859 1.76558594 -6.34005859 1.76558594 -4.9375 1.375 C-4.01839844 1.11460937 -3.09929687 0.85421875 -2.15234375 0.5859375 C-1.44207031 0.39257812 -0.73179687 0.19921875 0 0 Z " fill="#ABD8E4" transform="translate(339,291)"/>
<path d="M0 0 C0.33 0 0.66 0 1 0 C1.36923077 6.52307692 1.36923077 6.52307692 -0.5 8.9375 C-0.995 9.288125 -1.49 9.63875 -2 10 C-2.25 3.375 -2.25 3.375 0 0 Z " fill="#0D7A99" transform="translate(411,271)"/>
<path d="M0 0 C2.3129482 2.3129482 2.49580975 3.47904875 3.125 6.625 C3.29257812 7.44226563 3.46015625 8.25953125 3.6328125 9.1015625 C3.81457031 10.04128906 3.81457031 10.04128906 4 11 C2 10 2 10 0 8 C-0.36933645 5.24627091 -0.18336678 2.79634339 0 0 Z " fill="#4194AD" transform="translate(374,195)"/>
<path d="M0 0 C0.66 0 1.32 0 2 0 C2.33 1.32 2.66 2.64 3 4 C1.35 5.32 -0.3 6.64 -2 8 C-2 7.01 -2 6.02 -2 5 C-1.34 5 -0.68 5 0 5 C0 4.34 0 3.68 0 3 C-0.66 2.67 -1.32 2.34 -2 2 C-1.34 1.34 -0.68 0.68 0 0 Z " fill="#1A7DA0" transform="translate(179,161)"/>
<path d="M0 0 C1.32 0 2.64 0 4 0 C2.60667426 3.36720387 1.0210714 4.9859524 -2 7 C-2 5.68 -2 4.36 -2 3 C-1.34 3 -0.68 3 0 3 C0 2.01 0 1.02 0 0 Z " fill="#D7F2F5" transform="translate(159,157)"/>
<path d="M0 0 C0 0.33 0 0.66 0 1 C-6.93 2.485 -6.93 2.485 -14 4 C-14 3.01 -14 2.02 -14 1 C-9.27616037 0.34843591 -4.78025483 -0.11950637 0 0 Z " fill="#C2E6EE" transform="translate(241,154)"/>
<path d="M0 0 C-2.31 1.65 -4.62 3.3 -7 5 C-7.33 3.68 -7.66 2.36 -8 1 C-3.375 -1.125 -3.375 -1.125 0 0 Z " fill="#D6F1F6" transform="translate(182,142)"/>
<path d="M0 0 C0.99 0.495 0.99 0.495 2 1 C2 1.66 2 2.32 2 3 C2.99 3 3.98 3 5 3 C5.33 3.99 5.66 4.98 6 6 C4.33388095 6.042721 2.66617115 6.04063832 1 6 C0 5 0 5 -0.0625 2.4375 C-0.041875 1.633125 -0.02125 0.82875 0 0 Z " fill="#FCFAF3" transform="translate(239,383)"/>
<path d="M0 0 C1.36125 0.12375 1.36125 0.12375 2.75 0.25 C0.68243723 3.0472908 -0.39440371 3.27692273 -3.9375 3.9375 C-5.030625 4.040625 -6.12375 4.14375 -7.25 4.25 C-4.83923194 1.28290085 -3.90322061 0.30024774 0 0 Z " fill="#318EA1" transform="translate(392.25,303.75)"/>
<path d="M0 0 C2.31 0 4.62 0 7 0 C7.33 0.99 7.66 1.98 8 3 C8.66 3.33 9.32 3.66 10 4 C5.78087253 3.5205537 3.20336822 2.83374881 0 0 Z " fill="#26849D" transform="translate(214,304)"/>
<path d="M0 0 C1.5 1.25 1.5 1.25 3 3 C3 4.32 3 5.64 3 7 C0.525 6.01 0.525 6.01 -2 5 C-2 4.01 -2 3.02 -2 2 C-1.34 2 -0.68 2 0 2 C0 1.34 0 0.68 0 0 Z " fill="#0B789C" transform="translate(176,200)"/>
<path d="M0 0 C3.63 0.66 7.26 1.32 11 2 C7.38795083 2.90301229 4.67121345 3 1 3 C0.01 3.33 -0.98 3.66 -2 4 C-1.34 2.68 -0.68 1.36 0 0 Z " fill="#4B9BAD" transform="translate(181,190)"/>
<path d="M0 0 C0.66 0 1.32 0 2 0 C2 0.99 2 1.98 2 3 C2.99 3.66 3.98 4.32 5 5 C2.69 5.66 0.38 6.32 -2 7 C-1.34 4.69 -0.68 2.38 0 0 Z " fill="#EDFBFA" transform="translate(320,177)"/>
<path d="M0 0 C5.37305699 -0.35233161 5.37305699 -0.35233161 8 0 C10 2 10 2 11 4 C10.443125 3.649375 9.88625 3.29875 9.3125 2.9375 C6.42840819 1.76827359 4.94809235 2.14660484 2 3 C1.01 3.495 1.01 3.495 0 4 C0 2.68 0 1.36 0 0 Z " fill="#C1E5EA" transform="translate(297,164)"/>
<path d="M0 0 C2.31 1.98 4.62 3.96 7 6 C6.67 6.66 6.34 7.32 6 8 C3.5625 7.375 3.5625 7.375 1 6 C0.1875 2.875 0.1875 2.875 0 0 Z " fill="#4096AA" transform="translate(349,158)"/>
<path d="M0 0 C1.98 1.65 3.96 3.3 6 5 C2.25 6.125 2.25 6.125 0 5 C0 3.35 0 1.7 0 0 Z " fill="#C2E8F0" transform="translate(226,364)"/>
<path d="M0 0 C2.64 0.33 5.28 0.66 8 1 C4.55549263 3.29633824 2.06187717 3.54016485 -2 4 C-1.34 2.68 -0.68 1.36 0 0 Z " fill="#E0F5FA" transform="translate(314,314)"/>
<path d="M0 0 C0.66 0.99 1.32 1.98 2 3 C-5.75 2.25 -5.75 2.25 -8 0 C-2.25 -1.125 -2.25 -1.125 0 0 Z " fill="#BDE1E8" transform="translate(197,315)"/>
<path d="M0 0 C0.33 1.32 0.66 2.64 1 4 C0.01 4.33 -0.98 4.66 -2 5 C-2 5.99 -2 6.98 -2 8 C-2.99 8 -3.98 8 -5 8 C-4.67 6.68 -4.34 5.36 -4 4 C-3.01 4 -2.02 4 -1 4 C-0.67 2.68 -0.34 1.36 0 0 Z " fill="#2080A1" transform="translate(354,299)"/>
<path d="M0 0 C1.32 0.33 2.64 0.66 4 1 C0.375 5.875 0.375 5.875 -3 7 C-3 6.34 -3 5.68 -3 5 C-2.34 5 -1.68 5 -1 5 C-0.67 3.35 -0.34 1.7 0 0 Z " fill="#2581A3" transform="translate(398,297)"/>
<path d="M0 0 C-0.5625 1.9375 -0.5625 1.9375 -2 4 C-5.625 4.75 -5.625 4.75 -9 5 C-2.87096774 0 -2.87096774 0 0 0 Z " fill="#277F9D" transform="translate(179,256)"/>
<path d="M0 0 C2.5 1.375 2.5 1.375 5 3 C5 3.66 5 4.32 5 5 C2.69 5 0.38 5 -2 5 C-1.34 4.67 -0.68 4.34 0 4 C0 2.68 0 1.36 0 0 Z " fill="#B4E8EE" transform="translate(180,218)"/>
<path d="M0 0 C1.9375 0.3125 1.9375 0.3125 4 1 C4.33 1.99 4.66 2.98 5 4 C3.02 4.33 1.04 4.66 -1 5 C-0.67 3.35 -0.34 1.7 0 0 Z " fill="#EEF7F7" transform="translate(165,220)"/>
<path d="M0 0 C2.97 1.98 2.97 1.98 6 4 C5.67 5.32 5.34 6.64 5 8 C0 2.25 0 2.25 0 0 Z " fill="#2C85A2" transform="translate(353,164)"/>
<path d="M0 0 C0.66 0.33 1.32 0.66 2 1 C-0.35380297 4.92300495 -2.64464931 5.83857315 -7 7 C-4.78071806 4.09197539 -3.07030857 2.04687238 0 0 Z " fill="#C4E8EF" transform="translate(192,156)"/>
<path d="M0 0 C2.875 0.1875 2.875 0.1875 6 1 C7.375 3.5625 7.375 3.5625 8 6 C4.63408134 4.55746343 2.48952921 2.66735273 0 0 Z " fill="#AAD7E2" transform="translate(331,142)"/>
<path d="M0 0 C2.31 0 4.62 0 7 0 C7.33 1.32 7.66 2.64 8 4 C2.25 2.25 2.25 2.25 0 0 Z " fill="#B7DFE8" transform="translate(312,131)"/>
<path d="M0 0 C0.66 0.33 1.32 0.66 2 1 C1.67 1.66 1.34 2.32 1 3 C0.34 3 -0.32 3 -1 3 C-1 3.66 -1 4.32 -1 5 C-3.31 4.67 -5.62 4.34 -8 4 C-6.66666667 3.33333333 -5.33333333 2.66666667 -4 2 C-3.29875 1.608125 -2.5975 1.21625 -1.875 0.8125 C-1.25625 0.544375 -0.6375 0.27625 0 0 Z " fill="#D2EDF1" transform="translate(393,305)"/>
<path d="M0 0 C2.50037734 2.17424117 3.43628586 3.73045798 4 7 C2.35 7 0.7 7 -1 7 C-0.34 6.67 0.32 6.34 1 6 C0.67 4.02 0.34 2.04 0 0 Z " fill="#38869D" transform="translate(160,301)"/>
<path d="M0 0 C1.32 0 2.64 0 4 0 C2.92598892 2.91517292 2.22189824 4.77810176 0 7 C0 4.69 0 2.38 0 0 Z " fill="#D9F5F7" transform="translate(348,299)"/>
<path d="M0 0 C1.98 0 3.96 0 6 0 C5.979375 0.78375 5.95875 1.5675 5.9375 2.375 C5.81315937 4.98114961 5.81315937 4.98114961 7 7 C3.00003714 5.66667905 2.16217663 3.5042173 0 0 Z " fill="#348AAB" transform="translate(110,297)"/>
<path d="M0 0 C0.66 0.99 1.32 1.98 2 3 C1.34 4.32 0.68 5.64 0 7 C-0.99 7 -1.98 7 -3 7 C-2.690625 6.401875 -2.38125 5.80375 -2.0625 5.1875 C-0.89790296 2.91043228 -0.89790296 2.91043228 0 0 Z " fill="#EAF8F3" transform="translate(166,276)"/>
<path d="M0 0 C3.3 0 6.6 0 10 0 C10 0.33 10 0.66 10 1 C6.37 1.66 2.74 2.32 -1 3 C-0.67 2.01 -0.34 1.02 0 0 Z " fill="#CCF0F4" transform="translate(113,215)"/>
<path d="M0 0 C0.99 0 1.98 0 3 0 C2.01 2.97 1.02 5.94 0 9 C-0.33 9 -0.66 9 -1 9 C-0.67 6.03 -0.34 3.06 0 0 Z " fill="#C4E8EF" transform="translate(137,191)"/>
<path d="M0 0 C1.98 0 3.96 0 6 0 C6.33 0.99 6.66 1.98 7 3 C5.02 3 3.04 3 1 3 C0.67 2.01 0.34 1.02 0 0 Z " fill="#DBF7F9" transform="translate(280,154)"/>
<path d="M0 0 C-2.31 1.65 -4.62 3.3 -7 5 C-6.67 3.35 -6.34 1.7 -6 0 C-3 -1 -3 -1 0 0 Z " fill="#21819C" transform="translate(200,151)"/>
<path d="M0 0 C2.0625 0.4375 2.0625 0.4375 4 1 C3.360625 1.268125 2.72125 1.53625 2.0625 1.8125 C-0.33131686 2.88667752 -0.33131686 2.88667752 -1 6 C-1.66 6 -2.32 6 -3 6 C-1.125 1.125 -1.125 1.125 0 0 Z " fill="#CBEBEE" transform="translate(167,150)"/>
<path d="M0 0 C-3.20336822 2.83374881 -5.78087253 3.5205537 -10 4 C-9.67 3.01 -9.34 2.02 -9 1 C-6.03421164 -0.16513114 -3.15436364 -0.08762121 0 0 Z " fill="#BEE3ED" transform="translate(214,125)"/>
<path d="M0 0 C0.33 1.32 0.66 2.64 1 4 C-0.875 5.0625 -0.875 5.0625 -3 6 C-3.66 5.67 -4.32 5.34 -5 5 C-3.35 3.35 -1.7 1.7 0 0 Z " fill="#DDF3F7" transform="translate(263,387)"/>
<path d="M0 0 C0.66 0.33 1.32 0.66 2 1 C-0.46153846 5.8 -0.46153846 5.8 -3.1875 6.8125 C-3.785625 6.874375 -4.38375 6.93625 -5 7 C-4.67 6.01 -4.34 5.02 -4 4 C-3.34 4 -2.68 4 -2 4 C-2 3.34 -2 2.68 -2 2 C-1.34 2 -0.68 2 0 2 C0 1.34 0 0.68 0 0 Z " fill="#AFDAE6" transform="translate(283,366)"/>
<path d="M0 0 C0.33 0.66 0.66 1.32 1 2 C0.67 2.99 0.34 3.98 0 5 C-3.0625 6.1875 -3.0625 6.1875 -6 7 C-4.02 4.69 -2.04 2.38 0 0 Z " fill="#D0F0F4" transform="translate(305,345)"/>
<path d="M0 0 C-1.65 0.33 -3.3 0.66 -5 1 C-5 1.66 -5 2.32 -5 3 C-6.65 3 -8.3 3 -10 3 C-6.81859267 -0.48439851 -4.56758339 -1.41752588 0 0 Z " fill="#D7F3F6" transform="translate(281,313)"/>
<path d="M0 0 C1.65 0.33 3.3 0.66 5 1 C1.81237635 3.12508244 -0.26512223 3.5020163 -4 4 C-4 3.34 -4 2.68 -4 2 C-2.68 2 -1.36 2 0 2 C0 1.34 0 0.68 0 0 Z " fill="#3189A7" transform="translate(287,306)"/>
<path d="M0 0 C2.52259061 1.97420135 2.9929808 2.96745642 3.6875 6.1875 C3.790625 7.115625 3.89375 8.04375 4 9 C0 4.5 0 4.5 0 0 Z " fill="#509CB5" transform="translate(412,226)"/>
<path d="M0 0 C0.99 0 1.98 0 3 0 C3 1.32 3 2.64 3 4 C3.66 4.33 4.32 4.66 5 5 C4.01 6.485 4.01 6.485 3 8 C0 2.25 0 2.25 0 0 Z " fill="#2786A6" transform="translate(195,181)"/>
<path d="M0 0 C1.231394 2.46278801 1.07159196 4.2795055 1 7 C-0.32 6.67 -1.64 6.34 -3 6 C-2.42655063 3.13275314 -2.1385485 2.1385485 0 0 Z " fill="#10769E" transform="translate(152,173)"/>
<path d="M0 0 C0.99 0 1.98 0 3 0 C3.33 0.99 3.66 1.98 4 3 C5.49985609 4.66710346 5.49985609 4.66710346 7 6 C4 6 4 6 1.8125 4.125 C0 2 0 2 0 0 Z " fill="#2686A6" transform="translate(336,169)"/>
<path d="M0 0 C1.98 0 3.96 0 6 0 C6 1.65 6 3.3 6 5 C5.34 4.67 4.68 4.34 4 4 C4 3.34 4 2.68 4 2 C2.68 2 1.36 2 0 2 C0 1.34 0 0.68 0 0 Z " fill="#C5E6EA" transform="translate(245,152)"/>
</svg>
