<?xml version="1.0" encoding="UTF-8"?>
<svg version="1.1" xmlns="http://www.w3.org/2000/svg" width="512" height="512">
<path d="M0 0 C168.96 0 337.92 0 512 0 C512 168.96 512 337.92 512 512 C343.04 512 174.08 512 0 512 C0 343.04 0 174.08 0 0 Z " fill="#FEFEFE" transform="translate(0,0)"/>
<path d="M0 0 C2.94051586 3.49741651 5.25282247 7.01166175 7.43359375 11.0234375 C7.90469574 11.88443054 7.90469574 11.88443054 8.38531494 12.76281738 C9.05755812 13.99242282 9.72767934 15.22319037 10.39584351 16.45501709 C12.17581821 19.7358693 13.97201308 23.00783985 15.765625 26.28125 C16.30620796 27.26942215 16.30620796 27.26942215 16.85771179 28.27755737 C20.08482873 34.17149902 23.37218043 40.03021439 26.6875 45.875 C27.21214844 46.80054688 27.73679687 47.72609375 28.27734375 48.6796875 C29.3270104 50.53021093 30.37713622 52.380474 31.42773438 54.23046875 C34.10272741 58.94244405 36.77043061 63.65853647 39.4375 68.375 C39.96633789 69.30965088 40.49517578 70.24430176 41.04003906 71.20727539 C43.94616389 76.34830678 46.83940765 81.49626001 49.71875 86.65234375 C50.64989624 88.31934326 50.64989624 88.31934326 51.59985352 90.02001953 C52.7867043 92.14648024 53.97218672 94.27370553 55.15600586 96.40185547 C55.97403687 97.86776123 55.97403687 97.86776123 56.80859375 99.36328125 C57.33308105 100.30510254 57.85756836 101.24692383 58.39794922 102.21728516 C60.48074985 105.83504828 62.72621003 109.34267262 65.01586914 112.83276367 C66 115 66 115 65.85424805 116.91210938 C64.71113031 119.70603417 63.32651863 122.28642477 61.859375 124.92578125 C61.38197372 125.78876076 61.38197372 125.78876076 60.89492798 126.66917419 C59.85119708 128.55286625 58.80074238 130.43271138 57.75 132.3125 C57.01873465 133.62840944 56.28778088 134.94449207 55.55712891 136.26074219 C50.15676818 145.97710939 44.69626925 155.65950959 39.2109375 165.328125 C35.78390143 171.37236216 32.39077635 177.43536764 29 183.5 C24.39172765 191.73866367 19.76961468 199.96926414 15.125 208.1875 C14.62613281 209.07050781 14.12726563 209.95351563 13.61328125 210.86328125 C9.43171661 218.25549315 5.2138054 225.62584056 1 233 C-42.89 233 -86.78 233 -132 233 C-136.95 224.09 -141.9 215.18 -147 206 C-154.33431912 192.87542894 -161.68644217 179.76214702 -169.09716797 166.68066406 C-171.95077781 161.63977833 -174.78986138 156.5912969 -177.609375 151.53125 C-178.8228353 149.35412132 -180.0363763 147.17703761 -181.25 145 C-181.83410645 143.95191162 -182.41821289 142.90382324 -183.02001953 141.82397461 C-186.71942832 135.21234339 -190.50628388 128.66722029 -194.51269531 122.23632812 C-197 118.20377038 -197 118.20377038 -197 116 C-153.44 116 -109.88 116 -65 116 C-64.34 114.35 -63.68 112.7 -63 111 C-62.03330069 109.14653342 -61.03577941 107.30896561 -60.015625 105.484375 C-59.4172583 104.41074707 -58.8188916 103.33711914 -58.20239258 102.23095703 C-57.23595825 100.5078833 -57.23595825 100.5078833 -56.25 98.75 C-55.57487211 97.54163898 -54.89998976 96.33314075 -54.2253418 95.12451172 C-52.83540509 92.63573744 -51.44362327 90.14800874 -50.05029297 87.66113281 C-48.13503038 84.24244366 -46.22521434 80.82073533 -44.31640625 77.3984375 C-38.45030697 66.89010138 -32.53825231 56.41024557 -26.54931641 45.97143555 C-21.96709721 37.97275641 -17.46657252 29.92900711 -12.98242188 21.875 C-1.76429583 1.76429583 -1.76429583 1.76429583 0 0 Z " fill="#1C1C1C" transform="translate(322,227)"/>
<path d="M0 0 C3.67788565 0.08158487 7.35592364 0.08892729 11.03457451 0.1043303 C17.99128686 0.1446475 24.94532545 0.25119111 31.90086317 0.38187367 C39.82313063 0.52746971 47.74552975 0.59872702 55.66880322 0.66391432 C71.95883387 0.79959447 88.2461793 1.02806447 104.5342083 1.31812119 C104.95423622 2.07515336 105.37426414 2.83218553 105.80702019 3.61215806 C107.39847916 6.48002163 108.99032352 9.34767063 110.58241081 12.2151854 C111.26523829 13.4452051 111.94792168 14.67530479 112.63044548 15.90549302 C117.08640492 23.93667567 121.56903827 31.95207516 126.0967083 39.94312119 C126.65176048 40.92282884 127.20681267 41.90253648 127.77868462 42.91193223 C128.52585243 44.23061296 128.52585243 44.23061296 129.28811455 45.57593369 C132.72391351 51.64525323 136.13037595 57.73083188 139.5342083 63.81812119 C144.09612507 71.97619196 148.67880505 80.12202226 153.2842083 88.25562119 C157.32195712 95.39202196 161.35090511 102.53313234 165.3467083 109.69312119 C165.77371025 110.45487657 166.2007122 111.21663194 166.64065361 112.0014708 C169.5342083 117.20124446 169.5342083 117.20124446 169.5342083 118.31812119 C168.53809217 118.29681531 168.53809217 118.29681531 167.52185249 118.27507901 C151.31967326 117.9358334 135.12049929 117.71414435 118.91511726 117.62121701 C111.07766332 117.57347645 103.24434041 117.48683537 95.40872002 117.30664659 C88.5740404 117.14957638 81.74313846 117.06749469 74.90658736 117.07322985 C71.28864139 117.07370264 67.6795827 117.03818053 64.06363487 116.91259408 C49.20077584 115.84446867 49.20077584 115.84446867 36.16407204 121.38165498 C32.18576297 126.39501661 29.68742283 131.87586079 27.48121738 137.84898591 C26.22678975 141.11965307 24.5942756 143.95958064 22.7920208 146.95874619 C21.74680473 148.82800964 20.70252082 150.69779464 19.6592083 152.56812119 C18.47562384 154.68531389 17.29202981 156.80250123 16.10842705 158.91968369 C15.22356621 160.50378037 15.22356621 160.50378037 14.32082939 162.11987901 C0.84012953 186.25176861 -12.72527472 210.33310642 -26.4657917 234.31812119 C-27.1257917 234.31812119 -27.7857917 234.31812119 -28.4657917 234.31812119 C-28.85210762 233.62065782 -29.23842354 232.92319444 -29.636446 232.2045958 C-36.91447561 219.07018624 -44.21566651 205.95064259 -51.61886787 192.88623643 C-55.59008635 185.87588813 -59.53350069 178.8503719 -63.4657917 171.81812119 C-67.50188525 164.601447 -71.54673637 157.38997995 -75.61764717 150.19287705 C-76.7111971 148.25866664 -77.80272191 146.32330965 -78.89206123 144.38672471 C-81.32054609 140.0747478 -83.77103938 135.78282708 -86.31344795 131.53687119 C-86.743592 130.80734239 -87.17373604 130.07781358 -87.61691475 129.32617784 C-88.40270972 127.99676887 -89.20134752 126.67482143 -90.01584053 125.36279893 C-92.47438733 121.16826198 -92.60338548 118.97326041 -91.4657917 114.31812119 C-90.19748116 111.55518174 -90.19748116 111.55518174 -88.57907295 108.70483994 C-87.97756416 107.6345958 -87.37605537 106.56435166 -86.75631905 105.46167588 C-86.10357002 104.32117784 -85.450821 103.18067979 -84.7782917 102.00562119 C-84.09724281 100.80071064 -83.4170806 99.59529851 -82.73776436 98.38941026 C-81.3387744 95.90857582 -79.9351703 93.43044309 -78.52780342 90.95435166 C-76.01812442 86.53515657 -73.54237477 82.09718296 -71.0661335 77.65918565 C-65.5370741 67.75350841 -59.96325516 57.87318835 -54.370821 48.00317979 C-51.50318702 42.93823381 -48.65177845 37.86485313 -45.82126045 32.77905869 C-45.20895576 31.68013291 -44.59665108 30.58120713 -43.9657917 29.44898057 C-42.80316417 27.36051064 -41.64280384 25.27077603 -40.48532295 23.17944932 C-39.42489451 21.27549826 -38.33271441 19.38876519 -37.20448494 17.52419114 C-35.36355223 14.38139017 -35.36355223 14.38139017 -34.42765999 10.93993211 C-28.80124837 -3.60780426 -13.20233115 -0.34230854 0 0 Z " fill="#353535" transform="translate(217.4657917022705,49.68187880516052)"/>
<path d="M0 0 C43.56 0 87.12 0 132 0 C136.95 8.91 141.9 17.82 147 27 C151.8724687 35.6314424 151.8724687 35.6314424 156.75390625 44.2578125 C160.18970521 50.32713203 163.59616765 56.41271069 167 62.5 C171.56191677 70.65807077 176.14459675 78.80390107 180.75 86.9375 C184.78774883 94.07390076 188.81669681 101.21501114 192.8125 108.375 C193.23950195 109.13675537 193.66650391 109.89851074 194.10644531 110.68334961 C197 115.88312326 197 115.88312326 197 117 C153.77 117 110.54 117 66 117 C70.23122365 108.5375527 74.42985567 100.2451487 79.125 92.0625 C80.26439914 90.06124131 81.40371984 88.05993796 82.54296875 86.05859375 C83.11708496 85.05296387 83.69120117 84.04733398 84.28271484 83.01123047 C87.01347748 78.22288439 89.72561908 73.42405701 92.4375 68.625 C92.97141357 67.68140625 93.50532715 66.7378125 94.05541992 65.765625 C96.86382495 60.798298 99.65957025 55.82428373 102.4375 50.83984375 C108.9920859 39.08170803 115.63173144 27.38508416 122.47045898 15.78930664 C123.02032471 14.85465576 123.57019043 13.92000488 124.13671875 12.95703125 C124.61842529 12.14210205 125.10013184 11.32717285 125.59643555 10.48754883 C127.16270385 7.71163862 128.57459663 4.85080675 130 2 C65.65 1.505 65.65 1.505 0 1 C0 0.67 0 0.34 0 0 Z " fill="#666666" transform="translate(190,51)"/>
<path d="M0 0 C43.23 0 86.46 0 131 0 C129.65691735 4.02924796 128.71546863 6.80698758 126.671875 10.30078125 C126.2092627 11.09967773 125.74665039 11.89857422 125.27001953 12.72167969 C124.76841309 13.57665039 124.26680664 14.43162109 123.75 15.3125 C122.65781091 17.19861502 121.56670991 19.08536044 120.4765625 20.97265625 C119.90583008 21.9589502 119.33509766 22.94524414 118.74707031 23.96142578 C115.83060514 29.03385808 112.9777925 34.14156698 110.125 39.25 C109.24968628 40.81560669 109.24968628 40.81560669 108.35668945 42.4128418 C107.16633972 44.54229774 105.97631802 46.67193709 104.78662109 48.80175781 C77.38418851 97.85503287 77.38418851 97.85503287 66 117 C61.70825523 112.21305392 58.9837226 106.64304046 56 101 C51.78783215 93.12703867 47.51885834 85.30004515 43.0625 77.5625 C38.70198739 69.98464789 34.39184991 62.38102874 30.125 54.75 C29.54347168 53.71061279 28.96194336 52.67122559 28.36279297 51.6003418 C25.34172306 46.19761047 22.32680872 40.7914943 19.31640625 35.3828125 C18.1072224 33.21328992 16.89759413 31.04401498 15.6875 28.875 C15.10742188 27.83496826 14.52734375 26.79493652 13.9296875 25.72338867 C10.2456957 19.14626201 6.47341792 12.63487993 2.48706055 6.23583984 C0 2.20390549 0 2.20390549 0 0 Z " fill="#666666" transform="translate(125,343)"/>
<path d="M0 0 C2.80076534 3.35120038 5.08194465 6.68791269 7.1796875 10.515625 C8.06744873 12.1258252 8.06744873 12.1258252 8.97314453 13.76855469 C9.60075684 14.91743164 10.22836914 16.06630859 10.875 17.25 C11.54094044 18.46027115 12.20745372 19.67022726 12.87451172 20.87988281 C13.9025513 22.74432957 14.93023984 24.60896038 15.95620728 26.47454834 C19.31570225 32.5832458 22.7154368 38.66911564 26.125 44.75 C26.98810791 46.29059082 26.98810791 46.29059082 27.86865234 47.86230469 C32.25658891 55.6886328 36.66876428 63.50111981 41.09057617 71.30834961 C43.97951593 76.41256909 46.85531315 81.52376956 49.71484375 86.64453125 C50.33617187 87.75699219 50.9575 88.86945313 51.59765625 90.015625 C52.78526728 92.14374327 53.97156161 94.27259712 55.15625 96.40234375 C58.28277305 102.0049548 61.48735462 107.54566881 64.82055664 113.02807617 C66 115 66 115 67 117 C23.44 117 -20.12 117 -65 117 C-60.78856681 108.57713361 -56.61401219 100.32831537 -51.9375 92.1875 C-50.80026556 90.19170001 -49.66356575 88.19559531 -48.52734375 86.19921875 C-47.94710449 85.18134277 -47.36686523 84.1634668 -46.76904297 83.11474609 C-43.82086968 77.92391048 -40.91147487 72.71147923 -38 67.5 C-32.99641542 58.55214519 -27.96516615 49.62045975 -22.91430664 40.69921875 C-18.13895283 32.25899065 -13.39919518 23.79901533 -8.66796875 15.33398438 C-5.80236975 10.20871327 -2.92486748 5.09170085 0 0 Z " fill="#383838" transform="translate(256,343)"/>
<path d="M0 0 C2.94051586 3.49741651 5.25282247 7.01166175 7.43359375 11.0234375 C7.90469574 11.88443054 7.90469574 11.88443054 8.38531494 12.76281738 C9.05755812 13.99242282 9.72767934 15.22319037 10.39584351 16.45501709 C12.17581821 19.7358693 13.97201308 23.00783985 15.765625 26.28125 C16.12601364 26.94003143 16.48640228 27.59881287 16.85771179 28.27755737 C20.08482873 34.17149902 23.37218043 40.03021439 26.6875 45.875 C27.21214844 46.80054688 27.73679687 47.72609375 28.27734375 48.6796875 C29.3270104 50.53021093 30.37713622 52.380474 31.42773438 54.23046875 C34.10272741 58.94244405 36.77043061 63.65853647 39.4375 68.375 C39.96633789 69.30965088 40.49517578 70.24430176 41.04003906 71.20727539 C43.94616389 76.34830678 46.83940765 81.49626001 49.71875 86.65234375 C50.33951416 87.76367676 50.96027832 88.87500977 51.59985352 90.02001953 C52.7867043 92.14648024 53.97218672 94.27370553 55.15600586 96.40185547 C55.70135986 97.37912598 56.24671387 98.35639648 56.80859375 99.36328125 C57.59532471 100.77407959 57.59532471 100.77407959 58.39794922 102.21337891 C60.49252835 105.85670811 62.73470228 109.40130575 65.01586914 112.93041992 C66 115 66 115 65 118 C65 117.34 65 116.68 65 116 C22.1 116 -20.8 116 -65 116 C-63.49532359 112.23830897 -61.97575423 108.99015153 -60.015625 105.484375 C-59.4172583 104.41074707 -58.8188916 103.33711914 -58.20239258 102.23095703 C-57.55810303 101.08224121 -56.91381348 99.93352539 -56.25 98.75 C-55.57487211 97.54163898 -54.89998976 96.33314075 -54.2253418 95.12451172 C-52.83540509 92.63573744 -51.44362327 90.14800874 -50.05029297 87.66113281 C-48.13503038 84.24244366 -46.22521434 80.82073533 -44.31640625 77.3984375 C-38.45030697 66.89010138 -32.53825231 56.41024557 -26.54931641 45.97143555 C-21.96709721 37.97275641 -17.46657252 29.92900711 -12.98242188 21.875 C-1.76429583 1.76429583 -1.76429583 1.76429583 0 0 Z " fill="#333333" transform="translate(322,227)"/>
<path d="M0 0 C0.66 0 1.32 0 2 0 C2.36125977 0.64735107 2.72251953 1.29470215 3.09472656 1.96166992 C9.35113341 13.16727795 15.61407784 24.36754944 22 35.5 C29.99873576 49.45038272 37.82085895 63.49995234 45.6484375 77.546875 C46.84861464 79.69810845 48.0491308 81.8491528 49.25 84 C49.8275 85.03487549 50.405 86.06975098 51 87.13598633 C54.94171411 94.17516328 58.97498005 101.15346099 63.15722656 108.05273438 C66 112.78988364 66 112.78988364 66 115 C23.1 115 -19.8 115 -64 115 C-62.57306996 110.71920989 -61.39461681 107.62537223 -59.234375 103.82421875 C-58.68128662 102.84437012 -58.12819824 101.86452148 -57.55834961 100.85498047 C-56.96159424 99.80971191 -56.36483887 98.76444336 -55.75 97.6875 C-54.47510463 95.43368186 -53.20036951 93.17977308 -51.92578125 90.92578125 C-51.26651811 89.76378964 -50.6071756 88.60184305 -49.94775391 87.43994141 C-46.92255848 82.09712322 -43.93165803 76.73525055 -40.9375 71.375 C-35.95207046 62.46600689 -30.94104738 53.57181594 -25.9074707 44.68994141 C-23.02576205 39.60075174 -20.16195639 34.50230919 -17.3203125 29.390625 C-16.70349609 28.28267578 -16.08667969 27.17472656 -15.45117188 26.03320312 C-14.27515775 23.91889323 -13.10177111 21.80311865 -11.93164062 19.68554688 C-3.78948716 5.05677888 -3.78948716 5.05677888 0 0 Z " fill="#1C1C1C" transform="translate(189,53)"/>
</svg>
