<?xml version="1.0" encoding="UTF-8"?>
<svg version="1.1" xmlns="http://www.w3.org/2000/svg" width="512" height="512">
<path d="M0 0 C168.96 0 337.92 0 512 0 C512 168.96 512 337.92 512 512 C343.04 512 174.08 512 0 512 C0 343.04 0 174.08 0 0 Z " fill="#FEFEFE" transform="translate(0,0)"/>
<path d="M0 0 C1.7711712 -0.00679667 1.7711712 -0.00679667 3.57812363 -0.01373065 C6.83358103 -0.02415488 10.08889849 -0.02570841 13.34436715 -0.02334189 C16.8638764 -0.02293199 20.38335331 -0.03398921 23.90284729 -0.04345703 C30.78913182 -0.06002876 37.67538209 -0.06556479 44.5616849 -0.06668179 C50.16064585 -0.06763383 55.75959555 -0.07175188 61.35855293 -0.07808304 C77.24727439 -0.09568293 93.13596888 -0.10492356 109.02470016 -0.10342209 C110.30798895 -0.10330222 110.30798895 -0.10330222 111.61720276 -0.10317993 C112.47377781 -0.10309817 113.33035286 -0.10301641 114.21288473 -0.10293217 C128.09893558 -0.10211903 141.98487803 -0.12126703 155.87089752 -0.14945666 C170.14329508 -0.17820123 184.41563979 -0.19199618 198.68806702 -0.19026911 C206.695294 -0.18960588 214.70240723 -0.19506905 222.70960808 -0.21662521 C229.5254951 -0.23485747 236.34121678 -0.23916742 243.15711766 -0.22560637 C246.63186706 -0.21908771 250.10629943 -0.21891923 253.58101845 -0.23631287 C257.35426211 -0.25175711 261.12667644 -0.24246112 264.89990234 -0.22705078 C265.98911891 -0.23733791 267.07833547 -0.24762503 268.2005586 -0.25822389 C277.36588001 -0.17566385 285.32041533 2.03287008 292.26344299 8.26742554 C293.03172424 8.92742554 293.80000549 9.58742554 294.59156799 10.26742554 C302.45221192 20.00448124 303.91084247 29.4334889 303.88014221 41.55966187 C303.89759201 43.2116974 303.91742663 44.86370911 303.93939018 46.5156908 C303.99162915 51.11037132 304.00415953 55.70441242 304.00821209 60.29935884 C304.01540731 64.38200099 304.04188966 68.4644536 304.06704843 72.54701811 C304.15105303 86.61662123 304.15508211 100.68594373 304.1477685 114.75574851 C304.14518999 121.29299186 304.14759686 127.83023399 304.14915466 134.36747742 C304.15126987 146.00763738 304.14802285 157.64779027 304.14289533 169.287949 C304.1384102 179.79519036 304.13922403 190.30242069 304.14381409 200.80966187 C304.14918747 213.11522343 304.15114753 225.42077801 304.14820182 237.72634059 C304.14665403 244.2036327 304.14640428 250.68091724 304.14973831 257.15820885 C304.15264904 263.23334122 304.15058315 269.30845291 304.14484406 275.38358307 C304.14353463 277.59612557 304.14387919 279.80866985 304.14610672 282.02121162 C304.15548616 292.2920255 304.10256948 302.5550599 303.66160583 312.8177948 C303.63543847 313.57794882 303.60927111 314.33810283 303.5823108 315.12129182 C303.11296183 324.30538898 299.40247376 331.32911474 292.82594299 337.70492554 C284.51408954 344.23160727 276.51587012 347.02728685 266.01086426 346.87542725 C264.43403936 346.88289378 264.43403936 346.88289378 262.8253594 346.89051116 C259.33155388 346.90101836 255.83894722 346.87600764 252.3452301 346.85092163 C249.82737622 346.85114855 247.30952174 346.85356653 244.79167175 346.85800171 C238.67415692 346.86310847 232.55708045 346.84520706 226.43964123 346.81683843 C219.28153049 346.78480357 212.12348065 346.78057716 204.96530861 346.7776465 C192.1568128 346.7715868 179.34847531 346.74251915 166.54005432 346.69955444 C154.18848872 346.65815945 141.83699689 346.62967309 129.48536682 346.61752319 C128.72787464 346.61677498 127.97038246 346.61602676 127.18993597 346.61525588 C124.14252031 346.61227957 121.09510461 346.60934233 118.04768884 346.60646959 C104.75640394 346.59361088 91.46513456 346.57000748 78.17386809 346.54483134 C76.04993991 346.54088007 73.92601144 346.53715373 71.80208278 346.53347731 C54.23335273 346.5025588 36.66529032 346.43748764 19.09708166 346.29125118 C16.16825402 346.26862168 13.23945756 346.25211211 10.31058121 346.23734283 C6.21639988 346.21444272 2.12337247 346.16721515 -1.97024047 346.09550786 C-4.00639425 346.06446504 -6.04285478 346.05594904 -8.07923222 346.04868126 C-17.57280431 345.82781386 -25.6036067 343.46371679 -32.36155701 336.45492554 C-35.83170878 332.74690046 -38.0959016 328.95662533 -39.98655701 324.26742554 C-40.49826863 323.12012472 -40.49826863 323.12012472 -41.02031785 321.94964612 C-42.0041751 319.21851878 -42.23620492 317.27964304 -42.23544598 314.39486504 C-42.24004477 313.43520989 -42.24464357 312.47555475 -42.24938172 311.48681915 C-42.24423816 310.4404419 -42.23909459 309.39406465 -42.23379517 308.315979 C-42.23620958 307.19805218 -42.238624 306.08012535 -42.24111158 304.92832196 C-42.24675703 301.17394719 -42.23807854 297.41974194 -42.22947693 293.66537476 C-42.23054969 290.97628337 -42.23240811 288.28720305 -42.23522949 285.59811401 C-42.24027217 279.04379916 -42.23462709 272.48953477 -42.22537919 265.93522619 C-42.21498064 258.28899448 -42.21506586 250.6427736 -42.21555177 242.99653615 C-42.2160526 229.33568268 -42.20688979 215.67485259 -42.19236755 202.01400757 C-42.17831857 188.79134698 -42.17119515 175.56870698 -42.17185974 162.34603882 C-42.1718997 161.53368432 -42.17193965 160.72132982 -42.17198082 159.88435851 C-42.17202118 159.07334646 -42.17206153 158.26233442 -42.17210311 157.42674625 C-42.17279597 142.34396174 -42.1668806 127.26118591 -42.15794989 112.17840423 C-42.15495065 106.86478421 -42.15387232 101.55116579 -42.15341759 96.23754501 C-42.15272995 89.73953086 -42.14819075 83.24153132 -42.13908478 76.74352334 C-42.13451709 73.43589008 -42.13194357 70.12829069 -42.13267899 66.82065201 C-42.13426288 55.35020542 -42.12745907 43.88255593 -41.62200928 32.42126465 C-41.59433068 31.66903307 -41.56665209 30.91680149 -41.53813475 30.14177501 C-41.08250957 21.57374103 -37.5079944 15.59907385 -31.98655701 9.26742554 C-29.50608826 7.31820679 -29.50608826 7.31820679 -26.79905701 5.57992554 C-25.91862732 4.99855835 -25.03819763 4.41719116 -24.13108826 3.81820679 C-16.43851326 0.02447726 -8.43192173 -0.0239273 0 0 Z " fill="#000000" transform="translate(124.98655700683594,82.73257446289063)"/>
<path d="M0 0 C1.18215088 0.01385742 2.36430176 0.02771484 3.58227539 0.04199219 C6.90985582 0.09060683 10.23568201 0.1648062 13.5625 0.25 C14.35527344 0.26546875 15.14804687 0.2809375 15.96484375 0.296875 C24.74247229 0.49904687 30.92170213 2.36973404 39.5625 5.25 C39.5625 15.81 39.5625 26.37 39.5625 37.25 C34.9425 35.27 30.3225 33.29 25.5625 31.25 C13.47241541 27.89808466 -0.29234605 26.22668275 -12.4375 30.25 C-15.79314126 32.37247274 -18.64528131 34.66556262 -20.4375 38.25 C-20.84270966 43.5177256 -20.57902481 46.94162311 -17.4375 51.25 C-10.16835812 56.6283999 -2.12265003 60.4938698 6.0625 64.25 C22.58708034 71.83305895 37.13996528 79.63393261 44.73828125 96.92578125 C47.48476164 108.00281829 47.43340726 123.27465315 41.5625 133.25 C34.57104731 144.29472526 23.93720669 151.48222302 11.28930664 154.85644531 C3.52348807 156.5074057 -4.23497498 156.5557095 -12.13452148 156.51074219 C-14.36795294 156.50003379 -16.6005774 156.51068778 -18.83398438 156.5234375 C-33.03086541 156.54311467 -43.69267173 154.15886724 -57.4375 149.25 C-57.4375 137.7 -57.4375 126.15 -57.4375 114.25 C-53.8075 116.56 -50.1775 118.87 -46.4375 121.25 C-42.8722484 122.9587145 -42.8722484 122.9587145 -39.625 124.0625 C-38.58730469 124.44019531 -37.54960937 124.81789063 -36.48046875 125.20703125 C-35.47628906 125.55121094 -34.47210938 125.89539063 -33.4375 126.25 C-32.53128906 126.61738281 -31.62507813 126.98476563 -30.69140625 127.36328125 C-21.06499607 129.9865647 -7.21425734 130.06018121 1.7421875 125.4375 C4.65051054 123.54022488 6.6125593 122.17491104 8.5625 119.25 C9.49511026 114.71297709 9.02244345 111.26987461 7.125 107.0625 C-0.77929051 98.38705919 -12.56900494 93.99059071 -23.0625 89.25 C-37.12199852 82.76486779 -50.14278257 74.33141708 -56.57421875 59.65625 C-57.78162889 54.89217018 -57.76646141 50.33312397 -57.75 45.4375 C-57.76611328 44.49068359 -57.78222656 43.54386719 -57.79882812 42.56835938 C-57.80663737 31.22152522 -54.38952173 23.67374373 -46.76171875 15.44140625 C-33.99498085 3.16674819 -17.12564354 -0.32912675 0 0 Z " fill="#FCFCFC" transform="translate(354.4375,243.75)"/>
<path d="M0 0 C39.93 0 79.86 0 121 0 C121 9.24 121 18.48 121 28 C106.48 28 91.96 28 77 28 C77 68.59 77 109.18 77 151 C65.78 151 54.56 151 43 151 C43 110.41 43 69.82 43 28 C28.81 28 14.62 28 0 28 C0 18.76 0 9.52 0 0 Z " fill="#FEFEFE" transform="translate(163,247)"/>
</svg>
